<?xml version="1.0" encoding="utf-8"?>
<svg version="1.1" xmlns:xlink="http://www.w3.org/1999/xlink" width="30px" height="36px" xmlns="http://www.w3.org/2000/svg">
  <g transform="matrix(1 0 0 1 -4777 -377 )">
    <path d="M 29.1841591282895 15.1193274456522  C 29.1716694078947 7.30684442934783  22.8227282072368 0.980095108695652  15 0.980095108695652  C 7.16478207236842 0.980095108695652  0.815840871710527 7.30271739130435  0.815840871710527 15.1193274456522  C 0.815840871710527 19.0276324728261  2.40203536184211 22.5603770380435  4.9749177631579 25.119140625  L 15 35.1189538043478  L 25.0250822368421 25.119140625  C 27.6895559210526 22.461328125  29.1841591282895 18.8666779891304  29.1841591282895 15.1193274456522  Z M 19.4629934210526 19.5600203804348  C 18.2764699835526 20.7362262228261  16.6694592927632 21.3965523097826  15 21.4048063858696  C 13.3222142269737 21.4048063858696  11.7110402960526 20.7362262228261  10.5370065789474 19.5558933423913  C 9.35880962171053 18.3796875  8.6926912006579 16.7825237771739  8.6926912006579 15.1193274456522  C 8.6926912006579 13.4561311141304  9.34631990131579 11.8589673913043  10.5370065789474 10.682761548913  C 11.7110402960526 9.50655570652174  13.3222142269737 8.84622961956522  15 8.83797554347826  C 16.6777857730263 8.83797554347826  18.2889597039474 9.50655570652174  19.4629934210526 10.6868885869565  C 20.6411903782895 11.8630944293478  21.3073087993421 13.4602581521739  21.3073087993421 15.1234544836957  C 21.3156352796053 16.7866508152174  20.6536800986842 18.3838145380435  19.4629934210526 19.5600203804348  Z " fill-rule="nonzero" fill="#333333" stroke="none" transform="matrix(1 0 0 1 4777 377 )" />
  </g>
</svg>