<?xml version="1.0" encoding="utf-8"?>
<svg version="1.1" xmlns:xlink="http://www.w3.org/1999/xlink" width="25px" height="26px" xmlns="http://www.w3.org/2000/svg">
  <g transform="matrix(1 0 0 1 -2959 -558 )">
    <path d="M 24.3716032608696 11.4980744544288  C 24.7905344202899 11.8874625588361  25 12.3881044073599  25 13  C 25 13.6007702182285  24.7905344202899 14.1069747539581  24.3716032608696 14.5186136071887  L 13.3152173913043 25.382541720154  C 12.8736413043478 25.7941805733847  12.3584692028986 26  11.7697010869565 26  C 11.1922554347826 26  10.6827445652174 25.7941805733847  10.2411684782609 25.382541720154  L 8.96739130434783 24.1309370988447  C 8.53713768115942 23.7081728712024  8.32201086956522 23.2019683354728  8.32201086956522 22.612323491656  C 8.32201086956522 22.0226786478391  8.53713768115942 21.5164741121095  8.96739130434783 21.0937098844673  L 13.9436141304348 16  L 1.98709239130435 16  C 1.39832427536232 16.204107830552  0.91995018115942 15.9955070603338  0.551970108695652 15.5783055198973  C 0.183990036231884 15.1611039794608  0 14.6576807873342  0 14.0680359435173  L 0 11.9319640564827  C 0 11.3423192126658  0.183990036231884 10.8388960205392  0.551970108695652 10.4216944801027  C 0.91995018115942 10.0044929396662  1.39832427536232 9.79589216944801  1.98709239130435 10  L 13.9436141304348 10  L 8.96739130434783 4.88960205391528  C 8.53713768115942 4.48908857509628  8.32201086956522 3.98844672657253  8.32201086956522 3.38767650834403  C 8.32201086956522 2.78690629011553  8.53713768115942 2.28626444159178  8.96739130434783 1.88575096277278  L 10.2411684782609 0.634146341463415  C 10.6714221014493 0.211382113821136  11.1809329710145 0  11.7697010869565 0  C 12.3697916666667 0  12.8849637681159 0.211382113821136  13.3152173913043 0.634146341463415  L 24.3716032608696 11.4980744544288  Z " fill-rule="nonzero" fill="#000000" stroke="none" transform="matrix(1 0 0 1 2959 558 )" />
  </g>
</svg>