<?xml version="1.0" encoding="utf-8"?>
<svg version="1.1" xmlns:xlink="http://www.w3.org/1999/xlink" width="10px" height="75px" preserveAspectRatio="xMidYMin meet" viewBox="776 165  8 75" xmlns="http://www.w3.org/2000/svg">
  <path d="M 706 235  L 775 235  A 5 5 0 0 0 780 230 L 780 175  A 5 5 0 0 1 785 170 L 2015 170  A 5 5 0 0 1 2020 175 L 2020 364  A 5 5 0 0 0 2025 369 " stroke-width="2" stroke="#0099cc" fill="none" />
  <path d="M 707.5 231.5  A 3.5 3.5 0 0 0 704 235 A 3.5 3.5 0 0 0 707.5 238.5 A 3.5 3.5 0 0 0 711 235 A 3.5 3.5 0 0 0 707.5 231.5 Z M 2023 376.6  L 2030 369  L 2023 361.4  L 2023 376.6  Z " fill-rule="nonzero" fill="#0099cc" stroke="none" />
</svg>