<?xml version="1.0" encoding="utf-8"?>
<svg version="1.1" xmlns:xlink="http://www.w3.org/1999/xlink" width="18px" height="18px" xmlns="http://www.w3.org/2000/svg">
  <g transform="matrix(1 0 0 1 -724 -151 )">
    <path d="M 7.94856287304687 17.2062881484375  C 7.87968358007812 17.2751674414062  7.810804265625 17.2751674414062  7.6730236796875 17.2751674414062  C 7.53526507226563 17.2751674414062  7.39748448632812 17.2062881484375  7.32860519335937 17.2062881484375  C 7.12196729296875 17.0685295410156  6.98418670703125 16.7929903691406  6.98418670703125 16.58635246875  L 6.98418670703125 10.5935236152344  L 0.922478539062499 1.84539084960938  C 0.784719931640624 1.63875294921875  0.715840638671874 1.36321375585938  0.853599246093749 1.08767458398438  C 0.991379832031249 0.881036683593751  1.19801773242187 0.743256097656251  1.47355690429687 1  L 16.6278163242187 1  C 16.9033555175781 0.743256097656251  17.1099934179688 0.881014705078126  17.2477520039062 1.08767458398438  C 17.3855325898437 1.294312484375  17.316631296875 1.56985167773438  17.1788727109375 1.77651155664063  L 11.1171865429687 10.5935236152344  L 11.1171865429687 15.2086785449219  C 11.1171865429687 15.4842177382813  10.9794059570312 15.6908556386719  10.7038887636719 15.828636203125  L 7.94856287304687 17.2062881484375  Z " fill-rule="nonzero" fill="#000000" stroke="none" transform="matrix(1 0 0 1 724 151 )" />
  </g>
</svg>