<?xml version="1.0" encoding="utf-8"?>
<svg version="1.1" xmlns:xlink="http://www.w3.org/1999/xlink" width="34px" height="29px" xmlns="http://www.w3.org/2000/svg">
  <g transform="matrix(1 0 0 1 -3247 -563 )">
    <path d="M 18.0533450589744 3.10396776153846  L 18.5525919333333 1  L 30.9656849897436 1  C 32.0817699794872 0.816096715384615  32.9709245461538 1.72381832307692  33 2.83990328461538  L 33 26.2529318641026  C 32.9836632661346 27.367257753418  32.0802011162597 28.2615940300488  30.9656849897436 28  L 20.7208087871795 28  L 23.3697055025641 17.893641025641  L 20.6114696051282 15.8925274846154  L 21.7626256410256 14.9187897435897  C 22.0576351769231 14.6815443102564  22.3155106307692 14.5103150102564  22.6785992794872 14.5103150102564  C 23.0337191691515 14.5186638954929  23.3678090962479 14.6804416857006  23.5945728897436 14.9538608179487  L 23.5925098820513 14.9538608179487  L 30 22.5849113512821  L 30 3.96217729743589  C 30.6337791064915 3.47384261114994  30.2250978764245 3.09435289217118  29.7361348025641 3.10396776153846  L 18.0533450589744 3.10396776153846  Z M 14.3296234512821 1  L 14.3296234512821 0.816096715384615  L 13.8303765487179 3.10603076923077  L 4.15076338205128 3.10603076923077  C 3.66595753333333 3.10603076923077  3.28430184358974 3.4567414  3.2162227025641 3.94154724871795  L 3.2162227025641 22.570470325641  L 11.8540190435897 12.1523018435897  L 11.3877802076923 14.2957626333333  L 18.6804981564103 19.5873670410256  L 16.4627692307692 28  L 2.9294651974359 28  C 1.82293341247485 28.2722227800205  0.92829964261589 27.3739306205502  0.92829964261589 26.2673896215318  C 0.92829964261589 26.2625703222738  0.928316980659547 26.2577510386097  1 26.2529318641026  L 1 2.83990328461538  C 0.928351656410257 1.7258813025641  1.81544324358974 0.818159694871794  2.9294651974359 1  L 14.3296234512821 1  Z M 21.587270325641 8.82467692307692  L 21.5893333333333 8.82467692307692  C 21.588645689918 8.79662438556084  21.5883018294872 8.76856447477231  21.5883018294872 8.74050351052377  C 21.5883018294872 6.84346001864898  23.1261594324842 5.30560241565197  25.023202924359 5.30560241565197  C 26.9202464162338 5.30560241565197  28.4581040192308 6.84346001864898  28.4581040192308 8.74050351052377  C 28.4581040192308 8.76856447477231  28.4577601588 8.79662438556084  28.4570725153846 8.82467692307692  C 28.4570725153846 10.7217204149517  26.9192149123876 12.2595780179487  25.0221714205128 12.2595780179487  C 23.125127928638 12.2595780179487  21.587270325641 10.7217204149517  21.587270325641 8.82467692307692  Z " fill-rule="nonzero" fill="#aaaaaa" stroke="none" transform="matrix(1 0 0 1 3247 563 )" />
  </g>
</svg>