<?xml version="1.0" encoding="utf-8"?>
<svg version="1.1" xmlns:xlink="http://www.w3.org/1999/xlink" width="18px" height="18px" xmlns="http://www.w3.org/2000/svg">
  <g transform="matrix(1 0 0 1 -1272 -226 )">
    <path d="M 17.2499999941406 13.5  C 17.2499999941406 13.914  16.914375 14.2500000058594  16.5000000058594 14.2500000058594  L 10.8750000058594 14.2500000058594  C 10.4606249941406 14.2500000058594  10.125 13.914  10.125 13.5  C 10.125 13.0856250058594  10.4606249941406 12.7499999941406  10.8750000058594 12.7499999941406  L 16.5000000058594 12.7499999941406  C 16.914375 12.7499999941406  17.2499999941406 13.0856250058594  17.2499999941406 13.5  Z M 17.20575 11.25  C 17.20575 11.6643749941406  16.8701250058594 12.0000000058594  16.4557499941406 12.0000000058594  L 10.8750000058594 12.0000000058594  C 10.4606249941406 12.0000000058594  10.125 11.6643749941406  10.125 11.25  C 10.125 10.8356250058594  10.4606249941406 10.4999999941406  10.8750000058594 10.4999999941406  L 14.999625 10.4999999941406  C 14.585625 10.499625  14.2500000058594 10.1640000058594  14.2500000058594 9.75000000585937  L 14.2500000058594 8.397  C 12.8842500058594 8.99062500585937  10.7069999941406 9.37499999414063  8.24999999414062 9.37499999414063  C 5.79299999414063 9.37499999414063  3.61575 8.99062500585937  2.25 8.397  L 2.25 11.25  L 2.741625 11.25  C 3.2805 11.6778749941406  5.62537499414063 12.0000000058594  8.4375 12.0000000058594  C 8.757 12.0000000058594  9.06937500585938 11.9955000058594  9.37499999414063 11.9872499941406  L 9.37499999414063 12.0000000058594  C 9.78937500585937 12.0000000058594  10.125 12.335625  10.125 12.7499999941406  C 10.125 13.1643750058594  9.78937500585937 13.5  9.37499999414063 13.5  C 9.31087499414063 13.5  9.25012499414063 13.4895000058594  9.19049999414062 13.4744999941406  C 8.88150000585937 13.4879999941406  8.57062499414062 13.5  8.24999999414062 13.5  C 5.79299999414063 13.5  3.61575 13.1156249941406  2.25 12.5220000058594  L 2.25 15.75  L 1 15.75  L 1 2.25  L 0.779250005859375 2.25  C 1.07474999414063 0.991875005859375  4.30275000585937 0  8.24999999414062 0  C 12.19725 0  15.4252499941406 0.991875005859375  15.72075 2.25  L 15.75 2.25  L 15.75 2.43750000585937  L 15.75 9.75000000585937  C 15.75 10.1640000058594  15.4143750058594 10.499625  15.0003750058594 10.4999999941406  L 16.4557499941406 10.4999999941406  C 16.8701250058594 10.4999999941406  17.20575 10.8356250058594  17.20575 11.25  Z M 14.2500000058594 2.43750000585937  C 14.2496249941406 1.91962499414062  11.6474999941406 1.49999999414063  8.4375 1.49999999414063  C 5.22750000585937 1.49999999414063  2.62499999414063 1.91962499414062  2.62499999414063 2.43750000585937  C 2.62499999414063 2.955375  5.22750000585937 3.375  8.4375 3.375  C 11.6474999941406 3.375  14.2496249941406 2.955375  14.2500000058594 2.43750000585937  Z M 14.2500000058594 7.12499999414062  L 14.2500000058594 3.89550000585937  C 12.8820000058594 4.48912499414063  10.7073750058594 4.87499999414062  8.24999999414062 4.87499999414062  C 5.792625 4.87499999414062  3.618 4.48912499414063  2.25 3.89550000585937  L 2.25 7.12499999414062  L 2.741625 7.12499999414062  C 3.2805 7.55287500585938  5.62537499414063 7.875  8.4375 7.875  C 11.2496250058594 7.875  13.5945 7.55287500585938  14.133375 7.12499999414062  L 14.2500000058594 7.12499999414062  Z M 2.741625 15.75  C 3.2805 16.1778749941406  5.62537499414063 16.5000000058594  8.4375 16.5000000058594  C 8.757 16.5000000058594  9.06937500585938 16.4955000058594  9.37499999414063 16.4872499941406  L 9.37499999414063 16.5000000058594  C 9.78937500585937 16.5000000058594  10.125 16.835625  10.125 17.2499999941406  C 10.125 17.6643750058594  9.78937500585937 18  9.37499999414063 18  C 9.311625 18  9.250875 17.989875  9.19200000585938 17.9748750058594  C 8.88224999414063 17.9879999941406  8.57100000585937 18  8.24999999414062 18  C 4.30275000585937 18  1.07474999414063 17.0081249941406  0.779250005859375 15.75  L 2.741625 15.75  Z M 10.125 15.75  C 10.125 15.3356250058594  10.4606249941406 14.9999999941406  10.8750000058594 14.9999999941406  L 16.5000000058594 14.9999999941406  C 16.914375 14.9999999941406  17.2499999941406 15.3356250058594  17.2499999941406 15.75  C 17.2499999941406 16.164  16.914375 16.5000000058594  16.5000000058594 16.5000000058594  L 10.8750000058594 16.5000000058594  C 10.4606249941406 16.5000000058594  10.125 16.164  10.125 15.75  Z " fill-rule="nonzero" fill="#000000" stroke="none" transform="matrix(1 0 0 1 1272 226 )" />
  </g>
</svg>