<?xml version="1.0" encoding="utf-8"?>
<svg version="1.1" xmlns:xlink="http://www.w3.org/1999/xlink" width="10px" height="103px" preserveAspectRatio="xMidYMin meet" viewBox="3396 1240  8 103" xmlns="http://www.w3.org/2000/svg">
  <path d="M 3294 1245  L 3395 1245  A 5 5 0 0 1 3400 1250 L 3400 1333  A 5 5 0 0 0 3405 1338 L 3415 1338  " stroke-width="2" stroke="#0099cc" fill="none" />
  <path d="M 3295.5 1241.5  A 3.5 3.5 0 0 0 3292 1245 A 3.5 3.5 0 0 0 3295.5 1248.5 A 3.5 3.5 0 0 0 3299 1245 A 3.5 3.5 0 0 0 3295.5 1241.5 Z M 3409.89289321881 1333.70710678119  L 3414.18578643763 1338  L 3409.89289321881 1342.29289321881  L 3411.30710678119 1343.70710678119  L 3416.30710678119 1338.70710678119  L 3417.01421356237 1338  L 3416.30710678119 1337.29289321881  L 3411.30710678119 1332.29289321881  L 3409.89289321881 1333.70710678119  Z " fill-rule="nonzero" fill="#0099cc" stroke="none" />
</svg>