<?xml version="1.0" encoding="utf-8"?>
<svg version="1.1" xmlns:xlink="http://www.w3.org/1999/xlink" width="13px" height="12px" xmlns="http://www.w3.org/2000/svg">
  <g transform="matrix(1 0 0 1 -512 -329 )">
    <path d="M 7.4097691954023 1.08597701149425  C 7.58632091954023 1.16836781609195  7.72952398467433 1.29195402298851  7.8393783908046 1.45673563218391  C 7.86291862068966 1.495969348659  7.9433477394636 1.63132567049808  8.08066574712644 1.86280459770115  C 8.21798375478927 2.09428352490422  8.39061210727969 2.38657471264368  8.5985508045977 2.73967816091954  C 8.80648950191571 3.0927816091954  9.03993011494253 3.49296551724138  9.29887264367816 3.94022988505747  C 9.55781517241379 4.38749425287356  9.82460444444444 4.84456704980843  10.0992404597701 5.31144827586207  C 10.3738764750958 5.77832950191571  10.6465508045977 6.24128735632184  10.9172634482759 6.70032183908046  C 11.187976091954 7.15935632183908  11.4351485057471 7.58111877394636  11.6587806896552 7.9656091954023  C 11.8824128735632 8.35009961685824  12.0746580842912 8.67966283524904  12.2355163218391 8.95429885057471  C 12.396374559387 9.22893486590038  12.508190651341 9.41725670498084  12.5709645977012 9.51926436781609  C 12.6886657471264 9.71543295019157  12.7612481226054 9.91160153256705  12.7887117241379 10.1077701149425  C 12.8161753256705 10.303938697318  12.804405210728 10.4804904214559  12.7534013793103 10.6374252873563  C 12.7023975478927 10.7943601532567  12.61216 10.9218697318008  12.4826887356322 11.0199540229885  C 12.3532174712644 11.1180383141762  12.1943209195402 11.1631570881226  12.0059990804598 11.1553103448276  C 11.9118381609195 11.1553103448276  11.7117462068966 11.1533486590038  11.4057232183908 11.1494252873563  C 11.0997002298851 11.1455019157088  10.7309032950192 11.1435402298851  10.2993324137931 11.1435402298851  L 8.82806804597701 11.1435402298851  L 7.16848183908046 11.1435402298851  C 6.60351632183908 11.1435402298851  6.04247417624521 11.1455019157088  5.48535540229885 11.1494252873563  C 4.92823662835249 11.1533486590038  4.41035157088123 11.1553103448276  3.93170022988506 11.1553103448276  L 2.67229793103448 11.1553103448276  L 1.87193011494253 11.1553103448276  C 1.5737538697318 11.1553103448276  1.34423662835249 11.10430651341  1.1833783908046 11.0022988505747  C 1.02252015325671 10.9002911877395  0.914627432950193 10.7688582375479  0.859700229885058 10.608  C 0.804773026819924 10.4471417624521  0.79888796934866 10.2725517241379  0.842045057471265 10.0842298850575  C 0.885202145593871 9.89590804597701  0.961707892720308 9.71935632183908  1.07156229885058 9.55457471264368  C 1.12648950191571 9.46826053639847  1.23438222222222 9.29170881226054  1.39524045977012 9.02491954022988  C 1.55609869731801 8.75813026819923  1.75030559386973 8.43445210727969  1.97786114942529 8.05388505747126  C 2.20541670498084 7.67331800766284  2.45651249042146 7.25351724137931  2.73114850574713 6.79448275862069  C 3.0057845210728 6.33544827586207  3.28434390804598 5.86856704980843  3.56682666666667 5.39383908045977  C 3.84930942528736 4.91911111111111  4.12394544061303 4.45811494252874  4.39073471264368 4.01085057471264  C 4.65752398467433 3.56358620689655  4.89684965517242 3.15947892720307  5.10871172413793 2.79852873563218  C 5.32057379310345 2.4375785440613  5.49712551724138 2.13940229885058  5.63836689655172 1.904  L 5.88553931034483 1.49204597701149  C 5.9953937164751 1.31941762452107  6.1385967816092 1.1879846743295  6.31514850574713 1.09774712643678  C 6.49170022988506 1.00750957854406  6.67413701149425 0.962390804597701  6.86245885057471 0.962390804597701  C 7.05078068965517 0.962390804597702  7.23321747126437 1.00358620689655  7.4097691954023 1.08597701149425  Z M 7.54512551724138 6.8592183908046  L 7.54512551724138 3.76367816091954  C 7.54512551724138 3.66951724137931  7.52354697318008 3.58124137931034  7.48038988505747 3.49885057471264  C 7.43723279693487 3.41645977011494  7.38034390804598 3.34191570881226  7.30972321839081 3.2752183908046  C 7.23910252873563 3.20852107279693  7.15867340996169 3.15555555555556  7.06843586206897 3.11632183908046  C 6.97819831417625 3.07708812260536  6.88599908045977 3.05747126436782  6.79183816091954 3.05747126436782  C 6.6113630651341 3.05747126436782  6.44461977011494 3.12809195402299  6.29160827586207 3.26933333333333  C 6.1385967816092 3.41057471264368  6.06209103448276 3.57143295019157  6.06209103448276 3.75190804597701  L 6.06209103448276 6.83567816091954  C 6.06209103448276 7.01615325670498  6.1385967816092 7.17897318007663  6.29160827586207 7.32413793103448  C 6.44461977011494 7.46930268199234  6.6113630651341 7.54188505747126  6.79183816091954 7.54188505747126  C 6.98016 7.54188505747126  7.15278835249042 7.47322605363985  7.30972321839081 7.33590804597701  C 7.46665808429119 7.19859003831418  7.54512551724138 7.03969348659004  7.54512551724138 6.8592183908046  Z M 7.3097232183908 8.44818390804598  C 7.16848183908046 8.30694252873563  6.99585348659004 8.23632183908046  6.79183816091954 8.23632183908046  C 6.58782283524904 8.23632183908046  6.41323279693487 8.30694252873563  6.26806804597701 8.44818390804598  C 6.12290329501916 8.58942528735632  6.05032091954023 8.76205363984674  6.05032091954023 8.96606896551724  C 6.05032091954023 9.17008429118774  6.12290329501916 9.34467432950192  6.26806804597701 9.48983908045977  C 6.41323279693487 9.63500383141762  6.58782283524904 9.70758620689655  6.79183816091954 9.70758620689655  C 6.99585348659004 9.70758620689655  7.16848183908046 9.63500383141762  7.3097232183908 9.48983908045977  C 7.45096459770115 9.34467432950192  7.52158528735632 9.17008429118774  7.52158528735632 8.96606896551724  C 7.52158528735632 8.76205363984674  7.45096459770115 8.58942528735632  7.3097232183908 8.44818390804598  Z " fill-rule="nonzero" fill="#d9001b" stroke="none" transform="matrix(1 0 0 1 512 329 )" />
  </g>
</svg>