<?xml version="1.0" encoding="utf-8"?>
<svg version="1.1" xmlns:xlink="http://www.w3.org/1999/xlink" width="10px" height="919px" preserveAspectRatio="xMidYMin meet" viewBox="1186 264  8 919" xmlns="http://www.w3.org/2000/svg">
  <path d="M 1122 269  L 1185 269  A 5 5 0 0 1 1190 274 L 1190 1173  A 5 5 0 0 0 1195 1178 L 2114 1178  " stroke-width="2" stroke="#0099cc" fill="none" />
  <path d="M 1123.5 265.5  A 3.5 3.5 0 0 0 1120 269 A 3.5 3.5 0 0 0 1123.5 272.5 A 3.5 3.5 0 0 0 1127 269 A 3.5 3.5 0 0 0 1123.5 265.5 Z M 2113 1185.6  L 2120 1178  L 2113 1170.4  L 2113 1185.6  Z " fill-rule="nonzero" fill="#0099cc" stroke="none" />
</svg>