<?xml version="1.0" encoding="utf-8"?>
<svg version="1.1" xmlns:xlink="http://www.w3.org/1999/xlink" width="10px" height="17px" xmlns="http://www.w3.org/2000/svg">
  <g transform="matrix(1 0 0 1 -2488 -323 )">
    <path d="M 1.19454072790298 0.236630155250628  L 10.0680242634315 9.37948729810769  C 10.247111496245 9.55805872667925  10.2875505488158 9.76341586953634  10.1893414211438 9.99555872667919  C 10.0911322934721 10.2336539647744  9.92071057192383 10.3527015838221  9.67807625649912 10.352701583822  L 6.36785095320617 10.3527015838221  L 8.10961871750422 14.6027015838221  C 8.16738879260537 14.7515111076316  8.16738879260538 14.8973444409649  8.10961871750425 15.040201583822  C 8.05184864240337 15.1830587266792  7.95363951473137 15.2872253933458  7.81499133448874 15.3527015838221  L 6.28119584055464 16.0223444409648  C 6.13677065280186 16.0818682504886  5.99523396880424 16.0818682504887  5.85658578856166 16.0223444409648  C 5.71793760831881 15.962820631441  5.61683997689198 15.8616301552507  5.55329289428079 15.7187730123934  L 3.89818024263442 11.6830587266792  L 1.19454072790302 14.4687730123934  C 1.08477758521093 14.5818682504887  0.954794916233334 14.6384158695362  0.804592720970563 14.6384158695363  C 0.735268630849268 14.6384158695362  0.665944540727808 14.6235349171553  0.596620450606685 14.5937730123935  C 0.365540150202226 14.4925825362029  0.25000000000005 14.3169872981077  0.250000000000006 14.0669872981078  L 0.24999999999996 0.638415869536295  C 0.249999999999972 0.388415869536275  0.365540150202283 0.21282063144114  0.596620450606654 0.111630155250622  C 0.665944540727881 0.0818682504886392  0.735268630849161 0.0669872981077525  0.804592720970512 0.0669872981077084  C 0.960571923743514 0.0669872981077853  1.09055459272094 0.123534917155303  1.19454072790298 0.236630155250628  Z " fill-rule="nonzero" fill="#000000" stroke="none" transform="matrix(1 0 0 1 2488 323 )" />
  </g>
</svg>