<?xml version="1.0" encoding="utf-8"?>
<svg version="1.1" xmlns:xlink="http://www.w3.org/1999/xlink" width="19px" height="10px" preserveAspectRatio="xMinYMid meet" viewBox="450 377  19 8" xmlns="http://www.w3.org/2000/svg">
  <path d="M 462 386  L 457.5 386  A 2.5 2.5 0 0 1 455 383.5 A 2.5 2.5 0 0 1 457.5 381 L 459 381  A 5 5 0 0 1 464 386 L 464 2805  A 5 5 0 0 0 469 2810 L 2191 2810  " stroke-width="2" stroke="#0099cc" fill="none" />
  <path d="M 460.5 382.5  A 3.5 3.5 0 0 0 457 386 A 3.5 3.5 0 0 0 460.5 389.5 A 3.5 3.5 0 0 0 464 386 A 3.5 3.5 0 0 0 460.5 382.5 Z M 2190 2817.6  L 2197 2810  L 2190 2802.4  L 2190 2817.6  Z " fill-rule="nonzero" fill="#0099cc" stroke="none" />
</svg>