<?xml version="1.0" encoding="utf-8"?>
<svg version="1.1" xmlns:xlink="http://www.w3.org/1999/xlink" width="580px" height="10px" preserveAspectRatio="xMinYMid meet" viewBox="1355 157  580 8" xmlns="http://www.w3.org/2000/svg">
  <path d="M 1357 161  L 1925 161  A 5 5 0 0 1 1930 166 L 1930 167  A 3 3 0 0 1 1933 170 A 3 3 0 0 1 1930 173 L 1930 1175  A 3 3 0 0 1 1933 1178 A 3 3 0 0 1 1930 1181 L 1930 2807  A 3 3 0 0 1 1933 2810 A 3 3 0 0 1 1930 2813 L 1930 4225  A 5 5 0 0 0 1935 4230 L 2094 4230  " stroke-width="2" stroke="#0099cc" fill="none" />
  <path d="M 1358.5 157.5  A 3.5 3.5 0 0 0 1355 161 A 3.5 3.5 0 0 0 1358.5 164.5 A 3.5 3.5 0 0 0 1362 161 A 3.5 3.5 0 0 0 1358.5 157.5 Z M 2093 4237.6  L 2100 4230  L 2093 4222.4  L 2093 4237.6  Z " fill-rule="nonzero" fill="#0099cc" stroke="none" />
</svg>