<?xml version="1.0" encoding="utf-8"?>
<svg version="1.1" xmlns:xlink="http://www.w3.org/1999/xlink" width="16px" height="16px" xmlns="http://www.w3.org/2000/svg">
  <g transform="matrix(1 0 0 1 -1414 -260 )">
    <path d="M 0.847772609375 4.314504734375  C 0.847772609375 4.314504734375  2.249249546875 2.152338359375  4.466452890625 0.9926309375  C 6.683656234375 -0.168059281249999  9.415848296875 0.166093703125  11.208480796875 1.291403015625  C 13.000130484375 2.41671234375  13.60357146875 3.365117140625  13.60357146875 3.365117140625  L 15.146572015625 2.48649134375  C 15.146572015625 2.48649134375  15.465982953125 2.329242875  15.46598296875 2.69779396875  L 15.46598296875 8.21918065625  C 15.46598296875 8.21918065625  15.46598296875 8.710582109375  15.092517859375 8.535643203125  C 14.77998653125 8.388222765625  11.390299328125 6.45996346875  10.321992578125 5.85259128125  C 9.73525925 5.59018290625  10.251230765625 5.377897484375  10.251230765625 5.37789746875  L 11.740177171875 4.52679015625  C 11.740177171875 4.52679015625  10.89103546875 3.462414609375  9.646806984375 2.8992685625  C 8.316091859375 2.20540971875  7.06989778125 2.122854265625  5.543604875 2.6997595625  C 4.54900834375 3.075190265625  3.376524484375 4.036371515625  2.53229678125 5.4584873125  L 0.848755421875 4.314504734375  Z M 13.000130484375 10.4688165  L 14.68563746875 11.61181628125  C 14.68563746875 11.61181628125  13.28416053125 13.77398265625  11.065974375 14.9356556875  C 8.84877103125 16.095363109375  6.11657896875 15.761210125  4.32394646875 14.635900796875  C 2.53229678125 13.51059146875  1.92983859375 12.562186671875  1.929838609375 12.5621866875  L 0.386838046875 13.44081246875  C 0.386838046875 13.44081246875  0.0664442968750001 13.5980609375  0.0664443125000003 13.229509859375  L 0.0664443125000003 7.709105953125  C 0.0664443125000003 7.709105953125  0.0664443125000003 7.216721703125  0.43990940625 7.392643421875  C 0.752440734375 7.540063859375  4.1421279375 9.46734034375  5.2104346875 10.07569534375  C 5.797168015625 10.337120921875  5.282179296875 10.54940634375  5.282179296875 10.54940634375  L 3.792250109375 11.401496453125  C 3.792250109375 11.401496453125  4.642374625 12.4648891875  5.88562028125 13.0290180625  C 7.21633540625 13.721894109375  8.462529484375 13.804449546875  9.988822390625 13.22754425  C 10.984401734375 12.852113546875  12.15590278125 11.890932296875  13.000130484375 10.4688165  Z " fill-rule="nonzero" fill="#000000" stroke="none" transform="matrix(1 0 0 1 1414 260 )" />
  </g>
</svg>