<?xml version="1.0" encoding="utf-8"?>
<svg version="1.1" xmlns:xlink="http://www.w3.org/1999/xlink" width="18px" height="18px" xmlns="http://www.w3.org/2000/svg">
  <g transform="matrix(1 0 0 1 -750 -226 )">
    <path d="M 18 17.1818181738281  C 18 17.6334545390625  17.6338636347656 18  17.1818181738281 18  L 1.22727273046875 18  C 1.15609090429687 18  1.08859090429688 17.9881363652344  1.02272726953125 17.9709545390625  C 0.956863634765625 17.9881363652344  0.889363634765625 18  0.818181826171875 18  C 0.366136365234375 18  0 17.6334545390625  0 17.1818181738281  L 0 0.818181826171875  C 0 0.366136365234375  0.366136365234375 0  0.818181826171875 0  C 1.27022726953125 0  1.63636363476562 0.366136365234375  1.63636363476562 0.818181826171875  L 1.63636363476562 16.3636363652344  L 17.1818181738281 16.3636363652344  C 17.6338636347656 16.3636363652344  18 16.7297727304688  18 17.1818181738281  Z M 17.5909090957031 3.68181817382813  C 17.5909090957031 4.2549545390625  17.1961363652344 4.73236363476563  16.6651363652344 4.86736363476563  L 14.7530454609375 10.0047272695312  C 14.9886818261719 10.2882272695312  15.1363636347656 10.6478181738281  15.1363636347656 11.0454545390625  C 15.1363636347656 11.9491363652344  14.4036818261719 12.6818181738281  13.5 12.6818181738281  C 12.6613636347656 12.6818181738281  11.9777727304688 12.0485454609375  11.8828636347656 11.2352727304688  C 11.7061363652344 11.1354545390625  11.5437272695313 10.9808181738281  11.4263181738281 10.7770909042969  L 8.89772726953125 6.39777273046875  C 8.71527273046875 6.46609090429688  8.52381817382813 6.51763636523437  8.32090909570313 6.5315454609375  L 6.55322726953125 11.2798636347656  C 7.04781817382812 11.7290454609375  7.36363636523437 12.3705  7.36363636523437 13.0909090957031  C 7.36363636523437 14.4466363652344  6.26481817382813 15.5454545390625  4.90909090429687 15.5454545390625  C 3.55336363476563 15.5454545390625  2.4545454609375 14.4466363652344  2.4545454609375 13.0909090957031  C 2.4545454609375 11.7351818261719  3.55336363476563 10.6363636347656  4.90909090429687 10.6363636347656  C 4.9545 10.6363636347656  4.9970454609375 10.6474090957031  5.0420454609375 10.6498636347656  L 6.7790454609375 5.9825454609375  C 6.38509090429687 5.6094545390625  6.13636363476563 5.085  6.13636363476563 4.5  C 6.13636363476563 3.3705  7.05231817382813 2.4545454609375  8.18181817382813 2.4545454609375  C 9.31131817382813 2.4545454609375  10.2272727304687 3.3705  10.2272727304687 4.5  C 10.2272727304687 4.76018182617187  10.1761363652344 5.00727273046875  10.0873636347656 5.23513636523437  C 10.1397272695312 5.29609090429688  10.1888181738281 5.36113636523437  10.2309545390625 5.43436363476562  L 12.6625909042969 9.6455454609375  C 12.8307272695313 9.54531817382813  13.0176818261719 9.4725  13.2181363652344 9.43731817382812  L 15.21 4.086  C 15.1654090957031 3.95877273046875  15.1363636347656 3.82418182617188  15.1363636347656 3.68181817382813  C 15.1363636347656 3.0039545390625  15.6857727304688 2.4545454609375  16.3636363652344 2.4545454609375  C 17.0415 2.4545454609375  17.5909090957031 3.0039545390625  17.5909090957031 3.68181817382813  Z " fill-rule="nonzero" fill="#000000" stroke="none" transform="matrix(1 0 0 1 750 226 )" />
  </g>
</svg>