<?xml version="1.0" encoding="utf-8"?>
<svg version="1.1" xmlns:xlink="http://www.w3.org/1999/xlink" width="18px" height="18px" xmlns="http://www.w3.org/2000/svg">
  <g transform="matrix(1 0 0 1 -1102 -226 )">
    <path d="M 17.9984533886719 12.74780896875  C 17.9984533886719 13.1621127539062  17.6628860683594 13.4976800917969  17.2485822832031 13.4976800917969  L 11.2496133515625 13.4976800917969  C 10.8353095488281 13.4976800917969  10.4997422285156 13.1621127539062  10.4997422285156 12.74780896875  C 10.2069175605469 12.4549843007813  10.0880629804687 12.0987955195312  10.2346627851563 11.95257065625  L 12.3556732382813 9.831560203125  C 12.5018981191406 9.6849603984375  12.8580868828125 9.8038149609375  13.1509115683594 10.0966396464844  C 13.4437362363281 10.3894643144531  13.5625907988281 10.7456530957031  13.4159909941406 10.8918779589844  L 12.3099311074219 11.9979378457031  L 17.2485822832031 11.9979378457031  C 17.6628860683594 11.9979378457031  17.9984533886719 12.3335051835938  17.9984533886719 12.74780896875  Z M 14.9989689316406 9.37338894140625  L 14.9989689316406 9.74832451171875  L 14.8951117792969 9.74832451171875  C 14.7650091328125 9.97141116796875  14.5258002597656 10.1232600644531  14.2490978085938 10.1232600644531  C 13.972395375 10.1232600644531  13.733186484375 9.97141116796875  13.6030838378906 9.74832451171875  L 13.499226703125 9.74832451171875  L 13.499226703125 8.39555701171875  C 12.1337113886719 8.98907999414063  9.95683554492187 9.37338894140625  7.50025777148437 9.37338894140625  C 5.04367999804687 9.37338894140625  2.86680413671875 8.98907999414063  1.50128883984375 8.39555701171875  L 1.50128883984375 11.2480667402344  L 1.992829359375 11.2480667402344  C 2.5316117578125 11.6758682050781  4.87608379101562 11.9979378457031  7.6877255390625 11.9979378457031  C 8.00717064257812 11.9979378457031  8.31949196484375 11.9934386191406  8.62506444726563 11.9851900488281  L 8.62506444726563 11.9979378457031  C 9.03936823242188 11.9979378457031  9.37493555273437 12.3335051835938  9.37493555273437 12.74780896875  C 9.37493555273437 13.1621127539062  9.03936823242188 13.4976800917969  8.62506444726563 13.4976800917969  C 8.56095046875 13.4976800917969  8.50021089257812 13.487181890625  8.440596140625 13.4721844628906  C 8.13164925585937 13.4856821425781  7.8208276640625 13.4976800917969  7.50025777148437 13.4976800917969  C 5.04367999804687 13.4976800917969  2.86680413671875 13.1133711445312  1.50128883984375 12.5198481445312  L 1.50128883984375 15.7472934257813  L 0 15.7472934257813  L 0 2.2496133515625  L 0.030791583984375 2.2496133515625  C 0.326240806640625 0.99170455078125  3.55368608789063 0  7.50025777148437 0  C 11.4468294550781 0  14.6742747363281 0.99170455078125  14.9697239589844 2.2496133515625  L 14.9989689316406 2.2496133515625  L 14.9989689316406 2.43708111914062  L 14.9989689316406 9.37338894140625  Z M 13.499226703125 2.43708111914062  C 13.4988517617187 1.91929512304687  10.8971739316406 1.49974222851562  7.6877255390625 1.49974222851562  C 4.4782771640625 1.49974222851562  1.87622439257813 1.91929512304687  1.87622439257813 2.43708111914062  C 1.87622439257813 2.9548671328125  4.4782771640625 3.37442002734375  7.6877255390625 3.37442002734375  C 10.8971739316406 3.37442002734375  13.4988517617187 2.9548671328125  13.499226703125 2.43708111914062  Z M 13.499226703125 7.12377560742188  L 13.499226703125 3.894830578125  C 12.1314617753906 4.48835356054687  9.95721048632813 4.87416225585938  7.50025777148437 4.87416225585938  C 5.04330505664063 4.87416225585938  2.86905375 4.48835356054687  1.50128883984375 3.894830578125  L 1.50128883984375 7.12377560742188  L 1.992829359375 7.12377560742188  C 2.5316117578125 7.55157707226562  4.87608379101562 7.87364671289063  7.6877255390625 7.87364671289063  C 10.4993673046875 7.87364671289063  12.8438393378906 7.55157707226562  13.3826217363281 7.12377560742188  L 13.499226703125 7.12377560742188  Z M 1.992829359375 15.7472934257813  C 2.5316117578125 16.1750949082031  4.87608379101562 16.4971645488281  7.6877255390625 16.4971645488281  C 8.00717064257812 16.4971645488281  8.31949196484375 16.4926653222656  8.62506444726563 16.484416734375  L 8.62506444726563 16.4971645488281  C 9.03936823242188 16.4971645488281  9.37493555273437 16.8327318691406  9.37493555273437 17.247035671875  C 9.37493555273437 17.6613394570313  9.03936823242188 17.9969067773437  8.62506444726563 17.9969067773437  C 8.56170033398438 17.9969067773437  8.50096077539063 17.9867835175781  8.44209588867188 17.9717861074219  C 8.13239912109375 17.9849088457031  7.82120260546875 17.9969067773437  7.50025777148437 17.9969067773437  C 3.55368608789063 17.9969067773437  0.326240806640625 17.0052022265625  0.030791583984375 15.7472934257813  L 1.992829359375 15.7472934257813  Z M 10.1248066757813 14.9974223203125  C 10.1248066757813 14.5831185351562  10.4603739960938 14.2475511972656  10.87467778125 14.2475511972656  L 16.9205136679687 14.2475511972656  C 17.334817453125 14.2475511972656  17.6703847734375 14.5831185351562  17.6703847734375 14.9974223203125  C 17.6703847734375 15.0004217988281  17.6696349082031 15.0030463535156  17.6696349082031 15.0060458320312  C 17.9632094414062 15.2999953066406  18.0824389628906 15.6558091640625  17.9347143515625 15.80240896875  L 15.7882082695312 17.9369170839844  C 15.640108734375 18.0842667714844  15.2797956679687 17.9646623261719  14.9832216386719 17.66996296875  C 14.6870225507813 17.3752636289063  14.5670431640625 17.016825234375  14.7151427167969 16.8694755644531  L 15.8436987363281 15.7472934257813  L 10.87467778125 15.7472934257813  C 10.4603739960938 15.7472934257813  10.1248066757813 15.4117261054687  10.1248066757813 14.9974223203125  Z " fill-rule="nonzero" fill="#000000" stroke="none" transform="matrix(1 0 0 1 1102 226 )" />
  </g>
</svg>