<?xml version="1.0" encoding="utf-8"?>
<svg version="1.1" xmlns:xlink="http://www.w3.org/1999/xlink" width="14px" height="14px" xmlns="http://www.w3.org/2000/svg">
  <g transform="matrix(1 0 0 1 -948 -228 )">
    <path d="M 0.741801033203125 3.77519164257813  C 0.741801033203125 3.77519164257813  1.96809335351563 1.88329606445313  3.90814627929687 0.8685520703125  C 5.84819920507812 -0.14705187109375  8.23886725976562 0.145331990234375  9.80742069726563 1.12997763867188  C 11.3751141738281 2.11462330078125  11.9031250351562 2.94447749804688  11.9031250351562 2.94447749804688  L 13.2532505136719 2.17567992578125  C 13.2532505136719 2.17567992578125  13.5327350839844 2.038087515625  13.5327350976562 2.36056972265625  L 13.5327350976562 7.19178307421875  C 13.5327350976562 7.19178307421875  13.5327350976562 7.62175934570313  13.2059531269531 7.46868780273438  C 12.9324882148438 7.33969491992188  9.96651191210938 5.65246803515625  9.03174350585937 5.12101737109375  C 8.51835184375 4.89141004296875  8.96982691992187 4.70566029882812  8.96982691992187 4.70566028515625  L 10.2726550253906 3.96094138671875  C 10.2726550253906 3.96094138671875  9.52965603515625 3.02961278320312  8.44095611132812 2.5368599921875  C 7.27658037695312 1.92973350390625  6.18616055859375 1.85749748242187  4.850654265625 2.3622896171875  C 3.98038230078125 2.69079148242187  2.95445892382812 3.53182507617187  2.21575968359375 4.7761763984375  L 0.742660994140625 3.77519164257813  Z M 11.3751141738281 9.1602144375  L 12.8499327851562 10.1603392460938  C 12.8499327851562 10.1603392460938  11.6236404648437 12.0522348242188  9.682727578125 13.0686987265625  C 7.74267465234375 14.0834427207031  5.35200659765625 13.791058859375  3.78345316015625 12.8064131972656  C 2.21575968359375 11.8217675351563  1.68860876953125 10.9919133378906  1.68860878320312 10.9919133515625  L 0.338483291015625 11.7607109101563  C 0.338483291015625 11.7607109101563  0.0581387597656251 11.8983033203125  0.0581387734375003 11.5758211269531  L 0.0581387734375003 6.74546770898437  C 0.0581387734375003 6.74546770898437  0.0581387734375003 6.31463149023438  0.38492073046875 6.46856299414063  C 0.658385642578125 6.59755587695313  3.6243619453125 8.28392280078125  4.5591303515625 8.81623342578125  C 5.07252201367188 9.04498080664063  4.62190688476563 9.23073055078125  4.62190688476563 9.23073055078125  L 3.31821884570313 9.97630939648437  C 3.31821884570313 9.97630939648437  4.062077796875 10.9067780390625  5.14991774609375 11.4003908046875  C 6.31429348046875 12.0066573457031  7.40471329882813 12.0788933535156  8.74021959179687 11.57410121875  C 9.61135151757813 11.2455993535156  10.6364149335937 10.4045657597656  11.3751141738281 9.1602144375  Z " fill-rule="nonzero" fill="#000000" stroke="none" transform="matrix(1 0 0 1 948 228 )" />
  </g>
</svg>