<?xml version="1.0" encoding="utf-8"?>
<svg version="1.1" xmlns:xlink="http://www.w3.org/1999/xlink" width="22px" height="22px" xmlns="http://www.w3.org/2000/svg">
  <g transform="matrix(1 0 0 1 -2071 -563 )">
    <path d="M 17.14453125 12.5611979166667  C 17.3259548611111 12.3797743055555  17.4166666666667 12.1649305555555  17.4166666666667 11.9166666666667  L 17.4166666666667 10.0833333333333  C 17.4166666666667 9.83506944444445  17.3259548611111 9.62022569444445  17.14453125 9.43880208333332  C 16.9631076388889 9.25737847222223  16.7482638888889 9.16666666666668  16.5 9.16666666666668  L 5.5 9.16666666666668  C 5.25173611111109 9.16666666666668  5.03689236111109 9.25737847222223  4.85546875 9.43880208333332  C 4.67404513888891 9.62022569444445  4.58333333333328 9.83506944444445  4.58333333333328 10.0833333333333  L 4.58333333333328 11.9166666666667  C 4.58333333333328 12.1649305555555  4.67404513888891 12.3797743055555  4.85546875 12.5611979166667  C 5.03689236111109 12.7426215277778  5.25173611111109 12.8333333333333  5.5 12.8333333333333  L 16.5 12.8333333333333  C 16.7482638888889 12.8333333333333  16.9631076388889 12.7426215277778  17.14453125 12.5611979166667  Z M 20.5247395833333 5.478515625  C 21.5082465277778 7.16384548611109  22 9.00434027777777  22 11  C 22 12.9956597222222  21.5082465277778 14.8361545138889  20.5247395833333 16.521484375  C 19.5412326388889 18.2068142361111  18.2068142361111 19.5412326388889  16.521484375 20.5247395833333  C 14.8361545138889 21.5082465277778  12.9956597222222 22  11 22  C 9.00434027777781 22  7.16384548611109 21.5082465277778  5.478515625 20.5247395833333  C 3.79318576388891 19.5412326388889  2.45876736111109 18.2068142361111  1.47526041666672 16.521484375  C 0.491753472222186 14.8361545138889  0 12.9956597222222  0 11  C 0 9.00434027777777  0.491753472222186 7.16384548611109  1.47526041666672 5.478515625  C 2.45876736111109 3.79318576388891  3.79318576388891 2.45876736111109  5.478515625 1.47526041666668  C 7.16384548611109 0.491753472222227  9.00434027777781 0  11 0  C 12.9956597222222 0  14.8361545138889 0.491753472222227  16.521484375 1.47526041666668  C 18.2068142361111 2.45876736111109  19.5412326388889 3.79318576388891  20.5247395833333 5.478515625  Z " fill-rule="nonzero" fill="#000000" stroke="none" transform="matrix(1 0 0 1 2071 563 )" />
  </g>
</svg>