<?xml version="1.0" encoding="utf-8"?>
<svg version="1.1" xmlns:xlink="http://www.w3.org/1999/xlink" width="13px" height="20px" xmlns="http://www.w3.org/2000/svg">
  <g transform="matrix(1 0 0 1 -450 -347 )">
    <path d="M 10.970875 8.62375  L 2.220875 0.484500000000001  C 2.06051543048585 0.341295088569752  1.85304565777852 0.262141416239031  1.63805068529658 0.262141416239031  C 1.15480152919463 0.262141416239031  0.763050685296578 0.653892260137086  0.763050685296578 1.13714141623903  C 0.763050685296578 1.37397139275285  0.859051687275009 1.60068645057434  1.029125 1.7655  L 9.105375 9.27825  L 1.016 17.12175  C 0.846182456138637 17.2864789345331  0.750340331811138 17.5129750530052  0.750340331811138 17.7495625  C 0.750340331811138 18.2326236960328  1.14193880396723 18.6242221681889  1.625 18.6242221681889  C 1.85236786008549 18.6242221681889  2.07080008367655 18.535684605242  2.234 18.377375  L 10.984 9.893375  C 11.1541701822928 9.72869764296997  11.2502463486908 9.50202533208901  11.2502463486908 9.2652205119101  C 11.2502463486908 9.02213194383071  11.1490205120358 8.79002218399171  10.970875 8.624625  Z " fill-rule="nonzero" fill="#d7d7d7" stroke="none" transform="matrix(1 0 0 1 450 347 )" />
  </g>
</svg>