<?xml version="1.0" encoding="utf-8"?>
<svg version="1.1" xmlns:xlink="http://www.w3.org/1999/xlink" width="1738px" height="10px" preserveAspectRatio="xMinYMid meet" viewBox="344 2825  1738 8" xmlns="http://www.w3.org/2000/svg">
  <path d="M 347 405  L 342.5 405  A 2.5 2.5 0 0 1 340 402.5 A 2.5 2.5 0 0 1 342.5 400 L 344 400  A 5 5 0 0 1 349 405 L 349 2824  A 5 5 0 0 0 354 2829 L 2076 2829  " stroke-width="2" stroke="#0099cc" fill="none" />
  <path d="M 345.5 401.5  A 3.5 3.5 0 0 0 342 405 A 3.5 3.5 0 0 0 345.5 408.5 A 3.5 3.5 0 0 0 349 405 A 3.5 3.5 0 0 0 345.5 401.5 Z M 2075 2836.6  L 2082 2829  L 2075 2821.4  L 2075 2836.6  Z " fill-rule="nonzero" fill="#0099cc" stroke="none" />
</svg>