<?xml version="1.0" encoding="utf-8"?>
<svg version="1.1" xmlns:xlink="http://www.w3.org/1999/xlink" width="70px" height="70px" xmlns="http://www.w3.org/2000/svg">
  <defs>
    <mask fill="white" id="clip699">
      <path d="M 35 35  L 35 69.996555670663  C 35.3385092330691 69.9988494794428  35.1694115057014 70  35 70  C 15.4 70  0 54.6  0 35  C 0 15.4  15.4 0  35 0  C 54.6 0  70 15.4  70 35  C 70 35.1694115072946  69.9988494794211 35.3385092362495  69.9965566517972 35  L 35 35  Z " fill-rule="evenodd" />
    </mask>
  </defs>
  <g transform="matrix(1 0 0 1 -243 -334 )">
    <path d="M 35 35  L 35 69.996555670663  C 35.3385092330691 69.9988494794428  35.1694115057014 70  35 70  C 15.4 70  0 54.6  0 35  C 0 15.4  15.4 0  35 0  C 54.6 0  70 15.4  70 35  C 70 35.1694115072946  69.9988494794211 35.3385092362495  69.9965566517972 35  L 35 35  Z " fill-rule="nonzero" fill="#ffffff" stroke="none" transform="matrix(1 0 0 1 243 334 )" />
    <path d="M 35 35  L 35 69.996555670663  C 35.3385092330691 69.9988494794428  35.1694115057014 70  35 70  C 15.4 70  0 54.6  0 35  C 0 15.4  15.4 0  35 0  C 54.6 0  70 15.4  70 35  C 70 35.1694115072946  69.9988494794211 35.3385092362495  69.9965566517972 35  L 35 35  Z " stroke-width="12" stroke="#c9c9c9" fill="none" transform="matrix(1 0 0 1 243 334 )" mask="url(#clip699)" />
  </g>
</svg>