<?xml version="1.0" encoding="utf-8"?>
<svg version="1.1" xmlns:xlink="http://www.w3.org/1999/xlink" width="26px" height="26px" xmlns="http://www.w3.org/2000/svg">
  <g transform="matrix(1 0 0 1 -646 -123 )">
    <path d="M 6.83233986950684 1.79645938354492  L 6.83233986950684 2  L 19.4758940239868 2  L 19.4758940239868 4.94174142791748  L 21.0178981852417 4.94174142791748  L 21.0178981852417 1.78689299108887  C 21.0178981852417 0.915653312316895  20.323427210144 0.192937074401856  19.4507211799316 0.192937074401856  L 6.81942172888184 0.192937074401856  C 5.94818205010986 0.192937074401856  5.22881752624512 0.915827897460937  5.22881752624512 1.78689299108887  L 5.22881752624512 4.94174142791748  L 6.83233986950684 4.94174142791748  L 6.83233986950684 1.79645938354492  Z M 24.1874802503052 6.54529867456055  L 24.1874802503052 7  L 2.08290705041504 7  C 1.21170227502441 6.54529867456055  0.479664036560059 7.23097133630371  0.479664036560059 8.10221101507569  L 0.479664036560059 15.9962974470825  C 0.479664036560059 16.8691431590576  1.21170227502441 17.584841736084  2.08290705041504 17.584841736084  L 5.22878265698242 17.584841736084  L 5.22878262286377 23.8905584642334  C 5.22878262286377 24.7634041762085  5.94818205010986 25.4791027532349  6.81938682550049 25  L 19.4506862424316 25  C 20.3235319544067 25.4791027532349  21.0178632477417 24.7631248809204  21.0178632477417 23.8905584642334  L 21.0178632477417 17.584841736084  L 24.1874453469238 17.584841736084  C 25.0602910588989 17.584841736084  25.7668421864014 16.8688289262695  25.7668421864014 15.9962974470825  L 25.76684222052 8.10221101507568  C 25.76684222052 7.23097133630371  25.0632238300171 6.54529867456055  24.190413055542 6.54529867456055  L 24.1874802503052 6.54529867456055  Z M 19 23.8755455065918  L 19.4758940239868 23.8755455065918  L 7 23.8755455065918  L 7 13  L 19 13  L 19 23.8755455065918  Z M 22.6085023878784 11.2598525753784  C 21.7357963235474 11.2598525753784  21.0296990764771 10.5537203908081  21.0296990764771 9.68118891162109  C 21.0296990764771 8.80994923284912  21.7358312610474 8.10221101507569  22.6085023878784 8.10221101507569  C 23.4813480998535 8.10221101507569  24.1874802844238 8.80994923284912  24.1874802844238 9.68118891162109  C 24.1874802503052 10.5537203908081  23.4813480998535 11.2598525753784  22.6085023878784 11.2598525753784  Z M 8.37423925238037 14.4395596575928  L 14.7268801478271 14.4395596575928  L 14.7268801478271 15.9813193928223  L 8.37423925238037 15.9813194269409  L 8.37423925238037 14.4395596575928  Z M 8.37423925238037 17.584841736084  L 17.8723018739624 17.584841736084  L 17.8723018739624 19.1883640452271  L 8.37423925238037 19.1883640452271  L 8.37423925238037 17.584841736084  Z M 8.37423925238037 20.7302634281006  L 17.8723018739624 20.7302634281006  L 17.8723018739624 22.3336460895996  L 8.37423925238037 22.3336460895996  L 8.37423925238037 20.7302634281006  Z " fill-rule="nonzero" fill="#000000" stroke="none" transform="matrix(1 0 0 1 646 123 )" />
  </g>
</svg>