<?xml version="1.0" encoding="utf-8"?>
<svg version="1.1" xmlns:xlink="http://www.w3.org/1999/xlink" width="20px" height="24px" xmlns="http://www.w3.org/2000/svg">
  <g transform="matrix(1 0 0 1 -364 -124 )">
    <path d="M 5.69669471153846 0.543867187500001  C 5.69669471153846 0.426998697916667  5.75662727029915 0.368564453125001  5.87649238782051 0.368564453125  L 14.5982772435897 0.368564453125  C 14.7181423611111 0.368564453125001  14.7780749198718 0.426998697916667  14.7780749198718 0.5438671875  L 14.7780749198718 3.483798828125  C 14.7780749198718 3.60066731770833  14.7181423611111 3.6591015625  14.5982772435897 3.6591015625  L 5.87649238782051 3.6591015625  C 5.75662727029915 3.6591015625  5.69669471153846 3.60066731770833  5.69669471153846 3.483798828125  L 5.69669471153846 0.543867187500001  Z M 20 3.153583984375  C 19.9865043450338 2.80492923288135  19.697414336053 2.52205439958734  19.3398237179487 2.520341796875  L 15.8542467948718 2.520341796875  L 15.8542467948718 4.08107421875  C 15.853771973239 4.42972897024365  15.5646819642582 4.71260380353767  15.2070913461538 4.71431640625  L 5.26651642628205 4.71431640625  C 4.90892580817774 4.71260380353767  4.61983579919692 4.42972897024365  4.6193609775641 4.08107421875  L 4.6193609775641 2.520341796875  L 1.13581730769231 2.520341796875  C 0.77811317855364 2.52189917046418  0.488847114684855 2.80481928972858  0.488371394230769 3.153583984375  L 0.488371394230769 23.16330078125  C 0.488847114684857 23.5120654758964  0.778113178553641 23.7949855951608  1.13581730769231 23.79654296875  L 19.3398237179487 23.79654296875  C 19.697414336053 23.7948303660377  19.9865043450338 23.5119555327436  20 23.16330078125  L 20 3.153583984375  Z M 6.2479967948718 17.9665234375  L 6.2479967948718 19.4391796875  C 6.24704339366501 19.626483817832  6.09154590290458 19.7780938713234  5.8994391025641 19.7790234375  L 4.3927984775641 19.7790234375  C 4.20069167722362 19.7780938713234  4.0451941864632 19.626483817832  4.04424078525641 19.4391796875  L 4.04424078525641 17.9665234375  C 4.0451941864632 17.779219307168  4.20069167722362 17.6276092536766  4.3927984775641 17.6266796875  L 5.8994391025641 17.6266796875  C 6.09154590290458 17.6276092536766  6.24704339366501 17.779219307168  6.2479967948718 17.9665234375  Z M 6.2479967948718 13.30896484375  L 6.2479967948718 14.78162109375  C 6.24720103922824 14.9689893007602  6.09161162257461 15.1206889819975  5.8994391025641 15.12146484375  L 4.3927984775641 15.12146484375  C 4.2006259575536 15.1206889819975  4.04503654089996 14.9689893007602  4.04424078525641 14.78162109375  L 4.04424078525641 13.30896484375  C 4.0451941864632 13.121660713418  4.20069167722363 12.9700506599266  4.3927984775641 12.96912109375  L 5.8994391025641 12.96912109375  C 6.09154590290458 12.9700506599266  6.24704339366501 13.121660713418  6.2479967948718 13.30896484375  Z M 6.2479967948718 8.65140625  L 6.2479967948718 10.1240625  C 6.24783941640724 10.3119193812119  6.09211050694581 10.4643877166314  5.8994391025641 10.465322265625  L 4.3927984775641 10.465322265625  C 4.20012707318239 10.4643877166314  4.04439816372096 10.3119193812119  4.04424078525641 10.1240625  L 4.04424078525641 8.65140625  C 4.0451941864632 8.46410211966803  4.20069167722363 8.31249206617662  4.3927984775641 8.3115625  L 5.8994391025641 8.3115625  C 6.09154590290458 8.31249206617662  6.24704339366501 8.46410211966803  6.2479967948718 8.65140625  Z M 16.3724358974359 17.9189453125  L 16.3724358974359 19.48619140625  C 16.3721184993583 19.6480841168405  16.2378470793956 19.7793782140127  16.0718048878205 19.78015625  L 8.17871594551282 19.78015625  C 8.01272104945372 19.7793774641834  7.87853324482501 19.6480382304557  7.87837540064103 19.48619140625  L 7.87837540064103 17.9189453125  C 7.87853324482501 17.7570984882943  8.01272104945372 17.6257592545666  8.17871594551282 17.62498046875  L 16.0718048878205 17.62498046875  C 16.2378470793956 17.6257585047373  16.3721184993583 17.7570526019095  16.3724358974359 17.9189453125  Z M 16.3724358974359 13.2608203125  L 16.3724358974359 14.8286328125  C 16.3721184993583 14.9905255230905  16.2378470793956 15.1218196202627  16.0718048878205 15.12259765625  L 8.17871594551282 15.12259765625  C 8.01272104945372 15.1218188704334  7.878533244825 14.9904796367057  7.87837540064103 14.8286328125  L 7.87837540064103 13.2608203125  C 7.878533244825 13.0989734882943  8.01272104945372 12.9676342545666  8.17871594551282 12.96685546875  L 16.0718048878205 12.96685546875  C 16.2378470793956 12.9676335047373  16.3721184993583 13.0989276019095  16.3724358974359 13.2608203125  Z M 16.3724358974359 8.603544921875  L 16.3724358974359 10.17107421875  C 16.3721195539283 10.3330134852134  16.237893987345 10.4643891901294  16.0718048878205 10.465322265625  L 8.17871594551282 10.465322265625  C 8.01267416364385 10.4643883373326  7.87853229594652 10.3329675776381  7.87837540064103 10.17107421875  L 7.87837540064103 8.603544921875  C 7.87837347720656 8.44158759912018  8.01260779431583 8.31007626537781  8.17871594551282 8.309296875  L 16.0718048878205 8.309296875  C 16.2379602032236 8.3100756639391  16.3722780507854 8.44154169053454  16.3724358974359 8.603544921875  Z " fill-rule="nonzero" fill="#000000" stroke="none" transform="matrix(1 0 0 1 364 124 )" />
  </g>
</svg>