<?xml version="1.0" encoding="utf-8"?>
<svg version="1.1" xmlns:xlink="http://www.w3.org/1999/xlink" width="14px" height="14px" xmlns="http://www.w3.org/2000/svg">
  <g transform="matrix(1 0 0 1 -209 -312 )">
    <path d="M 6.98182141699219 13.7253452246094  C 3.23874461503906 13.7253452246094  0.204368525976563 10.6910237  0.204368525976563 6.94789233359375  C 0.204368525976563 3.20481553164063  3.23874461503906 0.170457642578125  6.98182141699219 0.170457642578125  C 10.7248982189453 0.170457642578125  13.7592561080078 3.20483373164063  13.7592561080078 6.94789233359375  C 13.7592561257813 10.6910418822266  10.7248982189453 13.7253452246094  6.98182141699219 13.7253452246094  Z M 8.01840941972656 3.64573918242187  C 8.01840941972656 3.12693593652344  7.48581992265625 2.70641884023437  6.96654377890625 2.70641884023437  C 6.44723127070313 2.70641884023437  5.92997397617188 3.12693593652344  5.92997397617188 3.64573918242187  L 6.20278900800781 7.56290833320313  C 6.20278900800781 8.08171157910156  6.44142941640625 8.50275611992188  6.9597234 8.50275611992188  C 7.47903590820313 8.50275611992188  7.74559438789063 8.08172977910156  7.74559438789063 7.56290833320313  L 8.01840941972656 3.64573918242187  Z M 6.9981175796875 9.01091959960937  C 6.41158344257812 9.01091959960937  5.93708535957031 9.4874547140625  5.93708535957031 10.0739342689453  C 5.93708535957031 10.6604502060547  6.41160164257813 11.1354575513672  6.9981175796875 11.1354575513672  C 7.58459715234375 11.1354575513672  8.06116863125 10.6604502060547  8.06116863125 10.0739342689453  C 8.06116863125 9.48741833183593  7.58459713457031 9.01091959960937  6.9981175796875 9.01091959960937  Z " fill-rule="nonzero" fill="#7f7f7f" stroke="none" transform="matrix(1 0 0 1 209 312 )" />
  </g>
</svg>