<?xml version="1.0" encoding="utf-8"?>
<svg version="1.1" xmlns:xlink="http://www.w3.org/1999/xlink" width="20px" height="21px" preserveAspectRatio="xMidYMin meet" viewBox="1239 145  18 21" xmlns="http://www.w3.org/2000/svg">
  <path d="M 1248 154  L 1248 217  A 3 3 0 0 1 1251 220 A 3 3 0 0 1 1248 223 L 1248 254  A 3 3 0 0 1 1251 257 A 3 3 0 0 1 1248 260 L 1248 285  A 5 5 0 0 0 1253 290 L 1415 290  A 5 5 0 0 1 1420 295 L 1420 2915  A 5 5 0 0 0 1425 2920 L 2304 2920  " stroke-width="2" stroke="#0099cc" fill="none" />
  <path d="M 1248 152  A 3.5 3.5 0 0 0 1244.5 155.5 A 3.5 3.5 0 0 0 1248 159 A 3.5 3.5 0 0 0 1251.5 155.5 A 3.5 3.5 0 0 0 1248 152 Z M 2303 2927.6  L 2310 2920  L 2303 2912.4  L 2303 2927.6  Z " fill-rule="nonzero" fill="#0099cc" stroke="none" />
</svg>