<?xml version="1.0" encoding="utf-8"?>
<svg version="1.1" xmlns:xlink="http://www.w3.org/1999/xlink" width="25px" height="24px" xmlns="http://www.w3.org/2000/svg">
  <g transform="matrix(1 0 0 1 -1235 -128 )">
    <path d="M 24.503702836402 9.12419330855019  C 24.9732946872347 8.64708798810409  25.0382382577642 7.94158115687732  24.6485769282557 7.54568524609665  L 23.2398013523402 6.11690706319703  C 22.8501400228317 5.72101115241636  22.1557435354038 5.78445601784387  21.6886495214121 6.26156133828996  L 11.0903609167813 17.0294225605948  C 10.6207690659485 17.5039900788104  10.55832333226 18.2094969100372  10.9479846617686 18.6053928208178  L 12.354262400843 20.036708805948  C 12.7439237303515 20.4300669144981  13.4383201943623 20.3666220728625  13.9079120686122 19.8895167286245  L 24.503702836402 9.12419330855019  Z M 13.7330640283347 21.1381115241636  C 13.6356486959576 21.2345476996283  13.5282420630507 21.2903791821561  13.4233332435676 21.3639752089219  L 13.4732898164681 21.4071177040892  L 9.06462156133829 23.7723420074349  L 17.98436905424 23.7723420074349  C 18.648791569827 23.7723420074349  19.1833269911893 23.2267162408922  19.1833269911893 22.5542007434944  L 19.1833269911893 15.6260223048327  L 13.7330640283347 21.1381115241636  Z M 9.50174165032345 17.9430284847584  L 9.55669389690601 17.9937843866171  C 9.64411790533618 17.7577695167286  9.76651153587214 17.5268302275093  9.96384001405029 17.328882272119  L 19.1833269911893 8.00502602230483  L 19.1833269911893 1.23672862453532  C 19.1833269911893 0.564213127137547  18.6462937564031 0.0185873605947961  17.98436905424 0  L 1.19895793694933 0  C 0.537033234786172 0.0185873605947961  0 0.564213127137547  0 1.23672862453532  L 0 22.5516629412639  C 0 23.2267162171004  0.537033234786172 23.7698042052045  1.19895793694933 23.7698042052045  L 7.12880407458361 23.7698042052045  L 9.50174165032345 17.9430284847584  Z M 1.798436905424 2.59698636133829  C 1.798436905424 2.18078810408922  2.33547014021017 1.84579925650558  2.99739484237333 2  L 15.5864531803413 2  C 16.2508756959283 1.84579925650558  16.7854111172906 2.18078810408922  16.7854111172906 2.59698636133829  C 16.7854111172906 3.01318461858736  16.2483778825045 3.34563568773234  15.5864531803413 3.34563568773234  L 2.99739484237333 3.34563568773234  C 2.33547014021017 3.34563568773234  1.798436905424 3.0106468401487  1.798436905424 2.59698636133829  Z M 1.798436905424 6.64476826171004  C 1.798436905424 6.21080546022305  2.33547014021017 5.85805204460967  2.99739484237333 6  L 15.5864531803413 6  C 16.2508756959283 5.85805204460967  16.7854111172906 6.21080546022305  16.7854111172906 6.64476828550186  C 16.7854111172906 7.07873111078067  16.2483778825045 7.43148452639405  15.5864531803413 7.43148452639405  L 2.99739484237333 7.43148450260223  C 2.33547014021017 7.43148450260223  1.798436905424 7.07873108698885  1.798436905424 6.64476826171004  Z M 10.790621432544 11.5858537873606  L 2.99739484237333 11.5858537873606  C 2.33547014021017 11.5858537873606  1.798436905424 11.2204114081784  1.798436905424 10.7737596193309  C 1.798436905424 10.3271078304833  2.33547014021017 9.96166545130112  2.99739484237333 9.96166545130112  L 10.790621432544 9.96166545130112  C 11.4525461347071 9.96166545130112  11.9895793694933 10.3245700282528  11.9895793694933 10.7737596193309  C 11.9895793694933 11.2229492104089  11.4525461347071 11.5858537873606  10.790621432544 11.5858537873606  Z M 12.5465952521734 21.3842775791822  L 9.77150718613705 18.6916778111524  L 7.50847408014519 23.9931301115242  L 12.5465952521734 21.3842775791822  Z " fill-rule="nonzero" fill="#000000" stroke="none" transform="matrix(1 0 0 1 1235 128 )" />
  </g>
</svg>