<?xml version="1.0" encoding="utf-8"?>
<svg version="1.1" xmlns:xlink="http://www.w3.org/1999/xlink" width="60px" height="60px" xmlns="http://www.w3.org/2000/svg">
  <defs>
    <mask fill="white" id="clip726">
      <path d="M 30 30  L 30 59.9970477177111  C 30.2901507712021 59.9990138395224  30.1452098620298 60  30 60  C 13.2 60  0 46.8  0 30  C 0 13.2  13.2 0  30 0  C 46.8 0  60 13.2  60 30  C 60 30.1452098633954  59.9990138395038 30.2901507739281  59.9970485586833 30  L 30 30  Z " fill-rule="evenodd" />
    </mask>
  </defs>
  <g transform="matrix(1 0 0 1 -760 -334 )">
    <path d="M 30 30  L 30 59.9970477177111  C 30.2901507712021 59.9990138395224  30.1452098620298 60  30 60  C 13.2 60  0 46.8  0 30  C 0 13.2  13.2 0  30 0  C 46.8 0  60 13.2  60 30  C 60 30.1452098633954  59.9990138395038 30.2901507739281  59.9970485586833 30  L 30 30  Z " fill-rule="nonzero" fill="#ffffff" stroke="none" transform="matrix(1 0 0 1 760 334 )" />
    <path d="M 30 30  L 30 59.9970477177111  C 30.2901507712021 59.9990138395224  30.1452098620298 60  30 60  C 13.2 60  0 46.8  0 30  C 0 13.2  13.2 0  30 0  C 46.8 0  60 13.2  60 30  C 60 30.1452098633954  59.9990138395038 30.2901507739281  59.9970485586833 30  L 30 30  Z " stroke-width="12" stroke="#c9c9c9" fill="none" transform="matrix(1 0 0 1 760 334 )" mask="url(#clip726)" />
  </g>
</svg>