<?xml version="1.0" encoding="utf-8"?>
<svg version="1.1" xmlns:xlink="http://www.w3.org/1999/xlink" width="24px" height="24px" xmlns="http://www.w3.org/2000/svg">
  <g transform="matrix(1 0 0 1 -3576 -185 )">
    <path d="M 23.096643346875 22.223485115625  L 22.19189709 23.07163454625  C 21.85260105 23.41093058625  21.2588912746875 23.41093058625  20.9196470240625 23.07163454625  L 17.300765600625 19.678959114375  C 16.424304796875 20.15960476125  15.40649438625 20.4423298696875  14.3321389640625 20.4423298696875  C 11.137358150625 20.4423298696875  8.3666520525 17.8978038684375  8.2818474571875 14.9008917534375  L 3.7299602184375 14.9008917534375  L 3.7299602184375 13.4872661859375  L 8.4514566478125 13.4872661859375  C 8.592832149375 12.978360980625  8.790726793125 12.49774125375  9.045192343125 12.0736406184375  L 3.7299602184375 12.07364064375  L 3.7299602184375 10.66001507625  L 10.2326637084375 10.66001507625  L 10.2043523353125 10.688300529375  C 11.2504481990625 9.7835542725  12.6358401028125 9.2181299503125  14.16252979875 9.2181299503125  C 17.4138297290625 9.2181299503125  20.24110675875 11.8474864415625  20.24110675875 14.900917648125  C 20.24110675875 15.9469876171875  19.930122091875 16.936538469375  19.3929055134375 17.75645423625  L 22.95526782 21.1491296934375  C 23.3227975490625 21.4883998134375  23.4359134921875 21.91250044875  23.096643346875 22.223485115625  Z M 14.16252979875 10.91448062625  C 11.9007029859375 10.91448062625  10.0912881815625 12.639090860625  10.0912881815625 14.731282588125  C 10.0912881815625 16.8517338740625  12.098623524375 18.7176937153125  14.3321389640625 18.7176937153125  C 16.593939856875 18.7176937153125  18.4034064759375 16.99305758625  18.4034064759375 14.9008917534375  C 18.4034064759375 12.808725920625  16.396071133125 10.91448062625  14.16252979875 10.91448062625  Z M 3.7299602184375 4.977227353125  L 3.7299602184375 5  L 14.3604244425 5  L 14.3604244425 6.390852920625  L 3.7299602184375 6.390852920625  L 3.7299602184375 4.977227353125  Z M 14.3321389640625 8.143774528125  C 13.427418601875 8.398240078125  12.57926917125 8.7374843034375  11.8441838690625 9.24638950875  L 3.7299602184375 9.24638950875  L 3.7299602184375 8  L 14.3604244425 8  L 14.3604244425 8.143748608125  L 14.3321389640625 8.143748608125  Z M 15.85885458 7.8610494196875  L 15.85885458 4  L 2.2032446025 4  L 2.2032446025 17.728142863125  L 8.6211176025 17.728142863125  C 8.932102269375 18.774238726875  9.4975525115625 19.735504100625  10.232663683125 20.555393998125  L 2.2032446025 20.555393998125  C 1.3550692771875 20.555393998125  0.6765289865625 19.9333728496875  1 19.141768430625  L 1 2.121716685  C 0.6765289865625 1.33008637125  1.3550951465625 0.7080911175  2.2032446025 1  L 15.85885458 1  C 16.7070299053125 0.7080911175  17.3855701959375 1.33008637125  17.3855701959375 2.121716685  L 17.3855701959375 7.8610494196875  C 17.1311046459375 7.8327639665625  16.8766908853125 7.7762189296875  16.622199440625 7.7762189296875  C 16.36778568 7.804478488125  16.11332013 7.8610494196875  15.85885458 7.8610494196875  Z " fill-rule="nonzero" fill="#000000" stroke="none" transform="matrix(1 0 0 1 3576 185 )" />
  </g>
</svg>