<?xml version="1.0" encoding="utf-8"?>
<svg version="1.1" xmlns:xlink="http://www.w3.org/1999/xlink" width="6px" height="10px" xmlns="http://www.w3.org/2000/svg">
  <g transform="matrix(1 0 0 1 -1338 -4106 )">
    <path d="M 4.81112856953125 4.10487063550781  L 0.828906347265625 0.21539436871582  C 0.75592492516466 0.14696151388009  0.661503125568188 0.10913661161667  0.563656523842037 0.10913661161667  C 0.343724463494938 0.10913661161667  0.165434301674068 0.296341281528583  0.165434301674068 0.527269944893037  C 0.165434301674068 0.640443097337824  0.209125425129018 0.748782667171202  0.286527680664063 0.82754156878418  L 3.96211879169922 4.41763436878418  L 0.280554347265625 8.16578156868164  C 0.203268496203356 8.24450003553193  0.159649680516458 8.35273498067337  0.159649680516458 8.46579223533691  C 0.159649680516458 8.69663107888974  0.337870496295491 8.88376293545772  0.557717013964843 8.88376293545772  C 0.661194653413872 8.88376293545772  0.760605585407996 8.8414537853672  0.834879680664062 8.76580290199219  L 4.81710190283203 4.71158210206055  C 4.89454824356557 4.63288828238199  4.9382735744013 4.52456914076126  4.9382735744013 4.4114080106982  C 4.9382735744013 4.29524408698786  4.89220457142592 4.18432656977222  4.81112856953125 4.10528876878418  Z " fill-rule="nonzero" fill="#ffffff" stroke="none" transform="matrix(1 0 0 1 1338 4106 )" />
  </g>
</svg>