<?xml version="1.0" encoding="utf-8"?>
<svg version="1.1" xmlns:xlink="http://www.w3.org/1999/xlink" width="238px" height="10px" preserveAspectRatio="xMinYMid meet" viewBox="2055 442  238 8" xmlns="http://www.w3.org/2000/svg">
  <path d="M 1353 240  L 2055 240  A 5 5 0 0 1 2060 245 L 2060 441  A 5 5 0 0 0 2065 446 L 2287 446  " stroke-width="2" stroke="#0099cc" fill="none" />
  <path d="M 1354.5 236.5  A 3.5 3.5 0 0 0 1351 240 A 3.5 3.5 0 0 0 1354.5 243.5 A 3.5 3.5 0 0 0 1358 240 A 3.5 3.5 0 0 0 1354.5 236.5 Z M 2286 453.6  L 2293 446  L 2286 438.4  L 2286 453.6  Z " fill-rule="nonzero" fill="#0099cc" stroke="none" />
</svg>