<?xml version="1.0" encoding="utf-8"?>
<svg version="1.1" xmlns:xlink="http://www.w3.org/1999/xlink" width="13px" height="21px" xmlns="http://www.w3.org/2000/svg">
  <g transform="matrix(1 0 0 1 -1321 -997 )">
    <path d="M 12.2598839918048 19.3697389285951  C 12.2598839918048 19.1286791238889  12.1638689731302 18.896925047855  11.9918628608594 18.7228089959941  L 3.07915564761882 10.3459974760693  L 11.9783646025553 2.32242499606934  C 12.1742949624283 2.14562440681849  12.2855783274068 1.89783792330791  12.2855783274068 1.638374791604  C 12.2855783274068 1.1221988543503  11.853851139985 0.703755580387612  11.3212886650407 0.703755580387612  C 11.0774552972678 0.703755580387612  10.8426749965216 0.793286581911109  10.664212727526 0.954324587138671  L 1.02259955888509 9.64792984950293  C 0.826257639716091 9.82473887511432  0.714704745642187 10.0727788585374  0.714704745642187 10.332539827638  C 0.714704745642187 10.5851360294006  0.820207426904764 10.8269735398003  1.00717297770019 11.0029473307031  L 10.6487861465739 20.0647435501406  C 10.8260482902323 20.2195170596836  11.0561756328617 20.3051682383139  11.2947585135235 20.3051682383139  C 11.8277825968514 20.3051682383139  12.2598839918048 19.8863622708975  12.2598839918048 19.3697389285951  Z " fill-rule="nonzero" fill="#000000" stroke="none" transform="matrix(1 0 0 1 1321 997 )" />
  </g>
</svg>