<?xml version="1.0" encoding="utf-8"?>
<svg version="1.1" xmlns:xlink="http://www.w3.org/1999/xlink" width="16px" height="16px" xmlns="http://www.w3.org/2000/svg">
  <g transform="matrix(1 0 0 1 -1221 -1003 )">
    <path d="M 15.8837209302326 0.590697674418607  C 15.8837209302326 0.269767441860463  15.6232558139535 0.00930232558139746  15.3023255813953 0  L 2.82558139534884 0  C 2.50465116279069 0.00930232558139746  2.24418604651163 0.269767441860463  2.24418604651163 0.590697674418607  L 2.24418604651163 13.0674418604651  C 2.24418604651163 13.3883720930233  2.50465116279069 13.6488372093023  2.82558139534884 13.6488372093023  L 15.3023255813953 13.6488372093023  C 15.6232558139535 13.6488372093023  15.8837209302326 13.3883720930233  15.8837209302326 13.0674418604651  L 15.8837209302326 0.590697674418607  Z M 14.7209302325581 1.17209302325582  L 14.7209302325581 12.4860465116279  L 3.40697674418605 12.4860465116279  L 3.40697674418605 1.17209302325582  L 14.7209302325581 1.17209302325582  Z M 13.7558139534884 15.4093023255814  C 13.7558139534884 15.0883720930233  13.4953488372093 14.8279069767442  13.1744186046512 14.8279069767442  L 1.27906976744186 14.8279069767442  L 1.27906976744186 2.93255813953488  C 1.27906976744186 2.61162790697674  1.01860465116279 2.35116279069767  0.697674418604651 2.35116279069767  C 0.376744186046507 2.35116279069767  0.116279069767442 2.61162790697674  0.116279069767442 2.93255813953488  L 0.116279069767442 15.4093023255814  C 0.116279069767442 15.7302325581395  0.376744186046507 15.9906976744186  0.697674418604651 16  L 13.1744186046512 16  C 13.4953488372093 15.9906976744186  13.7558139534884 15.7302325581395  13.7558139534884 15.4093023255814  Z " fill-rule="nonzero" fill="#000000" stroke="none" transform="matrix(1 0 0 1 1221 1003 )" />
  </g>
</svg>