<?xml version="1.0" encoding="utf-8"?>
<svg version="1.1" xmlns:xlink="http://www.w3.org/1999/xlink" width="19px" height="19px" xmlns="http://www.w3.org/2000/svg">
  <g transform="matrix(1 0 0 1 -441 -1055 )">
    <path d="M 11.9004225097656 7.00823942871094  C 11.9004225097656 9.67535612792969  9.76671916503906 11.8090844482422  7.09960246582031 11.8090844482422  C 4.43248576660156 11.8090844482422  2.298782421875 9.67538110351563  2.298782421875 7.00823942871094  C 2.298782421875 4.34109775390625  4.43248576660156 2.20741938476563  7.09960246582031 2.20741938476563  C 9.76671916503906 2.20741938476563  11.9004225097656 4.34112272949219  11.9004225097656 7.00823942871094  Z M 18.8349708984375 17.1433178222656  L 13.5007125244141 11.8090844482422  L 12.6472411865234 11.8090844482422  L 12.3271831787109 11.4890264404297  C 13.3940348632813 10.3154970947266  14.0341508544922 8.71520708007813  14.0341508544922 7.00823940429688  C 14.0341508544922 3.167593359375  10.9402735107422 0.0737160156250014  7.09962746582032 0.0737160156250014  C 3.25895644531251 0.0737160156250014  0.165104077148442 3.16756838378906  0.165104077148442 7.00823940429688  C 0.165104077148442 10.8489104248047  3.25895644531251 13.9427627929688  7.09962746582032 13.9427627929688  C 8.80659514160157 13.9427627929688  10.40686015625 13.3026468017578  11.5803895019531 12.2357951171875  L 11.9004475097656 12.555853125  L 11.9004475097656 13.4093244628906  L 17.2347058837891 18.7435828369141  L 18.8349708984375 17.1433178222656  Z " fill-rule="nonzero" fill="#7f7f7f" stroke="none" transform="matrix(1 0 0 1 441 1055 )" />
  </g>
</svg>