<?xml version="1.0" encoding="utf-8"?>
<svg version="1.1" xmlns:xlink="http://www.w3.org/1999/xlink" width="14px" height="15px" xmlns="http://www.w3.org/2000/svg">
  <g transform="matrix(1 0 0 1 -3299 -1123 )">
    <path d="M 10.5015625 4.825  L 10.5015625 12.84375  L 3.46875 12.84375  L 3.46875 4.825  L 2.15625 4.825  L 2.15625 14.15625  L 11.8140625 14.15625  L 11.8140625 4.825  L 10.5015625 4.825  Z M 13.5 2.165625  L 9.1765625 2.165625  L 9.1765625 0.171875  L 4.840625 0.171875  L 4.840625 2.165625  L 0.53125 2.165625  L 0.53125 3.478125  L 13.5 3.478125  L 13.5 2.165625  Z M 6.153125 2.165625  L 6.153125 1.484375  L 7.8640625 1.484375  L 7.8640625 2.165625  L 6.153125 2.165625  Z M 4.840625 11.2125  L 4.840625 4.828125  L 6.153125 4.828125  L 6.153125 11.2125  L 4.840625 11.2125  Z M 7.8640625 11.2078125  L 7.8640625 4.825  L 9.1765625 4.825  L 9.1765625 11.2078125  L 7.8640625 11.2078125  Z " fill-rule="nonzero" fill="#000000" stroke="none" transform="matrix(1 0 0 1 3299 1123 )" />
  </g>
</svg>