<?xml version="1.0" encoding="utf-8"?>
<svg version="1.1" xmlns:xlink="http://www.w3.org/1999/xlink" width="409px" height="234px" xmlns="http://www.w3.org/2000/svg">
  <g transform="matrix(1 0 0 1 -5291 -1967 )">
    <path d="M 5291 1967  L 5700 1967  L 5700 2201  L 5291 2201  L 5291 1967  " fill-rule="nonzero" fill="#cccccc" stroke="none" />
    <path d="M 5307 1983  L 5684 1983  L 5684 2185  L 5307 2185  L 5307 1983  " fill-rule="nonzero" fill="#ffffff" stroke="none" />
    <path d="M 5521.23 2037.2  C 5511.402 2037.2  5503.68 2029.478  5503.68 2019.65  C 5503.68 2009.822  5511.402 2002.1  5521.23 2002.1  C 5531.058 2002.1  5538.78 2009.822  5538.78 2019.65  C 5538.78 2029.478  5531.058 2037.2  5521.23 2037.2  " fill-rule="nonzero" fill="#cccccc" stroke="none" />
    <path d="M 5313 2179  L 5313 2074.5  L 5404.25 2027  L 5532 2113.77750611247  L 5605 2055.5  L 5678 2113.77750611247  L 5678 2179  L 5313 2179  " fill-rule="nonzero" fill="#169bd5" stroke="none" />
  </g>
</svg>