<?xml version="1.0" encoding="utf-8"?>
<svg version="1.1" xmlns:xlink="http://www.w3.org/1999/xlink" width="26px" height="26px" xmlns="http://www.w3.org/2000/svg">
  <defs>
    <mask fill="white" id="clip224">
      <path d="M 0 8  C 0 3.52000000000001  3.51999999999998 0  8 0  C 12.48 0  16 3.52000000000001  16 8  C 16 8.87913178754698  15.8644515354172 9.72129581202597  15.6126995679348 10.5071471117538  C 14.5815394279296 13.7259443444196  11.600868212453 16  8 16  C 3.51999999999998 16  0 12.48  0 8  Z " fill-rule="evenodd" />
    </mask>
    <filter x="679px" y="155px" width="26px" height="26px" filterUnits="userSpaceOnUse" id="filter225">
      <feOffset dx="1" dy="1" in="SourceAlpha" result="shadowOffsetInner" />
      <feGaussianBlur stdDeviation="2.5" in="shadowOffsetInner" result="shadowGaussian" />
      <feComposite in2="shadowGaussian" operator="atop" in="SourceAlpha" result="shadowComposite" />
      <feColorMatrix type="matrix" values="0 0 0 0 0  0 0 0 0 0  0 0 0 0 0  0 0 0 0.698039215686274 0  " in="shadowComposite" />
    </filter>
    <g id="widget226">
      <path d="M 0 8  C 0 3.52000000000001  3.51999999999998 0  8 0  C 12.48 0  16 3.52000000000001  16 8  C 16 8.87913178754698  15.8644515354172 9.72129581202597  15.6126995679348 10.5071471117538  C 14.5815394279296 13.7259443444196  11.600868212453 16  8 16  C 3.51999999999998 16  0 12.48  0 8  Z " fill-rule="nonzero" fill="#009dd9" stroke="none" transform="matrix(1 0 0 1 683 159 )" />
      <path d="M 0 8  C 0 3.52000000000001  3.51999999999998 0  8 0  C 12.48 0  16 3.52000000000001  16 8  C 16 8.87913178754698  15.8644515354172 9.72129581202597  15.6126995679348 10.5071471117538  C 14.5815394279296 13.7259443444196  11.600868212453 16  8 16  C 3.51999999999998 16  0 12.48  0 8  Z " stroke-width="2" stroke="#ffffff" fill="none" transform="matrix(1 0 0 1 683 159 )" mask="url(#clip224)" />
    </g>
  </defs>
  <g transform="matrix(1 0 0 1 -679 -155 )">
    <use xlink:href="#widget226" filter="url(#filter225)" />
    <use xlink:href="#widget226" />
  </g>
</svg>