<?xml version="1.0" encoding="utf-8"?>
<svg version="1.1" xmlns:xlink="http://www.w3.org/1999/xlink" width="10px" height="1720px" preserveAspectRatio="xMidYMin meet" viewBox="2120 158  8 1720" xmlns="http://www.w3.org/2000/svg">
  <path d="M 2228 163  L 2129 163  A 5 5 0 0 0 2124 168 L 2124 837  A 3 3 0 0 1 2127 840 A 3 3 0 0 1 2124 843 L 2124 1868  A 5 5 0 0 0 2129 1873 L 2204 1873  " stroke-width="2" stroke="#0099cc" fill="none" />
  <path d="M 2226.5 159.5  A 3.5 3.5 0 0 0 2223 163 A 3.5 3.5 0 0 0 2226.5 166.5 A 3.5 3.5 0 0 0 2230 163 A 3.5 3.5 0 0 0 2226.5 159.5 Z M 2203 1880.6  L 2210 1873  L 2203 1865.4  L 2203 1880.6  Z " fill-rule="nonzero" fill="#0099cc" stroke="none" />
</svg>