<?xml version="1.0" encoding="utf-8"?>
<svg version="1.1" xmlns:xlink="http://www.w3.org/1999/xlink" width="10px" height="19px" preserveAspectRatio="xMidYMin meet" viewBox="2280 1067  8 19" xmlns="http://www.w3.org/2000/svg">
  <path d="M 2284.5 1081  L 2284.5 1077  A 5 5 0 0 1 2289.5 1072.5 L 3562.74193548387 1072.5  A 5 5 0 0 1 3568.24193548387 1077.5 L 3568.24193548387 1267  A 5 5 0 0 0 3573.24193548387 1272.5 L 3659 1272.5  " stroke-width="1" stroke="#006699" fill="none" />
  <path d="M 2284.5 1080  A 3 3 0 0 0 2281.5 1083 A 3 3 0 0 0 2284.5 1086 A 3 3 0 0 0 2287.5 1083 A 3 3 0 0 0 2284.5 1080 Z M 2284.5 1081  A 2 2 0 0 1 2286.5 1083 A 2 2 0 0 1 2284.5 1085 A 2 2 0 0 1 2282.5 1083 A 2 2 0 0 1 2284.5 1081 Z M 3653.94644660941 1267.85355339059  L 3658.59289321881 1272.5  L 3653.94644660941 1277.14644660941  L 3654.65355339059 1277.85355339059  L 3659.65355339059 1272.85355339059  L 3660.00710678119 1272.5  L 3659.65355339059 1272.14644660941  L 3654.65355339059 1267.14644660941  L 3653.94644660941 1267.85355339059  Z " fill-rule="nonzero" fill="#006699" stroke="none" />
</svg>