<?xml version="1.0" encoding="utf-8"?>
<svg version="1.1" xmlns:xlink="http://www.w3.org/1999/xlink" width="15px" height="10px" preserveAspectRatio="xMinYMid meet" viewBox="3645 381  15 8" xmlns="http://www.w3.org/2000/svg">
  <path d="M 2331 212  L 2334 212  A 5 5 0 0 0 2339 207 L 2339 187  A 5 5 0 0 1 2344 182 L 3645 182  A 5 5 0 0 1 3650 187 L 3650 380  A 5 5 0 0 0 3655 385 " stroke-width="2" stroke="#0099cc" fill="none" />
  <path d="M 2332.5 208.5  A 3.5 3.5 0 0 0 2329 212 A 3.5 3.5 0 0 0 2332.5 215.5 A 3.5 3.5 0 0 0 2336 212 A 3.5 3.5 0 0 0 2332.5 208.5 Z M 3653 392.6  L 3660 385  L 3653 377.4  L 3653 392.6  Z " fill-rule="nonzero" fill="#0099cc" stroke="none" />
</svg>