<?xml version="1.0" encoding="utf-8"?>
<svg version="1.1" xmlns:xlink="http://www.w3.org/1999/xlink" width="409px" height="234px" xmlns="http://www.w3.org/2000/svg">
  <g transform="matrix(1 0 0 1 -5291 -3034 )">
    <path d="M 5291 3034  L 5700 3034  L 5700 3268  L 5291 3268  L 5291 3034  " fill-rule="nonzero" fill="#cccccc" stroke="none" />
    <path d="M 5307 3050  L 5684 3050  L 5684 3252  L 5307 3252  L 5307 3050  " fill-rule="nonzero" fill="#ffffff" stroke="none" />
    <path d="M 5521.23 3104.2  C 5511.402 3104.2  5503.68 3096.478  5503.68 3086.65  C 5503.68 3076.822  5511.402 3069.1  5521.23 3069.1  C 5531.058 3069.1  5538.78 3076.822  5538.78 3086.65  C 5538.78 3096.478  5531.058 3104.2  5521.23 3104.2  " fill-rule="nonzero" fill="#cccccc" stroke="none" />
    <path d="M 5313 3246  L 5313 3141.5  L 5404.25 3094  L 5532 3180.77750611247  L 5605 3122.5  L 5678 3180.77750611247  L 5678 3246  L 5313 3246  " fill-rule="nonzero" fill="#169bd5" stroke="none" />
  </g>
</svg>