<?xml version="1.0" encoding="utf-8"?>
<svg version="1.1" xmlns:xlink="http://www.w3.org/1999/xlink" width="21px" height="20px" preserveAspectRatio="xMinYMid meet" viewBox="1178 14  21 18" xmlns="http://www.w3.org/2000/svg">
  <path d="M 1190.31705803038 23.9193953882637  A 2 2 0 0 0 1190 25 L 1190 835  A 5 5 0 0 0 1195 840 L 5954 840  " stroke-width="2" stroke="#0099cc" fill="none" />
  <path d="M 1190 21.8584073464102  A 3.5 3.5 0 0 0 1186.5 25.3584073464102 A 3.5 3.5 0 0 0 1190 28.8584073464102 A 3.5 3.5 0 0 0 1193.5 25.3584073464102 A 3.5 3.5 0 0 0 1190 21.8584073464102 Z M 5953 847.6  L 5960 840  L 5953 832.4  L 5953 847.6  Z " fill-rule="nonzero" fill="#0099cc" stroke="none" />
</svg>