<?xml version="1.0" encoding="utf-8"?>
<svg version="1.1" xmlns:xlink="http://www.w3.org/1999/xlink" width="28px" height="28px" xmlns="http://www.w3.org/2000/svg">
  <g transform="matrix(1 0 0 1 -2745 -1199 )">
    <path d="M 27.95890625 7.02009375  L 13.999875 0.0407500000000001  L 0.0662500000000001 7.007375  L 0 7.007375  L 0 20.9796875  L 13.99990625 27.95921875  L 28 20.9796875  L 28 7.02009375  L 27.95815625 7.02009375  Z M 9.95215625 3.76259375  L 13.999875 1.73165625  L 24.49696875 6.99353125  L 20.49965625 9.00875  L 9.95215625 3.76259375  Z M 8.123 4.75265625  L 18.805875 9.8999375  L 13.999125 12.228125  L 3.50296875 7.02009375  L 8.12296875 4.75265625  Z M 2 20.10765625  L 2 8.785625  L 2.33996875 8.785625  L 1.78515625 8.76521875  L 1.78515625 7.8928125  L 13.12765625 13.56421875  L 13.12765625 25.77896875  L 2 20.10765625  Z M 26.214625 9.63796875  L 26 9.63796875  L 26 20.1076875  L 14.8720625 25.779  L 14.8720625 13.56425  L 26.214625 7.89284375  L 26.214625 9.63796875  Z " fill-rule="nonzero" fill="#aaaaaa" stroke="none" transform="matrix(1 0 0 1 2745 1199 )" />
  </g>
</svg>