<?xml version="1.0" encoding="utf-8"?>
<svg version="1.1" xmlns:xlink="http://www.w3.org/1999/xlink" width="20px" height="20px" preserveAspectRatio="xMinYMid meet" viewBox="1004 2692  20 18" xmlns="http://www.w3.org/2000/svg">
  <path d="M 1011 1895  L 1185 1895  A 5 5 0 0 1 1190 1900 L 1190 2696  A 5 5 0 0 1 1185 2701 L 1015 2701  " stroke-width="2" stroke="#0099cc" fill="none" />
  <path d="M 1012.5 1891.5  A 3.5 3.5 0 0 0 1009 1895 A 3.5 3.5 0 0 0 1012.5 1898.5 A 3.5 3.5 0 0 0 1016 1895 A 3.5 3.5 0 0 0 1012.5 1891.5 Z M 1016 2693.4  L 1009 2701  L 1016 2708.6  L 1016 2693.4  Z " fill-rule="nonzero" fill="#0099cc" stroke="none" />
</svg>