<?xml version="1.0" encoding="utf-8"?>
<svg version="1.1" xmlns:xlink="http://www.w3.org/1999/xlink" width="198px" height="205px" xmlns="http://www.w3.org/2000/svg">
  <g transform="matrix(1 0 0 1 -5293 -2210 )">
    <path d="M 5293 2210  L 5491 2210  L 5491 2415  L 5293 2415  L 5293 2210  " fill-rule="nonzero" fill="#cccccc" stroke="none" />
    <path d="M 5307 2224  L 5477 2224  L 5477 2401  L 5307 2401  L 5307 2224  " fill-rule="nonzero" fill="#ffffff" stroke="none" />
    <path d="M 5410.81 2270.45  C 5402.494 2270.45  5395.96 2263.916  5395.96 2255.6  C 5395.96 2247.284  5402.494 2240.75  5410.81 2240.75  C 5419.126 2240.75  5425.66 2247.284  5425.66 2255.6  C 5425.66 2263.916  5419.126 2270.45  5410.81 2270.45  " fill-rule="nonzero" fill="#cccccc" stroke="none" />
    <path d="M 5312 2396  L 5312 2304.15  L 5352 2262.4  L 5408 2295.8  L 5440 2287.45  L 5472 2295.8  L 5472 2396  L 5312 2396  " fill-rule="nonzero" fill="#169bd5" stroke="none" />
  </g>
</svg>