<?xml version="1.0" encoding="utf-8"?>
<svg version="1.1" xmlns:xlink="http://www.w3.org/1999/xlink" width="20px" height="20px" preserveAspectRatio="xMinYMid meet" viewBox="1845 2858  20 18" xmlns="http://www.w3.org/2000/svg">
  <path d="M 1548 1062  L 1565 1062  A 5 5 0 0 1 1570 1067 L 1570 1785  A 5 5 0 0 0 1575 1790 L 1965 1790  A 5 5 0 0 1 1970 1795 L 1970 2765  A 5 5 0 0 1 1965 2770 L 1860 2770  A 5 5 0 0 0 1855 2775 L 1855 2866  " stroke-width="2" stroke="#0099cc" fill="none" />
  <path d="M 1549.5 1058.5  A 3.5 3.5 0 0 0 1546 1062 A 3.5 3.5 0 0 0 1549.5 1065.5 A 3.5 3.5 0 0 0 1553 1062 A 3.5 3.5 0 0 0 1549.5 1058.5 Z M 1847.4 2865  L 1855 2872  L 1862.6 2865  L 1847.4 2865  Z " fill-rule="nonzero" fill="#0099cc" stroke="none" />
</svg>