<?xml version="1.0" encoding="utf-8"?>
<svg version="1.1" xmlns:xlink="http://www.w3.org/1999/xlink" width="10px" height="216px" preserveAspectRatio="xMidYMin meet" viewBox="1576 2786  8 216" xmlns="http://www.w3.org/2000/svg">
  <path d="M 458.855109409209 2770.64233821767  A 3 3 0 0 1 460 2773 L 460 2786  A 5 5 0 0 0 465 2791 L 1575 2791  A 5 5 0 0 1 1580 2796 L 1580 2992  A 5 5 0 0 0 1585 2997 L 1592 2997  " stroke-width="2" stroke="#0099cc" fill="none" />
  <path d="M 459.758334937761 2768.32034396067  A 3.5 3.5 0 0 0 456.258334937761 2771.82034396067 A 3.5 3.5 0 0 0 459.758334937761 2775.32034396067 A 3.5 3.5 0 0 0 463.258334937761 2771.82034396067 A 3.5 3.5 0 0 0 459.758334937761 2768.32034396067 Z M 1591 3004.6  L 1598 2997  L 1591 2989.4  L 1591 3004.6  Z " fill-rule="nonzero" fill="#0099cc" stroke="none" />
</svg>