<?xml version="1.0" encoding="utf-8"?>
<svg version="1.1" xmlns:xlink="http://www.w3.org/1999/xlink" width="20px" height="20px" preserveAspectRatio="xMinYMid meet" viewBox="185 2151  20 18" xmlns="http://www.w3.org/2000/svg">
  <path d="M 546 248  L 546 865  A 5 5 0 0 1 541 870 L 185 870  A 5 5 0 0 0 180 875 L 180 2155  A 5 5 0 0 0 185 2160 L 194 2160  " stroke-width="2" stroke="#0099cc" fill="none" />
  <path d="M 546 246  A 3.5 3.5 0 0 0 542.5 249.5 A 3.5 3.5 0 0 0 546 253 A 3.5 3.5 0 0 0 549.5 249.5 A 3.5 3.5 0 0 0 546 246 Z M 193 2167.6  L 200 2160  L 193 2152.4  L 193 2167.6  Z " fill-rule="nonzero" fill="#0099cc" stroke="none" />
</svg>