<?xml version="1.0" encoding="utf-8"?>
<svg version="1.1" xmlns:xlink="http://www.w3.org/1999/xlink" width="14px" height="14px" xmlns="http://www.w3.org/2000/svg">
  <g transform="matrix(1 0 0 1 -1040 -3452 )">
    <path d="M 13.1058060546875 6.994862109375  C 13.1057923828125 3.6293318359375  10.3676302734375 0.8911697265625  7.0021 0.8911697265625  C 3.6365697265625 0.8911697265625  0.8984076171875 3.6293318359375  0.8984076171875 6.994862109375  C 0.8984076171875 10.3604060546875  3.6365697265625 13.0985544921875  7.0021 13.0985544921875  C 10.3676439453125 13.0985544921875  13.1058060546875 10.3604060546875  13.1058060546875 6.994862109375  Z M 12.3428333984375 6.9948484375  C 12.3428333984375 9.9398044921875  9.94702734375 12.335610546875  7.0021 12.335610546875  C 4.05717265625 12.335610546875  1.6613666015625 9.9397908203125  1.6613666015625 6.9948484375  C 1.6613666015625 4.04992109375  4.05717265625 1.6541150390625  7.0021 1.6541150390625  C 9.9470423828125 1.6541150390625  12.3428333984375 4.04992109375  12.3428333984375 6.9948484375  Z M 9.672474328125 6.994862109375  C 9.67247421875 6.7840076171875  9.5018560546875 6.613389453125  9.290987890625 6.613389453125  L 4.713226 6.613389453125  C 4.5023578359375 6.613389453125  4.331739671875 6.7840076171875  4.331739671875 6.994862109375  C 4.331739671875 7.2053515625  4.5023578359375 7.3763484375  4.713226 7.3763484375  L 9.290988 7.3763484375  C 9.5018561640625 7.3763484375  9.672474328125 7.2053529296875  9.672474328125 6.994862109375  Z " fill-rule="nonzero" fill="#ffffff" stroke="none" transform="matrix(1 0 0 1 1040 3452 )" />
  </g>
</svg>