<?xml version="1.0" encoding="utf-8"?>
<svg version="1.1" xmlns:xlink="http://www.w3.org/1999/xlink" width="24px" height="18px" xmlns="http://www.w3.org/2000/svg">
  <defs>
    <filter x="924px" y="3429px" width="24px" height="18px" filterUnits="userSpaceOnUse" id="filter281">
      <feOffset dx="2" dy="2" in="SourceAlpha" result="shadowOffsetInner" />
      <feGaussianBlur stdDeviation="2.5" in="shadowOffsetInner" result="shadowGaussian" />
      <feComposite in2="shadowGaussian" operator="atop" in="SourceAlpha" result="shadowComposite" />
      <feColorMatrix type="matrix" values="0 0 0 0 0.788235294117647  0 0 0 0 0.788235294117647  0 0 0 0 0.788235294117647  0 0 0 0.768627450980392 0  " in="shadowComposite" />
    </filter>
    <g id="widget282">
      <path d="M 13.740234375 0.263888888888889  C 13.9134114583333 0.439814814814813  14 0.648148148148146  14 0.888888888888889  C 14 1.12962962962963  13.9134114583333 1.33796296296296  13.740234375 1.51388888888889  L 7.615234375 7.73611111111111  C 7.44205729166667 7.91203703703704  7.23697916666667 8  7 8  C 6.76302083333333 8  6.55794270833333 7.91203703703704  6.384765625 7.73611111111111  L 0.259765625 1.51388888888889  C 0.0865885416666667 1.33796296296296  0 1.12962962962963  0 0.888888888888889  C 0 0.648148148148146  0.0865885416666667 0.439814814814813  0.259765625 0.263888888888889  C 0.432942708333333 0.0879629629629619  0.638020833333333 0  0.875 0  L 13.125 0  C 13.3619791666667 0  13.5670572916667 0.0879629629629619  13.740234375 0.263888888888889  Z " fill-rule="nonzero" fill="#02a7f0" stroke="none" transform="matrix(1 0 0 1 927 3432 )" />
    </g>
  </defs>
  <g transform="matrix(1 0 0 1 -924 -3429 )">
    <use xlink:href="#widget282" filter="url(#filter281)" />
    <use xlink:href="#widget282" />
  </g>
</svg>