<?xml version="1.0" encoding="utf-8"?>
<svg version="1.1" xmlns:xlink="http://www.w3.org/1999/xlink" width="20px" height="20px" xmlns="http://www.w3.org/2000/svg">
  <g transform="matrix(1 0 0 1 -862 -3449 )">
    <path d="M 19.6249936247327 9.995166015625  C 19.6249936247327 9.85242775721767  19.5681770783541 9.71556006092999  19.46708984375 9.61478515625  L 16.4173828125 6.565078125  C 16.3167983754379 6.46539861685605  16.1809185969645 6.40947470299152  16.0393091575795 6.40947470299152  C 15.7426718407759 6.40947470299152  15.5021997825795 6.64994676118787  15.5021997825795 6.94658407799152  C 15.5021997825795 7.08824613778662  15.5581651519374 7.22417202033217  15.65791015625 7.324765625  L 17.79130859375 9.4581640625  L 10.537109375 9.4581640625  L 10.537109375 2.20869140625  L 12.6705078125 4.34208984375  C 12.7706460002118 4.4388065416001  12.9044255820633 4.49286278012687  13.0436440301269 4.49286278012687  C 13.3402813469305 4.49286278012687  13.5807534051269 4.25239072193052  13.5807534051269 3.95575340512687  C 13.5807534051269 3.81653495706329  13.5266971666001 3.68275537521181  13.42998046875 3.5826171875  L 10.3802734375 0.53291015625  C 10.2795071393445 0.431888798089456  10.1426855341251 0.375114099556679  10 0.375114099556679  C 9.85731446587494 0.375114099556679  9.72049286065545 0.431888798089455  9.6197265625 0.53291015625  L 6.57001953125 3.58369140625  C 6.46522810919478 3.68490234820717  6.40604637387687 3.82434017584032  6.40604637387687 3.97002784487313  C 6.40604637387687 4.26666516167678  6.64651843207322 4.50713721987313  6.94315574887687 4.50713721987313  C 7.08884341790968 4.50713721987313  7.22828124554283 4.44795548455522  7.3294921875 4.3431640625  L 9.462890625 2.209765625  L 9.462890625 9.4581640625  L 2.20869140625 9.4581640625  L 4.34208984375 7.324765625  C 4.44386901455995 7.22390213178018  4.50112556382958 7.0865511367761  4.50112556382958 6.94325967200843  C 4.50112556382958 6.64662235520478  4.26065350563323 6.40615029700843  3.96401618882958 6.40615029700843  C 3.82077739030782 6.40615029700843  3.68347238187561 6.46336488510757  3.5826171875 6.565078125  L 0.5318359375 9.615859375  C 0.430748702895924 9.71663427967998  0.373932156517317 9.85350197596766  0.373932156517317 9.996240234375  C 0.373932156517317 10.1389784927823  0.430748702895924 10.27584618907  0.5318359375 10.37662109375  L 3.5826171875 13.426328125  C 3.68382812945717 13.5311195470552  3.82326595709032 13.5903012823731  3.96895362612313 13.5903012823731  C 4.26559094292678 13.5903012823731  4.50606300112313 13.3498292241768  4.50606300112313 13.0531919073731  C 4.50606300112313 12.9075042383403  4.44688126580522 12.7680664107072  4.34208984375 12.66685546875  L 2.20869140625 10.53345703125  L 9.462890625 10.53345703125  L 9.462890625 17.79130859375  L 7.3294921875 15.65791015625  C 7.22935399978819 15.5611934583999  7.09557441793673 15.5071372198732  6.95635596987316 15.5071372198732  C 6.65971865306951 15.5071372198732  6.41924659487316 15.7476092780695  6.41924659487316 16.0442465948732  C 6.41924659487316 16.1834650429367  6.47330283339992 16.3172446247882  6.57001953125 16.4173828125  L 9.62080078125 19.46708984375  C 9.72156707940545 19.5681112019105  9.85838868462494 19.6248859004433  10.00107421875 19.6248859004433  C 10.1437597528751 19.6248859004433  10.2805813580945 19.5681112019105  10.38134765625 19.46708984375  L 13.42998046875 16.4173828125  C 13.5266971666001 16.3172446247882  13.5807534051269 16.1834650429367  13.5807534051269 16.0442465948731  C 13.5807534051269 15.7476092780695  13.3402813469305 15.5071372198731  13.0436440301269 15.5071372198731  C 12.9044255820633 15.5071372198731  12.7706460002118 15.5611934583999  12.6705078125 15.65791015625  L 10.537109375 17.79130859375  L 10.537109375 10.5323828125  L 17.79130859375 10.5323828125  L 15.65791015625 12.66578125  C 15.5611934583999 12.7659194377118  15.5071372198731 12.8996990195633  15.5071372198731 13.0389174676269  C 15.5071372198731 13.3355547844305  15.7476092780695 13.5760268426269  16.0442465948731 13.5760268426269  C 16.1834650429367 13.5760268426269  16.3172446247882 13.5219706041001  16.4173828125 13.42525390625  L 19.46708984375 10.375546875  C 19.5681770783541 10.27477197032  19.6249936247327 10.1379042740323  19.6249936247327 9.995166015625  Z " fill-rule="nonzero" fill="#ffffff" stroke="none" transform="matrix(1 0 0 1 862 3449 )" />
  </g>
</svg>