<?xml version="1.0" encoding="utf-8"?>
<svg version="1.1" xmlns:xlink="http://www.w3.org/1999/xlink" width="34px" height="76px" xmlns="http://www.w3.org/2000/svg">
  <defs>
    <mask fill="white" id="clip15">
      <path d="M 30 72  L 29.6692759295498 0.178082191780504  L 9.12133072407039 0  L 9.12133072407039 28.1624266144813  L 2.66340508806252 28.1624266144813  L 2.66340508806252 32.6634050880625  L 0.119373776907992 32.6634050880625  L 0.119373776907992 66.9099804305283  L 3.64187866927591 67  L 3.64187866927591 71.4109589041095  L 30 72  Z " fill-rule="evenodd" />
    </mask>
    <filter x="1057px" y="4624px" width="34px" height="76px" filterUnits="userSpaceOnUse" id="filter16">
      <feOffset dx="0" dy="0" in="SourceAlpha" result="shadowOffsetInner" />
      <feGaussianBlur stdDeviation="1" in="shadowOffsetInner" result="shadowGaussian" />
      <feComposite in2="shadowGaussian" operator="atop" in="SourceAlpha" result="shadowComposite" />
      <feColorMatrix type="matrix" values="0 0 0 0 0.850980392156863  0 0 0 0 0  0 0 0 0 0.105882352941176  0 0 0 0.349019607843137 0  " in="shadowComposite" />
    </filter>
    <g id="widget17">
      <path d="M 30 72  L 29.6692759295498 0.178082191780504  L 9.12133072407039 0  L 9.12133072407039 28.1624266144813  L 2.66340508806252 28.1624266144813  L 2.66340508806252 32.6634050880625  L 0.119373776907992 32.6634050880625  L 0.119373776907992 66.9099804305283  L 3.64187866927591 67  L 3.64187866927591 71.4109589041095  L 30 72  Z " fill-rule="nonzero" fill="#d8f7c6" stroke="none" transform="matrix(1 0 0 1 1059 4626 )" />
      <path d="M 30 72  L 29.6692759295498 0.178082191780504  L 9.12133072407039 0  L 9.12133072407039 28.1624266144813  L 2.66340508806252 28.1624266144813  L 2.66340508806252 32.6634050880625  L 0.119373776907992 32.6634050880625  L 0.119373776907992 66.9099804305283  L 3.64187866927591 67  L 3.64187866927591 71.4109589041095  L 30 72  Z " stroke-width="2" stroke="#d9001b" fill="none" transform="matrix(1 0 0 1 1059 4626 )" mask="url(#clip15)" />
    </g>
  </defs>
  <g transform="matrix(1 0 0 1 -1057 -4624 )">
    <use xlink:href="#widget17" filter="url(#filter16)" />
    <use xlink:href="#widget17" />
  </g>
</svg>