<?xml version="1.0" encoding="utf-8"?>
<svg version="1.1" xmlns:xlink="http://www.w3.org/1999/xlink" width="8px" height="8px" xmlns="http://www.w3.org/2000/svg">
  <g transform="matrix(1 0 0 1 -1226 -1006 )">
    <path d="M 5.40329581818182 2.61192002272727  C 5.33472269318182 2.54292826136364  5.25988179545455 2.48219270454545  5.18373851136364 2.42627135227273  L 4.37671040909091 3.23222963636364  C 4.46456356818182 3.27120829545455  4.54966078409091 3.32008279545455  4.62236203409091 3.39250496590909  C 4.78299785227273 3.55407105681818  4.861199375 3.75925557954545  4.86190871590909 3.97061482954545  C 4.861199375 4.18091588636364  4.78300947727273 4.38748419318182  4.62236203409091 4.54875957954545  L 4.32114953409091 4.84965811363636  L 2.93498826136364 6.23549378409091  L 2.525991375 6.64378132954545  C 2.36541370454545 6.80332406818182  2.15883376136364 6.88192096590909  1.94886993181818 6.88225819318182  C 1.73680135227273 6.88193259090909  1.53096563636364 6.80332407954545  1.37041121590909 6.64345573863636  C 1.20912420454545 6.48285480681818  1.131573875 6.27697257954545  1.131573875 6.06563659090909  C 1.131573875 5.85391686363636  1.20912420454545 5.64944168181818  1.37041121590909 5.48752672727273  L 1.69090373863636 5.16909244318182  C 1.37176011363636 4.55594597727273  1.446542875 4.05470036363636  1.55844372727273 3.73901039772727  L 0.588756443181818 4.70695340909091  C 0.215458988636364 5.08025086363636  0.0260775795454548 5.57604271590909  0.0267287727272729 6.06564821590909  C 0.0260775795454545 6.55490486363636  0.214819431818182 7.05004552272727  0.588756443181818 7.42437790909091  C 0.962751602272727 7.79905914772727  1.45890394318182 7.98811496590909  1.94886992045455 7.98742888636364  L 1.95023045454545 7.98742888636364  C 2.44019644318182 7.98742888636364  2.932918375 7.79698927272727  3.30691353409091 7.42540121590909  L 5.40329581818182 5.32934452272727  C 5.77795379545455 4.95481445454546  5.96733521590909 4.46023196590909  5.96604445454545 3.97061482954546  C 5.96733521590909 3.47997439772727  5.77724446590909 2.98556632954546  5.40329581818182 2.61192002272727  Z M 7.97325957954546 1.96477188636363  C 7.97386426136364 1.47516638636364  7.78518055681818 0.979723386363636  7.41053420454546 0.605402625  C 7.03648090909091 0.230046931818182  6.54045647727273 0.0419911590909091  6.05113005681818 0.0423400227272727  L 6.04901367045455 0.0423400227272727  C 5.55980353409091 0.0423400227272727  5.06637226136364 0.232756375  4.69308644318182 0.603693238636363  L 2.59669252272727 2.70074997727273  C 2.22136009090909 3.07507073863636  2.03260661363636 3.56883922727273  2.03325780681818 4.05911918181818  C 2.03260661363636 4.549782875  2.22269736363636 5.04487702272727  2.59669252272727 5.41852332954545  C 2.66599826136364 5.48716623863636  2.74011819318182 5.54823902272727  2.81694755681818 5.60449760227273  L 3.62323144318182 4.797481125  C 3.53543642045455 4.759060625  3.45099040909091 4.71036055681818  3.37756818181818 4.63761278409091  C 3.21629279545455 4.47704673863636  3.13881223863637 4.27051331818182  3.13810289772727 4.05910755681818  C 3.13881223863637 3.84951584090909  3.21629279545455 3.64188934090909  3.37756818181818 3.48132329545454  L 5.02864947727273 1.83132345454545  L 5.08767563636364 1.77159957954545  L 5.47329927272727 1.38628990909091  C 5.63451651136364 1.22573548863636  5.84110807954546 1.14798747727273  6.05110679545455 1.14748745454545  C 6.26171019318182 1.14798747727273  6.46830175 1.22573548863636  6.629519 1.38695273863636  C 6.78944547727273 1.54649547727273  6.86768188636364 1.75337776136364  6.86768188636364 1.96477188636364  C 6.86768188636364 2.17578227272727  6.78943385227273 2.38096679545454  6.629519 2.54188169318182  L 6.30908461363637 2.86060669318182  C 6.62822823863637 3.47442761363636  6.55338734090909 3.97502203409091  6.441544625 4.29104921590909  L 7.41051094318182 3.32314109090909  C 7.78444795454546 2.95016923863636  7.973841 2.45508672727273  7.97325957954546 1.96477188636363  Z " fill-rule="nonzero" fill="#000000" stroke="none" transform="matrix(1 0 0 1 1226 1006 )" />
  </g>
</svg>