<?xml version="1.0" encoding="utf-8"?>
<svg version="1.1" xmlns:xlink="http://www.w3.org/1999/xlink" width="15px" height="10px" preserveAspectRatio="xMinYMid meet" viewBox="2329 1039  15 8" xmlns="http://www.w3.org/2000/svg">
  <path d="M 2331 1043  L 2334 1043  A 5 5 0 0 0 2339 1038 L 2339 1018  A 5 5 0 0 1 2344 1013 L 3645 1013  A 5 5 0 0 1 3650 1018 L 3650 1211  A 5 5 0 0 0 3655 1216 " stroke-width="2" stroke="#0099cc" fill="none" />
  <path d="M 2332.5 1039.5  A 3.5 3.5 0 0 0 2329 1043 A 3.5 3.5 0 0 0 2332.5 1046.5 A 3.5 3.5 0 0 0 2336 1043 A 3.5 3.5 0 0 0 2332.5 1039.5 Z M 3653 1223.6  L 3660 1216  L 3653 1208.4  L 3653 1223.6  Z " fill-rule="nonzero" fill="#0099cc" stroke="none" />
</svg>