<?xml version="1.0" encoding="utf-8"?>
<svg version="1.1" xmlns:xlink="http://www.w3.org/1999/xlink" width="4770px" height="10px" preserveAspectRatio="xMinYMid meet" viewBox="1185 1901  4770 8" xmlns="http://www.w3.org/2000/svg">
  <path d="M 1190.31705803038 854.919395388264  A 2 2 0 0 0 1190 856 L 1190 1900  A 5 5 0 0 0 1195 1905 L 5945 1905  A 5 5 0 0 0 5950 1900 L 5950 1676  A 5 5 0 0 1 5955 1671 " stroke-width="2" stroke="#0099cc" fill="none" />
  <path d="M 1190 852.85840734641  A 3.5 3.5 0 0 0 1186.5 856.35840734641 A 3.5 3.5 0 0 0 1190 859.85840734641 A 3.5 3.5 0 0 0 1193.5 856.35840734641 A 3.5 3.5 0 0 0 1190 852.85840734641 Z M 5953 1678.6  L 5960 1671  L 5953 1663.4  L 5953 1678.6  Z " fill-rule="nonzero" fill="#0099cc" stroke="none" />
</svg>