<?xml version="1.0" encoding="utf-8"?>
<svg version="1.1" xmlns:xlink="http://www.w3.org/1999/xlink" width="198px" height="205px" xmlns="http://www.w3.org/2000/svg">
  <g transform="matrix(1 0 0 1 -5293 -3277 )">
    <path d="M 5293 3277  L 5491 3277  L 5491 3482  L 5293 3482  L 5293 3277  " fill-rule="nonzero" fill="#cccccc" stroke="none" />
    <path d="M 5307 3291  L 5477 3291  L 5477 3468  L 5307 3468  L 5307 3291  " fill-rule="nonzero" fill="#ffffff" stroke="none" />
    <path d="M 5410.81 3337.45  C 5402.494 3337.45  5395.96 3330.916  5395.96 3322.6  C 5395.96 3314.284  5402.494 3307.75  5410.81 3307.75  C 5419.126 3307.75  5425.66 3314.284  5425.66 3322.6  C 5425.66 3330.916  5419.126 3337.45  5410.81 3337.45  " fill-rule="nonzero" fill="#cccccc" stroke="none" />
    <path d="M 5312 3463  L 5312 3371.15  L 5352 3329.4  L 5408 3362.8  L 5440 3354.45  L 5472 3362.8  L 5472 3463  L 5312 3463  " fill-rule="nonzero" fill="#169bd5" stroke="none" />
  </g>
</svg>