<?xml version="1.0" encoding="utf-8"?>
<svg version="1.1" xmlns:xlink="http://www.w3.org/1999/xlink" width="20px" height="20px" preserveAspectRatio="xMinYMid meet" viewBox="2195 2931  20 18" xmlns="http://www.w3.org/2000/svg">
  <path d="M 2228 994  L 2142 994  A 5 5 0 0 0 2137 999 L 2137 1902  A 3 3 0 0 1 2140 1905 A 3 3 0 0 1 2137 1908 L 2137 2935  A 5 5 0 0 0 2142 2940 L 2204 2940  " stroke-width="2" stroke="#0099cc" fill="none" />
  <path d="M 2226.5 990.5  A 3.5 3.5 0 0 0 2223 994 A 3.5 3.5 0 0 0 2226.5 997.5 A 3.5 3.5 0 0 0 2230 994 A 3.5 3.5 0 0 0 2226.5 990.5 Z M 2203 2947.6  L 2210 2940  L 2203 2932.4  L 2203 2947.6  Z " fill-rule="nonzero" fill="#0099cc" stroke="none" />
</svg>