<?xml version="1.0" encoding="utf-8"?>
<svg version="1.1" xmlns:xlink="http://www.w3.org/1999/xlink" width="1293.74193548387px" height="10px" preserveAspectRatio="xMinYMid meet" viewBox="2279 2135  1293.74193548387 8" xmlns="http://www.w3.org/2000/svg">
  <path d="M 2284.5 2148  L 2284.5 2144  A 5 5 0 0 1 2289.5 2139.5 L 3562.74193548387 2139.5  A 5 5 0 0 1 3568.24193548387 2144.5 L 3568.24193548387 2334  A 5 5 0 0 0 3573.24193548387 2339.5 L 3659 2339.5  " stroke-width="1" stroke="#006699" fill="none" />
  <path d="M 2284.5 2147  A 3 3 0 0 0 2281.5 2150 A 3 3 0 0 0 2284.5 2153 A 3 3 0 0 0 2287.5 2150 A 3 3 0 0 0 2284.5 2147 Z M 2284.5 2148  A 2 2 0 0 1 2286.5 2150 A 2 2 0 0 1 2284.5 2152 A 2 2 0 0 1 2282.5 2150 A 2 2 0 0 1 2284.5 2148 Z M 3653.94644660941 2334.85355339059  L 3658.59289321881 2339.5  L 3653.94644660941 2344.14644660941  L 3654.65355339059 2344.85355339059  L 3659.65355339059 2339.85355339059  L 3660.00710678119 2339.5  L 3659.65355339059 2339.14644660941  L 3654.65355339059 2334.14644660941  L 3653.94644660941 2334.85355339059  Z " fill-rule="nonzero" fill="#006699" stroke="none" />
</svg>