<?xml version="1.0" encoding="utf-8"?>
<svg version="1.1" xmlns:xlink="http://www.w3.org/1999/xlink" width="21px" height="20px" preserveAspectRatio="xMinYMid meet" viewBox="1002 2953  21 18" xmlns="http://www.w3.org/2000/svg">
  <path d="M 1011 2962  L 1185 2962  A 5 5 0 0 1 1190 2967 L 1190 3763  A 5 5 0 0 1 1185 3768 L 1015 3768  " stroke-width="2" stroke="#0099cc" fill="none" />
  <path d="M 1012.5 2958.5  A 3.5 3.5 0 0 0 1009 2962 A 3.5 3.5 0 0 0 1012.5 2965.5 A 3.5 3.5 0 0 0 1016 2962 A 3.5 3.5 0 0 0 1012.5 2958.5 Z M 1016 3760.4  L 1009 3768  L 1016 3775.6  L 1016 3760.4  Z " fill-rule="nonzero" fill="#0099cc" stroke="none" />
</svg>