<?xml version="1.0" encoding="utf-8"?>
<svg version="1.1" xmlns:xlink="http://www.w3.org/1999/xlink" width="50px" height="49px" xmlns="http://www.w3.org/2000/svg">
  <g transform="matrix(1 0 0 1 -723 -375 )">
    <path d="M 48.5276457589286 20.3436564625  L 25 14.7547531568182  L 25 1.64433515113636  C 25.0001615269981 0.796313381674806  24.311030227931 0.109177622686087  23.4611539657795 0.109177622686087  C 23.3408579511383 0.109177622686087  23.2209764368134 0.123245467923616  23.1039626116071 0.151093281818182  L 1.47235424107143 5.28833697159091  C 0.778929931944457 5.45336298446535  0.289726336921126 6.07179602671132  1 6.78311515795455  L 1 47.3556648488636  C 0.289928962053571 48.2041162038334  0.979238631590075 48.891921925  1.82954520089286 48.891921925  C 1.82954520089286 48.891921925  1.82954525669643 48.891921925  1.82954525669643 48  L 48.1719943638393 48  C 48.1719943889913 48.891921925  48.1719943944909 48.891921925  48.1719944196429 48.891921925  C 49.0223009889457 48.891921925  49.7116106584822 48.2041162038334  49.7116106584822 47.3556648488636  C 49.7116106584822 47.3556648488636  49.7116106584822 47.3556648488636  49 47.3556648488636  L 49 21.8384345931818  C 49.7116436462766 21.1266621300536  49.2216817086878 20.5080758954023  48.5276457589286 20.3436564625  Z M 16.3019380022321 36.2623523897727  L 16.3019380022321 43.6363863886364  L 8.91177996651786 43.6363863886364  L 8.91177996651786 36.2623523897727  L 16.3019380022321 36.2623523897727  Z M 16.3019380022321 24.1428202352273  L 16.3019380022321 31.5168542340909  L 8.91177996651786 31.5168542340909  L 8.91177996651786 24.1428202352273  L 16.3019380022321 24.1428202352273  Z M 16.3019380022321 12.0217518193182  L 16.3019380022321 19.3957858181818  L 8.91177996651786 19.3957858181818  L 8.91177996651786 12.0217518193182  L 16.3019380022321 12.0217518193182  Z M 40.7541232700893 36.2623523897727  L 40.7541232700893 43.6363863886364  L 33.3639652901786 43.6363863886364  L 33.3639652901786 36.2623523897727  L 40.7541232700893 36.2623523897727  Z M 40.7541232700893 24.1428202352273  L 40.7541232700893 31.5168542340909  L 33.3639652901786 31.5168542340909  L 33.3639652901786 24.1428202352273  L 40.7541232700893 24.1428202352273  Z " fill-rule="nonzero" fill="#333333" stroke="none" transform="matrix(1 0 0 1 723 375 )" />
  </g>
</svg>