<?xml version="1.0" encoding="utf-8"?>
<svg version="1.1" xmlns:xlink="http://www.w3.org/1999/xlink" width="16px" height="16px" xmlns="http://www.w3.org/2000/svg">
  <g transform="matrix(1 0 0 1 -1867 -1456 )">
    <path d="M 1875 1456  C 1879.48 1456  1883 1459.52  1883 1464  C 1883 1468.48  1879.48 1472  1875 1472  C 1870.52 1472  1867 1468.48  1867 1464  C 1867 1459.52  1870.52 1456  1875 1456  Z " fill-rule="nonzero" fill="#ffffff" stroke="none" />
    <path d="M 1875 1456.5  C 1879.2 1456.5  1882.5 1459.8  1882.5 1464  C 1882.5 1468.2  1879.2 1471.5  1875 1471.5  C 1870.8 1471.5  1867.5 1468.2  1867.5 1464  C 1867.5 1459.8  1870.8 1456.5  1875 1456.5  Z " stroke-width="1" stroke="#797979" fill="none" />
  </g>
</svg>