<?xml version="1.0" encoding="utf-8"?>
<svg version="1.1" xmlns:xlink="http://www.w3.org/1999/xlink" width="26px" height="26px" xmlns="http://www.w3.org/2000/svg">
  <defs>
    <mask fill="white" id="clip110">
      <path d="M 0 8  C 0 3.51999999999998  3.52000000000044 0  8 0  C 12.4799999999996 0  16 3.51999999999998  16 8  C 16 8.12072834955285  15.9974437391866 8.24075953706557  15.9923813170954 8.36004346300098  C 15.8095868600913 12.667159717055  12.3592716504463 16  8 16  C 3.68773752131528 16  0.264933318383555 12.7386529889067  0.014669265539851 8.49904084105577  C 0.00493454458865017 8.33412925774309  0 8.16773752131553  0 8  Z " fill-rule="evenodd" />
    </mask>
    <filter x="5499px" y="1124px" width="26px" height="26px" filterUnits="userSpaceOnUse" id="filter111">
      <feOffset dx="1" dy="1" in="SourceAlpha" result="shadowOffsetInner" />
      <feGaussianBlur stdDeviation="2.5" in="shadowOffsetInner" result="shadowGaussian" />
      <feComposite in2="shadowGaussian" operator="atop" in="SourceAlpha" result="shadowComposite" />
      <feColorMatrix type="matrix" values="0 0 0 0 0  0 0 0 0 0  0 0 0 0 0  0 0 0 0.698039215686274 0  " in="shadowComposite" />
    </filter>
    <g id="widget112">
      <path d="M 0 8  C 0 3.51999999999998  3.52000000000044 0  8 0  C 12.4799999999996 0  16 3.51999999999998  16 8  C 16 8.12072834955285  15.9974437391866 8.24075953706557  15.9923813170954 8.36004346300098  C 15.8095868600913 12.667159717055  12.3592716504463 16  8 16  C 3.68773752131528 16  0.264933318383555 12.7386529889067  0.014669265539851 8.49904084105577  C 0.00493454458865017 8.33412925774309  0 8.16773752131553  0 8  Z " fill-rule="nonzero" fill="#009dd9" stroke="none" transform="matrix(1 0 0 1 5503 1128 )" />
      <path d="M 0 8  C 0 3.51999999999998  3.52000000000044 0  8 0  C 12.4799999999996 0  16 3.51999999999998  16 8  C 16 8.12072834955285  15.9974437391866 8.24075953706557  15.9923813170954 8.36004346300098  C 15.8095868600913 12.667159717055  12.3592716504463 16  8 16  C 3.68773752131528 16  0.264933318383555 12.7386529889067  0.014669265539851 8.49904084105577  C 0.00493454458865017 8.33412925774309  0 8.16773752131553  0 8  Z " stroke-width="2" stroke="#ffffff" fill="none" transform="matrix(1 0 0 1 5503 1128 )" mask="url(#clip110)" />
    </g>
  </defs>
  <g transform="matrix(1 0 0 1 -5499 -1124 )">
    <use xlink:href="#widget112" filter="url(#filter111)" />
    <use xlink:href="#widget112" />
  </g>
</svg>