<?xml version="1.0" encoding="utf-8"?>
<svg version="1.1" xmlns:xlink="http://www.w3.org/1999/xlink" width="20px" height="20px" preserveAspectRatio="xMinYMid meet" viewBox="1843 5559  20 18" xmlns="http://www.w3.org/2000/svg">
  <path d="M 1279 5387  L 1279 5563  A 5 5 0 0 0 1284 5568 L 1853 5568  " stroke-width="2" stroke="#0099cc" fill="none" />
  <path d="M 1279 5385  A 3.5 3.5 0 0 0 1275.5 5388.5 A 3.5 3.5 0 0 0 1279 5392 A 3.5 3.5 0 0 0 1282.5 5388.5 A 3.5 3.5 0 0 0 1279 5385 Z M 1847.89289321881 5563.70710678119  L 1852.18578643763 5568  L 1847.89289321881 5572.29289321881  L 1849.30710678119 5573.70710678119  L 1854.30710678119 5568.70710678119  L 1855.01421356237 5568  L 1854.30710678119 5567.29289321881  L 1849.30710678119 5562.29289321881  L 1847.89289321881 5563.70710678119  Z " fill-rule="nonzero" fill="#0099cc" stroke="none" />
</svg>