<?xml version="1.0" encoding="utf-8"?>
<svg version="1.1" xmlns:xlink="http://www.w3.org/1999/xlink" width="9px" height="15px" xmlns="http://www.w3.org/2000/svg">
  <g transform="matrix(1 0 0 1 -1627 -7255 )">
    <path d="M 7.69780571125 6.38535432190104  L 1.326250155625 0.335057906891276  C 1.20947988026346 0.228606799369029  1.0584050009091 0.169768062514819  0.90185043814726 0.169768062514819  C 0.549959141591901 0.169768062514819  0.264694882678509 0.46097532682224  0.264694882678509 0.820197692055835  C 0.264694882678509 0.99624481808106  0.334600680206429 1.16477303782187  0.458444289062501 1.28728688477539  L 6.33939006671875 6.87187568477539  L 0.448886955624999 12.7023268846159  C 0.32522959392537 12.8247778330497  0.255439488826332 12.9931433032697  0.255439488826332 13.1690101438574  C 0.255439488826332 13.528092789384  0.540592794072785 13.8191867884898  0.892347222343749 13.8191867884898  C 1.0579114454622 13.8191867884898  1.21696893665279 13.7533725550156  1.3358074890625 13.635693403099  L 7.70736304453125 7.32912771431641  C 7.83127718970491 7.20671510592754  7.90123771904208 7.03821866340641  7.90123771904208 6.86219023886386  C 7.90123771904208 6.68149080198112  7.82752731428147 6.5089524418679  7.69780571125 6.38600475144206  Z " fill-rule="nonzero" fill="#ffffff" stroke="none" transform="matrix(1 0 0 1 1627 7255 )" />
  </g>
</svg>