<?xml version="1.0" encoding="utf-8"?>
<svg version="1.1" xmlns:xlink="http://www.w3.org/1999/xlink" width="184px" height="10px" preserveAspectRatio="xMinYMid meet" viewBox="104 8960  184 8" xmlns="http://www.w3.org/2000/svg">
  <path d="M 733 8100  L 733 8175  A 5 5 0 0 1 728 8180 L 114 8180  A 5 5 0 0 0 109 8185 L 109 8959  A 5 5 0 0 0 114 8964 L 282 8964  " stroke-width="2" stroke="#0099cc" fill="none" />
  <path d="M 733 8098  A 3.5 3.5 0 0 0 729.5 8101.5 A 3.5 3.5 0 0 0 733 8105 A 3.5 3.5 0 0 0 736.5 8101.5 A 3.5 3.5 0 0 0 733 8098 Z M 281 8971.6  L 288 8964  L 281 8956.4  L 281 8971.6  Z " fill-rule="nonzero" fill="#0099cc" stroke="none" />
</svg>