<?xml version="1.0" encoding="utf-8"?>
<svg version="1.1" xmlns:xlink="http://www.w3.org/1999/xlink" width="20px" height="21px" preserveAspectRatio="xMidYMin meet" viewBox="1710 7235  18 21" xmlns="http://www.w3.org/2000/svg">
  <path d="M 1719 7247  L 1719 7235  A 5 5 0 0 1 1724 7230 L 2284 7230  A 5 5 0 0 1 2289 7235 L 2289 7243  " stroke-width="2" stroke="#0099cc" fill="none" />
  <path d="M 1719 7242  A 3.5 3.5 0 0 0 1715.5 7245.5 A 3.5 3.5 0 0 0 1719 7249 A 3.5 3.5 0 0 0 1722.5 7245.5 A 3.5 3.5 0 0 0 1719 7242 Z M 2281.4 7242  L 2289 7249  L 2296.6 7242  L 2281.4 7242  Z " fill-rule="nonzero" fill="#0099cc" stroke="none" />
</svg>