<?xml version="1.0" encoding="utf-8"?>
<svg version="1.1" xmlns:xlink="http://www.w3.org/1999/xlink" width="436px" height="10px" preserveAspectRatio="xMinYMid meet" viewBox="115 1936  436 8" xmlns="http://www.w3.org/2000/svg">
  <path d="M 546 1079  L 546 1935  A 5 5 0 0 1 541 1940 L 125 1940  A 5 5 0 0 0 120 1945 L 120 2986  A 5 5 0 0 0 125 2991 L 194 2991  " stroke-width="2" stroke="#0099cc" fill="none" />
  <path d="M 546 1077  A 3.5 3.5 0 0 0 542.5 1080.5 A 3.5 3.5 0 0 0 546 1084 A 3.5 3.5 0 0 0 549.5 1080.5 A 3.5 3.5 0 0 0 546 1077 Z M 193 2998.6  L 200 2991  L 193 2983.4  L 193 2998.6  Z " fill-rule="nonzero" fill="#0099cc" stroke="none" />
</svg>