<?xml version="1.0" encoding="utf-8"?>
<svg version="1.1" xmlns:xlink="http://www.w3.org/1999/xlink" width="498px" height="10px" preserveAspectRatio="xMinYMid meet" viewBox="1607 1066  498 8" xmlns="http://www.w3.org/2000/svg">
  <path d="M 1612 1079  L 1612 1075  A 5 5 0 0 1 1617 1070 L 2095 1070  A 5 5 0 0 1 2100 1075 L 2100 1185  " stroke-width="2" stroke="#0099cc" fill="none" />
  <path d="M 1612 1074  A 3.5 3.5 0 0 0 1608.5 1077.5 A 3.5 3.5 0 0 0 1612 1081 A 3.5 3.5 0 0 0 1615.5 1077.5 A 3.5 3.5 0 0 0 1612 1074 Z M 2092.4 1184  L 2100 1191  L 2107.6 1184  L 2092.4 1184  Z " fill-rule="nonzero" fill="#0099cc" stroke="none" />
</svg>