<?xml version="1.0" encoding="utf-8"?>
<svg version="1.1" xmlns:xlink="http://www.w3.org/1999/xlink" width="10px" height="31px" preserveAspectRatio="xMidYMin meet" viewBox="456 3832  8 31" xmlns="http://www.w3.org/2000/svg">
  <path d="M 458.855109409209 3837.64233821767  A 3 3 0 0 1 460 3840 L 460 3853  A 5 5 0 0 0 465 3858 L 1575 3858  A 5 5 0 0 1 1580 3863 L 1580 4059  A 5 5 0 0 0 1585 4064 L 1592 4064  " stroke-width="2" stroke="#0099cc" fill="none" />
  <path d="M 459.758334937761 3835.32034396067  A 3.5 3.5 0 0 0 456.258334937761 3838.82034396067 A 3.5 3.5 0 0 0 459.758334937761 3842.32034396067 A 3.5 3.5 0 0 0 463.258334937761 3838.82034396067 A 3.5 3.5 0 0 0 459.758334937761 3835.32034396067 Z M 1591 4071.6  L 1598 4064  L 1591 4056.4  L 1591 4071.6  Z " fill-rule="nonzero" fill="#0099cc" stroke="none" />
</svg>