<?xml version="1.0" encoding="utf-8"?>
<svg version="1.1" xmlns:xlink="http://www.w3.org/1999/xlink" width="6px" height="9px" xmlns="http://www.w3.org/2000/svg">
  <g transform="matrix(1 0 0 1 -648 -8575 )">
    <path d="M 0.690169270833332 0.102769252232143  L 5.75032552083333 4.98220563616071  C 5.8521484375 5.07719029017857  5.875390625 5.18711635044643  5.82005208333333 5.31091657366071  C 5.76360677083333 5.43791852678571  5.66731770833333 5.50088588169643  5.52786458333333 5.50088588169643  L 3.63971354166667 5.50088588169643  L 4.63359375 7.76877790178571  C 4.666796875 7.84775390625  4.666796875 7.92566266741071  4.63359375 8.00250418526785  C 4.600390625 8.07827845982143  4.5439453125 8.13484235491071  4.46536458333333 8.168994140625  L 3.58990885416666 8.52652064732143  C 3.5080078125 8.55853794642857  3.42721354166666 8.55853794642857  3.34752604166667 8.52652064732143  C 3.2689453125 8.49450334821428  3.21028645833333 8.44007393973214  3.17486979166666 8.36429966517857  L 2.23079427083333 6.21060267857143  L 0.690169270833332 7.69940708705357  C 0.628190104166665 7.75917271205357  0.552929687499998 7.79012276785714  0.467708333333331 7.79012276785714  C 0.427864583333331 7.79012276785714  0.389127604166664 7.78158482142857  0.349283854166665 7.765576171875  C 0.217578124999998 7.71114676339286  0.152278645833331 7.61829659598214  0.152278645833331 7.48382393973214  L 0.152278645833331 0.318352399553572  C 0.152278645833331 0.184946986607143  0.217578124999998 0.0910295758928572  0.349283854166665 0.0366001674107144  C 0.389127604166665 0.020591517857143  0.427864583333331 0.0120535714285716  0.467708333333331 0.0120535714285716  C 0.557356770833332 0.0120535714285716  0.630403645833331 0.0419363839285715  0.690169270833332 0.102769252232143  Z " fill-rule="nonzero" fill="#ffffff" stroke="none" transform="matrix(1 0 0 1 648 8575 )" />
  </g>
</svg>