<?xml version="1.0" encoding="utf-8"?>
<svg version="1.1" xmlns:xlink="http://www.w3.org/1999/xlink" width="230px" height="10px" preserveAspectRatio="xMinYMid meet" viewBox="2015 8381  230 8" xmlns="http://www.w3.org/2000/svg">
  <path d="M 1728 7572  L 1728 7615  A 5 5 0 0 0 1733 7620 L 2015 7620  A 5 5 0 0 1 2020 7625 L 2020 8380  A 5 5 0 0 0 2025 8385 L 2239 8385  " stroke-width="2" stroke="#0099cc" fill="none" />
  <path d="M 1728 7570  A 3.5 3.5 0 0 0 1724.5 7573.5 A 3.5 3.5 0 0 0 1728 7577 A 3.5 3.5 0 0 0 1731.5 7573.5 A 3.5 3.5 0 0 0 1728 7570 Z M 2238 8392.6  L 2245 8385  L 2238 8377.4  L 2238 8392.6  Z " fill-rule="nonzero" fill="#0099cc" stroke="none" />
</svg>