<?xml version="1.0" encoding="utf-8"?>
<svg version="1.1" xmlns:xlink="http://www.w3.org/1999/xlink" width="21px" height="20px" preserveAspectRatio="xMinYMid meet" viewBox="1501 7281  21 18" xmlns="http://www.w3.org/2000/svg">
  <path d="M 1513 7290  L 1465 7290  A 5 5 0 0 0 1460 7295 L 1460 7545  A 5 5 0 0 0 1465 7550 L 1470 7550  " stroke-width="2" stroke="#0099cc" fill="none" />
  <path d="M 1511.5 7286.5  A 3.5 3.5 0 0 0 1508 7290 A 3.5 3.5 0 0 0 1511.5 7293.5 A 3.5 3.5 0 0 0 1515 7290 A 3.5 3.5 0 0 0 1511.5 7286.5 Z M 1469 7557.6  L 1476 7550  L 1469 7542.4  L 1469 7557.6  Z " fill-rule="nonzero" fill="#0099cc" stroke="none" />
</svg>