<?xml version="1.0" encoding="utf-8"?>
<svg version="1.1" xmlns:xlink="http://www.w3.org/1999/xlink" width="10px" height="30px" preserveAspectRatio="xMidYMin meet" viewBox="1724 7605  8 30" xmlns="http://www.w3.org/2000/svg">
  <path d="M 1728 7612  L 1728 7625  A 5 5 0 0 0 1733 7630 L 1825 7630  A 5 5 0 0 0 1830 7625 A 5 5 0 0 1 1835 7620 L 2225 7620  A 5 5 0 0 1 2230 7625 L 2230 8380  A 5 5 0 0 0 2235 8385 L 2239 8385  " stroke-width="2" stroke="#0099cc" fill="none" />
  <path d="M 1728 7610  A 3.5 3.5 0 0 0 1724.5 7613.5 A 3.5 3.5 0 0 0 1728 7617 A 3.5 3.5 0 0 0 1731.5 7613.5 A 3.5 3.5 0 0 0 1728 7610 Z M 2238 8392.6  L 2245 8385  L 2238 8377.4  L 2238 8392.6  Z " fill-rule="nonzero" fill="#0099cc" stroke="none" />
</svg>