<?xml version="1.0" encoding="utf-8"?>
<svg version="1.1" xmlns:xlink="http://www.w3.org/1999/xlink" width="16px" height="16px" xmlns="http://www.w3.org/2000/svg">
  <g transform="matrix(1 0 0 1 -1497 -10094 )">
    <path d="M 7.9800135546875 0.8575026171875  C 4.0352680859375 0.8575026171875  0.837516171874999 4.0553344921875  0.837516171874999 8  C 0.837516171874999 11.9446655078125  4.035348046875 15.1424973828125  7.9800135546875 15.1424973828125  C 11.9246790625 15.1424973828125  15.1225109375 11.9446655078125  15.1225109375 8  C 15.1225109375 4.0553344921875  11.9247590039063 0.8575026171875  7.9800135546875 0.8575026171875  Z M 7.384557265625 4.42874130859375  C 7.384557265625 4.10006416015625  7.6507967578125 3.83352486328125  7.9797737109375 3.83352486328125  C 8.30877064453125 3.83352486328125  8.5749301953125 4.100064140625  8.5749301953125 4.42874130859375  L 8.5749301953125 8.66119169921875  C 8.5749301953125 8.98986884765625  8.30877064453125 9.25640814453125  7.9797737109375 9.25640814453125  C 7.6507967578125 9.25640814453125  7.384557265625 8.9898688671875  7.384557265625 8.66119169921875  L 7.384557265625 4.42874130859375  Z M 7.9800135546875 11.5712386914063  C 7.5178269140625 11.5712386914063  7.1431609375 11.19665265625  7.1431609375 10.734466015625  C 7.1431609375 10.272279375  7.5178269140625 9.8976133984375  7.9800135546875 9.8976133984375  C 8.4422001953125 9.8976133984375  8.816866171875 10.272279375  8.816866171875 10.734466015625  C 8.816866171875 11.1965727148438  8.4422001953125 11.5712386914063  7.9800135546875 11.5712386914063  Z " fill-rule="nonzero" fill="#f59a23" stroke="none" transform="matrix(1 0 0 1 1497 10094 )" />
  </g>
</svg>