<?xml version="1.0" encoding="utf-8"?>
<svg version="1.1" xmlns:xlink="http://www.w3.org/1999/xlink" width="30px" height="30px" xmlns="http://www.w3.org/2000/svg">
  <defs>
    <filter x="461px" y="9824px" width="30px" height="30px" filterUnits="userSpaceOnUse" id="filter149">
      <feOffset dx="1" dy="1" in="SourceAlpha" result="shadowOffsetInner" />
      <feGaussianBlur stdDeviation="2.5" in="shadowOffsetInner" result="shadowGaussian" />
      <feComposite in2="shadowGaussian" operator="atop" in="SourceAlpha" result="shadowComposite" />
      <feColorMatrix type="matrix" values="0 0 0 0 0  0 0 0 0 0  0 0 0 0 0  0 0 0 0.698039215686274 0  " in="shadowComposite" />
    </filter>
    <g id="widget150">
      <path d="M 475 9828  C 480.6 9828  485 9832.4  485 9838  C 485 9843.6  480.6 9848  475 9848  C 469.4 9848  465 9843.6  465 9838  C 465 9832.4  469.4 9828  475 9828  Z " fill-rule="nonzero" fill="#009dd9" stroke="none" />
      <path d="M 475 9828.5  C 480.32 9828.5  484.5 9832.68  484.5 9838  C 484.5 9843.32  480.32 9847.5  475 9847.5  C 469.68 9847.5  465.5 9843.32  465.5 9838  C 465.5 9832.68  469.68 9828.5  475 9828.5  Z " stroke-width="1" stroke="#ffffff" fill="none" />
    </g>
  </defs>
  <g transform="matrix(1 0 0 1 -461 -9824 )">
    <use xlink:href="#widget150" filter="url(#filter149)" />
    <use xlink:href="#widget150" />
  </g>
</svg>