<?xml version="1.0" encoding="utf-8"?>
<svg version="1.1" xmlns:xlink="http://www.w3.org/1999/xlink" width="30px" height="30px" xmlns="http://www.w3.org/2000/svg">
  <defs>
    <filter x="461px" y="10099px" width="30px" height="30px" filterUnits="userSpaceOnUse" id="filter760">
      <feOffset dx="1" dy="1" in="SourceAlpha" result="shadowOffsetInner" />
      <feGaussianBlur stdDeviation="2.5" in="shadowOffsetInner" result="shadowGaussian" />
      <feComposite in2="shadowGaussian" operator="atop" in="SourceAlpha" result="shadowComposite" />
      <feColorMatrix type="matrix" values="0 0 0 0 0  0 0 0 0 0  0 0 0 0 0  0 0 0 0.698039215686274 0  " in="shadowComposite" />
    </filter>
    <g id="widget761">
      <path d="M 475 10103  C 480.6 10103  485 10107.4  485 10113  C 485 10118.6  480.6 10123  475 10123  C 469.4 10123  465 10118.6  465 10113  C 465 10107.4  469.4 10103  475 10103  Z " fill-rule="nonzero" fill="#009dd9" stroke="none" />
      <path d="M 475 10103.5  C 480.32 10103.5  484.5 10107.68  484.5 10113  C 484.5 10118.32  480.32 10122.5  475 10122.5  C 469.68 10122.5  465.5 10118.32  465.5 10113  C 465.5 10107.68  469.68 10103.5  475 10103.5  Z " stroke-width="1" stroke="#ffffff" fill="none" />
    </g>
  </defs>
  <g transform="matrix(1 0 0 1 -461 -10099 )">
    <use xlink:href="#widget761" filter="url(#filter760)" />
    <use xlink:href="#widget761" />
  </g>
</svg>