<?xml version="1.0" encoding="utf-8"?>
<svg version="1.1" xmlns:xlink="http://www.w3.org/1999/xlink" width="113px" height="90px" xmlns="http://www.w3.org/2000/svg">
  <g transform="matrix(1 0 0 1 -683 -370 )">
    <path d="M 91.4875 64.675  C 91.4875 65.6414983122039  92.2710016877961 66.425  93.2375 66.425  C 94.2039983122039 66.425  94.9875 65.6414983122039  94.9875 64.675  C 94.9875 63.7085016877961  94.2039983122039 62.925  93.2375 62.925  C 92.2710016877961 62.925  91.4875 63.7085016877961  91.4875 64.675  Z M 100.825 48.8375  C 100.8125 46.7875  100.0125 44.85  98.55 43.4  C 97.1 41.95  95.1625 41.15  93.1125 41.15  C 88.875 41.15  85.425 44.6  85.425 48.8375  C 85.425 49.6875  86.125 50.3875  86.975 50.3875  C 87.825 50.3875  88.525 49.6875  88.525 48.8375  C 88.525 46.3  90.5875 44.2375  93.125 44.2375  C 94.35 44.2375  95.5 44.7125  96.375 45.5875  C 97.2375 46.45  97.725 47.6125  97.725 48.8375  C 97.725 49.9  97.375 50.9  96.7 51.725  C 96.05 52.525  95.1375 53.1  94.1375 53.3125  C 92.6375 53.65  91.5875 54.9625  91.5875 56.5  L 91.5875 59.0125  C 91.5875 59.8625  92.2875 60.5625  93.1375 60.5625  C 93.9875 60.5625  94.6875 59.8625  94.6875 59.0125  L 94.6875 56.5  C 94.6875 56.425  94.7375 56.35  94.825 56.3375  C 96.5 55.9625  98.025 55.0125  99.1125 53.675  C 100.2125 52.3125  100.825 50.5875  100.825 48.8375  Z M 5.675 60.9125  C 5.6875 60.6125  5.6875 60.325  5.6875 60.025  C 6.1 59.175  6.8125 58.9375  7.7 59  C 8.1375 59.025  8.5875 59  9.1375 59  L 9.1375 57.1625  C 9.1375 56.2  9.625 55.675  10.5 55.675  C 11.45 55.675  11.9375 56.1875  11.9375 57.1625  L 11.9375 58.9375  C 12.725 59  13.4625 59  14.175 59.125  C 14.9875 59.2625  15.4625 59.925  15.3875 60.5875  C 15.2875 61.4  14.725 61.9  13.85 61.9375  C 13.5375 61.95  13.2125 61.9375  12.9 61.9375  L 11.9375 61.9375  C 11.9375 62.6375  11.95 63.2875  11.9375 63.9375  C 11.925 64.5  11.725 65  11.1625 65.1875  C 10.65 65.35  9.8125 65.4  9.4625 64.875  C 9.3 64.625  9.1625 64.325  9.1375 64.025  C 9.0875 63.375  9.1125 62.7125  9.1 62.05  C 9.1 62.0375  9.075 62.0125  9.0125 61.9375  C 8.6125 61.9375  8.15 61.9125  7.6875 61.9375  C 6.8 62  6.0875 61.7625  5.675 60.9125  Z M 5.5125 0.925000000000001  C 5.6375 0.912500000000001  5.775 0.912500000000001  5.9 0.912500000000001  C 6.9375 1.3  7.1875 1.85  7.175 2.9125  L 7.175 4.3625  C 7.8625 4.3625  8.4875 4.35  9.125 4.3625  C 9.75 4.375  10.2375 4.7  10.425 5.275  C 10.6 5.7875  10.6375 6.3875  10.15 6.7875  C 9.9125 6.9875  9.5625 7.125  9.2625 7.15  C 8.5875 7.2  7.9125 7.1625  7.1875 7.1625  C 7.1875 7.8375  7.2125 8.45  7.175 9.05  C 7.1125 10.1125  6.475 10.6875  5.6875 10.625  C 4.825 10.5625  4.275 10.025  4.25 9.0625  C 4.2375 8.45  4.25 7.8375  4.25 7.1625  L 2.3625 7.1625  C 1.4375 7.1625  0.950000000000001 6.75  0.925000000000001 5.9625  C 0.9 4.9375  1.375 4.4  2.325 4.3625  C 2.6375 4.35  2.9625 4.3625  3.275 4.3625  L 4.2375 4.3625  L 4.2375 2.95  C 4.2375 1.675  4.4375 1.3625  5.5125 0.925000000000001  Z M 90.825 84.175  L 90.825 84.875  L 92.1375 84.875  C 92.8 84.8875  93.1125 85.175  93.125 85.8125  C 93.1375 86.45  92.8 86.875  92.2 86.9125  C 91.775 86.9375  91.35 86.9125  90.825 86.9125  L 90.825 88.1125  C 90.8125 88.8125  90.4625 89.2125  89.825 89.2125  C 89.15 89.2125  88.7875 88.8375  88.775 88.1  L 88.775 86.9125  L 87.65 86.9125  C 86.8625 86.9125  86.475 86.55  86.4875 85.85  C 86.5 85.1  86.7625 84.8625  87.6125 84.8625  L 88.7875 84.8625  L 88.7875 83.5375  C 88.8 82.9  89.1625 82.5  89.7625 82.45  C 90.25 82.4125  90.775 82.9125  90.825 83.475  C 90.85 83.7125  90.825 83.9375  90.825 84.175  Z M 94.5375 10.375  L 93.8375 10.375  C 93.8375 10.8875  93.85 11.3125  93.8375 11.725  C 93.8125 12.3125  93.4 12.675  92.8125 12.675  C 92.225 12.675  91.8375 12.3125  91.8 11.7125  C 91.7875 11.5  91.8 11.2875  91.8 11.075  L 91.8 10.375  C 91.3625 10.375  90.9625 10.3875  90.5625 10.375  C 89.875 10.3625  89.5 9.9875  89.5 9.3375  C 89.5 8.5875  89.7625 8.3375  90.5375 8.3375  L 91.7875 8.3375  C 91.7875 7.8625  91.775 7.4375  91.7875 7.0125  C 91.8125 6.4375  92.3125 5.8875  92.775 5.9125  C 93.3375 5.9375  93.8 6.425  93.825 7.025  C 93.8375 7.425  93.825 7.8375  93.825 8.3375  L 95.15 8.3375  C 95.775 8.35  96.1 8.65  96.125 9.225  C 96.15 9.875  95.825 10.3125  95.2375 10.375  C 95 10.4  94.775 10.375  94.5375 10.375  Z M 79.95 32.475  C 79.9375 33.75  78.9125 34.775  77.6375 35  L 48.5375 35  C 47.2625 34.775  46.2375 33.75  46.2375 32.475  C 46.2375 31.2  47.2625 30.175  48.5375 31  L 77.65 31  C 78.925 30.175  79.95 31.2  79.95 32.475  Z M 64.425 45.5375  C 64.425 46.8125  63.4 47.8375  62.125 47  L 48.5375 47  C 47.2625 47.8375  46.2375 46.8125  46.2375 45.5375  C 46.2375 44.2625  47.2625 43.2375  48.5375 44  L 62.125 44  C 63.4 43.2375  64.425 44.2625  64.425 45.5375  Z M 103.6625 70.525  C 107.5625 68.075  110.65 64.2375  112.075 59.45  C 114.4625 51.4625  111.575 43.1375  105 38.25  L 105 24.9  C 105.4 20.9375  102.175 17.7125  98.2125 18  L 43.65 18  C 39.6875 17.7125  36.4625 20.9375  37 24.9  L 37 53.85  C 36.4625 57.8125  39.6875 61.0375  43.65 61  L 74.7125 61  C 76.8625 66.4875  81.4 70.925  87.45 72.7375  C 91.725 74.0125  96.0875 73.7875  99.975 72.35  C 100.0125 72.6  100.0875 72.85  100.2125 73.0875  L 107.05 85.75  C 107.6125 86.8  108.925 87.1875  109.975 86.625  C 111.025 86.0625  111.4125 84.75  110.85 83.7  L 104.025 71.025  C 103.925 70.8375  103.8 70.675  103.6625 70.525  Z M 98.8 34.8125  C 88.325 31.6875  77.3 37.6375  74.1625 48.1  C 73.325 50.8875  73.1375 53.725  73.5 56  L 43.65 56  C 42.225 56.4375  41.0625 55.275  41 53.85  L 41 24.9  C 41.0625 23.475  42.225 22.3125  43.65 23  L 98.225 23  C 99.65 22.3125  100.8125 23.475  100 24.9  L 100 35.5375  C 100.1625 35.2625  99.4875 35.025  98.8 34.8125  Z M 105.0375 63.6375  C 103.775 65.175  102.2375 66.4375  100.4625 67.4  C 98.6875 68.35  96.7875 68.95  94.8 69.1625  C 92.75 69.3875  90.6875 69.2  88.6875 68.6  C 86.6875 68  84.8625 67.025  83.2625 65.7125  C 81.725 64.4375  80.4625 62.9  79.5 61.125  C 79.4875 61.1  79.475 61.0625  79.45 61.0375  C 78.675 59.5875  78.15 58.05  77.875 56.4375  C 77.8125 56.1125  77.775 55.7875  77.7375 55.4625  C 77.5125 53.4125  77.7 51.35  78.3 49.35  C 78.9 47.35  79.875 45.525  81.1875 43.925  C 82.4625 42.3875  84 41.125  85.775 40.1625  C 87.55 39.2125  89.45 38.6125  91.4375 38.4  C 93.4875 38.175  95.55 38.3625  97.55 38.9625  C 98.7 39.3  99.7875 39.775  100.8 40.35  C 101.5625 40.7875  102.2875 41.2875  102.9625 41.85  C 103.875 42.6  104.6875 43.45  105.3875 44.375  C 105.8875 45.025  106.325 45.7125  106.725 46.4375  C 107.675 48.2125  108.275 50.1125  108.4875 52.1  C 108.7125 54.15  108.525 56.2125  107.925 58.2125  C 107.325 60.2125  106.35 62.0375  105.0375 63.6375  Z M 72.275 72.9375  C 72.275 74.2125  71.25 75.2375  69.975 75  L 31.1 75  C 29.825 75.2375  28.8 74.2125  28.8 72.9375  C 28.8 71.6625  29.825 70.6375  31.1 70  L 69.975 70  C 71.25 70.6375  72.275 71.6625  72.275 72.9375  Z M 85.15 76.825  C 85.15 83.2  79.9625 88.3875  73.5875 88  L 18 88  L 18 14.925  C 17.225 8.55  22.4125 3.3625  28.7875 4  L 85 4  L 85 14  L 80.0375 14  L 80.0375 9  L 28.7875 9  C 25.225 8.4625  22.3375 11.3625  23 14.9125  L 23 83  L 73.5875 83  C 77.15 83.275  80.0375 80.375  80.0375 76.825  L 80.0375 74.8625  L 85.15 74.8625  L 85.15 76.825  Z " fill-rule="nonzero" fill="#d7d7d7" stroke="none" transform="matrix(1 0 0 1 683 370 )" />
  </g>
</svg>