<?xml version="1.0" encoding="utf-8"?>
<svg version="1.1" xmlns:xlink="http://www.w3.org/1999/xlink" width="400px" height="300px" xmlns="http://www.w3.org/2000/svg">
  <g transform="matrix(1 0 0 1 -2238 -896 )">
    <path d="M 2238 896  L 2638 896  L 2638 1196  L 2238 1196  L 2238 896  " fill-rule="nonzero" fill="#cccccc" stroke="none" />
    <path d="M 2259 917  L 2617 917  L 2617 1175  L 2259 1175  L 2259 917  " fill-rule="nonzero" fill="#ffffff" stroke="none" />
    <path d="M 2468.5 986  C 2455.9 986  2446 976.1  2446 963.5  C 2446 950.9  2455.9 941  2468.5 941  C 2481.1 941  2491 950.9  2491 963.5  C 2491 976.1  2481.1 986  2468.5 986  " fill-rule="nonzero" fill="#cccccc" stroke="none" />
    <path d="M 2267 1168  L 2267 1034.35  L 2352.75 973.6  L 2472.8 1058.65  L 2541.4 1010.05  L 2610 1058.65  L 2610 1168  L 2267 1168  " fill-rule="nonzero" fill="#169bd5" stroke="none" />
  </g>
</svg>