<?xml version="1.0" encoding="utf-8"?>
<svg version="1.1" xmlns:xlink="http://www.w3.org/1999/xlink" width="20px" height="21px" preserveAspectRatio="xMidYMin meet" viewBox="2943 430  18 21" xmlns="http://www.w3.org/2000/svg">
  <path d="M 2952 439  L 2952 949  A 1 1 0 0 1 2951 950 A 1 1 0 0 0 2950 951 L 2950 954  " stroke-width="2" stroke="#0099cc" fill="none" />
  <path d="M 2952 437  A 3.5 3.5 0 0 0 2948.5 440.5 A 3.5 3.5 0 0 0 2952 444 A 3.5 3.5 0 0 0 2955.5 440.5 A 3.5 3.5 0 0 0 2952 437 Z M 2942.4 953  L 2950 960  L 2957.6 953  L 2942.4 953  Z " fill-rule="nonzero" fill="#0099cc" stroke="none" />
</svg>