<?xml version="1.0" encoding="utf-8"?>
<svg version="1.1" xmlns:xlink="http://www.w3.org/1999/xlink" width="20px" height="21px" preserveAspectRatio="xMidYMin meet" viewBox="2421 3105  18 21" xmlns="http://www.w3.org/2000/svg">
  <path d="M 2430 3114  L 2430 3145  A 5 5 0 0 1 2425 3150 L 2386 3150  A 5 5 0 0 0 2381 3155 L 2381 3174  " stroke-width="2" stroke="#0099cc" fill="none" />
  <path d="M 2430 3112  A 3.5 3.5 0 0 0 2426.5 3115.5 A 3.5 3.5 0 0 0 2430 3119 A 3.5 3.5 0 0 0 2433.5 3115.5 A 3.5 3.5 0 0 0 2430 3112 Z M 2373.4 3173  L 2381 3180  L 2388.6 3173  L 2373.4 3173  Z " fill-rule="nonzero" fill="#0099cc" stroke="none" />
</svg>