<?xml version="1.0" encoding="utf-8"?>
<svg version="1.1" xmlns:xlink="http://www.w3.org/1999/xlink" width="12px" height="12px" xmlns="http://www.w3.org/2000/svg">
  <g transform="matrix(1 0 0 1 -2180 -3019 )">
    <path d="M 5.97634557169591 11.2140350843275  C 3.08991565242897 11.2140350843275  0.750001878245614 8.87412131014413  0.750001878245614 5.98769139087719  C 0.750001878245614 3.10126147161025  3.08991565242897 0.761347697426902  5.97634557169591 0.761347697426902  C 8.86296883603537 0.761347697426902  11.2030393473684 3.10141820875996  11.2030393473684 5.98804147309942  C 11.2030393473684 8.87466473743888  8.86296883603537 11.2147352487719  5.97634557169591 11.2147352487719  Z M 8.37299296081871 4.46449349298246  C 8.42045233738407 4.417198619905  8.44712860984003 4.35295419233078  8.44712860984003 4.28595271888889  C 8.44712860984003 4.218951245447  8.42045233738407 4.15470681787277  8.37299296081871 4.10741194479532  L 7.83947110631579 3.57529040912281  C 7.79232401028352 3.52808804205502  7.72834564303961 3.50156537712395  7.66163048643275 3.50156537712395  C 7.59491532982589 3.50156537712395  7.53093696258198 3.52808804205502  7.48378986654971 3.57529040912281  L 5.97144445134503 5.08693566  L 4.45979919017544 3.57459024467836  C 4.4126520941479 3.52738787764639  4.34867372692906 3.50086521273805  4.28195857035088 3.50086521273805  C 4.21524341377269 3.50086521273805  4.15126504655386 3.52738787764639  4.10411795052632 3.57459024467836  L 3.57059609614035 4.10811209918129  C 3.47221603744844 4.20653733386387  3.47221603744844 4.36606825829987  3.57059609614035 4.46449349298246  L 5.08224135719298 5.97613875403509  L 3.56989594187135 7.48848417976608  C 3.47206230358575 7.58658881528577  3.47206230358575 7.74536061945107  3.56989594187134 7.84346525497076  L 4.10411795052632 8.37768726362573  C 4.2021403394152 8.47570965251462  4.36177680128655 8.47570965251462  4.45979919017544 8.37768726362573  L 5.97214460549708 6.86534184830409  L 7.48378986654971 8.37768726362573  C 7.5818122554386 8.47570965251462  7.7407485528655 8.47570965251462  7.83947110631579 8.37768726362573  L 8.37299296081872 7.84346525497076  C 8.4201953278865 7.79631815893849  8.44671799281758 7.73233979169458  8.44671799281758 7.66562463508772  C 8.44671799281758 7.59890947848086  8.4201953278865 7.53493111123695  8.37299296081871 7.48778401520468  L 6.86064754538012 5.97613875403509  L 8.37299296081871 4.46379333883041  Z " fill-rule="nonzero" fill="#aaaaaa" stroke="none" transform="matrix(1 0 0 1 2180 3019 )" />
  </g>
</svg>