<?xml version="1.0" encoding="utf-8"?>
<svg version="1.1" xmlns:xlink="http://www.w3.org/1999/xlink" width="10px" height="35px" preserveAspectRatio="xMidYMin meet" viewBox="1344 135  8 35" xmlns="http://www.w3.org/2000/svg">
  <path d="M 1348 168  L 1348 145  A 5 5 0 0 1 1353 140 L 1995 140  A 5 5 0 0 1 2000 145 L 2000 321  A 5 5 0 0 0 2005 326 L 2484 326  " stroke-width="2" stroke="#0099cc" fill="none" />
  <path d="M 1348 163  A 3.5 3.5 0 0 0 1344.5 166.5 A 3.5 3.5 0 0 0 1348 170 A 3.5 3.5 0 0 0 1351.5 166.5 A 3.5 3.5 0 0 0 1348 163 Z M 2483 333.6  L 2490 326  L 2483 318.4  L 2483 333.6  Z " fill-rule="nonzero" fill="#0099cc" stroke="none" />
</svg>