<?xml version="1.0" encoding="utf-8"?>
<svg version="1.1" xmlns:xlink="http://www.w3.org/1999/xlink" width="16px" height="17px" xmlns="http://www.w3.org/2000/svg">
  <g transform="matrix(1 0 0 1 -3232 -219 )">
    <path d="M 11.923828125 1.423828125  C 13.1171875 2.125  14.064453125 3.072265625  14.763671875 4.267578125  C 15.4609375 5.46484375  15.8125 6.771484375  15.8125 8.189453125  C 15.8125 9.607421875  15.462890625 10.9140625  14.763671875 12.111328125  C 14.064453125 13.306640625  13.1171875 14.255859375  11.921875 14.953125  C 10.7265625 15.650390625  9.419921875 16.001953125  8 16.001953125  C 6.580078125 16.001953125  5.275390625 15.65234375  4.078125 14.953125  C 2.8828125 14.255859375  1.935546875 13.30859375  1.234375 12.109375  C 0.537109375 10.9140625  0.1875 9.607421875  0.1875 8.189453125  C 0.1875 6.7734375  0.537109375 5.466796875  1.236328125 4.267578125  C 1.93359375 3.072265625  2.880859375 2.125  4.080078125 1.423828125  C 5.275390625 0.7265625  6.58203125 0.375000000000001  8.001953125 0.375000000000001  C 9.41796875 0.375000000000001  10.724609375 0.724609375  11.923828125 1.423828125  Z M 10.77734375 12.98046875  C 11.623046875 12.486328125  12.294921875 11.81640625  12.791015625 10.966796875  C 13.28515625 10.119140625  13.533203125 9.193359375  13.533203125 8.189453125  C 13.533203125 7.185546875  13.28515625 6.259765625  12.791015625 5.412109375  C 12.296875 4.564453125  11.625 3.892578125  10.77734375 3.3984375  C 9.9296875 2.904296875  9.00390625 2.65625  8 2.65625  C 6.99609375 2.65625  6.0703125 2.904296875  5.22265625 3.3984375  C 4.375 3.892578125  3.703125 4.564453125  3.208984375 5.412109375  C 2.71484375 6.259765625  2.466796875 7.185546875  2.466796875 8.189453125  C 2.466796875 9.193359375  2.71484375 10.119140625  3.208984375 10.966796875  C 3.703125 11.814453125  4.375 12.486328125  5.22265625 12.98046875  C 6.0703125 13.474609375  6.99609375 13.72265625  8 13.72265625  C 9.00390625 13.72265625  9.9296875 13.474609375  10.77734375 12.98046875  Z M 5.396484375 6.734375  L 10.603515625 4.130859375  L 10.603515625 9.64453125  L 5.396484375 12.25  L 5.396484375 6.734375  Z M 6.697265625 7.537109375  L 6.697265625 10.142578125  L 9.30078125 8.83984375  L 6.697265625 7.537109375  Z " fill-rule="nonzero" fill="#000000" stroke="none" transform="matrix(1 0 0 1 3232 219 )" />
  </g>
</svg>