<?xml version="1.0" encoding="utf-8"?>
<svg version="1.1" xmlns:xlink="http://www.w3.org/1999/xlink" width="19px" height="19px" xmlns="http://www.w3.org/2000/svg">
  <g transform="matrix(1 0 0 1 -3359 -1285 )">
    <path d="M 3368.5 1285  C 3373.82 1285  3378 1289.18  3378 1294.5  C 3378 1299.82  3373.82 1304  3368.5 1304  C 3363.18 1304  3359 1299.82  3359 1294.5  C 3359 1289.18  3363.18 1285  3368.5 1285  Z " fill-rule="nonzero" fill="#ffffff" stroke="none" />
    <path d="M 3368.5 1285.5  C 3373.54 1285.5  3377.5 1289.46  3377.5 1294.5  C 3377.5 1299.54  3373.54 1303.5  3368.5 1303.5  C 3363.46 1303.5  3359.5 1299.54  3359.5 1294.5  C 3359.5 1289.46  3363.46 1285.5  3368.5 1285.5  Z " stroke-width="1" stroke="#797979" fill="none" />
  </g>
</svg>