<?xml version="1.0" encoding="utf-8"?>
<svg version="1.1" xmlns:xlink="http://www.w3.org/1999/xlink" width="208px" height="10px" preserveAspectRatio="xMinYMid meet" viewBox="1345 4670  208 8" xmlns="http://www.w3.org/2000/svg">
  <path d="M 905 4088  L 905 4375  A 5 5 0 0 0 910 4380 L 1345 4380  A 5 5 0 0 1 1350 4385 L 1350 4669  A 5 5 0 0 0 1355 4674 L 1551 4674  " stroke-width="2" stroke="#0099cc" fill="none" />
  <path d="M 905 4086  A 3.5 3.5 0 0 0 901.5 4089.5 A 3.5 3.5 0 0 0 905 4093 A 3.5 3.5 0 0 0 908.5 4089.5 A 3.5 3.5 0 0 0 905 4086 Z M 1545.89289321881 4669.70710678119  L 1550.18578643763 4674  L 1545.89289321881 4678.29289321881  L 1547.30710678119 4679.70710678119  L 1552.30710678119 4674.70710678119  L 1553.01421356237 4674  L 1552.30710678119 4673.29289321881  L 1547.30710678119 4668.29289321881  L 1545.89289321881 4669.70710678119  Z " fill-rule="nonzero" fill="#0099cc" stroke="none" />
</svg>