<?xml version="1.0" encoding="utf-8"?>
<svg version="1.1" xmlns:xlink="http://www.w3.org/1999/xlink" width="11px" height="11px" xmlns="http://www.w3.org/2000/svg">
  <g transform="matrix(1 0 0 1 -2031 -3019 )">
    <path d="M 3.06649286132813 4.75785713867188  L 3.05577857421875 4.76857142578125  L 1.12506428710938 6.70214286132813  C 0.888635712890625 6.93928572265625  0.768635712890625 7.255  0.768635712890625 7.57714286132813  C 0.768635712890625 7.895  0.888635712890625 8.21071428710938  1.12577857421875 8.44785713867188  L 1.13863571289062 8.46714286132813  C 1.37577857421875 8.6928571484375  1.68863571289062 8.81071428710938  1.99935 8.81071428710938  C 2.31577857421875 8.81071428710938  2.63077857421875 8.6878571484375  2.87649286132813 8.44785713867188  L 5.05506428710937 6.26357142578125  L 5.06649286132812 6.26142857421875  L 7.41149286132812 3.91071428710938  C 7.5142185836184 3.80878941268747  7.57199709374926 3.67006807626532  7.57199709374926 3.52535714355469  C 7.57199709374926 3.38064621084406  7.5142185836184 3.2419248744219  7.41149286132812 3.14  C 7.30835480878253 3.0408598843281  7.17025145818069 2.98643997683865  7.02720713867187 2.98857142578125  C 6.88281138976172 2.98550496612937  6.74335593976801 3.04118403723844  6.64077857421875 3.14285713867188  L 3.26935 6.52214286132812  C 3.11639109876358 6.66726887541321  2.87659461412704 6.66726887541321  2.72363571289062 6.52214286132813  C 2.65060428456693 6.45042273032954  2.60946360773986 6.35235900895111  2.60946360773986 6.25  C 2.60946360773986 6.14764099104889  2.65060428456693 6.04957726967046  2.72363571289062 5.97785713867188  L 6.09863571289062 2.60071428710938  C 6.34445007604063 2.35379829297623  6.6787947189275 2.21543104854499  7.02720713867187 2.21642857421875  C 7.36506427734375 2.21642857421875  7.69792142578125 2.345  7.95292142578125 2.60071428710938  C 8.20935 2.85642857421875  8.33435 3.19214286132813  8.33435 3.52714286132813  C 8.33435 3.85857143554688  8.20935 4.19928572265625  7.95292142578125 4.45571428710938  L 5.60577857421875 6.8  L 5.60006428710938 6.80785713867188  L 5.59435 6.81285713867188  L 3.41577857421875 8.98928571289062  C 3.04035376930093 9.36483427207431  2.53036223424108 9.57469463302911  1.99935 9.57214286132812  C 1.49220713867188 9.57214286132812  0.992207138671875 9.38642857421875  0.605064287109375 9.01142857421875  L 0.583635712890625 8.99  C 0.2077779211193 8.6159508502676  -0.00220698012552371 8.10668599520973  0.00077857421875 7.57642857421875  C 0.00077857421875 7.06428571289062  0.191492861328125 6.54428571289063  0.583635712890625 6.15714286132812  L 2.76435 3.97357142578125  L 2.77863571289062 3.96714286132812  L 5.52363571289062 1.22214286132812  C 6.01159071075982 0.729462754456782  6.67664390330097 0.452893243394067  7.37006428710937 0.454285712890625  C 8.03435 0.454285712890625  8.70506428710937 0.71142857421875  9.21149286132813 1.22285713867187  C 9.72363572265625 1.72357142578125  9.97435 2.39428571289062  9.97435 3.06071428710938  C 9.97435 3.73071428710938  9.72363571289062 4.3978571484375  9.21149286132813 4.90785713867187  L 5.43149286132812 8.68785713867188  C 5.36005983506289 8.75952275562758  5.26303615466086 8.7998036900986  5.16185 8.7998036900986  C 5.06066384533914 8.7998036900986  4.96364016493711 8.75952275562758  4.89220713867187 8.68785713867187  C 4.81911975679507 8.61660461862887  4.77790187898642 8.51885768260849  4.77790187898642 8.41678571289062  C 4.77790187898642 8.31471374317276  4.81911975679507 8.21696680715237  4.89220713867187 8.14571428710937  L 8.67220713867187 4.36571428710938  C 9.38472411448308 3.64271172475005  9.38472411448308 2.48157398814057  8.67220713867187 1.75857142578125  C 7.94966831892811 1.04356947526377  6.78617453263439 1.04356947526377  6.06363571289062 1.75857142578125  L 3.06649286132813 4.75857142578125  Z " fill-rule="nonzero" fill="#7f7f7f" stroke="none" transform="matrix(1 0 0 1 2031 3019 )" />
  </g>
</svg>