<?xml version="1.0" encoding="utf-8"?>
<svg version="1.1" xmlns:xlink="http://www.w3.org/1999/xlink" width="12px" height="12px" viewBox="2169 2977  12 12" xmlns="http://www.w3.org/2000/svg">
  <path d="M 2175 2977  C 2178.36 2977  2181 2979.64  2181 2983  C 2181 2986.36  2178.36 2989  2175 2989  C 2171.64 2989  2169 2986.36  2169 2983  C 2169 2979.64  2171.64 2977  2175 2977  Z " fill-rule="nonzero" fill="#ffffff" stroke="none" />
  <path d="M 2175 2977.5  C 2178.08 2977.5  2180.5 2979.92  2180.5 2983  C 2180.5 2986.08  2178.08 2988.5  2175 2988.5  C 2171.92 2988.5  2169.5 2986.08  2169.5 2983  C 2169.5 2979.92  2171.92 2977.5  2175 2977.5  Z " stroke-width="1" stroke="#797979" fill="none" />
  <path d="M 2175 2986  C 2173.32 2986  2172 2984.68  2172 2983  C 2172 2981.32  2173.32 2980  2175 2980  C 2176.68 2980  2178 2981.32  2178 2983  C 2178 2984.68  2176.68 2986  2175 2986  " fill-rule="nonzero" fill="#797979" stroke="none" />
</svg>