<?xml version="1.0" encoding="utf-8"?>
<svg version="1.1" xmlns:xlink="http://www.w3.org/1999/xlink" width="12px" height="12px" xmlns="http://www.w3.org/2000/svg">
  <g transform="matrix(1 0 0 1 -1562 -4448 )">
    <path d="M 1568 4448  C 1571.36 4448  1574 4450.64  1574 4454  C 1574 4457.36  1571.36 4460  1568 4460  C 1564.64 4460  1562 4457.36  1562 4454  C 1562 4450.64  1564.64 4448  1568 4448  Z " fill-rule="nonzero" fill="#ffffff" stroke="none" />
    <path d="M 1568 4448.5  C 1571.08 4448.5  1573.5 4450.92  1573.5 4454  C 1573.5 4457.08  1571.08 4459.5  1568 4459.5  C 1564.92 4459.5  1562.5 4457.08  1562.5 4454  C 1562.5 4450.92  1564.92 4448.5  1568 4448.5  Z " stroke-width="1" stroke="#6a708c" fill="none" />
  </g>
</svg>