<?xml version="1.0" encoding="utf-8"?>
<svg version="1.1" xmlns:xlink="http://www.w3.org/1999/xlink" width="53px" height="21px" xmlns="http://www.w3.org/2000/svg">
  <g transform="matrix(1 0 0 1 -643 -5869 )">
    <path d="M 52.0666666670898 9.9340000002539  C 52.0666666670898 5.9560000002539  47.1873333336719 2.49800000050781  39.0059999997461 0.68666666683594  L 38.4426666668359 3.2260000002539  C 45.0380000002539 4.69066666734375  49.466666666582 7.386  49.466666666582 9.9340000002539  C 49.466666666582 13.6866666670898  40.037333333418 17.8640000005078  26.5086666668359 17.8639999997461  C 12.9800000002539 17.8639999989844  3.5420000002539 13.6953333331641  3.5420000002539 9.94266666708984  C 3.5420000002539 7.39466666683593  7.97066666734375 4.69933333417968  14.566 3.23466666708984  L 13.9940000002539 0.686666666835933  C 5.82133333316406 2.50666666658203  0.942000000507811 5.97333333392578  0.941999999746095 9.94266666708984  C 0.941999999746095 15.9486666670898  11.9313333329102 20.4813333339258  26.5086666668359 20.4726666670898  C 41.0860000007617 20.4640000002539  52.0753333331641 15.9400000002539  52.0666666670898 9.9340000002539  Z " fill-rule="nonzero" fill="#888888" stroke="none" transform="matrix(1 0 0 1 643 5869 )" />
  </g>
</svg>