<?xml version="1.0" encoding="utf-8"?>
<svg version="1.1" xmlns:xlink="http://www.w3.org/1999/xlink" width="26px" height="26px" xmlns="http://www.w3.org/2000/svg">
  <defs>
    <filter x="520px" y="222px" width="26px" height="26px" filterUnits="userSpaceOnUse" id="filter2">
      <feOffset dx="1" dy="1" in="SourceAlpha" result="shadowOffsetInner" />
      <feGaussianBlur stdDeviation="2.5" in="shadowOffsetInner" result="shadowGaussian" />
      <feComposite in2="shadowGaussian" operator="atop" in="SourceAlpha" result="shadowComposite" />
      <feColorMatrix type="matrix" values="0 0 0 0 0  0 0 0 0 0  0 0 0 0 0  0 0 0 0.698039215686274 0  " in="shadowComposite" />
    </filter>
    <g id="widget3">
      <path d="M 532 226  C 536.48 226  540 229.52  540 234  C 540 238.48  536.48 242  532 242  C 527.52 242  524 238.48  524 234  C 524 229.52  527.52 226  532 226  Z " fill-rule="nonzero" fill="#009dd9" stroke="none" />
      <path d="M 532 226.5  C 536.2 226.5  539.5 229.8  539.5 234  C 539.5 238.2  536.2 241.5  532 241.5  C 527.8 241.5  524.5 238.2  524.5 234  C 524.5 229.8  527.8 226.5  532 226.5  Z " stroke-width="1" stroke="#ffffff" fill="none" />
    </g>
  </defs>
  <g transform="matrix(1 0 0 1 -520 -222 )">
    <use xlink:href="#widget3" filter="url(#filter2)" />
    <use xlink:href="#widget3" />
  </g>
</svg>