<?xml version="1.0" encoding="utf-8"?>
<svg version="1.1" xmlns:xlink="http://www.w3.org/1999/xlink" width="25px" height="24px" xmlns="http://www.w3.org/2000/svg">
  <defs>
    <mask fill="white" id="clip12">
      <path d="M 20.125 14.7083333333333  C 20.125 16.5032587702834  21.5800745630499 17.9583333333333  23.375 17.9583333333333  C 23.375 17.9583333333333  0.625 17.9583333333333  0.625 17.9583333333333  C 2.41992543695008 17.9583333333333  3.875 16.5032587702834  3.875 14.7083333333333  C 3.875 14.7083333333333  3.875 8.20833333333333  3.875 8.20833333333333  C 3.87500006240844 4.02017402457925  7.27017402457924 0.625000113000471  11.4583333333333 0.625000113000471  C 15.6464926862168 0.625000113000471  20.125 4.02017409345029  20.125 8.20833344633381  C 20.125 8.20833333333333  20.125 14.7083333333333  20.125 14.7083333333333  Z " fill-rule="evenodd" />
    </mask>
  </defs>
  <g transform="matrix(1 0 0 1 -1223 -11 )">
    <path d="M 20.125 14.7083333333333  C 20.125 16.5032587702834  21.5800745630499 17.9583333333333  23.375 17.9583333333333  C 23.375 17.9583333333333  0.625 17.9583333333333  0.625 17.9583333333333  C 2.41992543695008 17.9583333333333  3.875 16.5032587702834  3.875 14.7083333333333  C 3.875 14.7083333333333  3.875 8.20833333333333  3.875 8.20833333333333  C 3.87500006240844 4.02017402457925  7.27017402457924 0.625000113000471  11.4583333333333 0.625000113000471  C 15.6464926862168 0.625000113000471  20.125 4.02017409345029  20.125 8.20833344633381  C 20.125 8.20833333333333  20.125 14.7083333333333  20.125 14.7083333333333  Z " fill-rule="nonzero" fill="#ffffff" stroke="none" fill-opacity="0" transform="matrix(1 0 0 1 1223 11 )" />
    <path d="M 20.125 14.7083333333333  C 20.125 16.5032587702834  21.5800745630499 17.9583333333333  23.375 17.9583333333333  C 23.375 17.9583333333333  0.625 17.9583333333333  0.625 17.9583333333333  C 2.41992543695008 17.9583333333333  3.875 16.5032587702834  3.875 14.7083333333333  C 3.875 14.7083333333333  3.875 8.20833333333333  3.875 8.20833333333333  C 3.87500006240844 4.02017402457925  7.27017402457924 0.625000113000471  11.4583333333333 0.625000113000471  C 15.6464926862168 0.625000113000471  20.125 4.02017409345029  20.125 8.20833344633381  C 20.125 8.20833333333333  20.125 14.7083333333333  20.125 14.7083333333333  Z " stroke-width="2" stroke="#ffffff" fill="none" transform="matrix(1 0 0 1 1223 11 )" mask="url(#clip12)" />
    <path d="M 13.8741666666667 21.75  C 13.4865524251175 22.4182047068144  12.7724909905369 22.8294943022276  12 22.8294943022276  C 11.2275090094631 22.8294943022276  10.5134475748825 22.4182047068144  10.1258333333333 21.75  " stroke-width="1" stroke="#ffffff" fill="none" transform="matrix(1 0 0 1 1223 11 )" />
  </g>
</svg>