<?xml version="1.0" encoding="utf-8"?>
<svg version="1.1" xmlns:xlink="http://www.w3.org/1999/xlink" width="20px" height="16px" xmlns="http://www.w3.org/2000/svg">
  <g transform="matrix(1 0 0 1 -220 -209 )">
    <path d="M 19.52224 6.90584000000001  C 19.52168 6.46539999999999  19.16496 6.10839999999999  18.72452 6.10839999999999  L 18.68196 6.10839999999999  L 18.68196 4.14588000000001  C 18.68196 3.46856  18.13092 2.91752  17.45332 3  L 6.72427999999999 3  L 5.92823999999999 0.828159999999997  C 5.84508 0.611160000000012  5.63731999999999 0.467520000000007  5.40492 0.467520000000007  L 1.03832 0.467520000000007  C 0.889080000000007 0.467520000000007  0.746280000000013 0.526880000000006  0.640999999999991 0.632720000000006  C 0.536000000000001 0.738560000000007  0.477200000000011 0.881640000000004  0.478319999999997 1.03088  L 0.481680000000011 4.14588000000001  L 0.481680000000011 14.69124  C 0.481680000000011 15.36856  1.03299999999999 15.9196  1.71003999999999 16  L 17.4536 16  C 17.46564 15.9196  17.47712 15.91624  17.48888 15.91596  L 18.7248 15.91596  C 19.16524 15.91596  19.52224 15.55924  19.52224 15.11852  L 19.52224 6.90584000000001  Z M 17.56168 4.14616000000001  L 17.56168 6.10839999999999  L 3.66528 6.10839999999999  C 3.22484 6.10839999999999  2.86784 6.46512000000001  2.86784 6.90584000000001  L 2.86784 14.7996  L 1.70948000000001 14.7996  C 1.64984000000001 14.7996  1.60112000000001 14.75088  2 14.69124  L 2 4.14279999999999  L 1.59384 1.58779999999999  L 5.0188 1.58779999999999  L 5.81512000000001 3.67716000000001  C 5.89771999999999 3.89416  6.10604000000001 4.0378  6.33843999999999 4  L 17.45304 4  C 17.51296 4.0378  17.56168 4.08652000000001  17.56168 4.14616000000001  Z " fill-rule="nonzero" fill="#000000" stroke="none" transform="matrix(1 0 0 1 220 209 )" />
  </g>
</svg>