<?xml version="1.0" encoding="utf-8"?>
<svg version="1.1" xmlns:xlink="http://www.w3.org/1999/xlink" width="20px" height="20px" xmlns="http://www.w3.org/2000/svg">
  <g transform="matrix(1 0 0 1 -1309 -206 )">
    <path d="M 19.7345911425561 10.001584001584  C 19.7345911425561 4.59485858429859  15.3499590104872 0.269478269478266  9.86916889357218 0.269478269478266  C 4.38837874454312 0.269478269478266  0.00374664458828716 4.59485858429859  0.00374664458828716 10.001584001584  C 0.00374664458828716 15.4083094188694  4.38837874454312 19.7336897336897  9.86916889357218 19.7336897336897  C 15.3499590426012 19.7336897336897  19.7345911425561 15.4083094188694  19.7345911425561 10.001584001584  Z M 17.5422750765217 10.001584001584  C 17.5422750765217 14.1106953212553  14.0345693772894 17.5709995604396  9.86916889357218 17.5709995604396  C 5.70376837774098 17.5709995604396  2.19606267850871 14.1106953212553  2.19606267850871 10.001584001584  C 2.19606267850871 5.89247268191268  5.70376837774098 2.43216844272844  9.86916889357218 2.43216844272844  C 14.0345694094034 2.43216844272844  17.5422750765217 5.89247268191268  17.5422750765217 10.001584001584  Z M 15.3499590104872 10.001584001584  C 15.3499590104872 9.35277695277696  14.9114958101259 8.92023893079893  14.253800993527 8.92023893079893  L 5.48453676150333 8.92023893079893  C 4.8268419449044 8.92023893079893  4.38837874454312 9.35277695277696  4.38837874454312 10.001584001584  C 4.38837874454312 10.650391050391  4.8268419449044 11.0829290723691  5.48453676150333 11.0829290723691  L 14.253800993527 11.0829290723691  C 14.9114958101259 11.0829290723691  15.3499590104872 10.650391050391  15.3499590104872 10.001584001584  Z " fill-rule="nonzero" fill="#d9001b" stroke="none" transform="matrix(1 0 0 1 1309 206 )" />
  </g>
</svg>