<?xml version="1.0" encoding="utf-8"?>
<svg version="1.1" xmlns:xlink="http://www.w3.org/1999/xlink" width="26px" height="26px" xmlns="http://www.w3.org/2000/svg">
  <defs>
    <mask fill="white" id="clip35">
      <path d="M 0 8  C 0 3.51999999999998  3.51999999999998 0  8 0  C 10.9501971786366 0  13.4840839271312 1.52647157718735  14.8705900928398 3.84834457891799  C 15.5895525606702 5.05233456799954  16 6.47019717863662  16 8  C 16 12.48  12.48 16  8 16  C 3.51999999999998 16  0 12.48  0 8  Z " fill-rule="evenodd" />
    </mask>
    <filter x="416px" y="410px" width="26px" height="26px" filterUnits="userSpaceOnUse" id="filter36">
      <feOffset dx="1" dy="1" in="SourceAlpha" result="shadowOffsetInner" />
      <feGaussianBlur stdDeviation="2.5" in="shadowOffsetInner" result="shadowGaussian" />
      <feComposite in2="shadowGaussian" operator="atop" in="SourceAlpha" result="shadowComposite" />
      <feColorMatrix type="matrix" values="0 0 0 0 0  0 0 0 0 0  0 0 0 0 0  0 0 0 0.698039215686274 0  " in="shadowComposite" />
    </filter>
    <g id="widget37">
      <path d="M 0 8  C 0 3.51999999999998  3.51999999999998 0  8 0  C 10.9501971786366 0  13.4840839271312 1.52647157718735  14.8705900928398 3.84834457891799  C 15.5895525606702 5.05233456799954  16 6.47019717863662  16 8  C 16 12.48  12.48 16  8 16  C 3.51999999999998 16  0 12.48  0 8  Z " fill-rule="nonzero" fill="#009dd9" stroke="none" transform="matrix(1 0 0 1 420 414 )" />
      <path d="M 0 8  C 0 3.51999999999998  3.51999999999998 0  8 0  C 10.9501971786366 0  13.4840839271312 1.52647157718735  14.8705900928398 3.84834457891799  C 15.5895525606702 5.05233456799954  16 6.47019717863662  16 8  C 16 12.48  12.48 16  8 16  C 3.51999999999998 16  0 12.48  0 8  Z " stroke-width="2" stroke="#ffffff" fill="none" transform="matrix(1 0 0 1 420 414 )" mask="url(#clip35)" />
    </g>
  </defs>
  <g transform="matrix(1 0 0 1 -416 -410 )">
    <use xlink:href="#widget37" filter="url(#filter36)" />
    <use xlink:href="#widget37" />
  </g>
</svg>