<?xml version="1.0" encoding="utf-8"?>
<svg version="1.1" xmlns:xlink="http://www.w3.org/1999/xlink" width="20px" height="21px" preserveAspectRatio="xMidYMin meet" viewBox="1964 3909  18 21" xmlns="http://www.w3.org/2000/svg">
  <path d="M 1973 3921  L 1973 3775  A 5 5 0 0 1 1978 3770 L 2292 3770  A 5 5 0 0 0 2297 3765 L 2297 3719  " stroke-width="2" stroke="#0099cc" fill="none" />
  <path d="M 1973 3916  A 3.5 3.5 0 0 0 1969.5 3919.5 A 3.5 3.5 0 0 0 1973 3923 A 3.5 3.5 0 0 0 1976.5 3919.5 A 3.5 3.5 0 0 0 1973 3916 Z M 2304.6 3720  L 2297 3713  L 2289.4 3720  L 2304.6 3720  Z " fill-rule="nonzero" fill="#0099cc" stroke="none" />
</svg>