<?xml version="1.0" encoding="utf-8"?>
<svg version="1.1" xmlns:xlink="http://www.w3.org/1999/xlink" width="18px" height="14px" xmlns="http://www.w3.org/2000/svg">
  <g transform="matrix(1 0 0 1 -410 -3290 )">
    <path d="M 17.9649122807018 7.14970759649123  L 17.9649122807018 7  C 17.9649122807018 3.29473684210526  14.9333333333333 0.263157894736842  11.2280701754386 0.263157894736842  C 8.30877192982456 0.263157894736842  5.83859649122807 2.05964912280702  4.94035087719298 4.75438596491228  L 4.56608187719298 4.75438596491228  C 2.02105263157895 4.75438596491228  0 6.77543859649123  0 9.24561403508772  C 0 11.7157894736842  2.02105263157895 13.7368421052632  4.49122807017544 13.7368421052632  L 12.1637426842105 13.7368421052632  C 11.5649122807018 13.025731  11.2280701754386 12.1274853859649  11.2280701754386 11.1169590701754  C 11.2280701754386 8.83391814035088  13.0619882982456 7  15.345029245614 7  C 16.3555555614035 7  17.2538011754386 7.33684210526316  17.9649122807018 7.93567250877193  L 17.9649122807018 7.18713450877193  L 17.9649122807018 7.14970759649123  Z " fill-rule="nonzero" fill="#67c23a" stroke="none" transform="matrix(1 0 0 1 410 3290 )" />
  </g>
</svg>