<?xml version="1.0" encoding="utf-8"?>
<svg version="1.1" xmlns:xlink="http://www.w3.org/1999/xlink" width="10px" height="15px" preserveAspectRatio="xMidYMin meet" viewBox="1886 3945  8 15" xmlns="http://www.w3.org/2000/svg">
  <path d="M 1302 3299  L 1305 3299  A 5 5 0 0 1 1310 3304 L 1310 3945  A 5 5 0 0 0 1315 3950 L 1885 3950  A 5 5 0 0 1 1890 3955 " stroke-width="2" stroke="#0099cc" fill="none" />
  <path d="M 1303.5 3295.5  A 3.5 3.5 0 0 0 1300 3299 A 3.5 3.5 0 0 0 1303.5 3302.5 A 3.5 3.5 0 0 0 1307 3299 A 3.5 3.5 0 0 0 1303.5 3295.5 Z M 1882.4 3953  L 1890 3960  L 1897.6 3953  L 1882.4 3953  Z " fill-rule="nonzero" fill="#0099cc" stroke="none" />
</svg>