<?xml version="1.0" encoding="utf-8"?>
<svg version="1.1" xmlns:xlink="http://www.w3.org/1999/xlink" width="125px" height="10px" preserveAspectRatio="xMinYMid meet" viewBox="1300 263  125 8" xmlns="http://www.w3.org/2000/svg">
  <path d="M 1302 267  L 1387 267  A 3 3 0 0 1 1390 264 A 3 3 0 0 1 1393 267 L 1415 267  A 5 5 0 0 1 1420 272 L 1420 455  A 5 5 0 0 0 1425 460 L 1945 460  A 5 5 0 0 0 1950 455 L 1950 351  A 5 5 0 0 1 1955 346 L 1972 346  " stroke-width="2" stroke="#0099cc" fill="none" />
  <path d="M 1303.5 263.5  A 3.5 3.5 0 0 0 1300 267 A 3.5 3.5 0 0 0 1303.5 270.5 A 3.5 3.5 0 0 0 1307 267 A 3.5 3.5 0 0 0 1303.5 263.5 Z M 1971 353.6  L 1978 346  L 1971 338.4  L 1971 353.6  Z " fill-rule="nonzero" fill="#0099cc" stroke="none" />
</svg>