<?xml version="1.0" encoding="utf-8"?>
<svg version="1.1" xmlns:xlink="http://www.w3.org/1999/xlink" width="18px" height="14px" xmlns="http://www.w3.org/2000/svg">
  <g transform="matrix(1 0 0 1 -410 -3240 )">
    <path d="M 18 7.14999999414063  L 18 7  C 18 3.2875  14.9625 0.25  11.25 0.25  C 8.325 0.25  5.85 2.05  4.95 4.75  L 4.57500000585938 4.75  C 2.025 4.75  0 6.775  0 9.25  C 0 11.725  2.025 13.75  4.5 13.75  L 12.1874999941406 13.75  C 11.5875 13.0375000058594  11.25 12.1375000058594  11.25 11.1250000058594  C 11.25 8.83750001171875  13.0874999941406 7  15.3750000058594 7  C 16.3875000058594 7  17.2875000058594 7.3375  18 7.93749999414063  L 18 7.18750000585938  L 18 7.14999999414063  Z " fill-rule="nonzero" fill="#e6a23c" stroke="none" transform="matrix(1 0 0 1 410 3240 )" />
  </g>
</svg>