<?xml version="1.0" encoding="utf-8"?>
<svg version="1.1" xmlns:xlink="http://www.w3.org/1999/xlink" width="5px" height="5px" xmlns="http://www.w3.org/2000/svg">
  <g transform="matrix(1 0 0 1 -421 -3348 )">
    <path d="M 4.1 1.55000000585937  C 4.24999999414062 1.40000001171875  4.24999999414062 1.17500001171875  4.13749999414063 1.025  C 3.9875 0.875000005859377  3.7625 0.875000005859377  3.61250000585937 1.025  L 2.37500000585937 2.22500000585937  L 1.175 1.025  C 1.02500000585938 0.875000005859377  0.800000005859374 0.875000005859377  0.649999994140625 1.025  C 0.5 1.17499999414063  0.5 1.39999999414063  0.649999994140625 1.55000000585937  L 1.85 2.74999999414062  L 0.649999994140625 3.95  C 0.5 4.09999999414062  0.5 4.32499999414063  0.649999994140625 4.47500000585937  C 0.799999988281249 4.625  1.02499998828125 4.625  1.175 4.47500000585937  L 2.37500000585937 3.275  L 3.57499999414063 4.47500000585937  C 3.72499998828125 4.625  3.94999998828125 4.625  4.1 4.47500000585937  C 4.24999999414062 4.32500001171875  4.24999999414062 4.10000001171875  4.1 3.95  L 2.89999999414063 2.74999999414062  L 4.1 1.55000000585937  Z " fill-rule="nonzero" fill="#f56c6d" stroke="none" transform="matrix(1 0 0 1 421 3348 )" />
  </g>
</svg>