<?xml version="1.0" encoding="utf-8"?>
<svg version="1.1" xmlns:xlink="http://www.w3.org/1999/xlink" width="10px" height="983px" preserveAspectRatio="xMidYMin meet" viewBox="1156 7902  8 983" xmlns="http://www.w3.org/2000/svg">
  <path d="M 1169 7907  L 1165 7907  A 5 5 0 0 0 1160 7912 L 1160 8875  A 5 5 0 0 0 1165 8880 L 1394 8880  " stroke-width="2" stroke="#0099cc" fill="none" />
  <path d="M 1167.5 7903.5  A 3.5 3.5 0 0 0 1164 7907 A 3.5 3.5 0 0 0 1167.5 7910.5 A 3.5 3.5 0 0 0 1171 7907 A 3.5 3.5 0 0 0 1167.5 7903.5 Z M 1393 8887.6  L 1400 8880  L 1393 8872.4  L 1393 8887.6  Z " fill-rule="nonzero" fill="#0099cc" stroke="none" />
</svg>