<?xml version="1.0" encoding="utf-8"?>
<svg version="1.1" xmlns:xlink="http://www.w3.org/1999/xlink" width="952px" height="10px" preserveAspectRatio="xMinYMid meet" viewBox="463 7726  952 8" xmlns="http://www.w3.org/2000/svg">
  <path d="M 468 7754  L 468 7735  A 5 5 0 0 1 473 7730 L 1405 7730  A 5 5 0 0 1 1410 7735 L 1410 7959  A 5 5 0 0 0 1415 7964 " stroke-width="2" stroke="#0099cc" fill="none" />
  <path d="M 468 7749  A 3.5 3.5 0 0 0 464.5 7752.5 A 3.5 3.5 0 0 0 468 7756 A 3.5 3.5 0 0 0 471.5 7752.5 A 3.5 3.5 0 0 0 468 7749 Z M 1413 7971.6  L 1420 7964  L 1413 7956.4  L 1413 7971.6  Z " fill-rule="nonzero" fill="#0099cc" stroke="none" />
</svg>