<?xml version="1.0" encoding="utf-8"?>
<svg version="1.1" xmlns:xlink="http://www.w3.org/1999/xlink" width="10px" height="450px" preserveAspectRatio="xMidYMin meet" viewBox="1406 7965  8 450" xmlns="http://www.w3.org/2000/svg">
  <path d="M 1242 7922  L 1242 7965  A 5 5 0 0 0 1247 7970 L 1405 7970  A 5 5 0 0 1 1410 7975 L 1410 8405  A 5 5 0 0 0 1415 8410 " stroke-width="2" stroke="#0099cc" fill="none" />
  <path d="M 1242 7920  A 3.5 3.5 0 0 0 1238.5 7923.5 A 3.5 3.5 0 0 0 1242 7927 A 3.5 3.5 0 0 0 1245.5 7923.5 A 3.5 3.5 0 0 0 1242 7920 Z M 1413 8417.6  L 1420 8410  L 1413 8402.4  L 1413 8417.6  Z " fill-rule="nonzero" fill="#0099cc" stroke="none" />
</svg>