<?xml version="1.0" encoding="utf-8"?>
<svg version="1.1" xmlns:xlink="http://www.w3.org/1999/xlink" width="685px" height="10px" preserveAspectRatio="xMinYMid meet" viewBox="735 9476  685 8" xmlns="http://www.w3.org/2000/svg">
  <path d="M 748 8059  L 745 8059  A 5 5 0 0 0 740 8064 L 740 9475  A 5 5 0 0 0 745 9480 L 1414 9480  " stroke-width="2" stroke="#0099cc" fill="none" />
  <path d="M 746.5 8055.5  A 3.5 3.5 0 0 0 743 8059 A 3.5 3.5 0 0 0 746.5 8062.5 A 3.5 3.5 0 0 0 750 8059 A 3.5 3.5 0 0 0 746.5 8055.5 Z M 1413 9487.6  L 1420 9480  L 1413 9472.4  L 1413 9487.6  Z " fill-rule="nonzero" fill="#0099cc" stroke="none" />
</svg>