<?xml version="1.0" encoding="utf-8"?>
<svg version="1.1" xmlns:xlink="http://www.w3.org/1999/xlink" width="10px" height="48px" preserveAspectRatio="xMidYMin meet" viewBox="1236 277  8 48" xmlns="http://www.w3.org/2000/svg">
  <path d="M 1240 279  L 1240 315  A 5 5 0 0 0 1245 320 L 1365 320  A 5 5 0 0 1 1370 325 L 1370 2273  A 5 5 0 0 0 1375 2278 L 1411 2278  " stroke-width="2" stroke="#0099cc" fill="none" />
  <path d="M 1240 277  A 3.5 3.5 0 0 0 1236.5 280.5 A 3.5 3.5 0 0 0 1240 284 A 3.5 3.5 0 0 0 1243.5 280.5 A 3.5 3.5 0 0 0 1240 277 Z M 1410 2285.6  L 1417 2278  L 1410 2270.4  L 1410 2285.6  Z " fill-rule="nonzero" fill="#0099cc" stroke="none" />
</svg>