<?xml version="1.0" encoding="utf-8"?>
<svg version="1.1" xmlns:xlink="http://www.w3.org/1999/xlink" width="22px" height="22px" xmlns="http://www.w3.org/2000/svg">
  <g transform="matrix(1 0 0 1 -2529 -335 )">
    <path d="M 21.4014097609747 19.3608265857515  C 21.5022009440104 18.3133938895089  21.4721284714472 17.248189906529  21.4282106236049 16.193926125372  C 21.3990280389695 15.4943028506324  20.9416333682106 15.1079409970238  20.3381687081473 15.1222836588542  C 19.7402265043713 15.1364692801339  19.3458034319196 15.5296883835565  19.2896629185268 16.2448059337798  C 19.2484670386905 16.7701449916295  19.2837478864397 17.3011111909412  19.2723627534412 17.8293292573475  C 19.2438344703311 19.1549257324219  18.9567719656808 19.461225218564  17.6315942313058 19.4873717796689  C 16.3550977887835 19.5125761230469  15.0776852934338 19.4956423688616  13.8006915899368 19.4957470540365  C 10.8503966494606 19.4959826148624  7.90004937918526 19.4981549409412  4.94975443870907 19.4940719889323  C 2.91793916480654 19.491271500651  2.74184900716146 19.3157310105097  2.73213893926711 17.3404226353237  C 2.73038535388765 16.9882161807106  2.74813047572544 16.6338374255952  2.71578099190848 16.2842744187128  C 2.64692052641369 15.5403145298549  2.29816888718378 15.1532460193452  1.70768590494791 15.1198496070499  C 1.07030138113839 15.0837574172247  0.605735405040919 15.5171516624814  0.557001783389134 16.2834630510603  C 0.512429634021575 16.985337172154  0.537476936848955 17.6920009277344  0.54210950520833 18.3964923316592  C 0.557211179315473 20.6771579496838  1.56760944242931 21.700537890625  3.8490079078311 21.7135719238281  C 6.22677435825893 21.7271817382813  8.60469782366071 21.7166079729353  10.98256898484 21.7171575892857  C 11.6871127441406 21.7177333961124  12.3917088332403 21.7179689313616  13.0962264020647 21.7177072056362  C 14.9016737327939 21.7170790690104  16.7075398297991 21.7421787016369  18.5123066685268 21.7076568661644  C 20.1035040364583 21.6772441476005  21.267065125093 20.7568015508743  21.4014097609747 19.3608265857515  Z M 2.59768959263394 8.80219723772321  C 2.70853114071801 8.93787669270833  2.84096515066964 9.05617743675595  2.96531180245536 9.18062877371652  C 5.23540362955729 11.4520030645461  7.50580953776042 13.7230894647507  9.77618925548735 15.9942020298549  C 9.86946886160715 16.0875339913504  9.96447588820685 16.1791385579427  10.0571273577009 16.2730463006882  C 10.4224725051153 16.6434427827381  10.8486692545573 16.8522226702009  11.3649787365141 16.6566076660156  C 11.5334002511161 16.5927985351562  11.6585844354539 16.4966137555804  11.7656308965774 16.3874734630766  C 11.8362972772507 16.3385566359747  11.9055503185454 16.2847193243118  11.9684433965774 16.2235798316592  C 13.1356425060454 15.0885993559338  18.1094559919085 10.0987943336124  19.2584912132627 8.94512651832217  C 19.381921812221 8.8211986328125  19.5005366373698 8.68800561058407  19.5978730050223 8.5432965797061  C 19.9102707287016 8.07870443870907  19.8674783040365 7.6235868047805  19.4969509463356 7.21704577752976  C 19.1179436290923 6.80123958798363  18.6406315359933 6.78378238234747  18.1701766927083 7.01512316545759  C 17.9417672735305 7.12743035714285  17.7536376813616 7.33382852260044  17.5676804152716 7.51829392903646  C 16.7942500511533 8.28536432989211  13.996882375372 11.0802194080171  12.1238046875 12.9561499139695  C 12.1247730701265 10.0260865025112  12.1250871512277 7.09604925595238  12.124511344401 4.16595965401785  C 12.1243543038505 3.28616329520089  12.1524114653088 2.40477041713169  12.1087815336682 1.5270678641183  C 12.068187625558 0.711734937686009  11.6724821149554 0.295797898065473  11.0353593168713 0.274912067522318  C 10.3818262160528 0.25347659505208  9.98530933779763 0.651616183035711  9.89621736886162 1.45548545619419  C 9.86245454566593 1.7600575218564  9.88027818777903 2.07070166015625  9.88012114722843 2.37859769112723  C 9.87907424432665 4.31414966517857  9.87957153087799 6.24975399460565  9.87957153087799 8.18535832403274  C 9.87954536597843 9.63276268833705  9.87957153087799 11.080167078218  9.87957153087799 12.5275976074219  C 9.77909442894346 12.5720650716146  9.67864346633185 12.6165063709077  9.57816636439733 12.6609738351004  C 8.99632038225447 12.0813263695126  8.41376774321057 11.5022546851749  7.83268074776787 10.9218482073103  C 6.61899886300224 9.70937026599702  5.42107295386906 8.48066522739956  4.18608647228423 7.29032941545759  C 3.62850261579242 6.75287237723214  2.9821670107887 6.74405217168899  2.53819897460938 7.16653240559896  C 2.05968293805804 7.62188557477678  2.07653817196801 8.16402753673735  2.59768959263394 8.80219723772321  Z " fill-rule="nonzero" fill="#000000" stroke="none" transform="matrix(1 0 0 1 2529 335 )" />
  </g>
</svg>