<?xml version="1.0" encoding="utf-8"?>
<svg version="1.1" xmlns:xlink="http://www.w3.org/1999/xlink" width="12px" height="13px" xmlns="http://www.w3.org/2000/svg">
  <g transform="matrix(1 0 0 1 -2506 -194 )">
    <path d="M 9.00133928571429 4.18166666666667  L 9.00133928571429 11.13125  L 2.97321428571429 11.13125  L 2.97321428571429 4.18166666666667  L 1.84821428571429 4.18166666666667  L 1.84821428571429 12.26875  L 10.1263392857143 12.26875  L 10.1263392857143 4.18166666666667  L 9.00133928571429 4.18166666666667  Z M 11.5714285714286 1.876875  L 7.865625 1.876875  L 7.865625 0.148958333333333  L 4.14910714285714 0.148958333333333  L 4.14910714285714 1.876875  L 0.455357142857143 1.876875  L 0.455357142857143 3  L 11.5714285714286 3  L 11.5714285714286 1.876875  Z M 5.27410714285714 1.876875  L 5.27410714285714 1.28645833333333  L 6.740625 1.28645833333333  L 6.740625 1.876875  L 5.27410714285714 1.876875  Z M 4.14910714285714 9.7175  L 4.14910714285714 4.184375  L 5.27410714285714 4.184375  L 5.27410714285714 9.7175  L 4.14910714285714 9.7175  Z M 6.740625 9.7134375  L 6.740625 4.18166666666667  L 7.865625 4.18166666666667  L 7.865625 9.7134375  L 6.740625 9.7134375  Z " fill-rule="nonzero" fill="#000000" stroke="none" transform="matrix(1 0 0 1 2506 194 )" />
  </g>
</svg>