<?xml version="1.0" encoding="utf-8"?>
<svg version="1.1" xmlns:xlink="http://www.w3.org/1999/xlink" width="10px" height="124px" preserveAspectRatio="xMidYMin meet" viewBox="2956 525  8 124" xmlns="http://www.w3.org/2000/svg">
  <path d="M 2542 215  L 2542 225  A 5 5 0 0 0 2547 230 L 2555 230  A 5 5 0 0 1 2560 235 L 2560 525  A 5 5 0 0 0 2565 530 L 2955 530  A 5 5 0 0 1 2960 535 L 2960 639  A 5 5 0 0 0 2965 644 L 2973 644  " stroke-width="2" stroke="#0099cc" fill="none" />
  <path d="M 2542 213  A 3.5 3.5 0 0 0 2538.5 216.5 A 3.5 3.5 0 0 0 2542 220 A 3.5 3.5 0 0 0 2545.5 216.5 A 3.5 3.5 0 0 0 2542 213 Z M 2972 651.6  L 2979 644  L 2972 636.4  L 2972 651.6  Z " fill-rule="nonzero" fill="#0099cc" stroke="none" />
</svg>