<?xml version="1.0" encoding="utf-8"?>
<svg version="1.1" xmlns:xlink="http://www.w3.org/1999/xlink" width="21px" height="21px" xmlns="http://www.w3.org/2000/svg">
  <g transform="matrix(1 0 0 1 -1182 -256 )">
    <path d="M 20.4286184082031 18.4807890136719  C 20.5248281738281 17.4809668945312  20.4961226318359 16.4641812744141  20.4542010498047 15.4578385742188  C 20.4263449462891 14.7900163574219  19.9897409423828 14.42121640625  19.4137064941406 14.4349071289063  C 18.8429434814453 14.4484479492187  18.4664487304688 14.8237934570313  18.4128600585937 15.5064056640625  C 18.37353671875 16.0078656738281  18.4072138916016 16.5146970458984  18.3963462646484 17.0189052001953  C 18.3691147216797 18.2842472900391  18.0951005126953 18.5766240722656  16.8301581298828 18.6015821533203  C 15.6116842529297 18.6256408447266  14.3923359619141 18.6094768066406  13.1733874267578 18.6095767333984  C 10.3571968017578 18.6098015869141  7.54095622558593 18.6118751708984  4.72476560058593 18.6079778076172  C 2.78530556640625 18.6053046142578  2.61721950683593 18.4377432373047  2.60795080566406 16.5522216064453  C 2.60627692871094 16.2160245361328  2.62321545410156 15.87775390625  2.59233640136718 15.5440801269531  C 2.52660595703125 14.8339365966797  2.19370666503906 14.464462109375  1.63006381835937 14.4325837158203  C 1.02165131835937 14.3981320800781  0.578201977539059 14.8118265869141  0.531683520507809 15.5433056396484  C 0.489137377929685 16.2132763916016  0.513046166992185 16.8878190673828  0.517468164062497 17.5602881347656  C 0.531883398437497 19.7372871337891  1.49635446777343 20.7141498046875  3.67405300292968 20.7265913818359  C 5.94373916015625 20.7395825683594  8.2135751953125 20.7294894287109  10.4833613037109 20.7300140625  C 11.1558803466797 20.7305636962891  11.8284493408203 20.7307885253906  12.5009433837891 20.7305386962891  C 14.2243249267578 20.7299391113281  15.9481062011719 20.7538978515625  17.6708381835937 20.7209451904297  C 19.1897083984375 20.6919148681641  20.3003803466797 19.8133105712891  20.4286184082031 18.4807890136719  Z M 2.47961279296876 8.40209736328125  C 2.58541608886719 8.5316095703125  2.71183037109375 8.6445330078125  2.83052490234375 8.76332746582031  C 4.99743073730469 10.9314574707031  7.16463637695312 13.0993126708984  9.33181701660156 15.2671928466797  C 9.420856640625 15.3562824462891  9.51154516601563 15.4437231689453  9.59998520507813 15.5333623779297  C 9.94872375488282 15.88692265625  10.3555479248047 16.0862125488281  10.8483887939453 15.8994891357422  C 11.0091547851563 15.8385804199219  11.1286487792969 15.7467676757812  11.2308294921875 15.6425883056641  C 11.2982837646484 15.5958949707031  11.3643889404297 15.5445048095703  11.4244232421875 15.4861443847656  C 12.5385678466797 14.4027539306641  17.2862989013672 9.63975822753906  18.3831052490234 8.53852985839844  C 18.5009253662109 8.42023505859375  18.6141486083984 8.29309626464843  18.7070605957031 8.15496491699218  C 19.0052584228516 7.71149060058593  18.9644111083984 7.27706013183593  18.6107259033203 6.8889982421875  C 18.2489461914063 6.49209233398437  17.7933301025391 6.47542863769531  17.3442595703125 6.69625393066406  C 17.1262323974609 6.80345625  16.9466541503906 7.00047268066406  16.7691494873047 7.17655329589843  C 16.0308750488281 7.90875686035156  13.3606604492188 10.5765730712891  11.57272265625 12.3672340087891  C 11.5736470214844 9.57035529785156  11.5739468261719 6.7735015625  11.5733971923828 3.9765978515625  C 11.5732472900391 3.13679223632812  11.6000291259766 2.29546267089843  11.5583823730469 1.45765568847656  C 11.5196336425781 0.679383349609372  11.1419147460938 0.282352539062497  10.5337520751953 0.262416064453122  C 9.90992502441407 0.241954931640622  9.53143164062501 0.621997265624997  9.44638930664063 1.38932702636718  C 9.41416115722657 1.68005490722656  9.43117463378907 1.97657885742187  9.43102473144532 2.27047961425781  C 9.43002541503907 4.118051953125  9.43050009765626 5.96567426757812  9.43050009765626 7.81329658203125  C 9.43047512207032 9.19490983886718  9.43050009765626 10.5765231201172  9.43050009765626 11.9581613525391  C 9.33459013671876 12.0006075683594  9.23870512695313 12.0430288085937  9.14279516601563 12.0854750244141  C 8.58739672851563 11.5321751708984  8.03132375488282 10.9794249267578  7.47664980468751 10.4254005615234  C 6.31813527832032 9.26803525390625  5.17466054687501 8.09518044433594  3.99580981445313 6.95895080566406  C 3.46357067871095 6.4459236328125  2.84661396484376 6.43750434570312  2.42282629394532 6.84078093261719  C 1.96606098632813 7.27543623046875  1.9821500732422 7.79293537597656  2.47961279296876 8.40209736328125  Z " fill-rule="nonzero" fill="#000000" stroke="none" transform="matrix(1 0 0 1 1182 256 )" />
  </g>
</svg>