<?xml version="1.0" encoding="utf-8"?>
<svg version="1.1" xmlns:xlink="http://www.w3.org/1999/xlink" width="23px" height="23px" xmlns="http://www.w3.org/2000/svg">
  <g transform="matrix(1 0 0 1 -1228 -254 )">
    <path d="M 13.4171875 1.4859375  C 13.4484375 1.9234375  13.7484375 2.321875  14.15 2.359375  C 16.6875 2.6140625  18.7234375 4.140625  19.1578125 6.759375  L 17.6890625 6.759375  L 20.059375 10.2859375  L 22.43125 6.759375  L 20.7953125 6.759375  C 20.3609375 3.2328125  17.690625 0.940624999999999  14.3171875 0.614062499999999  C 13.85 0.576562499999999  13.4171875 0.976562499999999  13.4171875 1.4859375  Z M 11.3125 1.4859375  C 11.3125 0.9765625  10.9453125 0.5765625  10.478125 0.5765625  L 2.2328125 0.5765625  C 1.765625 0.5765625  1.3984375 0.9765625  1.3984375 1.4859375  L 1.3984375 9.340625  C 1.3984375 9.85  1.765625 10.25  2.2328125 10.25  L 10.478125 10.25  C 10.9453125 10.25  11.3125 9.85  11.3125 9.340625  L 11.3125 1.4859375  Z M 9.678125 8.5046875  L 9.6765625 8.5046875  L 3.034375 8.5046875  L 3.034375 2.321875  L 9.678125 2.321875  L 9.678125 8.5046875  Z M 9.6109375 21.45  C 9.61690565244911 21.0166829536296  9.30316801398649 20.6449937768522  8.875 20.578125  C 6.0375 20.3234375  3.8671875 18.4328125  3.7671875 15.3046875  L 5.3359375 15.3046875  L 2.9671875 11.778125  L 0.596875 15.3046875  L 2.165625 15.3046875  C 2.23125 19.3421875  5.06875 21.959375  8.709375 22.3234375  C 9.1765625 22.359375  9.6109375 21.959375  9.6109375 21.45  Z M 21.659375 13.5953125  C 21.6609375 13.0875  21.2609375 12.6859375  20.828125 12.6859375  L 12.58125 12.6859375  C 12.1125 12.6859375  11.746875 13.0875  11.746875 13.5953125  L 11.746875 21.4875  C 11.746875 21.9953125  12.1125 22.3953125  12.58125 22.3953125  L 20.8265625 22.3953125  C 21.29375 22.3953125  21.659375 21.9953125  21.659375 21.4875  L 21.659375 13.5953125  Z M 20.025 14.4671875  L 20.025 20.6140625  L 13.3828125 20.6140625  L 13.3828125 14.4671875  L 20.025 14.4671875  Z " fill-rule="nonzero" fill="#000000" stroke="none" transform="matrix(1 0 0 1 1228 254 )" />
  </g>
</svg>