<?xml version="1.0" encoding="utf-8"?>
<svg version="1.1" xmlns:xlink="http://www.w3.org/1999/xlink" width="25px" height="21px" xmlns="http://www.w3.org/2000/svg">
  <g transform="matrix(1 0 0 1 -1275 -256 )">
    <path d="M 24.32041015625 13.37138671875  C 24.323046875 9.25810546875  20.99287109375 5.9068359375  16.9033203125 5.9068359375  C 12.8111328125 5.9068359375  9.48623046875 9.25546875  9.48623046875 13.37138671875  C 9.48623046875 17.4873046875  12.81376953125 20.8359375  16.9033203125 20.8359375  C 20.9955078125 20.8359375  24.32041015625 17.4873046875  24.32041015625 13.37138671875  Z M 22.92822265625 13.37138671875  C 22.930859375 16.71474609375  20.22822265625 19.43583984375  16.9033203125 19.43583984375  C 13.5810546875 19.43583984375  10.87841796875 16.71474609375  10.87841796875 13.37138671875  C 10.87841796875 10.02802734375  13.5810546875 7.30693359375  16.9033203125 7.30693359375  C 20.2255859375 7.30693359375  22.92822265625 10.02802734375  22.92822265625 13.37138671875  Z M 7.7908203125 16.77275390625  L 1.6103515625 16.7701171875  C 1.36513671875 16.7701171875  1.13310546875 16.86767578125  0.95908203125 17.04169921875  C 0.7876953125 17.21572265625  0.69013671875 17.450390625  0.69013671875 17.69296875  C 0.69013671875 18.2044921875  1.10146484375 18.61845703125  1.60771484375 18.61845703125  L 8.6978515625 18.61845703125  C 8.33134765625 18.0357421875  8.02548828125 17.41875  7.7908203125 16.77275390625  Z M 0.72177734375 1.081640625  C 0.7244140625 1.57998046875  1.1146484375 1.988671875  1.6103515625 2  L 21.201171875 2  C 21.71005859375 2.00712890625  22.11875 1.5931640625  22.11875 1.08427734375  C 22.11875 0.839062499999999  22.023828125 0.60439453125  21.85244140625 0.430371093749999  C 21.6810546875 0.256347656249999  21.44638671875 0.158789062499999  21.201171875 0.158789062499999  L 1.6103515625 0.158789062499999  C 1.1146484375 0.179882812499999  0.72177734375 0.585937499999999  0.72177734375 1.081640625  Z M 0.6875 12.155859375  C 0.6875 12.6673828125  1.10146484375 13.0787109375  1.6103515625 13.0787109375  L 7.19228515625 13.0787109375  C 7.2107421875 12.45908203125  7.2845703125 11.839453125  7.41640625 11.2330078125  L 1.6103515625 11.2330078125  C 1.10146484375 11.2330078125  0.6875 11.64697265625  0.6875 12.155859375  Z M 9.10126953125 7.54951171875  C 9.6154296875 6.85341796875  10.211328125 6.2337890625  10.8810546875 5.69853515625  L 1.6103515625 5.69853515625  C 1.36513671875 5.69853515625  1.13046875 5.79609375  0.95908203125 5.9701171875  C 0.7876953125 6.144140625  0.69013671875 6.37880859375  0.6927734375 6.6240234375  C 0.6927734375 7.135546875  1.1041015625 7.54951171875  1.6103515625 7.54951171875  L 9.10126953125 7.54951171875  Z M 19.06015625 13.26591796875  L 17.12216796875 13.26591796875  L 17.12216796875 11.3279296875  C 17.12216796875 10.869140625  16.750390625 10.49736328125  16.2916015625 10.49736328125  C 15.8328125 10.49736328125  15.46103515625 10.869140625  15.46103515625 11.3279296875  L 15.46103515625 14.096484375  C 15.46103515625 14.55791015625  15.8328125 14.92705078125  16.2916015625 14.92705078125  L 19.06015625 14.92705078125  C 19.5189453125 14.92705078125  19.89072265625 14.5552734375  19.89072265625 14.096484375  C 19.89072265625 13.6376953125  19.5189453125 13.26591796875  19.06015625 13.26591796875  Z " fill-rule="nonzero" fill="#000000" stroke="none" transform="matrix(1 0 0 1 1275 256 )" />
  </g>
</svg>