<?xml version="1.0" encoding="utf-8"?>
<svg version="1.1" xmlns:xlink="http://www.w3.org/1999/xlink" width="12px" height="12px" xmlns="http://www.w3.org/2000/svg">
  <g transform="matrix(1 0 0 1 -1587 -1684 )">
    <path d="M 5.99998641328125 11.971383396875  C 2.70216873828125 11.971383396875  0.0286301898437502 9.29776331484375  0.0286301898437502 5.9999456265625  C 0.0286301898437502 2.70212793828125  2.702168725 0.028616603125  5.99998641328125 0.028616603125  C 9.2985787703125 0.028616603125  11.9713698101563 2.70212796484375  11.9713698101563 5.9999592265625  C 11.9713698101563 9.29779048828125  9.29857875703125 11.971383396875  5.99998641328125 11.971383396875  Z M 8.73842094765625 4.25911551796875  C 8.85074879296875 4.14671972578125  8.85074879296875 3.964236240625  8.73842094765625 3.85193558203125  L 8.1284529125 3.2427014421875  C 8.01609789375 3.1303464234375  7.8344298640625 3.1303464234375  7.72204765859375 3.2427014421875  L 5.99474037265625 4.970022328125  L 4.26741948671875 3.2427014421875  C 4.15506446796875 3.1303464234375  3.97334206484375 3.1303464234375  3.8610142328125 3.2427014421875  L 3.25104619765625 3.85193558203125  C 3.13871835234375 3.964236240625  3.13871835234375 4.1467197125  3.25104619765625 4.25911551796875  L 4.9783670703125 5.98638203046875  L 3.251046184375 7.713702903125  C 3.1387183390625 7.82600356171875  3.1387183390625 8.00775313828125  3.251046184375 8.12010815703125  L 3.8610142328125 8.73003543203125  C 3.973342078125 8.84165655546875  4.15506446796875 8.84165655546875  4.26741948671875 8.73003543203125  L 5.994740359375 7.002714559375  L 7.7220612453125 8.73003543203125  C 7.83444345078125 8.84165655546875  8.01611148046875 8.84165655546875  8.12846649921875 8.73003543203125  L 8.738434534375 8.12012175703125  C 8.8507623796875 8.00776673828125  8.8507623796875 7.82601716171875  8.738434534375 7.713716503125  L 7.011100075 5.9863956171875  L 8.73842094765625 4.25911551796875  Z " fill-rule="nonzero" fill="#7f7f7f" stroke="none" transform="matrix(1 0 0 1 1587 1684 )" />
  </g>
</svg>