<?xml version="1.0" encoding="utf-8"?>
<svg version="1.1" xmlns:xlink="http://www.w3.org/1999/xlink" width="21px" height="20px" preserveAspectRatio="xMinYMid meet" viewBox="2178 195  21 18" xmlns="http://www.w3.org/2000/svg">
  <path d="M 2187 204  L 2605 204  A 5 5 0 0 1 2610 209 L 2610 311  A 5 5 0 0 0 2615 316 L 2623 316  " stroke-width="2" stroke="#0099cc" fill="none" />
  <path d="M 2188.5 200.5  A 3.5 3.5 0 0 0 2185 204 A 3.5 3.5 0 0 0 2188.5 207.5 A 3.5 3.5 0 0 0 2192 204 A 3.5 3.5 0 0 0 2188.5 200.5 Z M 2622 323.6  L 2629 316  L 2622 308.4  L 2622 323.6  Z " fill-rule="nonzero" fill="#0099cc" stroke="none" />
</svg>