<?xml version="1.0" encoding="utf-8"?>
<svg version="1.1" xmlns:xlink="http://www.w3.org/1999/xlink" width="17px" height="21px" xmlns="http://www.w3.org/2000/svg">
  <g transform="matrix(1 0 0 1 -410 -206 )">
    <path d="M 16.9639769101562 11.8903043818359  C 16.9639769326172 7.53599860253906  13.8264431630859 3.93169730761719  9.7395381015625 3.31762264355469  C 10.0132595292969 3.01245855371094  10.1806780117187 2.604852890625  10.1806780117187 2.15684065234375  C 10.1806780117187 1.21093997949219  9.43510951757812 0.444294748046875  8.51577880859375 0.444294748046875  C 7.59644809960938 0.444294748046875  6.85087960546875 1.21091697949219  6.85087960546875 2.15684065234375  C 6.85087960546875 2.60278430566406  7.01668918847656 3.008758046875  7.28815812109375 3.31346247363281  C 3.18773822363281 3.91533240332031  0.0360000898437498 7.5261382734375  0.0360000898437498 11.8903043818359  C 0.0360000898437498 16.6759357197266  3.825463828125 20.5556822519531  8.4999885 20.5556822519531  C 13.1745361494141 20.5556822519531  16.9639769101562 16.6759357197266  16.9639769101562 11.8903043818359  Z M 7.55119178125 2.14895699804688  C 7.55119178125 1.59795159082031  7.98607993652344 1.15143331933594  8.52315679980469 1.15143331933594  C 9.06021068554687 1.15143331933594  9.49620207714844 1.59792859082031  9.49620207714844 2.14895699804688  C 9.49620207714844 2.69996240527344  9.06021068554687 3.14673349707031  8.52315679980469 3.14673349707031  C 7.9861029140625 3.14673349707031  7.55119178125 2.69996240527344  7.55119178125 2.14895699804688  Z M 15.9513754736328 12.5110674863281  C 15.7059478642578 16.2754092724609  12.7259493154297 19.2849657861328  8.99808379980469 19.5328986884766  L 8.99808379980469 18.0417616777344  L 8.00189322265625 18.0417616777344  L 8.00189322265625 19.5328986884766  C 4.27405068457031 19.2849657861328  1.29402915820313 16.2754092724609  1.04857857128906 12.5110674863281  L 2.52544226269531 12.5110674863281  L 2.52544226269531 11.5054073330078  L 1.04857857128906 11.5054073330078  C 1.29402915820312 7.741088546875  4.27405070703125 4.73150903320312  8.00189322265625 4.48357613085937  L 8.00189322265625 5.97498896191406  L 8.99808379980469 5.97498896191406  L 8.99808379980469 4.48357613085937  C 12.7259493154297 4.73150903320312  15.7059478642578 7.741088546875  15.9513754736328 11.5054073330078  L 14.4745347822266 11.5054073330078  L 14.4745347822266 12.5110674863281  L 15.9513754736328 12.5110674863281  Z M 6.88986119140625 10.1877566943359  L 4.30248241308594 16.2660316289063  L 10.1669792880859 13.5704652304688  L 12.7059069042969 7.54248020019531  L 6.88986119140625 10.1877566943359  Z M 7.58959874902344 12.8538570830078  C 7.07415021875 12.3183431640625  7.07415021875 11.449854  7.58959874902344 10.9143630585938  C 8.10559889746094 10.3794237578125  8.94122034277344 10.3794237578125  9.45722049121094 10.9143630585938  C 9.97322063964844 11.449854  9.97322063964844 12.3183431640625  9.45722049121094 12.8538570830078  C 8.94122034277344 13.389325046875  8.10559889746094 13.389325046875  7.58959874902344 12.8538570830078  Z " fill-rule="nonzero" fill="#000000" stroke="none" transform="matrix(1 0 0 1 410 206 )" />
  </g>
</svg>