<?xml version="1.0" encoding="utf-8"?>
<svg version="1.1" xmlns:xlink="http://www.w3.org/1999/xlink" width="20px" height="20px" preserveAspectRatio="xMinYMid meet" viewBox="1833 3414  20 18" xmlns="http://www.w3.org/2000/svg">
  <path d="M 1513 3213  L 1695 3213  A 5 5 0 0 1 1700 3218 L 1700 3418  A 5 5 0 0 0 1705 3423 L 1842 3423  " stroke-width="2" stroke="#0099cc" fill="none" />
  <path d="M 1514.5 3209.5  A 3.5 3.5 0 0 0 1511 3213 A 3.5 3.5 0 0 0 1514.5 3216.5 A 3.5 3.5 0 0 0 1518 3213 A 3.5 3.5 0 0 0 1514.5 3209.5 Z M 1841 3430.6  L 1848 3423  L 1841 3415.4  L 1841 3430.6  Z " fill-rule="nonzero" fill="#0099cc" stroke="none" />
</svg>