<?xml version="1.0" encoding="utf-8"?>
<svg version="1.1" xmlns:xlink="http://www.w3.org/1999/xlink" width="20px" height="20px" xmlns="http://www.w3.org/2000/svg">
  <g transform="matrix(1 0 0 1 -1491 -3203 )">
    <path d="M 1.91304347826087 10  C 1.91304347826087 5.55217391304348  5.55217391304348 1.91304347826087  10 1.91304347826087  C 14.4478260869565 1.91304347826087  18.0869565217391 5.55217391304348  18.0869565217391 10  C 18.0869565217391 14.4478260869565  14.4478260869565 18.0869565217391  10 18.0869565217391  C 5.55217391304348 18.0869565217391  1.91304347826087 14.4478260869565  1.91304347826087 10  Z M 19.4347826086957 10  C 19.4347826086957 4.81086956521739  15.1891304347826 0.565217391304348  10 0.565217391304348  C 4.81086956521739 0.565217391304348  0.565217391304348 4.81086956521739  0.565217391304348 10  C 0.565217391304348 15.1891304347826  4.81086956521739 19.4347826086957  10 19.4347826086957  C 15.1891304347826 19.4347826086957  19.4347826086957 15.1891304347826  19.4347826086957 10  Z M 10 6.2260869991267  C 10 6.78437484406435  10.4525817202797 7.23695656434409  11.0108695652174 7.23695656434409  C 11.569157410155 7.23695656434409  12.0217391304348 6.78437484406435  12.0217391304348 6.2260869991267  C 12.0217391304348 5.66779911158409  11.569157410155 5.21521739130435  11.0108695652174 5.21521739130435  C 10.4525817202797 5.21521739130435  10 5.66779911158409  10 6.22608695652174  Z M 11.2804347826087 14.4478260869565  C 10.6065217391304 15.2565217391304  9.52826086956521 15.3913043478261  9.32608695652174 15.3913043478261  C 9.12391304347826 15.3913043478261  8.92173913043478 15.3239130434783  8.78695652173913 15.1891304347826  C 8.65217391304348 15.054347826087  8.58478260869565 14.7847826086957  8.65217391304348 14.5826086956522  L 9.66304347826087 9.86521739130435  C 9.39347826086956 10.0673913043478  9.05652173913043 10  8.85434782608695 9.79782608695652  C 8.58478260869565 9.52826086956522  8.51739130434782 9.12391304347826  8.78695652173913 8.85434782608696  C 9.59565217391304 7.97826086956522  10.5391304347826 7.91086956521739  10.6739130434783 7.97826086956522  C 10.8760869565217 7.97826086956522  11.0782608695652 8.11304347826087  11.2130434782609 8.24782608695652  C 11.3478260869565 8.38260869565218  11.4152173913043 8.58478260869565  11.3478260869565 8.78695652173913  L 10.3369565217391 13.504347826087  C 10.5391304347826 13.3695652173913  10.8760869565217 13.3695652173913  11.0782608695652 13.504347826087  C 11.4152173913043 13.7065217391304  11.4826086956522 14.1108695652174  11.2804347826087 14.4478260869565  Z " fill-rule="nonzero" fill="#000000" stroke="none" transform="matrix(1 0 0 1 1491 3203 )" />
  </g>
</svg>