<?xml version="1.0" encoding="utf-8"?>
<svg version="1.1" xmlns:xlink="http://www.w3.org/1999/xlink" width="121px" height="10px" preserveAspectRatio="xMinYMid meet" viewBox="3985 845  121 8" xmlns="http://www.w3.org/2000/svg">
  <path d="M 3024 98  L 3024 75  A 5 5 0 0 1 3029 70 L 3985 70  A 5 5 0 0 1 3990 75 L 3990 372  A 3 3 0 0 1 3993 375 A 3 3 0 0 1 3990 378 L 3990 844  A 5 5 0 0 0 3995 849 L 4100 849  " stroke-width="2" stroke="#0099cc" fill="none" />
  <path d="M 3024 93  A 3.5 3.5 0 0 0 3020.5 96.5 A 3.5 3.5 0 0 0 3024 100 A 3.5 3.5 0 0 0 3027.5 96.5 A 3.5 3.5 0 0 0 3024 93 Z M 4099 856.6  L 4106 849  L 4099 841.4  L 4099 856.6  Z " fill-rule="nonzero" fill="#0099cc" stroke="none" />
</svg>