<?xml version="1.0" encoding="utf-8"?>
<svg version="1.1" xmlns:xlink="http://www.w3.org/1999/xlink" width="12px" height="12px" xmlns="http://www.w3.org/2000/svg">
  <g transform="matrix(1 0 0 1 -685 -220 )">
    <path d="M 11.7001953125 6  C 11.7001953125 5.2306640625  11.54912109375 4.4841796875  11.25205078125 3.780859375  C 10.96513671875 3.10166015625  10.55380859375 2.49228515625  10.03076171875 1.96923828125  C 9.50771484375 1.44619140625  8.89833984375 1.03486328125  8.219140625 0.74794921875  C 7.5158203125 0.45087890625  6.7693359375 0.2998046875  6 0.2998046875  C 5.2306640625 0.2998046875  4.4841796875 0.45087890625  3.780859375 0.74794921875  C 3.10166015625 1.03486328125  2.49228515625 1.44619140625  1.96923828125 1.96923828125  C 1.44619140625 2.49228515625  1.03486328125 3.10166015625  0.74794921875 3.780859375  C 0.45087890625 4.4841796875  0.2998046875 5.2306640625  0.2998046875 6  C 0.2998046875 6.7693359375  0.45087890625 7.5158203125  0.74794921875 8.219140625  C 1.03486328125 8.89833984375  1.44619140625 9.50771484375  1.96923828125 10.03076171875  C 2.49228515625 10.55380859375  3.10166015625 10.96513671875  3.780859375 11.25205078125  C 4.4841796875 11.54912109375  5.2306640625 11.7001953125  6 11.7001953125  C 6.7693359375 11.7001953125  7.5158203125 11.54912109375  8.219140625 11.25205078125  C 8.89833984375 10.96513671875  9.50771484375 10.55380859375  10.03076171875 10.03076171875  C 10.55380859375 9.50771484375  10.96513671875 8.89833984375  11.25205078125 8.219140625  C 11.54912109375 7.5158203125  11.7001953125 6.7693359375  11.7001953125 6  Z M 8.7244140625 4.07666015625  C 8.84755859375 4.20107421875  8.84755859375 4.40166015625  8.7244140625 4.52607421875  L 5.34111328125 7.91064453125  L 5.3373046875 7.914453125  C 5.2763671875 7.9728515625  5.19892578125 8.00205078125  5.12021484375 8.0033203125  C 5.040234375 8.00205078125  4.96025390625 7.97158203125  4.89931640625 7.91064453125  L 3.2755859375 6.29453125  C 3.21337890625 6.23232421875  3.18291015625 6.15107421875  3.18291015625 6.06982421875  C 3.18291015625 5.98857421875  3.21337890625 5.90732421875  3.2755859375 5.8451171875  C 3.4 5.720703125  3.6005859375 5.720703125  3.725 5.8451171875  L 5.11640625 7.2365234375  L 8.275 4.07666015625  C 8.3994140625 3.95224609375  8.6 3.95224609375  8.7244140625 4.07666015625  Z " fill-rule="nonzero" fill="#70b603" stroke="none" transform="matrix(1 0 0 1 685 220 )" />
  </g>
</svg>