<?xml version="1.0" encoding="utf-8"?>
<svg version="1.1" xmlns:xlink="http://www.w3.org/1999/xlink" width="22px" height="22px" xmlns="http://www.w3.org/2000/svg">
  <g transform="matrix(1 0 0 1 -671 -354 )">
    <path d="M 21.4503580729167 11  C 21.4503580729167 9.58955078125  21.173388671875 8.22099609375  20.628759765625 6.93157552083333  C 20.1027506510417 5.686376953125  19.3486490885417 4.569189453125  18.3897298177083 3.61027018229167  C 17.430810546875 2.65135091145833  16.313623046875 1.89724934895833  15.0684244791667 1.371240234375  C 13.77900390625 0.826611328125  12.41044921875 0.549641927083333  11 0.549641927083333  C 9.58955078125 0.549641927083333  8.22099609375 0.826611328125  6.93157552083333 1.371240234375  C 5.686376953125 1.89724934895833  4.569189453125 2.65135091145833  3.61027018229167 3.61027018229167  C 2.65135091145833 4.569189453125  1.89724934895833 5.686376953125  1.371240234375 6.93157552083333  C 0.826611328125 8.22099609375  0.549641927083333 9.58955078125  0.549641927083333 11  C 0.549641927083333 12.41044921875  0.826611328125 13.77900390625  1.371240234375 15.0684244791667  C 1.89724934895833 16.313623046875  2.65135091145833 17.430810546875  3.61027018229167 18.3897298177083  C 4.569189453125 19.3486490885417  5.686376953125 20.1027506510417  6.93157552083333 20.628759765625  C 8.22099609375 21.173388671875  9.58955078125 21.4503580729167  11 21.4503580729167  C 12.41044921875 21.4503580729167  13.77900390625 21.173388671875  15.0684244791667 20.628759765625  C 16.313623046875 20.1027506510417  17.430810546875 19.3486490885417  18.3897298177083 18.3897298177083  C 19.3486490885417 17.430810546875  20.1027506510417 16.313623046875  20.628759765625 15.0684244791667  C 21.173388671875 13.77900390625  21.4503580729167 12.41044921875  21.4503580729167 11  Z M 15.9947591145833 7.473876953125  C 16.2205240885417 7.70196940104167  16.2205240885417 8.06971028645833  15.9947591145833 8.297802734375  L 9.792041015625 14.5028483072917  L 9.78505859375 14.5098307291667  C 9.67333984375 14.61689453125  9.53136393229167 14.6704264322917  9.387060546875 14.67275390625  C 9.2404296875 14.6704264322917  9.093798828125 14.6145670572917  8.982080078125 14.5028483072917  L 6.00524088541667 11.5399739583333  C 5.89119466145833 11.425927734375  5.83533528645833 11.2769694010417  5.83533528645833 11.1280110677083  C 5.83533528645833 10.979052734375  5.89119466145833 10.8300944010417  6.00524088541667 10.7160481770833  C 6.23333333333333 10.4879557291667  6.60107421875 10.4879557291667  6.82916666666667 10.7160481770833  L 9.380078125 13.2669596354167  L 15.1708333333333 7.473876953125  C 15.39892578125 7.24578450520833  15.7666666666667 7.24578450520833  15.9947591145833 7.473876953125  Z " fill-rule="nonzero" fill="#70b603" stroke="none" transform="matrix(1 0 0 1 671 354 )" />
  </g>
</svg>