<?xml version="1.0" encoding="utf-8"?>
<svg version="1.1" xmlns:xlink="http://www.w3.org/1999/xlink" width="12px" height="12px" xmlns="http://www.w3.org/2000/svg">
  <g transform="matrix(1 0 0 1 -535 -220 )">
    <path d="M 11.8539663461538 6.00459735576923  C 11.8539663461538 2.76039663461539  9.22427884615385 0.130709134615385  5.980078125 0.130709134615385  C 2.73587740384615 0.130709134615385  0.106189903846154 2.76039663461539  0.106189903846154 6.00459735576923  C 0.106189903846154 9.24879807692308  2.73587740384615 11.8784855769231  5.980078125 11.8784855769231  C 9.22427884615385 11.8784855769231  11.8539663461538 9.24879807692308  11.8539663461538 6.00459735576923  Z M 6.50111177884615 6.00612980769231  L 8.05655048076923 7.56310096153846  C 8.20060096153846 7.70715144230769  8.20060096153846 7.93855168269231  8.05655048076923 8.08260216346154  C 7.9125 8.22665264423077  7.68109975961539 8.22665264423077  7.53704927884615 8.08260216346154  L 5.98161057692308 6.52563100961538  L 4.41544471153846 8.091796875  C 4.27139423076923 8.23584735576923  4.03692908653846 8.23584735576923  3.89287860576923 8.091796875  C 3.748828125 7.94774639423077  3.748828125 7.71328125  3.89287860576923 7.56923076923077  L 5.45904447115385 6.00306490384615  L 3.90360576923077 4.44762620192308  C 3.75955528846154 4.30357572115385  3.75955528846154 4.07217548076923  3.90360576923077 3.928125  C 4.04765625 3.78407451923077  4.27905649038462 3.78407451923077  4.42310697115385 3.928125  L 5.97854567307692 5.48356370192308  L 7.55697115384615 3.90513822115385  C 7.70102163461538 3.76108774038461  7.93548677884615 3.76108774038461  8.07953725961539 3.90513822115385  C 8.22358774038461 4.04918870192308  8.22358774038461 4.28365384615385  8.07953725961539 4.42770432692308  L 6.50111177884615 6.00612980769231  Z " fill-rule="nonzero" fill="#d9001b" stroke="none" transform="matrix(1 0 0 1 535 220 )" />
  </g>
</svg>