<?xml version="1.0" encoding="utf-8"?>
<svg version="1.1" xmlns:xlink="http://www.w3.org/1999/xlink" width="30px" height="30px" xmlns="http://www.w3.org/2000/svg">
  <defs>
    <filter x="2277px" y="86px" width="30px" height="30px" filterUnits="userSpaceOnUse" id="filter119">
      <feOffset dx="1" dy="1" in="SourceAlpha" result="shadowOffsetInner" />
      <feGaussianBlur stdDeviation="2.5" in="shadowOffsetInner" result="shadowGaussian" />
      <feComposite in2="shadowGaussian" operator="atop" in="SourceAlpha" result="shadowComposite" />
      <feColorMatrix type="matrix" values="0 0 0 0 0  0 0 0 0 0  0 0 0 0 0  0 0 0 0.698039215686274 0  " in="shadowComposite" />
    </filter>
    <g id="widget120">
      <path d="M 2291 90  C 2296.6 90  2301 94.4  2301 100  C 2301 105.6  2296.6 110  2291 110  C 2285.4 110  2281 105.6  2281 100  C 2281 94.4  2285.4 90  2291 90  Z " fill-rule="nonzero" fill="#009dd9" stroke="none" />
      <path d="M 2291 90.5  C 2296.32 90.5  2300.5 94.68  2300.5 100  C 2300.5 105.32  2296.32 109.5  2291 109.5  C 2285.68 109.5  2281.5 105.32  2281.5 100  C 2281.5 94.68  2285.68 90.5  2291 90.5  Z " stroke-width="1" stroke="#ffffff" fill="none" />
    </g>
  </defs>
  <g transform="matrix(1 0 0 1 -2277 -86 )">
    <use xlink:href="#widget120" filter="url(#filter119)" />
    <use xlink:href="#widget120" />
  </g>
</svg>