<?xml version="1.0" encoding="utf-8"?>
<svg version="1.1" xmlns:xlink="http://www.w3.org/1999/xlink" width="24px" height="14px" xmlns="http://www.w3.org/2000/svg">
  <g transform="matrix(1 0 0 1 -1743 -910 )">
    <path d="M 24 1.75  C 24 0.921625000000001  23.328375 0.25  22.5 0.25  L 1.5 0.25  C 0.671625 0.25  0 0.921625000000001  0 1.75  L 0 12.25  C 0 13.078375  0.671625 13.75  1.5 13.75  L 22.5 13.75  C 23.328375 13.75  24 13.078375  24 12.25  L 24 1.75  Z M 22.875 2.5  L 22.875 11.5  C 22.875 12.328375  22.578375 12.625  21.75 12.625  L 2.25 12.625  C 1.421625 12.625  1.125 12.328375  1.125 11.5  L 1.125 2.5  C 1.125 1.671625  1.421625 1.375  2.25 1.375  L 21.75 1.375  C 22.578375 1.375  22.875 1.671625  22.875 2.5  Z M 11.25 4  C 11.25 3.171625  10.578375 2.5  9.75 2.5  L 3.75 2.5  C 2.921625 2.5  2.25 3.171625  2.25 4  L 2.25 10  C 2.25 10.828375  2.921625 11.5  3.75 11.5  L 9.75 11.5  C 10.578375 11.5  11.25 10.828375  11.25 10  L 11.25 4  Z " fill-rule="nonzero" fill="#ffffff" stroke="none" transform="matrix(1 0 0 1 1743 910 )" />
  </g>
</svg>