<?xml version="1.0" encoding="utf-8"?>
<svg version="1.1" xmlns:xlink="http://www.w3.org/1999/xlink" width="17px" height="17px" xmlns="http://www.w3.org/2000/svg">
  <g transform="matrix(1 0 0 1 -626 -786 )">
    <path d="M 16.0457499902344 14.5653996503906  C 16.1188694121094 13.8055348398437  16.0970532001953 13.0327777685547  16.0651927978516 12.2679573164063  C 16.0440221591797 11.7604124316406  15.7122031162109 11.48012446875  15.2744169355469 11.4905294179688  C 14.8406370458984 11.5008204414062  14.5545010351562 11.7860830273438  14.5137736445312 12.3048683046875  C 14.48388790625 12.6859779121094  14.5094825576172 13.0711697548828  14.5012231611328 13.4543679521484  C 14.4805271884766 14.4160279404297  14.2722763896484 14.6382342949219  13.3109201787109 14.6572024365234  C 12.3848800322266 14.6754870419922  11.4581753310547 14.6632023730469  10.5317744443359 14.6632783173828  C 8.39146956933593 14.6634492060547  6.25112673144531 14.6650251298828  4.11082185644531 14.6620631337891  C 2.63683223046875 14.6600315068359  2.50908682519531 14.5326848603516  2.50204261230469 13.0996884208984  C 2.50077046582031 12.8441786474609  2.51364374511718 12.58709296875  2.49017566503906 12.3335008964844  C 2.44022052734375 11.7937918134766  2.18721706542968 11.512991203125  1.75884850195312 11.4887636240234  C 1.29645500195312 11.4625803808594  0.959433502929685 11.7769882060547  0.924079475585935 12.3329122861328  C 0.89174440722656 12.8420900576172  0.90991508691406 13.3547424912109  0.913275804687498 13.8658189824219  C 0.924231382812498 15.5203382216797  1.65722939550781 16.2627538515625  3.31228028222656 16.2722094501953  C 5.03724176171875 16.2820827519531  6.7623171484375 16.2744119658203  8.48735459082031 16.2748106875  C 8.99846906347656 16.2752284091797  9.50962149902344 16.2753992792969  10.0207169716797 16.2752094091797  C 11.3304869443359 16.2747537246094  12.6405607128906 16.2929623671875  13.9498370195312 16.2679183447266  C 15.1041783828125 16.2458552998047  15.9482890634766 15.5781160341797  16.0457499902344 14.5653996503906  Z M 2.40450572265626 6.90559399609375  C 2.48491622753906 7.0040232734375  2.58099108203125 7.0898450859375  2.67119892578125 7.18012887402344  C 4.31804736035156 8.82790767773438  5.96512364648438 10.4754776298828  7.61218093261719 12.1230665634766  C 7.679851046875 12.1907746591797  7.74877432617188 12.2572296083984  7.81598875585938 12.3253554072266  C 8.08103005371094 12.59406121875  8.39021642285156 12.7455215371094  8.76477548339844 12.6036117431641  C 8.88695763671875 12.5573211191406  8.97777307226563 12.4875434335937  9.0554304140625 12.4083671123047  C 9.10669566113281 12.3728801777344  9.15693559472656 12.3338236552734  9.2025616640625 12.2894697324219  C 10.0493115634766 11.4660929873047  13.6575871650391 7.84621625292969  14.4911599892578 7.00928269238281  C 14.5807032783203 6.91937864453125  14.6667529423828 6.82275316113281  14.7373660527344 6.71777333691406  C 14.9639964013672 6.38073285644531  14.9329524423828 6.05056570019531  14.6641516865234 5.7556386640625  C 14.3891991054688 5.45399017382812  14.0429308779297 5.44132576464844  13.7016372734375 5.60915298730469  C 13.5359366220703 5.69062675  13.3994571542969 5.84035923730469  13.2645536103516 5.97418050488281  C 12.7034650371094 6.53065521386719  10.6741019414063 8.55819553417968  9.31526921875 9.91909784667969  C 9.31597173632813 7.79347002636718  9.31619958789063 5.6678611875  9.31578186621094 3.5422143671875  C 9.31566794042969 2.90396209960937  9.33602213574219 2.26455162988281  9.30437060351563 1.62781832324219  C 9.27492156835938 1.03633134570312  8.98785520703126 0.734587929687498  8.52565157714844 0.719436208984373  C 8.05154301855469 0.703885748046873  7.763888046875 0.992717921874998  7.69925587304688 1.57588854003906  C 7.67476247949219 1.79684172949219  7.68769272167969 2.02219993164062  7.68757879589844 2.24556450683593  C 7.68681931542969 3.649719484375  7.68718007421876 5.05391244335937  7.68718007421876 6.45810540234375  C 7.68716109277344 7.50813147753906  7.68718007421876 8.55815757128906  7.68718007421876 9.60820262792969  C 7.61428850390626 9.64046175195313  7.54141589648438 9.67270189453125  7.46852432617188 9.70496101855469  C 7.04642151367188 9.28445312988281  6.62380605371094 8.86436294433594  6.20225385156251 8.44330442675781  C 5.32178281152344 7.56370679296875  4.45274201562501 6.67233713769531  3.55681545898438 5.80880261230469  C 3.15231371582032 5.4189019609375  2.68342661328126 5.41250330273437  2.36134798339844 5.71899350878906  C 2.01420634960938 6.04933153515625  2.02643405566407 6.44263088574219  2.40450572265626 6.90559399609375  Z " fill-rule="nonzero" fill="#ffffff" stroke="none" transform="matrix(1 0 0 1 626 786 )" />
  </g>
</svg>