<?xml version="1.0" encoding="utf-8"?>
<svg version="1.1" xmlns:xlink="http://www.w3.org/1999/xlink" width="22px" height="22px" xmlns="http://www.w3.org/2000/svg">
  <g transform="matrix(1 0 0 1 -2063 -753 )">
    <path d="M 21.4177734375 6.90364583333333  L 15.0963541666667 0.5822265625  L 1.371240234375 14.3073404947917  L 0.5822265625 21.4177734375  L 7.69265950520833 20.628759765625  L 21.4177734375 6.90364583333333  Z M 15.0963541666667 2.230078125  L 19.7722493489583 6.90364583333333  L 18.8389322916667 7.836962890625  L 14.163037109375 3.16339518229167  L 15.0963541666667 2.230078125  Z M 7.67869466145833 18.994873046875  L 7.068896484375 18.38740234375  L 17.4052083333333 8.05109049479167  L 18.0150065104167 8.660888671875  L 7.67869466145833 18.994873046875  Z M 6.24729817708333 17.5634765625  L 3.005126953125 14.3213053385417  L 13.3414388020833 3.98499348958333  L 16.5836100260417 7.22716471354167  L 6.24729817708333 17.5634765625  Z M 1.89957682291667 20.1004231770833  L 2.42325846354167 15.3849609375  L 6.6150390625 19.5767415364583  L 1.89957682291667 20.1004231770833  Z " fill-rule="nonzero" fill="#ffffff" stroke="none" transform="matrix(1 0 0 1 2063 753 )" />
  </g>
</svg>