<?xml version="1.0" encoding="utf-8"?>
<svg version="1.1" xmlns:xlink="http://www.w3.org/1999/xlink" width="26px" height="26px" xmlns="http://www.w3.org/2000/svg">
  <defs>
    <filter x="1382px" y="338px" width="26px" height="26px" filterUnits="userSpaceOnUse" id="filter509">
      <feOffset dx="1" dy="1" in="SourceAlpha" result="shadowOffsetInner" />
      <feGaussianBlur stdDeviation="2.5" in="shadowOffsetInner" result="shadowGaussian" />
      <feComposite in2="shadowGaussian" operator="atop" in="SourceAlpha" result="shadowComposite" />
      <feColorMatrix type="matrix" values="0 0 0 0 0  0 0 0 0 0  0 0 0 0 0  0 0 0 0.698039215686274 0  " in="shadowComposite" />
    </filter>
    <g id="widget510">
      <path d="M 1394 342  C 1398.48 342  1402 345.52  1402 350  C 1402 354.48  1398.48 358  1394 358  C 1389.52 358  1386 354.48  1386 350  C 1386 345.52  1389.52 342  1394 342  Z " fill-rule="nonzero" fill="#009dd9" stroke="none" />
      <path d="M 1394 342.5  C 1398.2 342.5  1401.5 345.8  1401.5 350  C 1401.5 354.2  1398.2 357.5  1394 357.5  C 1389.8 357.5  1386.5 354.2  1386.5 350  C 1386.5 345.8  1389.8 342.5  1394 342.5  Z " stroke-width="1" stroke="#ffffff" fill="none" />
    </g>
  </defs>
  <g transform="matrix(1 0 0 1 -1382 -338 )">
    <use xlink:href="#widget510" filter="url(#filter509)" />
    <use xlink:href="#widget510" />
  </g>
</svg>