<?xml version="1.0" encoding="utf-8"?>
<svg version="1.1" xmlns:xlink="http://www.w3.org/1999/xlink" width="23px" height="21px" xmlns="http://www.w3.org/2000/svg">
  <g transform="matrix(1 0 0 1 -1041 -264 )">
    <path d="M 15.0431266236414 6.48796296296296  C 15.0431266236414 7.81135718098917  16.0879817046995 8.8908993626703  17.3922526041667 8.91507523148148  C 17.4068219380948 8.91534528757631  17.4213933997127 8.91548032407407  17.4359651653081 8.91548032407407  C 18.7574934006779 8.91548032407407  19.8288037069748 7.82864378145412  19.8288037069748 6.48796296296296  C 19.8288037069748 5.14728214447181  18.7574934006779 4.06044560185185  17.4359651653081 4.06044560185185  C 17.4213933997127 4.06044560185185  17.4068219380948 4.06058063834961  17.3922526041667 4.06085069444444  C 16.0879817046995 4.08502656325563  15.0431266236414 5.16456874493676  15.0431266236414 6.48796296296296  Z M 23 2.25814814814815  C 22.9735859375 1.46912905092592  22.3551414930556 0.827037037037036  21.5774140625 1  L 2.04188888888889 1  C 1.26414149305556 0.827037037037037  0.645717013888889 1.46912905092593  1 2.25814814814815  L 1 18.8075376157407  C 0.645717013888889 19.5965364583333  1.26414149305556 20.2386487268518  2.04188888888889 20  L 21.5774140625 20  C 22.3551414930556 20.2386487268518  22.9735859375 19.5965364583333  23 18.8075376157407  L 23 2.25814814814815  Z M 16.4390104166667 10.8214814814815  L 16.4407473958333 10.8214814814815  C 16.2828189488859 10.6281877051295  16.0501018083355 10.5137700432258  15.8026970486111 10.5077777777778  C 15.5488585069444 10.5077777777778  15.3699696180556 10.6287586805556  15.1646666666667 10.7955555555556  L 14.2327473958333 11.5949450231481  C 14.0385251736111 11.7366666666667  13.8834748263889 11.8325925925926  13.6603029513889 11.8325925925926  C 13.4585831172849 11.8338611784052  13.2634023361132 11.7600706129126  13.1116970486111 11.6251851851852  C 13.038653499071 11.5576519462794  12.9670806879434 11.48849947176  12.8970303819444 11.4177777777778  L 10.2162526041667 8.47605613425926  C 10.0063005279408 8.23288456895515  9.7026411692046 8.09414107485295  9.384 8.09579571759259  C 9.05008072916667 8.09579571759259  8.74085850694444 8.26346354166667  8.54663628472222 8.49074074074074  L 2.24036371527778 16.2045746527778  L 2.24036371527778 3.03677662037037  C 2.28977777777778 2.6928125  2.55385850694444 2.44479456018518  2.89288888888889 2.44479456018518  L 20.7204444444444 2.44479456018518  C 21.0645859375 2.44479456018518  21.3431614583333 2.70318287037037  21 3.05146122685185  L 21 16.2149247685185  L 16.4390104166667 10.8214814814815  Z " fill-rule="nonzero" fill="#000000" stroke="none" transform="matrix(1 0 0 1 1041 264 )" />
  </g>
</svg>