<?xml version="1.0" encoding="utf-8"?>
<svg version="1.1" xmlns:xlink="http://www.w3.org/1999/xlink" width="26px" height="26px" xmlns="http://www.w3.org/2000/svg">
  <g transform="matrix(1 0 0 1 -1040 -205 )">
    <path d="M 20.5333984375 10.4990234375  C 20.5333984375 10.5041015625  20.9294921875 9.897265625  21.587109375 10.4583984375  C 21.587109375 10.4583984375  23.4837890625 11.28359375  23.3517578125 15.5416015625  L 24.7228515625 16.884765625  C 24.7228515625 16.884765625  26.1751953125 13.5890625  25.6470703125 10.765625  C 25.6470703125 10.765625  25.6013671875 8.1173828125  20.7923828125 4.6033203125  C 20.7923828125 4.6033203125  18.408203125 4.8623046875  18.5859375 2.432421875  L 16.68671875 0.563671874999998  L 13.2412109375 3.945703125  L 14.9220703125 5.5986328125  C 14.9220703125 5.5986328125  19.068359375 5.76875  17.616015625 9.115234375  L 11.3953125 15.280078125  L 10.201953125 15.107421875  L 3.0951171875 22.094921875  C 3.0951171875 22.094921875  2.6076171875 23.791015625  3.8466796875 24.8294921875  C 3.8466796875 24.8294921875  4.64140625 25.7892578125  6.3171875 25.7435546875  L 13.2919921875 18.6240234375  L 13.4240234375 17.4484375  L 20.5333984375 10.4990234375  Z M 0.2234375 6.1623046875  C 2.0794921875 14.1958984375  8.1275390625 11.237890625  8.1275390625 11.237890625  L 10.3796875 13.45703125  L 13.4240234375 10.4583984375  L 11.085546875 8.1580078125  C 13.55859375 2.6  6.44921875 0.431640625  6.44921875 0.431640625  C 5.123828125 0.08125  5.3904296875 1.081640625  5.3904296875 1.081640625  C 8.1732421875 3.3388671875  7.72890625 4.077734375  7.72890625 4.077734375  C 7.3734375 6.6853515625  5.0806640625 7.6857421875  5.0806640625 7.6857421875  C 2.7853515625 8.6353515625  0.888671875 5.469140625  0.888671875 5.469140625  C 0.137109375 5.3396484375  0.2234375 6.1623046875  0.2234375 6.1623046875  Z M 25.476953125 22.440234375  C 25.476953125 22.2091796875  25.309375 22.0720703125  25.309375 22.0720703125  L 18.321875 15.452734375  L 15.234375 18.489453125  L 21.8587890625 25.42109375  C 21.8587890625 25.42109375  22.0466796875 25.619140625  22.25234375 25.619140625  C 22.45546875 25.619140625  22.5798828125 25.50234375  22.5798828125 25.50234375  L 25.365234375 22.7626953125  C 25.365234375 22.7626953125  25.476953125 22.6712890625  25.476953125 22.440234375  Z M 23.4736328125 21.70390625  C 23.5904296875 21.7978515625  23.638671875 21.9552734375  23.5955078125 22.0974609375  L 23.212109375 23.262890625  C 23.15625 23.4025390625  23.0216796875 23.4990234375  22.871875 23.506640625  L 21.6251953125 23.506640625  C 21.4728515625 23.5015625  21.3408203125 23.4025390625  21.2849609375 23.262890625  L 20.9041015625 22.0974609375  C 20.8609375 21.9552734375  20.9142578125 21.800390625  21.0361328125 21.70390625  L 22.044140625 20.987890625  C 22.1685546875 20.9015625  22.3361328125 20.9015625  22.465625 20.987890625  L 23.4736328125 21.70390625  Z " fill-rule="nonzero" fill="#333333" stroke="none" transform="matrix(1 0 0 1 1040 205 )" />
  </g>
</svg>