<?xml version="1.0" encoding="utf-8"?>
<svg version="1.1" xmlns:xlink="http://www.w3.org/1999/xlink" width="10px" height="23px" preserveAspectRatio="xMidYMin meet" viewBox="2528 154  8 23" xmlns="http://www.w3.org/2000/svg">
  <path d="M 1342 217  L 2068 217  A 5 5 0 0 0 2073 212 L 2073 164  A 5 5 0 0 1 2078 159 L 2527 159  A 5 5 0 0 1 2532 164 L 2532 171  " stroke-width="2" stroke="#0099cc" fill="none" />
  <path d="M 1343.5 213.5  A 3.5 3.5 0 0 0 1340 217 A 3.5 3.5 0 0 0 1343.5 220.5 A 3.5 3.5 0 0 0 1347 217 A 3.5 3.5 0 0 0 1343.5 213.5 Z M 2524.4 170  L 2532 177  L 2539.6 170  L 2524.4 170  Z " fill-rule="nonzero" fill="#0099cc" stroke="none" />
</svg>