<?xml version="1.0" encoding="utf-8"?>
<svg version="1.1" xmlns:xlink="http://www.w3.org/1999/xlink" width="15px" height="15px" xmlns="http://www.w3.org/2000/svg">
  <g transform="matrix(1 0 0 1 -1317 -256 )">
    <path d="M 12.8421875 5.5  L 12.8421875 13.8234375  L 1.175 13.8234375  L 1.175 2.171875  L 11.0921875 2.171875  L 11.0921875 1  L 0.88125 1  C 0.3953125 0.996875  0 1.3921875  0 1.878125  L 0 14.1171875  C 0 14.603125  0.3953125 14.9984375  0.88125 15  L 13.1359375 15  C 13.621875 14.9984375  14.0171875 14.603125  14.0171875 14.1171875  L 14.0171875 5.5  L 12.8421875 5.5  Z M 11.0875 8.4640625  C 11.2171875 8.334375  11.2875 8.1625  11.2875 7.98125  C 11.2875 7.7984375  11.215625 7.6265625  11.0875 7.4984375  C 10.9578125 7.36875  10.7859375 7.2984375  10.6046875 7.2984375  L 7.671875 7.2984375  L 7.671875 4.3640625  C 7.671875 4.18125  7.6 4.009375  7.471875 3.88125  C 7.3421875 3.7515625  7.1703125 3.68125  6.9890625 3.68125  C 6.80625 3.68125  6.634375 3.753125  6.50625 3.88125  C 6.3765625 4.0109375  6.30625 4.1828125  6.30625 4.3640625  L 6.30625 7.2984375  L 3.3703125 7.2984375  C 3.1875 7.2984375  3.015625 7.3703125  2.8875 7.4984375  C 2.7578125 7.628125  2.6875 7.8  2.6875 7.98125  C 2.6875 8.1640625  2.759375 8.3359375  2.8875 8.4640625  C 3.0171875 8.59375  3.1890625 8.6640625  3.3703125 8.6640625  L 6.3046875 8.6640625  L 6.3046875 11.5984375  C 6.3046875 11.975  6.6109375 12.2828125  6.9890625 12.2828125  C 7.171875 12.2828125  7.34375 12.2109375  7.471875 12.0828125  C 7.6015625 11.953125  7.671875 11.78125  7.671875 11.6  L 7.671875 8.665625  L 10.60625 8.665625  C 10.7875 8.665625  10.959375 8.59375  11.0875 8.4640625  Z " fill-rule="nonzero" fill="#000000" stroke="none" transform="matrix(1 0 0 1 1317 256 )" />
  </g>
</svg>