<?xml version="1.0" encoding="utf-8"?>
<svg version="1.1" xmlns:xlink="http://www.w3.org/1999/xlink" width="172px" height="10px" preserveAspectRatio="xMinYMid meet" viewBox="2843 1004  172 8" xmlns="http://www.w3.org/2000/svg">
  <path d="M 1695 780  L 2843 780  A 5 5 0 0 1 2848 785 L 2848 1003  A 5 5 0 0 0 2853 1008 L 3013 1008  " stroke-width="2" stroke="#3399ff" fill="none" />
  <path d="M 1696.5 776.5  A 3.5 3.5 0 0 0 1693 780 A 3.5 3.5 0 0 0 1696.5 783.5 A 3.5 3.5 0 0 0 1700 780 A 3.5 3.5 0 0 0 1696.5 776.5 Z M 3007.89289321881 1003.70710678119  L 3012.18578643763 1008  L 3007.89289321881 1012.29289321881  L 3009.30710678119 1013.70710678119  L 3014.30710678119 1008.70710678119  L 3015.01421356237 1008  L 3014.30710678119 1007.29289321881  L 3009.30710678119 1002.29289321881  L 3007.89289321881 1003.70710678119  Z " fill-rule="nonzero" fill="#3399ff" stroke="none" />
</svg>