<?xml version="1.0" encoding="utf-8"?>
<svg version="1.1" xmlns:xlink="http://www.w3.org/1999/xlink" width="10px" height="502px" preserveAspectRatio="xMidYMin meet" viewBox="225 457  8 502" xmlns="http://www.w3.org/2000/svg">
  <path d="M 229 459  L 229 949  A 5 5 0 0 0 234 954 L 1383 954  " stroke-width="2" stroke="#3399ff" fill="none" />
  <path d="M 229 457  A 3.5 3.5 0 0 0 225.5 460.5 A 3.5 3.5 0 0 0 229 464 A 3.5 3.5 0 0 0 232.5 460.5 A 3.5 3.5 0 0 0 229 457 Z M 1377.89289321881 949.707106781187  L 1382.18578643763 954  L 1377.89289321881 958.292893218813  L 1379.30710678119 959.707106781187  L 1384.30710678119 954.707106781187  L 1385.01421356237 954  L 1384.30710678119 953.292893218813  L 1379.30710678119 948.292893218813  L 1377.89289321881 949.707106781187  Z " fill-rule="nonzero" fill="#3399ff" stroke="none" />
</svg>