<?xml version="1.0" encoding="utf-8"?>
<svg version="1.1" xmlns:xlink="http://www.w3.org/1999/xlink" width="20px" height="21px" preserveAspectRatio="xMidYMin meet" viewBox="1636 2354  18 21" xmlns="http://www.w3.org/2000/svg">
  <path d="M 1645 2366  L 1645 2295  A 5 5 0 0 1 1650 2290 L 3055 2290  A 5 5 0 0 1 3060 2295 L 3060 2303  A 5 5 0 0 0 3065 2308 L 3087 2308  " stroke-width="2" stroke="#3399ff" fill="none" />
  <path d="M 1645 2361  A 3.5 3.5 0 0 0 1641.5 2364.5 A 3.5 3.5 0 0 0 1645 2368 A 3.5 3.5 0 0 0 1648.5 2364.5 A 3.5 3.5 0 0 0 1645 2361 Z M 3081.89289321881 2303.70710678119  L 3086.18578643763 2308  L 3081.89289321881 2312.29289321881  L 3083.30710678119 2313.70710678119  L 3088.30710678119 2308.70710678119  L 3089.01421356237 2308  L 3088.30710678119 2307.29289321881  L 3083.30710678119 2302.29289321881  L 3081.89289321881 2303.70710678119  Z " fill-rule="nonzero" fill="#3399ff" stroke="none" />
</svg>