<?xml version="1.0" encoding="utf-8"?>
<svg version="1.1" xmlns:xlink="http://www.w3.org/1999/xlink" width="10px" height="35px" preserveAspectRatio="xMidYMin meet" viewBox="3031 1505  8 35" xmlns="http://www.w3.org/2000/svg">
  <path d="M 1645 1573  L 1645 1570  A 5 5 0 0 0 1640 1565 L 1570 1565  A 5 5 0 0 1 1565 1560 L 1565 1515  A 5 5 0 0 1 1570 1510 L 3030 1510  A 5 5 0 0 1 3035 1515 L 3035 1530  A 5 5 0 0 0 3040 1535 L 3051 1535  " stroke-width="2" stroke="#3399ff" fill="none" />
  <path d="M 1645 1568  A 3.5 3.5 0 0 0 1641.5 1571.5 A 3.5 3.5 0 0 0 1645 1575 A 3.5 3.5 0 0 0 1648.5 1571.5 A 3.5 3.5 0 0 0 1645 1568 Z M 3045.89289321881 1530.70710678119  L 3050.18578643763 1535  L 3045.89289321881 1539.29289321881  L 3047.30710678119 1540.70710678119  L 3052.30710678119 1535.70710678119  L 3053.01421356237 1535  L 3052.30710678119 1534.29289321881  L 3047.30710678119 1529.29289321881  L 3045.89289321881 1530.70710678119  Z " fill-rule="nonzero" fill="#3399ff" stroke="none" />
</svg>