<?xml version="1.0" encoding="utf-8"?>
<svg version="1.1" xmlns:xlink="http://www.w3.org/1999/xlink" width="16px" height="14px" xmlns="http://www.w3.org/2000/svg">
  <g transform="matrix(1 0 0 1 -982 -209 )">
    <path d="M 10.4647837381853 4.24888888888889  C 10.4647837381853 5.15635920982114  11.1916394467475 5.89661670583106  12.0989583333333 5.91319444444444  C 12.1090935221529 5.91337962576662  12.1192301911045 5.91347222222222  12.1293670715187 5.91347222222222  C 13.0486910613412 5.91347222222222  13.793950404852 5.1682128787114  13.793950404852 4.24888888888889  C 13.793950404852 3.32956489906638  13.0486910613412 2.58430555555556  12.1293670715187 2.58430555555556  C 12.1192301911045 2.58430555555556  12.1090935221529 2.58439815201116  12.0989583333333 2.58458333333333  C 11.1916394467475 2.60116107194672  10.4647837381853 3.34141856795664  10.4647837381853 4.24888888888889  Z M 16 1.34844444444444  C 15.981625 0.807402777777778  15.5514027777778 0.367111111111111  15.010375 0.367111111111112  L 1.42044444444444 0.367111111111112  C 0.879402777777778 0.367111111111112  0.449194444444444 0.807402777777778  0.449194444444444 1.34844444444445  L 0.449194444444444 12.6965972222222  C 0.449194444444444 13.237625  0.879402777777778 13.6779305555556  1.42044444444444 13.6779305555556  L 15.010375 13.6779305555556  C 15.5514027777778 13.6779305555556  15.981625 13.237625  16 12.6965972222222  L 16 1.34844444444444  Z M 11.4358333333333 7.22044444444444  L 11.4370416666667 7.22044444444445  C 11.3271783992249 7.08790014066022  11.1652882144943 7.00944231535486  10.9931805555556 7.00533333333333  C 10.8165972222222 7.00533333333333  10.6921527777778 7.08829166666667  10.5493333333333 7.20266666666667  L 9.90104166666667 7.75081944444444  C 9.76593055555556 7.848  9.65806944444445 7.91377777777778  9.50281944444444 7.91377777777778  C 9.3624926033286 7.91464766519215  9.22671466860052 7.86404842028293  9.12118055555556 7.77155555555555  C 9.07036765152766 7.72524704887729  9.02057786987369 7.67782820920685  8.97184722222222 7.62933333333333  L 7.10695833333333 5.61215277777778  C 6.96090471508922 5.44540656156925  6.74966342205537 5.35026816561345  6.528 5.35140277777778  C 6.29570833333333 5.35140277777778  6.08059722222222 5.466375  5.94548611111111 5.62222222222222  L 1.55851388888889 10.9117083333333  L 1.55851388888889 1.88236111111111  C 1.59288888888889 1.6465  1.77659722222222 1.47643055555556  2.01244444444444 1.47643055555556  L 14.4142222222222 1.47643055555556  C 14.653625 1.47643055555556  14.8474166666667 1.65361111111111  14.861625 1.89243055555556  L 14.8717083333333 10.9188055555556  L 11.4358333333333 7.22044444444444  Z " fill-rule="nonzero" fill="#aaaaaa" stroke="none" transform="matrix(1 0 0 1 982 209 )" />
  </g>
</svg>