<?xml version="1.0" encoding="utf-8"?>
<svg version="1.1" xmlns:xlink="http://www.w3.org/1999/xlink" width="10px" height="1161px" preserveAspectRatio="xMidYMin meet" viewBox="1161 372  8 1161" xmlns="http://www.w3.org/2000/svg">
  <path d="M 1165 374  L 1165 641  A 3 3 0 0 1 1168 644 A 3 3 0 0 1 1165 647 L 1165 1523  A 5 5 0 0 0 1170 1528 L 1450 1528  " stroke-width="2" stroke="#0099cc" fill="none" />
  <path d="M 1165 372  A 3.5 3.5 0 0 0 1161.5 375.5 A 3.5 3.5 0 0 0 1165 379 A 3.5 3.5 0 0 0 1168.5 375.5 A 3.5 3.5 0 0 0 1165 372 Z M 1449 1535.6  L 1456 1528  L 1449 1520.4  L 1449 1535.6  Z " fill-rule="nonzero" fill="#0099cc" stroke="none" />
</svg>