<?xml version="1.0" encoding="utf-8"?>
<svg version="1.1" xmlns:xlink="http://www.w3.org/1999/xlink" width="20px" height="21px" preserveAspectRatio="xMidYMin meet" viewBox="1057 198  18 21" xmlns="http://www.w3.org/2000/svg">
  <path d="M 1066 206  L 1066 132  A 4.5 4.5 0 0 0 1070.5 127.5 A 4.5 4.5 0 0 0 1066 123 L 1066 115  A 5 5 0 0 1 1071 110 L 1425 110  A 5 5 0 0 0 1430 105 L 1430 65  A 5 5 0 0 1 1435 60 L 2355 60  A 5 5 0 0 0 2360 55 L 2360 35  A 5 5 0 0 1 2365 30 L 2675 30  A 5 5 0 0 1 2680 35 L 2680 261  A 5 5 0 0 0 2685 266 L 2688 266  " stroke-width="2" stroke="#006699" fill="none" />
  <path d="M 1066 205  A 3.5 3.5 0 0 0 1062.5 208.5 A 3.5 3.5 0 0 0 1066 212 A 3.5 3.5 0 0 0 1069.5 208.5 A 3.5 3.5 0 0 0 1066 205 Z M 1066 207  A 1.5 1.5 0 0 1 1067.5 208.5 A 1.5 1.5 0 0 1 1066 210 A 1.5 1.5 0 0 1 1064.5 208.5 A 1.5 1.5 0 0 1 1066 207 Z M 2682.89289321881 261.707106781187  L 2687.18578643763 266  L 2682.89289321881 270.292893218813  L 2684.30710678119 271.707106781187  L 2689.30710678119 266.707106781187  L 2690.01421356237 266  L 2689.30710678119 265.292893218813  L 2684.30710678119 260.292893218813  L 2682.89289321881 261.707106781187  Z " fill-rule="nonzero" fill="#006699" stroke="none" />
</svg>