<?xml version="1.0" encoding="utf-8"?>
<svg version="1.1" xmlns:xlink="http://www.w3.org/1999/xlink" width="24px" height="20px" xmlns="http://www.w3.org/2000/svg">
  <g transform="matrix(1 0 0 1 -1180 -13 )">
    <path d="M 23.14453125 1.19921875  C 23.5283203125 1.580078125  23.71875 2.0400390625  23.71875 2.5791015625  L 23.71875 14.2978515625  C 23.71875 14.833984375  23.5283203125 15.2939453125  23.1474609375 15.677734375  C 22.763671875 16.0615234375  22.3037109375 16.2490234375  21.767578125 16.2490234375  L 12.7822265625 16.2490234375  L 12.7822265625 17.8076171875  L 17.080078125 17.8076171875  C 17.1943359375 17.8076171875  17.2880859375 17.8427734375  17.361328125 17.9189453125  C 17.4375 17.9951171875  17.47265625 18.0859375  17.47265625 18.2001953125  L 17.47265625 18.982421875  C 17.47265625 19.0966796875  17.4375 19.1904296875  17.361328125 19.263671875  C 17.28515625 19.33984375  17.1943359375 19.375  17.080078125 19  L 6.9228515625 19  C 6.80859375 19.375  6.71484375 19.33984375  6.6416015625 19.263671875  C 6.5654296875 19.1875  6.5302734375 19.0966796875  6.5302734375 18.982421875  L 6.5302734375 18.2001953125  C 6.5302734375 18.0859375  6.5654296875 17.9921875  6.6416015625 17.9189453125  C 6.7177734375 17.8427734375  6.80859375 17.8076171875  6.9228515625 17.8076171875  L 11.220703125 17.8076171875  L 11.220703125 16.24609375  L 2.2353515625 16.24609375  C 1.69921875 16.24609375  1.2392578125 16.0556640625  0.85546875 15.6748046875  C 0.4716796875 15.291015625  0.28125 14.8310546875  0.28125 14.294921875  L 0.28125 2.5791015625  C 0.28125 2.04296875  0.4716796875 1.5830078125  0.8525390625 1.19921875  C 1.2333984375 0.8154296875  1.6962890625 0.6279296875  2.232421875 1  L 21.7646484375 1  C 22.30078125 0.6279296875  22.7607421875 0.818359375  23.14453125 1.19921875  Z M 2.2353515625 14.6904296875  L 22.1572265625 2.5791015625  C 22.1572265625 2.4736328125  22.119140625 2.3828125  22.0400390625 2.3037109375  C 21.9609375 2.224609375  21.8701171875 2.1865234375  21.7646484375 2.1865234375  L 2.2353515625 2.1865234375  C 2.1298828125 2.1865234375  2.0390625 2.224609375  1.9599609375 2.3037109375  C 1.880859375 2.3828125  1.8427734375 2.4736328125  2 2.5791015625  L 2 14.2978515625  C 1.8427734375 14.4033203125  1.880859375 14.494140625  1.9599609375 14.5732421875  C 2.0390625 14.65234375  2.1298828125 14.6904296875  2.2353515625 14.6904296875  Z " fill-rule="nonzero" fill="#ffffff" stroke="none" transform="matrix(1 0 0 1 1180 13 )" />
  </g>
</svg>