<?xml version="1.0" encoding="utf-8"?>
<svg version="1.1" xmlns:xlink="http://www.w3.org/1999/xlink" width="21px" height="10px" preserveAspectRatio="xMinYMid meet" viewBox="1435 125  21 8" xmlns="http://www.w3.org/2000/svg">
  <path d="M 493 126  L 1438.5 126  A 1.5 1.5 0 0 1 1440 127.5 A 1.5 1.5 0 0 0 1441.5 129 L 1450 129  " stroke-width="2" stroke="#0099cc" fill="none" />
  <path d="M 494.5 122.5  A 3.5 3.5 0 0 0 491 126 A 3.5 3.5 0 0 0 494.5 129.5 A 3.5 3.5 0 0 0 498 126 A 3.5 3.5 0 0 0 494.5 122.5 Z M 1449 136.6  L 1456 129  L 1449 121.4  L 1449 136.6  Z " fill-rule="nonzero" fill="#0099cc" stroke="none" />
</svg>