<?xml version="1.0" encoding="utf-8"?>
<svg version="1.1" xmlns:xlink="http://www.w3.org/1999/xlink" width="19px" height="19px" xmlns="http://www.w3.org/2000/svg">
  <g transform="matrix(1 0 0 1 -3485 -1179 )">
    <path d="M 18 3.37499999316406  C 18.03125 2.04849998632813  16.9514999931641 0.96875  15.6250000068359 1  L 3.37499999316406 1  C 2.04666453316894 0.970196727150212  0.970196727150212 2.04666453316894  1 3.37499999316406  L 1 15.6250000068359  C 0.96875 16.9515000136719  2.04806249316406 18.03125  3.37499999316406 18  L 15.6250000068359 18  C 16.9515000136719 18.03125  18.03125 16.9514999931641  18 15.6250000068359  L 18 3.37499999316406  Z M 16.71875 3.37499999316406  L 16.71875 15.6250000068359  C 16.71875 16.2283125136719  16.2283124931641 16.71875  15.6250000068359 16.71875  L 3.37499999316406 16.71875  C 2.7712383701561 16.7180267870518  2.28197321294818 16.2287616298439  2.28125 15.6250000068359  L 2.28125 3.37499999316406  C 2.28125 2.77168748632813  2.772125 2.28125  3.37499999316406 2.28125  L 15.6250000068359 2.28125  C 16.2283125136719 2.28125  16.71875 2.77168750683594  16.71875 3.37499999316406  Z M 8.1875 4.03124999316406  L 4.68749999316406 4.03124999316406  C 4.60262498632813 4.03124999316406  4.52256248632813 4.04874998632812  4.4481875 4.0780625  L 4.43812499316406 4.08112499316406  C 4.27625 4.147625  4.147625 4.27668749316406  4.0806875 4.43856250683594  L 4.07762500683594 4.44862499316406  C 4.04736066781923 4.52464815431195  4.0316301496342 4.60567513918868  4.03124999316406 4.68749999316406  L 4.03124999316406 8.1875  C 4.03124999316406 8.54993686707646  4.32506312608761 8.84375  4.68749999316406 8.84375  C 5.04993686024052 8.84375  5.34374999316406 8.54993686707646  5.34374999316406 8.1875  L 5.34374999316406 6.27168749316406  L 7.50456250683594 8.43250000683594  C 7.63275001367188 8.56112500683594  7.80075001367188 8.62500001367187  7.96874999316406 8.62499999316406  C 8.13674997265625 8.62499997265625  8.30474999316406 8.56112498632812  8.4329375 8.4329375  C 8.68912564703094 8.17667197246243  8.68912564703094 7.76126552753756  8.4329375 7.505  L 6.27168749316406 5.34374999316406  L 8.1875 5.34374999316406  C 8.54993686707646 5.34374999316406  8.84375 5.04993686024052  8.84375 4.68749999316406  C 8.84375 4.3250631260876  8.54993686707646 4.03124999316406  8.1875 4.03124999316406  Z M 14.9687500068359 10.8125  C 14.9687500068359 10.4500631329235  14.6749368739124 10.15625  14.3125000068359 10.15625  C 13.9500631397595 10.15625  13.6562500068359 10.4500631329235  13.6562500068359 10.8125  L 13.6562500068359 12.7283125068359  L 11.4954374931641 10.5674999931641  C 11.3717761240818 10.4394639283984  11.2014084510464 10.3671546081555  11.0234046081555 10.3671546081555  C 10.660967741079 10.3671546081555  10.3671546081555 10.660967741079  10.3671546081555 11.0234046081555  C 10.3671546081555 11.2014084510464  10.4394639283984 11.3717761240818  10.5674999931641 11.4954374931641  L 12.7283125068359 13.6562500068359  L 10.8125 13.6562500068359  C 10.4500631329235 13.6562500068359  10.15625 13.9500631397595  10.15625 14.3125000068359  C 10.15625 14.6749368739124  10.4500631329235 14.9687500068359  10.8125 14.9687500068359  L 14.3125000068359 14.9687500068359  C 14.3969375 14.9687500068359  14.4774375136719 14.9512500136719  14.5518125 14.9223749931641  L 14.5618750068359 14.9193125  C 14.7233125068359 14.8528124931641  14.852375 14.72375  14.9188750068359 14.5623125  L 14.9219375 14.5522499931641  C 14.9512499931641 14.4774374931641  14.9687500068359 14.3969375  14.9687500068359 14.3125000068359  L 14.9687500068359 10.8125  Z " fill-rule="nonzero" fill="#ffffff" stroke="none" transform="matrix(1 0 0 1 3485 1179 )" />
  </g>
</svg>