<?xml version="1.0" encoding="utf-8"?>
<svg version="1.1" xmlns:xlink="http://www.w3.org/1999/xlink" width="26px" height="26px" xmlns="http://www.w3.org/2000/svg">
  <defs>
    <filter x="1419px" y="25px" width="26px" height="26px" filterUnits="userSpaceOnUse" id="filter2">
      <feOffset dx="1" dy="1" in="SourceAlpha" result="shadowOffsetInner" />
      <feGaussianBlur stdDeviation="2.5" in="shadowOffsetInner" result="shadowGaussian" />
      <feComposite in2="shadowGaussian" operator="atop" in="SourceAlpha" result="shadowComposite" />
      <feColorMatrix type="matrix" values="0 0 0 0 0  0 0 0 0 0  0 0 0 0 0  0 0 0 0.698039215686274 0  " in="shadowComposite" />
    </filter>
    <g id="widget3">
      <path d="M 1431 29  C 1435.48 29  1439 32.52  1439 37  C 1439 41.48  1435.48 45  1431 45  C 1426.52 45  1423 41.48  1423 37  C 1423 32.52  1426.52 29  1431 29  Z " fill-rule="nonzero" fill="#009dd9" stroke="none" />
      <path d="M 1431 29.5  C 1435.2 29.5  1438.5 32.8  1438.5 37  C 1438.5 41.2  1435.2 44.5  1431 44.5  C 1426.8 44.5  1423.5 41.2  1423.5 37  C 1423.5 32.8  1426.8 29.5  1431 29.5  Z " stroke-width="1" stroke="#ffffff" fill="none" />
    </g>
  </defs>
  <g transform="matrix(1 0 0 1 -1419 -25 )">
    <use xlink:href="#widget3" filter="url(#filter2)" />
    <use xlink:href="#widget3" />
  </g>
</svg>