<?xml version="1.0" encoding="utf-8"?>
<svg version="1.1" xmlns:xlink="http://www.w3.org/1999/xlink" width="12px" height="12px" xmlns="http://www.w3.org/2000/svg">
  <g transform="matrix(1 0 0 1 -790 -210 )">
    <path d="M 11.6902763671875 2.3663642578125  C 11.6902763671875 2.4727822265625  11.6506596679687 2.57954296875  11.5693168945312 2.66084619140625  L 5.7913828125 8.43874072265625  L 3.7094296875 8.43874072265625  L 3.7094296875 6.35673486328125  L 9.48736376953125 0.57890625  C 9.568640625 0.49762939453125  9.6750322265625 0.45794677734375  9.7815556640625 0.45794677734375  C 9.8883427734375 0.45794677734375  9.99493212890625 0.49762939453125  10.076208984375 0.57890625  L 11.5693168945313 2.07190869140625  C 11.6506596679687 2.15325146484375  11.6902763671875 2.25964306640625  11.6902763671875 2.3663642578125  Z M 10.4758037109375 2.36635107421875  L 9.7818193359375 1.6723798828125  L 4.75040625 6.7037138671875  L 4.75040625 7.397830078125  L 5.444390625 7.397830078125  L 10.4758037109375 2.36635107421875  Z M 6.48540673828125 1.6723798828125  C 6.48540673828125 1.95971630859375  6.25238671875 2.19293408203125  5.96491845703125 2.19293408203125  L 1.62748974609375 2.19293408203125  L 1.62748974609375 10.5206938476563  L 9.9553154296875 10.5206938476563  L 9.9553154296875 6.18323876953125  C 9.9553154296875 5.89596826171875  10.1882036132812 5.66281640625  10.4758037109375 5.66281640625  C 10.7632719726563 5.66281640625  10.9962919921875 5.89596826171875  10.9962919921875 6.18323876953125  L 10.9962919921875 10.8676860351563  C 10.9962919921875 11.2509990234375  10.6855546875 11.561736328125  10.3023076171875 11.561736328125  L 1.28049755859375 11.561736328125  C 0.89725048828125 11.561736328125  0.58651318359375 11.2509990234375  0.58651318359375 10.8676860351563  L 0.58651318359375 1.8458759765625  C 0.58651318359375 1.46262890625  0.89725048828125 1.1518916015625  1.28049755859375 1.1518916015625  L 5.96491845703125 1.1518916015625  C 6.25238671875 1.1518916015625  6.48540673828125 1.38504345703125  6.48540673828125 1.6723798828125  Z " fill-rule="nonzero" fill="#000000" stroke="none" transform="matrix(1 0 0 1 790 210 )" />
  </g>
</svg>