<?xml version="1.0" encoding="utf-8"?>
<svg version="1.1" xmlns:xlink="http://www.w3.org/1999/xlink" width="10px" height="8px" xmlns="http://www.w3.org/2000/svg">
  <g transform="matrix(1 0 0 1 -1061 -212 )">
    <path d="M 4.128125 7.16640625  C 4.13515625 7.193359375  4.138671875 7.2203125  4.138671875 7.251953125  C 4.138671875 7.268359375  4.141015625 7.30703125  4.14453125 7.371484375  C 4.148046875 7.4359375  4.14921875 7.488671875  4.146875 7.5296875  C 4.14453125 7.570703125  4.13984375 7.61875  4.129296875 7.6703125  C 4.11875 7.721875  4.098828125 7.760546875  4.068359375 7.7875  C 4.037890625 7.814453125  3.998046875 7.826171875  3.946484375 7.826171875  L 2.03515625 7.826171875  C 1.560546875 7.826171875  1.155078125 7.657421875  0.817578125 7.32109375  C 0.480078125 6.984765625  0.3125 6.579296875  0.3125 6.1046875  L 0.3125 1.8953125  C 0.3125 1.420703125  0.48125 1.015234375  0.817578125 0.677734375  C 1.155078125 0.340234375  1.559375 0.17265625  2.03515625 0.17265625  L 3.948828125 0.17265625  C 4.000390625 0.17265625  4.04609375 0.19140625  4.08359375 0.22890625  C 4.12109375 0.26640625  4.13984375 0.312109375  4.13984375 0.363671875  C 4.13984375 0.380078125  4.1421875 0.41875  4.145703125 0.483203125  C 4.14921875 0.54765625  4.150390625 0.600390625  4.148046875 0.64140625  C 4.145703125 0.682421875  4.141015625 0.73046875  4.13046875 0.78203125  C 4.119921875 0.83359375  4.1 0.872265625  4.06953125 0.89921875  C 4.0390625 0.926171875  3.99921875 0.937890625  3.94765625 0.937890625  L 2.03515625 0.937890625  C 1.77265625 0.937890625  1.54765625 1.031640625  1.36015625 1.21796875  C 1.17265625 1.40546875  1.080078125 1.63046875  1.080078125 1.89296875  L 1.080078125 6.101171875  C 1.080078125 6.363671875  1.17265625 6.588671875  1.36015625 6.776171875  C 1.54765625 6.963671875  1.77265625 7.05625  2.03515625 7.05625  L 3.90078125 7.05625  C 3.913671875 7.05625  3.9359375 7.05859375  3.969921875 7.062109375  C 4.00390625 7.065625  4.026171875 7.07265625  4.0390625 7.0796875  C 4.051953125 7.08671875  4.0671875 7.0984375  4.087109375 7.1125  C 4.10703125 7.1265625  4.12109375 7.144140625  4.128125 7.16640625  Z M 9.575 3.73046875  C 9.65 3.806640625  9.6875 3.895703125  9.6875 3.998828125  C 9.6875 4.101953125  9.65 4.1921875  9.573828125 4.268359375  L 6.321875 7.521484375  C 6.246875 7.596484375  6.15546875 7.63515625  6.05234375 7.63515625  C 5.94921875 7.63515625  5.858984375 7.59765625  5.7828125 7.521484375  C 5.7078125 7.446484375  5.669140625 7.35625  5.669140625 7.251953125  L 5.669140625 5.53046875  L 2.99140625 5.53046875  C 2.88828125 5.53046875  2.798046875 5.49296875  2.721875 5.416796875  C 2.646875 5.341796875  2.608203125 5.2515625  2.608203125 5.147265625  L 2.608203125 2.852734375  C 2.608203125 2.749609375  2.645703125 2.659375  2.721875 2.583203125  C 2.798046875 2.50703125  2.887109375 2.46953125  2.99140625 2.46953125  L 5.669140625 2.46953125  L 5.669140625 0.746875  C 5.669140625 0.64375  5.706640625 0.553515625  5.7828125 0.47734375  C 5.8578125 0.40234375  5.94921875 0.363671875000001  6.05234375 0.363671875000001  C 6.15546875 0.363671875000001  6.245703125 0.401171875  6.321875 0.47734375  L 9.575 3.73046875  Z " fill-rule="nonzero" fill="#aaaaaa" stroke="none" transform="matrix(1 0 0 1 1061 212 )" />
  </g>
</svg>