<?xml version="1.0" encoding="utf-8"?>
<svg version="1.1" xmlns:xlink="http://www.w3.org/1999/xlink" width="13px" height="13px" xmlns="http://www.w3.org/2000/svg">
  <g transform="matrix(1 0 0 1 -1572 -1599 )">
    <path d="M 10.130859375 7.42252604166667  C 10.2380642361111 7.31532118055556  10.2916666666667 7.18836805555556  10.2916666666667 7.04166666666667  L 10.2916666666667 5.95833333333333  C 10.2916666666667 5.81163194444444  10.2380642361111 5.68467881944444  10.130859375 5.57747395833333  C 10.0236545138889 5.47026909722222  9.89670138888889 5.41666666666667  9.75 5.41666666666667  L 7.58333333333333 5.41666666666667  L 7.58333333333333 3.25  C 7.58333333333333 3.10329861111111  7.52973090277778 2.97634548611111  7.42252604166667 2.869140625  C 7.31532118055556 2.76193576388889  7.18836805555556 2.70833333333333  7.04166666666667 2.70833333333333  L 5.95833333333333 2.70833333333333  C 5.81163194444444 2.70833333333333  5.68467881944444 2.76193576388889  5.57747395833333 2.869140625  C 5.47026909722222 2.97634548611111  5.41666666666667 3.10329861111111  5.41666666666667 3.25  L 5.41666666666667 5.41666666666667  L 3.25 5.41666666666667  C 3.10329861111111 5.41666666666667  2.97634548611111 5.47026909722222  2.869140625 5.57747395833333  C 2.76193576388889 5.68467881944444  2.70833333333333 5.81163194444444  2.70833333333333 5.95833333333333  L 2.70833333333333 7.04166666666667  C 2.70833333333333 7.18836805555556  2.76193576388889 7.31532118055556  2.869140625 7.42252604166667  C 2.97634548611111 7.52973090277778  3.10329861111111 7.58333333333333  3.25 7.58333333333333  L 5.41666666666667 7.58333333333333  L 5.41666666666667 9.75  C 5.41666666666667 9.89670138888889  5.47026909722222 10.0236545138889  5.57747395833333 10.130859375  C 5.68467881944444 10.2380642361111  5.81163194444444 10.2916666666667  5.95833333333333 10.2916666666667  L 7.04166666666667 10.2916666666667  C 7.18836805555556 10.2916666666667  7.31532118055556 10.2380642361111  7.42252604166667 10.130859375  C 7.52973090277778 10.0236545138889  7.58333333333333 9.89670138888889  7.58333333333333 9.75  L 7.58333333333333 7.58333333333333  L 9.75 7.58333333333333  C 9.89670138888889 7.58333333333333  10.0236545138889 7.52973090277778  10.130859375 7.42252604166667  Z M 12.1282552083333 3.2373046875  C 12.7094184027778 4.23318142361111  13 5.32074652777778  13 6.5  C 13 7.67925347222222  12.7094184027778 8.76681857638889  12.1282552083333 9.7626953125  C 11.5470920138889 10.7585720486111  10.7585720486111 11.5470920138889  9.7626953125 12.1282552083333  C 8.76681857638889 12.7094184027778  7.67925347222222 13  6.5 13  C 5.32074652777778 13  4.23318142361111 12.7094184027778  3.2373046875 12.1282552083333  C 2.24142795138889 11.5470920138889  1.45290798611111 10.7585720486111  0.871744791666667 9.7626953125  C 0.290581597222222 8.76681857638889  0 7.67925347222222  0 6.5  C 0 5.32074652777778  0.290581597222222 4.23318142361111  0.871744791666667 3.2373046875  C 1.45290798611111 2.24142795138889  2.24142795138889 1.45290798611111  3.2373046875 0.871744791666666  C 4.23318142361111 0.290581597222221  5.32074652777778 0  6.5 0  C 7.67925347222222 0  8.76681857638889 0.290581597222221  9.7626953125 0.871744791666666  C 10.7585720486111 1.45290798611111  11.5470920138889 2.24142795138889  12.1282552083333 3.2373046875  Z " fill-rule="nonzero" fill="#bfcbd9" stroke="none" transform="matrix(1 0 0 1 1572 1599 )" />
  </g>
</svg>