<?xml version="1.0" encoding="utf-8"?>
<svg version="1.1" xmlns:xlink="http://www.w3.org/1999/xlink" width="26px" height="26px" xmlns="http://www.w3.org/2000/svg">
  <defs>
    <mask fill="white" id="clip167">
      <path d="M 0 8  C 0 7.75249381423953  0.0107438206614461 7.50791776138675  0.0317997798297256 7.26670352359625  C 0.391868424816948 3.14180552875217  3.76750618576057 0  8 0  C 12.48 0  16 3.52000000000001  16 8  C 16 12.48  12.48 16  8 16  C 3.51999999999998 16  0 12.48  0 8  Z " fill-rule="evenodd" />
    </mask>
    <filter x="1986px" y="119px" width="26px" height="26px" filterUnits="userSpaceOnUse" id="filter168">
      <feOffset dx="1" dy="1" in="SourceAlpha" result="shadowOffsetInner" />
      <feGaussianBlur stdDeviation="2.5" in="shadowOffsetInner" result="shadowGaussian" />
      <feComposite in2="shadowGaussian" operator="atop" in="SourceAlpha" result="shadowComposite" />
      <feColorMatrix type="matrix" values="0 0 0 0 0  0 0 0 0 0  0 0 0 0 0  0 0 0 0.698039215686274 0  " in="shadowComposite" />
    </filter>
    <g id="widget169">
      <path d="M 0 8  C 0 7.75249381423953  0.0107438206614461 7.50791776138675  0.0317997798297256 7.26670352359625  C 0.391868424816948 3.14180552875217  3.76750618576057 0  8 0  C 12.48 0  16 3.52000000000001  16 8  C 16 12.48  12.48 16  8 16  C 3.51999999999998 16  0 12.48  0 8  Z " fill-rule="nonzero" fill="#009dd9" stroke="none" transform="matrix(1 0 0 1 1990 123 )" />
      <path d="M 0 8  C 0 7.75249381423953  0.0107438206614461 7.50791776138675  0.0317997798297256 7.26670352359625  C 0.391868424816948 3.14180552875217  3.76750618576057 0  8 0  C 12.48 0  16 3.52000000000001  16 8  C 16 12.48  12.48 16  8 16  C 3.51999999999998 16  0 12.48  0 8  Z " stroke-width="2" stroke="#ffffff" fill="none" transform="matrix(1 0 0 1 1990 123 )" mask="url(#clip167)" />
    </g>
  </defs>
  <g transform="matrix(1 0 0 1 -1986 -119 )">
    <use xlink:href="#widget169" filter="url(#filter168)" />
    <use xlink:href="#widget169" />
  </g>
</svg>