<?xml version="1.0" encoding="utf-8"?>
<svg version="1.1" xmlns:xlink="http://www.w3.org/1999/xlink" width="20px" height="20px" preserveAspectRatio="xMinYMid meet" viewBox="3054 635  20 18" xmlns="http://www.w3.org/2000/svg">
  <path d="M 1853 629  L 1853 625  A 5 5 0 0 1 1858 620 L 3045 620  A 5 5 0 0 1 3050 625 L 3050 639  A 5 5 0 0 0 3055 644 L 3063 644  " stroke-width="2" stroke="#0099cc" fill="none" />
  <path d="M 1853 624  A 3.5 3.5 0 0 0 1849.5 627.5 A 3.5 3.5 0 0 0 1853 631 A 3.5 3.5 0 0 0 1856.5 627.5 A 3.5 3.5 0 0 0 1853 624 Z M 3062 651.6  L 3069 644  L 3062 636.4  L 3062 651.6  Z " fill-rule="nonzero" fill="#0099cc" stroke="none" />
</svg>