<?xml version="1.0" encoding="utf-8"?>
<svg version="1.1" xmlns:xlink="http://www.w3.org/1999/xlink" width="15px" height="15px" xmlns="http://www.w3.org/2000/svg">
  <g transform="matrix(1 0 0 1 -1671 -1477 )">
    <path d="M 7.49998301660156 14.9642292460938  C 3.37771092285156 14.9642292460938  0.0357877373046878 11.6222041435547  0.0357877373046878 7.49993203320312  C 0.0357877373046878 3.37765992285156  3.37771090625 0.03577075390625  7.49998301660156 0.03577075390625  C 11.6232234628906 0.03577075390625  14.9642122626953 3.37765995605469  14.9642122626953 7.49994903320312  C 14.9642122626953 11.6222381103516  11.6232234462891 14.9642292460938  7.49998301660156 14.9642292460938  Z M 10.9230261845703 5.32389439746094  C 11.0634359912109 5.18339965722656  11.0634359912109 4.95529530078125  10.9230261845703 4.81491947753906  L 10.160566140625 4.05337680273438  C 10.0201223671875 3.91293302929688  9.79303733007813 3.91293302929688  9.65255957324219 4.05337680273438  L 7.49342546582031 6.21252791015625  L 5.33427435839844 4.05337680273438  C 5.19383058496094 3.91293302929687  4.96667758105469 3.91293302929687  4.82626779101563 4.05337680273438  L 4.06380774707031 4.81491947753906  C 3.92339794042969 4.95529530078125  3.92339794042969 5.183399640625  4.06380774707031 5.32389439746094  L 6.22295883789062 7.48297753808594  L 4.06380773046875 9.64212862890625  C 3.92339792382813 9.78250445214844  3.92339792382813 10.0096914228516  4.06380773046875 10.1501351962891  L 4.82626779101563 10.9125442900391  C 4.96667759765625 11.0520706943359  5.19383058496094 11.0520706943359  5.33427435839844 10.9125442900391  L 7.49342544921875 8.75339319921875  L 9.65257655664062 10.9125442900391  C 9.79305431347656 11.0520706943359  10.0201393505859 11.0520706943359  10.1605831240234 10.9125442900391  L 10.9230431679687 10.1501521962891  C 11.0634529746094 10.0097084228516  11.0634529746094 9.78252145214844  10.9230431679687 9.64214562890625  L 8.76387509375 7.48299452148438  L 10.9230261845703 5.32389439746094  Z " fill-rule="nonzero" fill="#000000" stroke="none" transform="matrix(1 0 0 1 1671 1477 )" />
  </g>
</svg>