<?xml version="1.0" encoding="utf-8"?>
<svg version="1.1" xmlns:xlink="http://www.w3.org/1999/xlink" width="21px" height="20px" preserveAspectRatio="xMinYMid meet" viewBox="2827 117  21 18" xmlns="http://www.w3.org/2000/svg">
  <path d="M 2836 126  L 3222 126  A 5 5 0 0 1 3227 131 L 3227 261  A 5 5 0 0 0 3232 266 L 3234 266  " stroke-width="2" stroke="#0099cc" fill="none" />
  <path d="M 2837.5 122.5  A 3.5 3.5 0 0 0 2834 126 A 3.5 3.5 0 0 0 2837.5 129.5 A 3.5 3.5 0 0 0 2841 126 A 3.5 3.5 0 0 0 2837.5 122.5 Z M 3233 273.6  L 3240 266  L 3233 258.4  L 3233 273.6  Z " fill-rule="nonzero" fill="#0099cc" stroke="none" />
</svg>