<?xml version="1.0" encoding="utf-8"?>
<svg version="1.1" xmlns:xlink="http://www.w3.org/1999/xlink" width="153px" height="10px" preserveAspectRatio="xMinYMid meet" viewBox="802 212  153 8" xmlns="http://www.w3.org/2000/svg">
  <path d="M 808 216  L 945 216  A 5 5 0 0 0 950 211 L 950 134  A 5 5 0 0 1 955 129 L 1454 129  " stroke-width="2" stroke="#006699" fill="none" />
  <path d="M 805.5 212.5  A 3.5 3.5 0 0 0 802 216 A 3.5 3.5 0 0 0 805.5 219.5 A 3.5 3.5 0 0 0 809 216 A 3.5 3.5 0 0 0 805.5 212.5 Z M 805.5 214.5  A 1.5 1.5 0 0 1 807 216 A 1.5 1.5 0 0 1 805.5 217.5 A 1.5 1.5 0 0 1 804 216 A 1.5 1.5 0 0 1 805.5 214.5 Z M 1448.89289321881 124.707106781187  L 1453.18578643763 129  L 1448.89289321881 133.292893218813  L 1450.30710678119 134.707106781187  L 1455.30710678119 129.707106781187  L 1456.01421356237 129  L 1455.30710678119 128.292893218813  L 1450.30710678119 123.292893218813  L 1448.89289321881 124.707106781187  Z " fill-rule="nonzero" fill="#006699" stroke="none" />
</svg>