<?xml version="1.0" encoding="utf-8"?>
<svg version="1.1" xmlns:xlink="http://www.w3.org/1999/xlink" width="41px" height="41px" xmlns="http://www.w3.org/2000/svg">
  <g transform="matrix(1 0 0 1 -2350 -3017 )">
    <path d="M 2350 3017  L 2391 3017  L 2391 3058  L 2350 3058  L 2350 3017  " fill-rule="nonzero" fill="#cccccc" stroke="none" />
    <path d="M 2353 3020  L 2388 3020  L 2388 3055  L 2353 3055  L 2353 3020  " fill-rule="nonzero" fill="#ffffff" stroke="none" />
    <path d="M 2374.395 3029.3  C 2372.673 3029.3  2371.32 3027.947  2371.32 3026.225  C 2371.32 3024.503  2372.673 3023.15  2374.395 3023.15  C 2376.117 3023.15  2377.47 3024.503  2377.47 3026.225  C 2377.47 3027.947  2376.117 3029.3  2374.395 3029.3  " fill-rule="nonzero" fill="#cccccc" stroke="none" />
    <path d="M 2354 3054  L 2354 3035.85  L 2362.25 3027.6  L 2373.8 3034.2  L 2380.4 3032.55  L 2387 3034.2  L 2387 3054  L 2354 3054  " fill-rule="nonzero" fill="#169bd5" stroke="none" />
  </g>
</svg>