<?xml version="1.0" encoding="utf-8"?>
<svg version="1.1" xmlns:xlink="http://www.w3.org/1999/xlink" width="10px" height="10px" xmlns="http://www.w3.org/2000/svg">
  <g transform="matrix(1 0 0 1 -2384 -3013 )">
    <path d="M 4.98028797641325 9.34502923693957  C 2.57492971035747 9.34502923693957  0.625001565204679 7.39510109178678  0.625001565204679 4.98974282573099  C 0.625001565204679 2.58438455967521  2.57492971035747 0.634456414522418  4.98028797641325 0.634456414522418  C 7.38580736336281 0.634456414522418  9.33586612280702 2.58451517396663  9.33586612280702 4.99003456091618  C 9.33586612280702 7.39555394786573  7.38580736336281 9.34561270730994  4.98028797641325 9.34561270730994  Z M 6.9774941340156 3.72041124415205  C 7.01704361448673 3.68099884992084  7.03927384153336 3.62746182694232  7.03927384153336 3.57162726574074  C 7.03927384153336 3.51579270453916  7.01704361448673 3.46225568156064  6.9774941340156 3.42284328732944  L 6.53289258859649 2.97940867426901  C 6.49360334190294 2.94007336837918  6.44028803586634 2.91797114760329  6.38469207202729 2.91797114760329  C 6.32909610818824 2.91797114760329  6.27578080215165 2.94007336837918  6.23649155545809 2.97940867426901  L 4.97620370945419 4.23911305  L 3.7164993251462 2.97882520389864  C 3.67721007845658 2.93948989803866  3.62389477244088 2.91738767728171  3.56829880862573 2.91738767728171  C 3.51270284481058 2.91738767728171  3.45938753879488 2.93948989803866  3.42009829210526 2.97882520389864  L 2.97549674678363 3.42342674931774  C 2.89351336454037 3.50544777821989  2.89351336454037 3.63839021524989  2.97549674678363 3.72041124415205  L 4.23520113099415 4.98011562836257  L 2.97491328489279 6.2404034831384  C 2.89338525298812 6.32215734607148  2.89338525298812 6.4544671828759  2.97491328489279 6.53622104580897  L 3.42009829210526 6.98140605302144  C 3.50178361617934 7.06309137709552  3.63481400107212 7.06309137709552  3.7164993251462 6.98140605302144  L 4.97678717124756 5.72111820692008  L 6.23649155545809 6.98140605302144  C 6.31817687953216 7.06309137709552  6.45062379405458 7.06309137709552  6.53289258859649 6.98140605302144  L 6.9774941340156 6.53622104580897  C 7.01682943990542 6.49693179911541  7.03893166068131 6.44361649307882  7.03893166068131 6.38802052923977  C 7.03893166068131 6.33242456540072  7.01682943990542 6.27910925936412  6.9774941340156 6.23982001267056  L 5.71720628781676 4.98011562836257  L 6.9774941340156 3.71982778235867  Z " fill-rule="nonzero" fill="#555555" stroke="none" transform="matrix(1 0 0 1 2384 3013 )" />
  </g>
</svg>