<?xml version="1.0" encoding="utf-8"?>
<svg version="1.1" xmlns:xlink="http://www.w3.org/1999/xlink" width="12px" height="12px" viewBox="2066 2977  12 12" xmlns="http://www.w3.org/2000/svg">
  <path d="M 2072 2977  C 2075.36 2977  2078 2979.64  2078 2983  C 2078 2986.36  2075.36 2989  2072 2989  C 2068.64 2989  2066 2986.36  2066 2983  C 2066 2979.64  2068.64 2977  2072 2977  Z " fill-rule="nonzero" fill="#ffffff" stroke="none" />
  <path d="M 2072 2977.5  C 2075.08 2977.5  2077.5 2979.92  2077.5 2983  C 2077.5 2986.08  2075.08 2988.5  2072 2988.5  C 2068.92 2988.5  2066.5 2986.08  2066.5 2983  C 2066.5 2979.92  2068.92 2977.5  2072 2977.5  Z " stroke-width="1" stroke="#797979" fill="none" />
  <path d="M 2072 2986  C 2070.32 2986  2069 2984.68  2069 2983  C 2069 2981.32  2070.32 2980  2072 2980  C 2073.68 2980  2075 2981.32  2075 2983  C 2075 2984.68  2073.68 2986  2072 2986  " fill-rule="nonzero" fill="#797979" stroke="none" />
</svg>