<?xml version="1.0" encoding="utf-8"?>
<svg version="1.1" xmlns:xlink="http://www.w3.org/1999/xlink" width="900px" height="10px" preserveAspectRatio="xMinYMid meet" viewBox="2465 1146  900 8" xmlns="http://www.w3.org/2000/svg">
  <path d="M 2467 1150  L 3355 1150  A 5 5 0 0 0 3360 1145 L 3360 922  A 5 5 0 0 1 3365 917 L 3569 917  " stroke-width="2" stroke="#0099cc" fill="none" />
  <path d="M 2468.5 1146.5  A 3.5 3.5 0 0 0 2465 1150 A 3.5 3.5 0 0 0 2468.5 1153.5 A 3.5 3.5 0 0 0 2472 1150 A 3.5 3.5 0 0 0 2468.5 1146.5 Z M 3568 924.6  L 3575 917  L 3568 909.4  L 3568 924.6  Z " fill-rule="nonzero" fill="#0099cc" stroke="none" />
</svg>