<?xml version="1.0" encoding="utf-8"?>
<svg version="1.1" xmlns:xlink="http://www.w3.org/1999/xlink" width="14px" height="10px" xmlns="http://www.w3.org/2000/svg">
  <g transform="matrix(1 0 0 1 -1194 -212 )">
    <path d="M 13.93451440625 5  C 12.84389384375 2.232500359375  10.155204765625 0.271925640625  7 0.271925640625  C 3.84794509375 0.271925640625  1.15610615625 2.232500375  0.0654855937500001 5  C 1.15609015625 7.767499640625  3.84794509375 9.728074359375  7 9.728074359375  C 10.155204765625 9.728074359375  12.843909828125 7.767499625  13.93451440625 5  Z M 10.15205490625 5  C 10.15205490625 6.7399403125  8.739924328125 8.15205490625  7 8.15205490625  C 5.260075671875 8.15205490625  3.84794509375 6.7399403125  3.84794509375 5  C 3.84794509375 3.2600596875  5.2600596875 1.84794509375  7 1.84794509375  C 8.7399403125 1.84794509375  10.15205490625 3.2600596875  10.15205490625 5  Z M 8.89122975 5  C 8.89122975 3.956675375  8.043324625 3.10877025  7 3.10877025  C 5.956675375 3.10877025  5.10877025 3.956675375  5.10877025 5  C 5.10877025 6.043324625  5.956675375 6.89122975  7 6.89122975  C 8.043324625 6.89122975  8.89122975 6.043324625  8.89122975 5  Z " fill-rule="nonzero" fill="#000000" stroke="none" transform="matrix(1 0 0 1 1194 212 )" />
  </g>
</svg>