<?xml version="1.0" encoding="utf-8"?>
<svg version="1.1" xmlns:xlink="http://www.w3.org/1999/xlink" width="1224px" height="10px" preserveAspectRatio="xMinYMid meet" viewBox="461 176  1224 8" xmlns="http://www.w3.org/2000/svg">
  <path d="M 466 202  L 466 185  A 5 5 0 0 1 471 180 L 1675 180  A 5 5 0 0 0 1680 175 L 1680 75  A 5 5 0 0 1 1685 70 L 2144 70  " stroke-width="2" stroke="#0099cc" fill="none" />
  <path d="M 466 197  A 3.5 3.5 0 0 0 462.5 200.5 A 3.5 3.5 0 0 0 466 204 A 3.5 3.5 0 0 0 469.5 200.5 A 3.5 3.5 0 0 0 466 197 Z M 2143 77.6  L 2150 70  L 2143 62.4  L 2143 77.6  Z " fill-rule="nonzero" fill="#0099cc" stroke="none" />
</svg>