<?xml version="1.0" encoding="utf-8"?>
<svg version="1.1" xmlns:xlink="http://www.w3.org/1999/xlink" width="10px" height="4px" xmlns="http://www.w3.org/2000/svg">
  <g transform="matrix(1 0 0 1 -496 -5512 )">
    <path d="M 2.59602864583333 2  C 2.59602864583333 2.604064453125  2.18795735677083 3.09375  1.6845703125 3.09375  C 1.18118326822917 3.09375  0.773111979166667 2.604064453125  0.773111979166667 2  C 0.773111979166667 1.395935546875  1.18118326822917 0.90625  1.6845703125 0.90625  C 2.18795735677083 0.90625  2.59602864583333 1.395935546875  2.59602864583333 2  Z M 5.91145833333333 2  C 5.91145833333333 2.604064453125  5.50338704427083 3.09375  5 3.09375  C 4.49661295572917 3.09375  4.08854166666667 2.604064453125  4.08854166666667 2  C 4.08854166666667 1.395935546875  4.49661295572917 0.90625  5 0.90625  C 5.50338704427083 0.90625  5.91145833333333 1.395935546875  5.91145833333333 2  Z M 9.22688802083333 2  C 9.22688802083333 2.604064453125  8.81881673177083 3.09375  8.3154296875 3.09375  C 7.81204264322917 3.09375  7.40397135416667 2.604064453125  7.40397135416667 2  C 7.40397135416667 1.395935546875  7.81204264322917 0.90625  8.3154296875 0.90625  C 8.81881673177083 0.90625  9.22688802083333 1.395935546875  9.22688802083333 2  Z " fill-rule="nonzero" fill="#ffffff" stroke="none" transform="matrix(1 0 0 1 496 5512 )" />
  </g>
</svg>