<?xml version="1.0" encoding="utf-8"?>
<svg version="1.1" xmlns:xlink="http://www.w3.org/1999/xlink" width="7px" height="10px" preserveAspectRatio="xMidYMin meet" viewBox="334 3368  5 10" xmlns="http://www.w3.org/2000/svg">
  <path d="M 334.682941969616 3373.91939538826  A 2 2 0 0 1 335 3375 L 335 4137  A 5 5 0 0 0 340 4142 L 1524 4142  " stroke-width="2" stroke="#0099cc" fill="none" />
  <path d="M 335 3371.85840734641  A 3.5 3.5 0 0 0 331.5 3375.35840734641 A 3.5 3.5 0 0 0 335 3378.85840734641 A 3.5 3.5 0 0 0 338.5 3375.35840734641 A 3.5 3.5 0 0 0 335 3371.85840734641 Z M 1518.89289321881 4137.70710678119  L 1523.18578643763 4142  L 1518.89289321881 4146.29289321881  L 1520.30710678119 4147.70710678119  L 1525.30710678119 4142.70710678119  L 1526.01421356237 4142  L 1525.30710678119 4141.29289321881  L 1520.30710678119 4136.29289321881  L 1518.89289321881 4137.70710678119  Z " fill-rule="nonzero" fill="#0099cc" stroke="none" />
</svg>