<?xml version="1.0" encoding="utf-8"?>
<svg version="1.1" xmlns:xlink="http://www.w3.org/1999/xlink" width="12px" height="4px" xmlns="http://www.w3.org/2000/svg">
  <g transform="matrix(1 0 0 1 -1367 -5515 )">
    <path d="M 3.115234375 2  C 3.115234375 2.604064453125  2.625548828125 3.09375  2.021484375 3.09375  C 1.417419921875 3.09375  0.927734375 2.604064453125  0.927734375 2  C 0.927734375 1.395935546875  1.417419921875 0.90625  2.021484375 0.90625  C 2.625548828125 0.90625  3.115234375 1.395935546875  3.115234375 2  Z M 7.09375 2  C 7.09375 2.604064453125  6.604064453125 3.09375  6 3.09375  C 5.395935546875 3.09375  4.90625 2.604064453125  4.90625 2  C 4.90625 1.395935546875  5.395935546875 0.90625  6 0.90625  C 6.604064453125 0.90625  7.09375 1.395935546875  7.09375 2  Z M 11.072265625 2  C 11.072265625 2.604064453125  10.582580078125 3.09375  9.978515625 3.09375  C 9.374451171875 3.09375  8.884765625 2.604064453125  8.884765625 2  C 8.884765625 1.395935546875  9.374451171875 0.90625  9.978515625 0.90625  C 10.582580078125 0.90625  11.072265625 1.395935546875  11.072265625 2  Z " fill-rule="nonzero" fill="#ffffff" stroke="none" transform="matrix(1 0 0 1 1367 5515 )" />
  </g>
</svg>