<?xml version="1.0" encoding="utf-8"?>
<svg version="1.1" xmlns:xlink="http://www.w3.org/1999/xlink" width="12px" height="12px" xmlns="http://www.w3.org/2000/svg">
  <g transform="matrix(1 0 0 1 -1743 -1629 )">
    <path d="M 12 6  C 12 9.3135  9.3135 12  6 12  C 2.6865 12  0 9.3135  0 6  C 0 2.6865  2.6865 0  6 0  C 9.3135 0  12 2.6865  12 6  Z M 2.68299999609375 6.37700000390625  L 4.662 8.35599999609375  C 4.7792149699488 8.47324587986413  4.93821114092442 8.53911653086469  5.10400000195312 8.53911653086469  C 5.26978886298183 8.53911653086469  5.42878503395745 8.47324587986413  5.54600000390625 8.35599999609375  L 9.33500000390625 4.56699999609375  C 9.45222569036413 4.44977430808187  9.51808239514096 4.29078215674607  9.51808239514096 4.125  C 9.51808239514096 3.77977652685462  9.23822347509851 3.49991760681216  8.89300000195313 3.49991760681216  C 8.72721784233563 3.49991760681216  8.56822568848828 3.56577431386397  8.451 3.68300000390625  L 5.07699999609375 7.00299999609375  L 3.567 5.493  C 3.44977431097292 5.37577431097292  3.2907821573275 5.30991760462208  3.12499999804687 5.30991760462208  C 2.77977652261327 5.30991760462208  2.49991760071583 5.58977652651952  2.49991760071583 5.93500000195313  C 2.49991760071583 6.10078216123375  2.56577430706667 6.25977431487917  2.68299999609375 6.37700000390625  Z " fill-rule="nonzero" fill="#3d3d3d" stroke="none" transform="matrix(1 0 0 1 1743 1629 )" />
  </g>
</svg>