<?xml version="1.0" encoding="utf-8"?>
<svg version="1.1" xmlns:xlink="http://www.w3.org/1999/xlink" width="10px" height="208px" preserveAspectRatio="xMidYMin meet" viewBox="1286 140  8 208" xmlns="http://www.w3.org/2000/svg">
  <path d="M 1290 142  L 1290 338  A 5 5 0 0 0 1295 343 L 1516 343  " stroke-width="2" stroke="#0099cc" fill="none" />
  <path d="M 1290 140  A 3.5 3.5 0 0 0 1286.5 143.5 A 3.5 3.5 0 0 0 1290 147 A 3.5 3.5 0 0 0 1293.5 143.5 A 3.5 3.5 0 0 0 1290 140 Z M 1510.89289321881 338.707106781187  L 1515.18578643763 343  L 1510.89289321881 347.292893218813  L 1512.30710678119 348.707106781187  L 1517.30710678119 343.707106781187  L 1518.01421356237 343  L 1517.30710678119 342.292893218813  L 1512.30710678119 337.292893218813  L 1510.89289321881 338.707106781187  Z " fill-rule="nonzero" fill="#0099cc" stroke="none" />
</svg>