<?xml version="1.0" encoding="utf-8"?>
<svg version="1.1" xmlns:xlink="http://www.w3.org/1999/xlink" width="14px" height="14px" xmlns="http://www.w3.org/2000/svg">
  <g transform="matrix(1 0 0 1 -494 -5453 )">
    <path d="M 13.2588235294118 7  C 13.2588235294118 3.54334721282374  10.4566527871763 0.741176470588235  7 0.741176470588235  C 3.54334721282374 0.741176470588235  0.741176470588235 3.54334721282374  0.741176470588235 7  C 0.741176470588235 10.4566527871763  3.54334721282374 13.2588235294118  7 13.2588235294118  C 10.4566527871763 13.2588235294118  13.2588235294118 10.4566527871763  13.2588235294118 7  Z M 8.10311764705883 7  L 9.76952941176471 8.65858823529412  C 9.91684937138558 8.80590819491499  9.99961286291113 9.00571693862532  9.99961286291113 9.21405882352941  C 9.99961286291113 9.64790833964791  9.64790833964791 9.99961286291112  9.21405882352941 9.99961286291112  C 9.00571693862532 9.99961286291112  8.80590819491499 9.91684937138558  8.65858823529412 9.76952941176471  L 7 8.10311764705883  L 5.34141176470588 9.76952941176471  C 5.19409180508501 9.91684937138558  4.99428306137468 9.99961286291113  4.78594117647059 9.99961286291113  C 4.35209166035209 9.99961286291113  4.00038713708888 9.64790833964791  4.00038713708888 9.21405882352941  C 4.00038713708888 9.00571693862532  4.08315062861442 8.80590819491499  4.23047058823529 8.65858823529412  L 5.89688235294118 7  L 4.23047058823529 5.34141176470588  C 4.08315062861442 5.19409180508501  4.00038713708888 4.99428306137468  4.00038713708888 4.78594117647059  C 4.00038713708888 4.35209166035209  4.35209166035209 4.00038713708888  4.78594117647059 4.00038713708888  C 4.99428306137468 4.00038713708888  5.19409180508501 4.08315062861442  5.34141176470588 4.23047058823529  L 7 5.89688235294118  L 8.65858823529412 4.23047058823529  C 8.80590819491499 4.08315062861442  9.00571693862532 4.00038713708888  9.21405882352941 4.00038713708888  C 9.64790833964791 4.00038713708888  9.99961286291112 4.35209166035209  9.99961286291112 4.78594117647059  C 9.99961286291112 4.99428306137468  9.91684937138558 5.19409180508501  9.76952941176471 5.34141176470588  L 8.10311764705883 7  Z " fill-rule="nonzero" fill="#d9001b" stroke="none" transform="matrix(1 0 0 1 494 5453 )" />
  </g>
</svg>