<?xml version="1.0" encoding="utf-8"?>
<svg version="1.1" xmlns:xlink="http://www.w3.org/1999/xlink" width="10px" height="208px" preserveAspectRatio="xMidYMin meet" viewBox="1288 3130  8 208" xmlns="http://www.w3.org/2000/svg">
  <path d="M 1292 3132  L 1292 3328  A 5 5 0 0 0 1297 3333 L 1518 3333  " stroke-width="2" stroke="#0099cc" fill="none" />
  <path d="M 1292 3130  A 3.5 3.5 0 0 0 1288.5 3133.5 A 3.5 3.5 0 0 0 1292 3137 A 3.5 3.5 0 0 0 1295.5 3133.5 A 3.5 3.5 0 0 0 1292 3130 Z M 1512.89289321881 3328.70710678119  L 1517.18578643763 3333  L 1512.89289321881 3337.29289321881  L 1514.30710678119 3338.70710678119  L 1519.30710678119 3333.70710678119  L 1520.01421356237 3333  L 1519.30710678119 3332.29289321881  L 1514.30710678119 3327.29289321881  L 1512.89289321881 3328.70710678119  Z " fill-rule="nonzero" fill="#0099cc" stroke="none" />
</svg>