<?xml version="1.0" encoding="utf-8"?>
<svg version="1.1" xmlns:xlink="http://www.w3.org/1999/xlink" width="10px" height="779px" preserveAspectRatio="xMidYMin meet" viewBox="329 378  8 779" xmlns="http://www.w3.org/2000/svg">
  <path d="M 332.682941969616 383.919395388264  A 2 2 0 0 1 333 385 L 333 1147  A 5 5 0 0 0 338 1152 L 1522 1152  " stroke-width="2" stroke="#0099cc" fill="none" />
  <path d="M 333 381.85840734641  A 3.5 3.5 0 0 0 329.5 385.35840734641 A 3.5 3.5 0 0 0 333 388.85840734641 A 3.5 3.5 0 0 0 336.5 385.35840734641 A 3.5 3.5 0 0 0 333 381.85840734641 Z M 1516.89289321881 1147.70710678119  L 1521.18578643763 1152  L 1516.89289321881 1156.29289321881  L 1518.30710678119 1157.70710678119  L 1523.30710678119 1152.70710678119  L 1524.01421356237 1152  L 1523.30710678119 1151.29289321881  L 1518.30710678119 1146.29289321881  L 1516.89289321881 1147.70710678119  Z " fill-rule="nonzero" fill="#0099cc" stroke="none" />
</svg>