<?xml version="1.0" encoding="utf-8"?>
<svg version="1.1" xmlns:xlink="http://www.w3.org/1999/xlink" width="30px" height="30px" xmlns="http://www.w3.org/2000/svg">
  <g transform="matrix(1 0 0 1 -2008 -1580 )">
    <path d="M 2023 1580  C 2031.4 1580  2038 1586.6  2038 1595  C 2038 1603.4  2031.4 1610  2023 1610  C 2014.6 1610  2008 1603.4  2008 1595  C 2008 1586.6  2014.6 1580  2023 1580  Z " fill-rule="nonzero" fill="#ffffff" stroke="none" />
    <path d="M 2023 1580.5  C 2031.12 1580.5  2037.5 1586.88  2037.5 1595  C 2037.5 1603.12  2031.12 1609.5  2023 1609.5  C 2014.88 1609.5  2008.5 1603.12  2008.5 1595  C 2008.5 1586.88  2014.88 1580.5  2023 1580.5  Z " stroke-width="1" stroke="#333333" fill="none" />
  </g>
</svg>