<?xml version="1.0" encoding="utf-8"?>
<svg version="1.1" xmlns:xlink="http://www.w3.org/1999/xlink" width="12px" height="12px" xmlns="http://www.w3.org/2000/svg">
  <g transform="matrix(1 0 0 1 -2291 -952 )">
    <path d="M 1.34988116038722 3.51470378729913  C 1.34988116038722 3.51470378729913  2.29496047097773 2.05665717060987  3.79012100619555 1.27461398334947  C 5.28528154118103 0.491908052003872  7.12772227051307 0.717242528480155  8.33657547508228 1.47608951407551  C 9.54476592487899 2.23493651012585  9.95169348406583 2.87448877649564  9.95169348429816 2.87448877649564  L 10.9922085682478 2.28199164696999  C 10.9922085682478 2.28199164696999  11.207601815605 2.1759518896031  11.20760182606 2.42448256774443  L 11.20760182606 6.14780343357212  C 11.20760182606 6.14780343357212  11.20760182606 6.47917766753146  10.9557574049564 6.3612084478606  C 10.7450033894288 6.26179617665053  8.45918393750242 4.96148368600194  7.7387763589545 4.55190513862536  C 7.34311552832527 4.37495129843175  7.69105846710552 4.23179763322362  7.69105846710552 4.23179762265247  L 8.69512239821878 3.65785745227493  C 8.69512239821878 3.65785745227493  8.12250772727977 2.94010086191675  7.28346816336883 2.56034600224589  C 6.3861067446273 2.0924455893514  5.54574169196515 2.03677471202323  4.51649332623427 2.42580805661181  C 3.84579188329138 2.6789779664666  3.05513296623427 3.32714597343659  2.48583202791868 4.28614300065828  L 1.3505439152759 3.51470378729913  Z M 9.54476592511132 7.66483467090029  L 10.6813795476476 8.43561114005808  C 10.6813795476476 8.43561114005808  9.73630023705712 9.89365775674734  8.24047694718296 10.6770264429816  C 6.74531641219748 11.4590696301258  4.90287568286544 11.2337351535334  3.69402247783156 10.4748881574831  C 2.48583202803485 9.71604116143272  2.07956721304937 9.07648889506292  2.07956722373669 9.07648890551791  L 1.03905212933204 9.66898602458858  C 1.03905212933204 9.66898602458858  0.82299612696999 9.77502578195547  0.822996137541142 9.52649511426912  L 0.822996137541142 5.80383698230397  C 0.822996137541142 5.80383698230397  0.822996137541142 5.4718000040271  1.0748405483059 5.59043197870281  C 1.28559456383349 5.68984424991288  3.57141401575992 6.98949398555663  4.29182159407551 7.39973528793805  C 4.68748242470474 7.57602638381413  4.34020223035818 7.7191800489061  4.34020223047435 7.7191800489061  L 3.33547556549855 8.293782963485  C 3.33547556549855 8.293782963485  3.90875299155857 9.0108767989545  4.74712978977735 9.39129442420136  C 5.64449120851888 9.85853209266215  6.48485626118102 9.91420295941917  7.51410462691191 9.52516961483059  C 8.1854688246273 9.2719997049758  8.97546498691191 8.62383169800581  9.54476592511132 7.66483467090029  Z " fill-rule="nonzero" fill="#aaaaaa" stroke="none" transform="matrix(1 0 0 1 2291 952 )" />
  </g>
</svg>