<?xml version="1.0" encoding="utf-8"?>
<svg version="1.1" xmlns:xlink="http://www.w3.org/1999/xlink" width="225px" height="70px" xmlns="http://www.w3.org/2000/svg">
  <defs>
    <mask fill="white" id="clip101">
      <path d="M 0 54.7826086956522  L 0 5.21739130434783  C 0 2.29565217391303  1.20509554140127 0  2.73885350318471 0  L 212.261146496815 0  C 213.794904458599 0  215 2.29565217391303  215 5.21739130434783  L 215 54.7826086956522  C 215 57.704347826087  213.794904458599 60  212.261146496815 60  L 137.689635205559 60  L 2.73885350318471 60  C 1.20509554140127 60  0 57.704347826087  0 54.7826086956522  Z " fill-rule="evenodd" />
    </mask>
    <filter x="2309px" y="958px" width="225px" height="70px" filterUnits="userSpaceOnUse" id="filter102">
      <feOffset dx="3" dy="3" in="SourceAlpha" result="shadowOffsetInner" />
      <feGaussianBlur stdDeviation="2.5" in="shadowOffsetInner" result="shadowGaussian" />
      <feComposite in2="shadowGaussian" operator="atop" in="SourceAlpha" result="shadowComposite" />
      <feColorMatrix type="matrix" values="0 0 0 0 0  0 0 0 0 0  0 0 0 0 0  0 0 0 0.349019607843137 0  " in="shadowComposite" />
    </filter>
    <g id="widget103">
      <path d="M 0 54.7826086956522  L 0 5.21739130434783  C 0 2.29565217391303  1.20509554140127 0  2.73885350318471 0  L 212.261146496815 0  C 213.794904458599 0  215 2.29565217391303  215 5.21739130434783  L 215 54.7826086956522  C 215 57.704347826087  213.794904458599 60  212.261146496815 60  L 137.689635205559 60  L 2.73885350318471 60  C 1.20509554140127 60  0 57.704347826087  0 54.7826086956522  Z " fill-rule="nonzero" fill="#ffffff" stroke="none" transform="matrix(1 0 0 1 2311 960 )" />
      <path d="M 0 54.7826086956522  L 0 5.21739130434783  C 0 2.29565217391303  1.20509554140127 0  2.73885350318471 0  L 212.261146496815 0  C 213.794904458599 0  215 2.29565217391303  215 5.21739130434783  L 215 54.7826086956522  C 215 57.704347826087  213.794904458599 60  212.261146496815 60  L 137.689635205559 60  L 2.73885350318471 60  C 1.20509554140127 60  0 57.704347826087  0 54.7826086956522  Z " stroke-width="2" stroke="#adb0c1" fill="none" transform="matrix(1 0 0 1 2311 960 )" mask="url(#clip101)" />
    </g>
  </defs>
  <g transform="matrix(1 0 0 1 -2309 -958 )">
    <use xlink:href="#widget103" filter="url(#filter102)" />
    <use xlink:href="#widget103" />
  </g>
</svg>