<?xml version="1.0" encoding="utf-8"?>
<svg version="1.1" xmlns:xlink="http://www.w3.org/1999/xlink" width="30px" height="30px" xmlns="http://www.w3.org/2000/svg">
  <g transform="matrix(1 0 0 1 -2942 -1580 )">
    <path d="M 2957 1580  C 2965.4 1580  2972 1586.6  2972 1595  C 2972 1603.4  2965.4 1610  2957 1610  C 2948.6 1610  2942 1603.4  2942 1595  C 2942 1586.6  2948.6 1580  2957 1580  Z " fill-rule="nonzero" fill="#ffffff" stroke="none" />
    <path d="M 2957 1580.5  C 2965.12 1580.5  2971.5 1586.88  2971.5 1595  C 2971.5 1603.12  2965.12 1609.5  2957 1609.5  C 2948.88 1609.5  2942.5 1603.12  2942.5 1595  C 2942.5 1586.88  2948.88 1580.5  2957 1580.5  Z " stroke-width="1" stroke="#aaaaaa" fill="none" />
  </g>
</svg>