<?xml version="1.0" encoding="utf-8"?>
<svg version="1.1" xmlns:xlink="http://www.w3.org/1999/xlink" width="14px" height="14px" xmlns="http://www.w3.org/2000/svg">
  <g transform="matrix(1 0 0 1 -1326 -914 )">
    <path d="M 13.9952572402344 8.78853337304687  C 13.2752773671875 8.51126936132813  12.7622032207031 7.81766161914063  12.7622032207031 7  C 12.7622032207031 6.18233838085937  13.2752773535156 5.4886746796875  13.9952572128906 5.21146662695312  C 13.8232298476563 4.5370538828125  13.5579557011719 3.90171664257812  13.2112147890625 3.318186265625  C 12.5060368945313 3.63136392773437  11.6527414335938 3.50371447070312  11.0744715019531 2.9254585390625  C 10.4962995019531 2.34720259375  10.3685660996094 1.49383717382812  10.6817717480469 0.788687265624999  C 10.0982133984375 0.442030298828125  9.46290414453125 0.176770138671874  8.7884634140625 0.00474277343749949  C 8.51128334765625 0.724722632812499  7.81759166015625 1.2377128203125  6.99999998632813 1.2377128203125  C 6.18231038085938 1.2377128203125  5.48861870703125 0.724722632812499  5.21143862695313 0.00474277343749949  C 4.53699791015625 0.17677015234375  3.90168865625 0.4420163125  3.31813030664062 0.788687265625  C 3.63133595507813 1.49383717382813  3.50361655273437 2.34720259375  2.92543055273437 2.9254585390625  C 2.34714663476562 3.503714484375  1.49385116015625 3.63136394140625  0.788687265625 3.318186265625  C 0.441946353515625 3.90171662890625  0.176770138671875 4.53705386914062  0.00474277343749988 5.21146662695312  C 0.7247226328125 5.4886746796875  1.23768483398437 6.18233838085937  1.23768483398437 7  C 1.23768483398437 7.81766161914063  0.7247226328125 8.51126936132813  0.004742787109375 8.78853337304687  C 0.17677015234375 9.4629461171875  0.442044298828125 10.0982833574219  0.788687279296875 10.681813734375  C 1.49386517382813 10.3686360722656  2.34716063476563 10.4962855292969  2.92543056640625 11.0745414609375  C 3.50360256640625 11.6527414472656  3.63133596875 12.5060928671875  3.3181303203125 13.2112847480469  C 3.90168866992188 13.5579417148438  4.53699792382813 13.8232298476563  5.21143865429688 13.9952572128906  C 5.48861872070313 13.2752493808594  6.18231040820313 12.7622312070312  7.00000001367188 12.7622312070312  C 7.81757770117188 12.7622312070312  8.511269375 13.2752493808594  8.78846344140625 13.9952572128906  C 9.462904171875 13.8232298476563  10.0982134257813 13.5579557011719  10.6817717753906 13.2112847480469  C 10.3685661269531 12.5060788808594  10.4962855292969 11.6527414335938  11.0744715292969 11.0745414609375  C 11.6527554472656 10.496285515625  12.506036921875 10.3686360585938  13.2112148164063 10.681813734375  C 13.557857796875 10.0982833710937  13.8231319433594 9.46294613085937  13.9952572402344 8.78853337304687  Z M 8.920841671875 7  C 8.920841671875 8.06088670898438  8.06081676367188 8.9209116171875  7 8.9209116171875  C 5.9390713046875 8.9209116171875  5.07906039648437 8.06088670898438  5.07906039648437 7  C 5.07906039648437 5.93911329101562  5.9390853046875 5.0790883828125  7 5.0790883828125  C 8.06081676367188 5.0790883828125  8.920841671875 5.93911329101562  8.920841671875 7  Z " fill-rule="nonzero" fill="#ffffff" stroke="none" transform="matrix(1 0 0 1 1326 914 )" />
  </g>
</svg>