<?xml version="1.0" encoding="utf-8"?>
<svg version="1.1" xmlns:xlink="http://www.w3.org/1999/xlink" width="28px" height="26px" xmlns="http://www.w3.org/2000/svg">
  <g transform="matrix(1 0 0 1 -1198 -110 )">
    <path d="M 26.68203125 17.9587890625  C 26.9740625 18.2525948660714  27.125 18.6084263392857  27.125 19.0262834821429  L 27.125 24.0503627232143  C 27.125 24.4682198660714  26.980625 24.8273158482143  26.6853125 25.1178571428571  C 26.39 25.4116629464286  26.03234375 25.5553013392857  25.61234375 25.5553013392857  L 2.38765625 25.5553013392857  C 1.96765625 25.5553013392857  1.60671875 25.4116629464286  1.3146875 25.1178571428571  C 1.019375 24.8240513392857  0.875 24.4682198660714  0.875 24.0503627232143  L 0.875 19.0262834821429  C 0.875 18.6084263392857  1.019375 18.2493303571429  1.3146875 17.9587890625  C 1.61 17.6649832589286  1.96765625 17.5213448660714  2.38765625 17.5213448660714  L 9.1240625 17.5213448660714  C 9.3471875 18.1089564732143  9.7146875 18.5888392857143  10.23640625 18.9642578125  C 10.758125 19.3396763392857  11.33890625 19.5290178571429  11.97875 19.5290178571429  L 16.01796875 19.5290178571429  C 16.6578125 19.5290178571429  17.23859375 19.3396763392857  17.7603125 18.9642578125  C 18.28203125 18.5888392857143  18.6528125 18.1056919642857  18.87265625 17.5213448660714  L 25.6090625 17.5213448660714  C 26.0290625 17.5213448660714  26.39 17.6649832589286  26.68203125 17.9587890625  Z M 21.7765625 7.77352120535714  C 22.10140625 8.0869140625  22.17359375 8.44601004464286  21.9996875 8.85407366071429  C 21.81921875 9.27193080357143  21.51078125 9.480859375  21.0678125 9.480859375  L 17.02859375 9.480859375  L 17.02859375 16.5126116071429  C 17.02859375 16.7835658482143  16.93015625 17.021875  16.73 17.2177455357143  C 16.52984375 17.4136160714286  16.29359375 17.5148158482143  16.02125 17.5148158482143  L 11.97875 17.5148158482143  C 11.70640625 17.5148158482143  11.466875 17.4168805803571  11.27 17.2177455357143  C 11.073125 17.0186104910714  10.97140625 16.7868303571429  10.97140625 16.5126116071429  L 10.97140625 9.48412388392857  L 6.9321875 9.48412388392857  C 6.4925 9.48412388392857  6.1775 9.2751953125  6.0003125 8.85733816964286  C 5.81984375 8.44927455357143  5.8953125 8.0869140625  6.2234375 7.77352120535714  L 13.29125 0.741768973214287  C 13.4815625 0.54263392857143  13.71453125 0.444698660714287  14 0.444698660714287  C 14.28546875 0.444698660714287  14.52171875 0.54263392857143  14.70875 0.741768973214287  L 21.7765625 7.77352120535714  Z M 20.0571875 23.5443638392857  C 20.32953125 23.5443638392857  20.5690625 23.4464285714286  20.7659375 23.2472935267857  C 20.96609375 23.0481584821429  21.06453125 22.8163783482143  21.06453125 22.5421595982143  C 21.06453125 22.2712053571429  20.96609375 22.0328962053571  20.7659375 21.8370256696429  C 20.56578125 21.6411551339286  20.32953125 21.5399553571429  20.0571875 21.5399553571429  C 19.78484375 21.5399553571429  19.5453125 21.637890625  19.3484375 21.8370256696429  C 19.1515625 22.0361607142857  19.04984375 22.2712053571429  19.04984375 22.5421595982143  C 19.04984375 22.8131138392857  19.14828125 23.0514229910714  19.3484375 23.2472935267857  C 19.54859375 23.4431640625  19.7815625 23.5443638392857  20.0571875 23.5443638392857  Z M 24.09640625 23.5443638392857  C 24.36875 23.5443638392857  24.605 23.4464285714286  24.80515625 23.2472935267857  C 25.0053125 23.0481584821429  25.10375 22.8163783482143  25.10375 22.5421595982143  C 25.10375 22.2712053571429  25.0053125 22.0328962053571  24.80515625 21.8370256696429  C 24.605 21.6411551339286  24.36875 21.5399553571429  24.09640625 21.5399553571429  C 23.8240625 21.5399553571429  23.58453125 21.637890625  23.38765625 21.8370256696429  C 23.19078125 22.0361607142857  23.0890625 22.2712053571429  23.0890625 22.5421595982143  C 23.0890625 22.8131138392857  23.1875 23.0514229910714  23.38765625 23.2472935267857  C 23.5878125 23.4431640625  23.82078125 23.5443638392857  24.09640625 23.5443638392857  Z " fill-rule="nonzero" fill="#000000" stroke="none" transform="matrix(1 0 0 1 1198 110 )" />
  </g>
</svg>