<?xml version="1.0" encoding="utf-8"?>
<svg version="1.1" xmlns:xlink="http://www.w3.org/1999/xlink" width="21px" height="21px" xmlns="http://www.w3.org/2000/svg">
  <g transform="matrix(1 0 0 1 -1204 -113 )">
    <path d="M 0 0  L 0 9.00000001199777  L 9.00000001199777 9.00000001199777  L 9.00000001199777 0  L 0 0  Z M 2.4000000015067 6.60000001049107  L 2.4000000015067 2.4000000015067  L 6.60000001049107 2.4000000015067  L 6.60000001049107 6.60000001049107  L 2.4000000015067 6.60000001049107  Z M 20.0000000040923 0  L 10.9999999920945 0  L 10.9999999920945 9.00000001199777  L 20.0000000040923 9.00000001199777  L 20.0000000040923 0  Z M 17.6000000025856 2.4000000015067  L 17.6000000025856 6.60000001049107  L 13.3999999936012 6.60000001049107  L 13.3999999936012 2.4000000015067  L 17.6000000025856 2.4000000015067  Z M 0 10.9999999920945  L 0 20.0000000040923  L 9.00000001199777 20.0000000040923  L 9.00000001199777 10.9999999920945  L 0 10.9999999920945  Z M 2.4000000015067 17.6000000025856  L 2.4000000015067 13.3999999936012  L 6.60000001049107 13.3999999936012  L 6.60000001049107 17.6000000025856  L 2.4000000015067 17.6000000025856  Z M 19.7300000080487 18.4200000121987  L 16.9300000105227 15.6500000029483  C 17.6099999986775 14.4600000109821  17.4300000182422 12.929999999548  16.4100000106194 11.9200000134077  C 15.789999999016 11.3100000232868  14.9800000108854 11.010000013577  14.1699999973642 11.010000013577  C 13.8200000071949 11.010000013577  13.4799999877269 11.070000015519  13.1399999936495 11.1799999979204  L 15.0899999932868 13.1100000053739  L 14.6700000050837 14.6399999914174  L 13.1200000014658 15.0500000089193  L 11.1700000018285 13.1200000014658  C 10.7899999979929 14.2100000071224  11.0400000018527 15.4699999971224  11.9300000094996 16.3400000125856  C 12.5500000211031 16.9500000027065  13.3600000092336 17.2500000124163  14.1699999973642 17.2500000124163  C 14.6399999914174 17.2500000124163  15.1200000069531 17.1500000007161  15.5499999912481 16.9400000066146  L 18.3899999985324 19.7400000041406  C 18.5700000043583 19.9200000099665  18.820000008218 20.0100000001841  19.0599999905952 20.0100000001841  C 19.2999999983631 20.0100000001841  19.5500000022228 19.9200000099665  19.7300000080487 19.7400000041406  C 20.1000000157924 19.3799999924888  20.1000000157924 18.7799999984598  19.7300000080487 18.4200000121987  Z " fill-rule="nonzero" fill="#333333" stroke="none" transform="matrix(1 0 0 1 1204 113 )" />
  </g>
</svg>