<?xml version="1.0" encoding="utf-8"?>
<svg version="1.1" xmlns:xlink="http://www.w3.org/1999/xlink" width="21px" height="20px" preserveAspectRatio="xMinYMid meet" viewBox="674 1359  21 18" xmlns="http://www.w3.org/2000/svg">
  <path d="M 683 1368  L 861 1368  A 5 5 0 0 0 866 1363 L 866 1248  A 5 5 0 0 1 871 1243 L 1050 1243  " stroke-width="2" stroke="#0099cc" fill="none" />
  <path d="M 684.5 1364.5  A 3.5 3.5 0 0 0 681 1368 A 3.5 3.5 0 0 0 684.5 1371.5 A 3.5 3.5 0 0 0 688 1368 A 3.5 3.5 0 0 0 684.5 1364.5 Z M 1044.89289321881 1238.70710678119  L 1049.18578643763 1243  L 1044.89289321881 1247.29289321881  L 1046.30710678119 1248.70710678119  L 1051.30710678119 1243.70710678119  L 1052.01421356237 1243  L 1051.30710678119 1242.29289321881  L 1046.30710678119 1237.29289321881  L 1044.89289321881 1238.70710678119  Z " fill-rule="nonzero" fill="#0099cc" stroke="none" />
</svg>