<?xml version="1.0" encoding="utf-8"?>
<svg version="1.1" xmlns:xlink="http://www.w3.org/1999/xlink" width="117px" height="105px" xmlns="http://www.w3.org/2000/svg">
  <g transform="matrix(1 0 0 1 -1649 -405 )">
    <path d="M 1649 405  L 1766 405  L 1766 510  L 1649 510  L 1649 405  " fill-rule="nonzero" fill="#cccccc" stroke="none" />
    <path d="M 1656 412  L 1759 412  L 1759 503  L 1656 503  L 1656 412  " fill-rule="nonzero" fill="#ffffff" stroke="none" />
    <path d="M 1717.715 436.5  C 1713.305 436.5  1709.84 433.035  1709.84 428.625  C 1709.84 424.215  1713.305 420.75  1717.715 420.75  C 1722.125 420.75  1725.59 424.215  1725.59 428.625  C 1725.59 433.035  1722.125 436.5  1717.715 436.5  " fill-rule="nonzero" fill="#cccccc" stroke="none" />
    <path d="M 1659 501  L 1659 453.7  L 1683.5 432.2  L 1717.8 454.692307692308  L 1737.4 445.1  L 1757 454.692307692308  L 1757 501  L 1659 501  " fill-rule="nonzero" fill="#169bd5" stroke="none" />
  </g>
</svg>