<?xml version="1.0" encoding="utf-8"?>
<svg version="1.1" xmlns:xlink="http://www.w3.org/1999/xlink" width="10px" height="26px" preserveAspectRatio="xMidYMin meet" viewBox="226 97  8 26" xmlns="http://www.w3.org/2000/svg">
  <path d="M 230 121  L 230 107  A 5 5 0 0 1 235 102 L 1435 102  A 5 5 0 0 1 1440 107 L 1440 134  A 5 5 0 0 0 1445 139 L 1460 139  " stroke-width="2" stroke="#0099cc" fill="none" />
  <path d="M 230 116  A 3.5 3.5 0 0 0 226.5 119.5 A 3.5 3.5 0 0 0 230 123 A 3.5 3.5 0 0 0 233.5 119.5 A 3.5 3.5 0 0 0 230 116 Z M 1459 146.6  L 1466 139  L 1459 131.4  L 1459 146.6  Z " fill-rule="nonzero" fill="#0099cc" stroke="none" />
</svg>