<?xml version="1.0" encoding="utf-8"?>
<svg version="1.1" xmlns:xlink="http://www.w3.org/1999/xlink" width="119px" height="109px" xmlns="http://www.w3.org/2000/svg">
  <g transform="matrix(1 0 0 1 -1505 -405 )">
    <path d="M 1505 405  L 1624 405  L 1624 514  L 1505 514  L 1505 405  " fill-rule="nonzero" fill="#cccccc" stroke="none" />
    <path d="M 1513 413  L 1616 413  L 1616 506  L 1513 506  L 1513 413  " fill-rule="nonzero" fill="#ffffff" stroke="none" />
    <path d="M 1575.055 437.7  C 1570.477 437.7  1566.88 434.103  1566.88 429.525  C 1566.88 424.947  1570.477 421.35  1575.055 421.35  C 1579.633 421.35  1583.23 424.947  1583.23 429.525  C 1583.23 434.103  1579.633 437.7  1575.055 437.7  " fill-rule="nonzero" fill="#cccccc" stroke="none" />
    <path d="M 1516 504  L 1516 455.6  L 1540.5 433.6  L 1574.8 455.636974789916  L 1594.4 446.8  L 1614 455.636974789916  L 1614 504  L 1516 504  " fill-rule="nonzero" fill="#169bd5" stroke="none" />
  </g>
</svg>