<?xml version="1.0" encoding="utf-8"?>
<svg version="1.1" xmlns:xlink="http://www.w3.org/1999/xlink" width="29px" height="29px" xmlns="http://www.w3.org/2000/svg">
  <g transform="matrix(1 0 0 1 -854 -1866 )">
    <path d="M 29 2.9  C 29 2.61  28.8066666572266 2.41666665722656  28.5166666572266 2.41666665722656  L 16.4333333427734 2.41666665722656  L 16.4333333427734 0.966666657226563  C 16.4333333427734 0.773333314453125  16.3366666855469 0.676666657226562  16.24 0.58  C 16.1433333144531 0.483333342773438  15.95 0.483333342773437  15.8533333427734 0.483333342773437  L 0.386666657226562 4.35  C 0.193333314453124 4.44666665722656  0 4.64  0 4.83333334277344  L 0 25.1333333427734  C 0 25.3266666855469  0.193333342773437 25.52  0.386666657226562 25.6166666572266  L 15.8533333427734 28.5166666572266  L 15.95 28.5166666572266  C 16.0466666572266 28.5166666572266  16.1433333427734 28.5166666572266  16.24 28.42  C 16.3366666572266 28.3233333427734  16.4333333427734 28.2266666572266  16.4333333427734 28.0333333427734  L 16.4333333427734 26.5833333427734  L 28.5166666572266 26.5833333427734  C 28.8066666572266 26.5833333427734  29 26.39  29 26.1  L 29 2.9  Z M 28.0333333427734 18.85  L 28.0333333427734 21.75  L 21.2666666572266 21.75  L 21.2666666572266 18.85  L 28.0333333427734 18.85  Z M 4.83333334277344 19.43  C 4.83333334277344 19.3333333427734  4.83333334277344 19.2366666572266  4.93 19.0433333427734  L 7.54 14.6933333427734  C 7.63666665722656 14.5  7.63666665722656 14.3066666855469  7.54 14.21  L 4.93 9.86  C 4.83333334277344 9.76333334277344  4.83333334277344 9.66666665722656  4.83333334277344 9.57  C 4.83333334277344 9.47333334277344  4.93 9.37666665722656  5.02666665722656 9.28  C 5.22 9.18333334277344  5.51 9.18333334277344  5.70333334277344 9.47333334277344  L 7.73333334277344 12.9533333427734  C 7.92666668554687 13.2433333427734  8.41 13.2433333427734  8.60333334277344 12.9533333427734  L 10.6333333427734 9.47333334277344  C 10.73 9.28  11.1166666855469 9.18333334277344  11.31 9.28  C 11.5033333427734 9.28  11.6 9.47333334277344  11.6 9.57  C 11.6 9.66666665722656  11.6 9.86  11.5033333427734 9.95666665722656  L 8.89333334277344 14.3066666572266  C 8.79666668554687 14.5  8.79666668554687 14.6933333144531  8.89333334277344 14.79  L 11.5033333427734 19.14  C 11.6 19.2366666572266  11.6 19.3333333427734  11.6 19.43  C 11.6 19.5266666572266  11.5033333427734 19.6233333427734  11.4066666572266 19.72  C 11.2133333144531 19.8166666572266  10.9233333144531 19.8166666572266  10.73 19.5266666572266  L 8.7 16.0466666572266  C 8.60333334277344 15.8533333144531  8.41 15.8533333144531  8.31333334277344 15.8533333427734  C 8.21666668554688 15.8533333710937  8.02333334277344 15.95  7.92666665722656 16.0466666572266  L 5.89666665722656 19.5266666572266  C 5.8 19.72  5.41333331445313 19.8166666572266  5.22 19.72  C 4.93 19.72  4.83333334277344 19.6233333427734  4.83333334277344 19.43  Z M 16.4333333427734 17.8833333427734  L 16.4333333427734 14.9833333427734  L 20.3 14.9833333427734  L 20.3 17.8833333427734  L 16.4333333427734 17.8833333427734  Z M 20.3 14.0166666572266  L 16.4333333427734 14.0166666572266  L 16.4333333427734 11.1166666572266  L 20.3 11.1166666572266  L 20.3 14.0166666572266  Z M 21.2666666572266 14.0166666572266  L 21.2666666572266 11.1166666572266  L 28.0333333427734 11.1166666572266  L 28.0333333427734 14.0166666572266  L 21.2666666572266 14.0166666572266  Z M 28.0333333427734 7.25  L 28.0333333427734 10.15  L 21.2666666572266 10.15  L 21.2666666572266 7.25  L 28.0333333427734 7.25  Z M 20.3 7.25  L 20.3 10.15  L 16.4333333427734 10.15  L 16.4333333427734 7.25  L 20.3 7.25  Z M 16.4333333427734 21.75  L 16.4333333427734 18.85  L 20.3 18.85  L 20.3 21.75  L 16.4333333427734 21.75  Z M 28.0333333427734 17.8833333427734  L 21.2666666572266 17.8833333427734  L 21.2666666572266 14.9833333427734  L 28.0333333427734 14.9833333427734  L 28.0333333427734 17.8833333427734  Z M 21.2666666572266 3.38333334277344  L 28.0333333427734 3.38333334277344  L 28.0333333427734 6.28333334277344  L 21.2666666572266 6.28333334277344  L 21.2666666572266 3.38333334277344  Z M 16.4333333427734 3.38333334277344  L 20.3 3.38333334277344  L 20.3 6.28333334277344  L 16.4333333427734 6.28333334277344  L 16.4333333427734 3.38333334277344  Z M 16.4333333427734 25.6166666572266  L 16.4333333427734 22.7166666572266  L 20.3 22.7166666572266  L 20.3 25.6166666572266  L 16.4333333427734 25.6166666572266  Z M 28.0333333427734 22.7166666572266  L 28.0333333427734 25.6166666572266  L 21.2666666572266 25.6166666572266  L 21.2666666572266 22.7166666572266  L 28.0333333427734 22.7166666572266  Z " fill-rule="nonzero" fill="#000000" stroke="none" transform="matrix(1 0 0 1 854 1866 )" />
  </g>
</svg>