<?xml version="1.0" encoding="utf-8"?>
<svg version="1.1" xmlns:xlink="http://www.w3.org/1999/xlink" width="28px" height="28px" xmlns="http://www.w3.org/2000/svg">
  <g transform="matrix(1 0 0 1 -854 -2010 )">
    <path d="M 18.251298828125 0.914375  L 24.461123046875 7.124228515625  L 18.251298828125 7.124228515625  L 18.251298828125 0.914375  Z M 24.461123046875 7.893857421875  L 17.481669921875 7.893857421875  L 17.481669921875 1  L 4 1  L 4 13.128330078125  L 24.461123046875 13.128330078125  L 24.461123046875 7.893857421875  Z M 28 14.873193359375  L 0 14.873193359375  L 0 27  L 28 27  L 28 14.873193359375  Z M 17.640400390625 21.111142578125  C 17.640400390625 22.533271484375  17.24099609375 23.622265625  16.442158203125 24.378095703125  C 15.8439453125 24.99423828125  14.978837890625 25.30232421875  13.846865234375 25.30232421875  C 12.714892578125 25.30232421875  11.84978515625 24.99423828125  11.251572265625 24.378095703125  C 10.44916015625 23.622265625  10.047939453125 22.533271484375  10.047939453125 21.111142578125  C 10.047939453125 19.660361328125  10.44916015625 18.5713671875  11.251572265625 17.844189453125  C 11.84978515625 17.228046875  12.714892578125 16.919990234375  13.846865234375 16.919990234375  C 14.978837890625 16.919990234375  15.8439453125 17.228046875  16.442158203125 17.844189453125  C 17.24099609375 18.5713671875  17.640400390625 19.660361328125  17.640400390625 21.111142578125  Z M 25.05552734375 18.322431640625  C 25.39583984375 18.81318359375  25.57853515625 19.30572265625  25.60361328125 19.800078125  L 23.9486328125 19.800078125  C 23.841171875 19.420361328125  23.7032421875 19.133779296875  23.53490234375 18.940361328125  C 23.233994140625 18.5964453125  22.7880078125 18.424501953125  22.196943359375 18.424501953125  C 21.595126953125 18.424501953125  21.12048828125 18.667197265625  20.77302734375 19.152587890625  C 20.425537109375 19.637978515625  20.251806640625 20.324873046875  20.251806640625 21.2132421875  C 20.251806640625 22.101640625  20.43541015625 22.76703125  20.802587890625 23.2094140625  C 21.169736328125 23.651826171875  21.636318359375 23.873017578125  22.2023046875 23.873017578125  C 22.7826171875 23.873017578125  23.225029296875 23.683173828125  23.52951171875 23.30345703125  C 23.697880859375 23.0992578125  23.83759765625 22.79298828125  23.9486328125 22.384619140625  L 25.587470703125 22.384619140625  C 25.444208984375 23.247939453125  25.07791015625 23.9500390625  24.4886328125 24.490947265625  C 23.899384765625 25.03185546875  23.14443359375 25.30232421875  22.22380859375 25.30232421875  C 21.084658203125 25.30232421875  20.189111328125 24.93693359375  19.53716796875 24.20615234375  C 18.8851953125 23.471826171875  18.55923828125 22.46521484375  18.55923828125 21.186376953125  C 18.55923828125 19.80365234375  18.929990234375 18.73794921875  19.671494140625 17.989267578125  C 20.3162890625 17.33732421875  21.1366015625 17.011337890625  22.1324609375 17.011337890625  C 23.465029296875 17.011337890625  24.439384765625 17.448359375  25.05552734375 18.322431640625  Z M 8.46283203125 23.604365234375  C 7.889697265625 24.589443359375  7.00490234375 25.08201171875  5.80841796875 25.08201171875  L 2.39638671875 25.08201171875  L 2.39638671875 17.16177734375  L 5.80841796875 17.16177734375  C 6.29919921875 17.168955078125  6.707568359375 17.226259765625  7.033525390625 17.33375  C 7.5887890625 17.516416015625  8.038349609375 17.8513671875  8.382236328125 18.338544921875  C 8.65806640625 18.732587890625  8.846123046875 19.158857421875  8.946435546875 19.6173828125  C 9.04671875 20.075908203125  9.096875 20.5129296875  9.096875 20.928447265625  C 9.096875 21.981611328125  8.88552734375 22.873583984375  8.46283203125 23.604365234375  Z M 13.846865234375 23.8998828125  C 14.502412109375 23.8998828125  15.022724609375 23.658095703125  15.407802734375 23.1744921875  C 15.792880859375 22.690888671875  15.985419921875 22.003115234375  15.985419921875 21.111142578125  C 15.985419921875 20.2227734375  15.792880859375 19.53587890625  15.407802734375 19.05048828125  C 15.022724609375 18.565126953125  14.502412109375 18.322431640625  13.846865234375 18.322431640625  C 13.191318359375 18.322431640625  12.668310546875 18.56421875  12.27787109375 19.047822265625  C 11.88740234375 19.531396484375  11.69216796875 20.21919921875  11.69216796875 21.111142578125  C 11.69216796875 22.003115234375  11.88740234375 22.690888671875  12.27787109375 23.1744921875  C 12.668310546875 23.658095703125  13.191318359375 23.8998828125  13.846865234375 23.8998828125  Z M 5.529013671875 18.537353515625  L 4.002998046875 18.537353515625  L 4.002998046875 23.706435546875  L 5.529013671875 23.706435546875  C 6.309951171875 23.706435546875  6.85443359375 23.321357421875  7.162490234375 22.551201171875  C 7.330859375 22.128505859375  7.415029296875 21.625185546875  7.415029296875 21.041298828125  C 7.415029296875 20.2353125  7.288759765625 19.616474609375  7.036220703125 19.18484375  C 6.783681640625 18.75318359375  6.28126953125 18.537353515625  5.529013671875 18.537353515625  Z " fill-rule="nonzero" fill="#000000" stroke="none" transform="matrix(1 0 0 1 854 2010 )" />
  </g>
</svg>