<?xml version="1.0" encoding="utf-8"?>
<svg version="1.1" xmlns:xlink="http://www.w3.org/1999/xlink" width="21px" height="20px" preserveAspectRatio="xMinYMid meet" viewBox="2508 3271  21 18" xmlns="http://www.w3.org/2000/svg">
  <path d="M 1578.16666666667 3660.16666666667  L 2398.83333333333 3660.16666666667  A 5 5 0 0 0 2403.83333333333 3655.16666666667 L 2403.83333333333 3285  A 5 5 0 0 1 2408.83333333333 3280 L 2518 3280  " stroke-width="2" stroke="#0099cc" fill="none" />
  <path d="M 1581.40486727887 3656.66666666667  A 3.5 3.5 0 0 0 1577.90486727887 3660.16666666667 A 3.5 3.5 0 0 0 1581.40486727887 3663.66666666667 A 3.5 3.5 0 0 0 1584.90486727887 3660.16666666667 A 3.5 3.5 0 0 0 1581.40486727887 3656.66666666667 Z M 2517 3287.6  L 2524 3280  L 2517 3272.4  L 2517 3287.6  Z " fill-rule="nonzero" fill="#0099cc" stroke="none" />
</svg>