<?xml version="1.0" encoding="utf-8"?>
<svg version="1.1" xmlns:xlink="http://www.w3.org/1999/xlink" width="696px" height="513px" xmlns="http://www.w3.org/2000/svg">
  <defs>
    <mask fill="white" id="clip352">
      <path d="M 2 0.958904109589639  L 2 58.4931506849316  L 112 60  L 112 130  L 0.179104477611872 130  L 0.179104477611872 383  L 112 383  L 112 453  L 0.179104477611872 453  L 0.179104477611872 511.200000000001  L 73.5999999999999 511.200000000001  L 73.5999999999999 506.4  L 83.1999999999998 506.4  L 83.1999999999998 511.6  L 167.2 511.6  L 167.2 506.4  L 176.8 506.4  L 176.8 511.6  L 249.6 511.6  L 249.6 504  L 263.2 504  L 263.2 512.4  L 485 511.511627906977  L 485 498.139534883721  L 494 498.139534883721  L 494 511.511627906977  L 518.413793103448 511.6  L 518.413793103448 506.4  L 527.724137931034 506.4  L 527.724137931034 511.200000000001  L 611.862068965517 511.6  L 611.862068965517 506.4  L 620.48275862069 506.4  L 620.48275862069 511.6  L 695.096385542169 511.6  L 695.096385542169 444  L 584 444  L 584 396  L 695.096385542169 396  L 695.096385542169 279.243498817963  L 691 279.243498817963  L 691 235.271867612288  L 695.096385542169 235.271867612288  L 695.096385542169 130.543735224581  L 584 129.726027397261  L 584 59  L 685 59  L 685 75.224586288412  L 689 75.224586288412  L 689 58.6761229314379  L 696 58.6761229314379  L 695.096385542169 0.958904109589639  L 83.1021775544391 0.958904109589639  L 83.1021775544391 7.0016750418763  L 73.5999999999999 7.0016750418763  L 73.5999999999999 0.958904109589639  L 2 0.958904109589639  Z " fill-rule="evenodd" />
    </mask>
  </defs>
  <g transform="matrix(1 0 0 1 -2848 -3980 )">
    <path d="M 2 0.958904109589639  L 2 58.4931506849316  L 112 60  L 112 130  L 0.179104477611872 130  L 0.179104477611872 383  L 112 383  L 112 453  L 0.179104477611872 453  L 0.179104477611872 511.200000000001  L 73.5999999999999 511.200000000001  L 73.5999999999999 506.4  L 83.1999999999998 506.4  L 83.1999999999998 511.6  L 167.2 511.6  L 167.2 506.4  L 176.8 506.4  L 176.8 511.6  L 249.6 511.6  L 249.6 504  L 263.2 504  L 263.2 512.4  L 485 511.511627906977  L 485 498.139534883721  L 494 498.139534883721  L 494 511.511627906977  L 518.413793103448 511.6  L 518.413793103448 506.4  L 527.724137931034 506.4  L 527.724137931034 511.200000000001  L 611.862068965517 511.6  L 611.862068965517 506.4  L 620.48275862069 506.4  L 620.48275862069 511.6  L 695.096385542169 511.6  L 695.096385542169 444  L 584 444  L 584 396  L 695.096385542169 396  L 695.096385542169 279.243498817963  L 691 279.243498817963  L 691 235.271867612288  L 695.096385542169 235.271867612288  L 695.096385542169 130.543735224581  L 584 129.726027397261  L 584 59  L 685 59  L 685 75.224586288412  L 689 75.224586288412  L 689 58.6761229314379  L 696 58.6761229314379  L 695.096385542169 0.958904109589639  L 83.1021775544391 0.958904109589639  L 83.1021775544391 7.0016750418763  L 73.5999999999999 7.0016750418763  L 73.5999999999999 0.958904109589639  L 2 0.958904109589639  Z " fill-rule="nonzero" fill="#d9001b" stroke="none" fill-opacity="0" transform="matrix(1 0 0 1 2848 3980 )" />
    <path d="M 2 0.958904109589639  L 2 58.4931506849316  L 112 60  L 112 130  L 0.179104477611872 130  L 0.179104477611872 383  L 112 383  L 112 453  L 0.179104477611872 453  L 0.179104477611872 511.200000000001  L 73.5999999999999 511.200000000001  L 73.5999999999999 506.4  L 83.1999999999998 506.4  L 83.1999999999998 511.6  L 167.2 511.6  L 167.2 506.4  L 176.8 506.4  L 176.8 511.6  L 249.6 511.6  L 249.6 504  L 263.2 504  L 263.2 512.4  L 485 511.511627906977  L 485 498.139534883721  L 494 498.139534883721  L 494 511.511627906977  L 518.413793103448 511.6  L 518.413793103448 506.4  L 527.724137931034 506.4  L 527.724137931034 511.200000000001  L 611.862068965517 511.6  L 611.862068965517 506.4  L 620.48275862069 506.4  L 620.48275862069 511.6  L 695.096385542169 511.6  L 695.096385542169 444  L 584 444  L 584 396  L 695.096385542169 396  L 695.096385542169 279.243498817963  L 691 279.243498817963  L 691 235.271867612288  L 695.096385542169 235.271867612288  L 695.096385542169 130.543735224581  L 584 129.726027397261  L 584 59  L 685 59  L 685 75.224586288412  L 689 75.224586288412  L 689 58.6761229314379  L 696 58.6761229314379  L 695.096385542169 0.958904109589639  L 83.1021775544391 0.958904109589639  L 83.1021775544391 7.0016750418763  L 73.5999999999999 7.0016750418763  L 73.5999999999999 0.958904109589639  L 2 0.958904109589639  Z " stroke-width="4" stroke="#d9001b" fill="none" transform="matrix(1 0 0 1 2848 3980 )" mask="url(#clip352)" />
  </g>
</svg>