<?xml version="1.0" encoding="utf-8"?>
<svg version="1.1" xmlns:xlink="http://www.w3.org/1999/xlink" width="21px" height="20px" preserveAspectRatio="xMinYMid meet" viewBox="3603 3406  21 18" xmlns="http://www.w3.org/2000/svg">
  <path d="M 3612 3415  L 3825 3415  A 5 5 0 0 0 3830 3410 L 3830 3346  A 5 5 0 0 1 3835 3341 L 4223 3341  " stroke-width="2" stroke="#0099cc" fill="none" />
  <path d="M 3613.5 3411.5  A 3.5 3.5 0 0 0 3610 3415 A 3.5 3.5 0 0 0 3613.5 3418.5 A 3.5 3.5 0 0 0 3617 3415 A 3.5 3.5 0 0 0 3613.5 3411.5 Z M 4222 3348.6  L 4229 3341  L 4222 3333.4  L 4222 3348.6  Z " fill-rule="nonzero" fill="#0099cc" stroke="none" />
</svg>