<?xml version="1.0" encoding="utf-8"?>
<svg version="1.1" xmlns:xlink="http://www.w3.org/1999/xlink" width="607px" height="448px" xmlns="http://www.w3.org/2000/svg">
  <defs>
    <mask fill="white" id="clip353">
      <path d="M 1.74425287356322 0.837405538199139  L 1.74425287356322 51.0817378301157  L 98 52.3976608187134  L 98 114  L 0.156201749871274 114  L 0.156201749871274 335  L 98 335  L 98 396  L 0.156201749871274 396  L 0.156201749871274 446.428070175439  L 64.1885057471264 446.428070175439  L 64.1885057471264 442.236257309941  L 72.5609195402297 442.236257309941  L 72.5609195402297 446.77738791423  L 145.819540229885 446.77738791423  L 145.819540229885 442.236257309941  L 154.191954022989 442.236257309941  L 154.191954022989 446.77738791423  L 217.68275862069 446.77738791423  L 217.68275862069 440  L 229.543678160919 440  L 229.543678160919 447.476023391813  L 423 446.700213064962  L 423 435.022439820482  L 431 435.022439820482  L 431 446.700213064962  L 452.122374157749 446.77738791423  L 452.122374157749 442.236257309941  L 460.242172017439 442.236257309941  L 460.242172017439 446.428070175439  L 533.62108600872 446.77738791423  L 533.62108600872 442.236257309941  L 541.139417360286 442.236257309941  L 541.139417360286 446.77738791423  L 606.211933942667 446.77738791423  L 606.211933942667 388  L 509 388  L 509 346  L 606.211933942667 346  L 606.211933942667 243.861768948241  L 602 243.861768948241  L 602 205.461591988898  L 606.211933942667 205.461591988898  L 606.211933942667 114.003106005092  L 509 113.289006382013  L 509 52  L 598 52  L 598 65.6932059594709  L 601 65.6932059594709  L 601 51.2415264586436  L 607 51.2415264586436  L 606.211933942667 0.837405538199139  L 72.4756059993456 0.837405538199139  L 72.4756059993456 6.11452323345143  L 64.1885057471264 6.11452323345143  L 64.1885057471264 0.837405538199139  L 1.74425287356322 0.837405538199139  Z " fill-rule="evenodd" />
    </mask>
  </defs>
  <g transform="matrix(1 0 0 1 -5057 -2388 )">
    <path d="M 1.74425287356322 0.837405538199139  L 1.74425287356322 51.0817378301157  L 98 52.3976608187134  L 98 114  L 0.156201749871274 114  L 0.156201749871274 335  L 98 335  L 98 396  L 0.156201749871274 396  L 0.156201749871274 446.428070175439  L 64.1885057471264 446.428070175439  L 64.1885057471264 442.236257309941  L 72.5609195402297 442.236257309941  L 72.5609195402297 446.77738791423  L 145.819540229885 446.77738791423  L 145.819540229885 442.236257309941  L 154.191954022989 442.236257309941  L 154.191954022989 446.77738791423  L 217.68275862069 446.77738791423  L 217.68275862069 440  L 229.543678160919 440  L 229.543678160919 447.476023391813  L 423 446.700213064962  L 423 435.022439820482  L 431 435.022439820482  L 431 446.700213064962  L 452.122374157749 446.77738791423  L 452.122374157749 442.236257309941  L 460.242172017439 442.236257309941  L 460.242172017439 446.428070175439  L 533.62108600872 446.77738791423  L 533.62108600872 442.236257309941  L 541.139417360286 442.236257309941  L 541.139417360286 446.77738791423  L 606.211933942667 446.77738791423  L 606.211933942667 388  L 509 388  L 509 346  L 606.211933942667 346  L 606.211933942667 243.861768948241  L 602 243.861768948241  L 602 205.461591988898  L 606.211933942667 205.461591988898  L 606.211933942667 114.003106005092  L 509 113.289006382013  L 509 52  L 598 52  L 598 65.6932059594709  L 601 65.6932059594709  L 601 51.2415264586436  L 607 51.2415264586436  L 606.211933942667 0.837405538199139  L 72.4756059993456 0.837405538199139  L 72.4756059993456 6.11452323345143  L 64.1885057471264 6.11452323345143  L 64.1885057471264 0.837405538199139  L 1.74425287356322 0.837405538199139  Z " fill-rule="nonzero" fill="#d9001b" stroke="none" fill-opacity="0" transform="matrix(1 0 0 1 5057 2388 )" />
    <path d="M 1.74425287356322 0.837405538199139  L 1.74425287356322 51.0817378301157  L 98 52.3976608187134  L 98 114  L 0.156201749871274 114  L 0.156201749871274 335  L 98 335  L 98 396  L 0.156201749871274 396  L 0.156201749871274 446.428070175439  L 64.1885057471264 446.428070175439  L 64.1885057471264 442.236257309941  L 72.5609195402297 442.236257309941  L 72.5609195402297 446.77738791423  L 145.819540229885 446.77738791423  L 145.819540229885 442.236257309941  L 154.191954022989 442.236257309941  L 154.191954022989 446.77738791423  L 217.68275862069 446.77738791423  L 217.68275862069 440  L 229.543678160919 440  L 229.543678160919 447.476023391813  L 423 446.700213064962  L 423 435.022439820482  L 431 435.022439820482  L 431 446.700213064962  L 452.122374157749 446.77738791423  L 452.122374157749 442.236257309941  L 460.242172017439 442.236257309941  L 460.242172017439 446.428070175439  L 533.62108600872 446.77738791423  L 533.62108600872 442.236257309941  L 541.139417360286 442.236257309941  L 541.139417360286 446.77738791423  L 606.211933942667 446.77738791423  L 606.211933942667 388  L 509 388  L 509 346  L 606.211933942667 346  L 606.211933942667 243.861768948241  L 602 243.861768948241  L 602 205.461591988898  L 606.211933942667 205.461591988898  L 606.211933942667 114.003106005092  L 509 113.289006382013  L 509 52  L 598 52  L 598 65.6932059594709  L 601 65.6932059594709  L 601 51.2415264586436  L 607 51.2415264586436  L 606.211933942667 0.837405538199139  L 72.4756059993456 0.837405538199139  L 72.4756059993456 6.11452323345143  L 64.1885057471264 6.11452323345143  L 64.1885057471264 0.837405538199139  L 1.74425287356322 0.837405538199139  Z " stroke-width="4" stroke="#d9001b" fill="none" transform="matrix(1 0 0 1 5057 2388 )" mask="url(#clip353)" />
  </g>
</svg>