<?xml version="1.0" encoding="utf-8"?>
<svg version="1.1" xmlns:xlink="http://www.w3.org/1999/xlink" width="15px" height="10px" preserveAspectRatio="xMinYMid meet" viewBox="2259 1962  15 8" xmlns="http://www.w3.org/2000/svg">
  <path d="M 2261 1966  L 2264 1966  A 5 5 0 0 0 2269 1961 L 2269 1941  A 5 5 0 0 1 2274 1936 L 3575 1936  A 5 5 0 0 1 3580 1941 L 3580 2134  A 5 5 0 0 0 3585 2139 " stroke-width="2" stroke="#0099cc" fill="none" />
  <path d="M 2262.5 1962.5  A 3.5 3.5 0 0 0 2259 1966 A 3.5 3.5 0 0 0 2262.5 1969.5 A 3.5 3.5 0 0 0 2266 1966 A 3.5 3.5 0 0 0 2262.5 1962.5 Z M 3583 2146.6  L 3590 2139  L 3583 2131.4  L 3583 2146.6  Z " fill-rule="nonzero" fill="#0099cc" stroke="none" />
</svg>