<?xml version="1.0" encoding="utf-8"?>
<svg version="1.1" xmlns:xlink="http://www.w3.org/1999/xlink" width="9px" height="10px" xmlns="http://www.w3.org/2000/svg">
  <g transform="matrix(1 0 0 1 -452 -92 )">
    <path d="M 1.63636363636364 7.27272727272727  L 2.45454545454545 7.27272727272727  L 2.45454545454545 8.18181818181818  L 1.63636363636364 8.18181818181818  L 1.63636363636364 7.27272727272727  Z M 1.63636363636364 1.81818181818182  L 2.45454545454545 1.81818181818182  L 2.45454545454545 2.72727272727273  L 1.63636363636364 2.72727272727273  L 1.63636363636364 1.81818181818182  Z M 6.54545454545455 1.81818181818182  L 7.36363636363636 1.81818181818182  L 7.36363636363636 2.72727272727273  L 6.54545454545455 2.72727272727273  L 6.54545454545455 1.81818181818182  Z M 0.818181818181818 6.36363636363636  L 0.818181818181818 9.08380681818182  L 3.27272727272727 9.08380681818182  L 3.27272727272727 6.36363636363636  L 0.818181818181818 6.36363636363636  Z M 0.818181818181818 0.909090909090909  L 0.818181818181818 3.63636363636364  L 3.27272727272727 3.63636363636364  L 3.27272727272727 0.909090909090909  L 0.818181818181818 0.909090909090909  Z M 5.72727272727273 0.909090909090909  L 5.72727272727273 3.63636363636364  L 8.18181818181818 3.63636363636364  L 8.18181818181818 0.909090909090909  L 5.72727272727273 0.909090909090909  Z M 0 5.45454545454545  L 4.09090909090909 5.45454545454545  L 4.09090909090909 10  L 0 10  L 0 5.45454545454545  Z M 6.54545454545455 9.09090909090909  L 7.36363636363636 9.09090909090909  L 7.36363636363636 10  L 6.54545454545455 10  L 6.54545454545455 9.09090909090909  Z M 8.18181818181818 9.09090909090909  L 9 9.09090909090909  L 9 10  L 8.18181818181818 10  L 8.18181818181818 9.09090909090909  Z M 8.18181818181818 5.45454545454545  L 9 5.45454545454545  L 9 8.18181818181818  L 6.54545454545455 8.18181818181818  L 6.54545454545455 7.27272727272727  L 5.72727272727273 7.27272727272727  L 5.72727272727273 10  L 4.90909090909091 10  L 4.90909090909091 5.45454545454545  L 7.36363636363636 5.45454545454545  L 7.36363636363636 6.36363636363636  L 8.18181818181818 6.36363636363636  L 8.18181818181818 5.45454545454545  Z M 0 0  L 4.09090909090909 0  L 4.09090909090909 4.54545454545455  L 0 4.54545454545455  L 0 0  Z M 4.90909090909091 0  L 9 0  L 9 4.54545454545455  L 4.90909090909091 4.54545454545455  L 4.90909090909091 0  Z " fill-rule="nonzero" fill="#ffffff" stroke="none" transform="matrix(1 0 0 1 452 92 )" />
  </g>
</svg>