<?xml version="1.0" encoding="utf-8"?>
<svg version="1.1" xmlns:xlink="http://www.w3.org/1999/xlink" width="13px" height="13px" xmlns="http://www.w3.org/2000/svg">
  <g transform="matrix(1 0 0 1 -251 -228 )">
    <path d="M 0.0138396025550042 0.493963068181818  C -0.0076886680861139 0.620146780303029  0.0123018689377805 0.741714015151515  0.073811213626686 0.858664772727273  L 5.97870830376153 12.6768465909091  C 6.08327418973267 12.8922821969697  6.25857582209605 13  6.50461320085167 13  C 6.53536787319612 13  6.5814998817128 12.9938446969697  6.6430092264017 12.9815340909091  C 6.77832978471729 12.9507575757576  6.8875088715401 12.8815104166667  6.97054648687012 12.7737926136364  C 7.05358410220014 12.6660748106061  7.09510290986515 12.5445075757576  7.09510290986515 12.4090909090909  L 7.09510290986515 7.09090909090909  L 12.4095102909865 7.09090909090909  C 12.5448308493021 7.09090909090909  12.6663118050627 7.04936079545454  12.7739531582683 6.96626420454546  C 12.8815945114739 6.88316761363636  12.9507925242489 6.77391098484848  12.9815471965933 6.63849431818182  C 13.0123018689378 6.50307765151515  13 6.37381628787879  12.94464158978 6.25071022727273  C 12.88928317956 6.12760416666667  12.8000946297611 6.03527462121212  12.6770759403833 5.97372159090909  L 0.867281760113555 0.0646306818181822  C 0.787319612017979 0.0215435606060598  0.698131062219067 0  0.599716110716821 0  C 0.433640880056778 0  0.295244854506742 0.0584753787878776  0.184528034066713 0.175426136363637  C 0.0922640170333567 0.261600378787878  0.0353678731961193 0.367779356060605  0.0138396025550042 0.493963068181818  Z " fill-rule="nonzero" fill="#333333" stroke="none" transform="matrix(1 0 0 1 251 228 )" />
  </g>
</svg>