<?xml version="1.0" encoding="utf-8"?>
<svg version="1.1" xmlns:xlink="http://www.w3.org/1999/xlink" width="29px" height="31px" xmlns="http://www.w3.org/2000/svg">
  <g transform="matrix(1 0 0 1 -464 -288 )">
    <path d="M 28.2710597826087 13.709242618742  C 28.7570199275362 14.17351305092  29 14.770432178006  29 15.5  C 29 16.2163029525032  28.7570199275362 16.8198545143346  28.2710597826087 17.3106546854942  L 15.445652173913 30.2637997432606  C 14.9334239130435 30.7545999144202  14.3358242753623 31  13.6528532608696 31  C 12.9830163043478 31  12.3919836956522 30.7545999144202  11.8797554347826 30.2637997432606  L 10.4021739130435 28.7715019255456  C 9.90307971014493 28.2674368848952  9.65353260869565 27.6638853230638  9.65353260869565 26.9608472400513  C 9.65353260869565 26.2578091570389  9.90307971014493 25.6542575952075  10.4021739130435 25.1501925545571  L 16.1745923913043 19  L 2.30502717391304 19  C 1.62205615942029 19.3202824133505  1.06714221014493 19.0715661103979  0.640285326086957 18.5741335044929  C 0.213428442028985 18.0767008985879  0 17.4764655541292  0 16.7734274711168  L 0 14.2265725288832  C 0 13.5235344458708  0.213428442028985 12.9232991014121  0.640285326086957 12.4258664955071  C 1.06714221014493 11.9284338896021  1.62205615942029 11.6797175866496  2.30502717391304 12  L 16.1745923913043 12  L 10.4021739130435 5.82991014120668  C 9.90307971014493 5.35237483953787  9.65353260869565 4.75545571245186  9.65353260869565 4.03915275994865  C 9.65353260869565 3.32284980744544  9.90307971014493 2.72593068035944  10.4021739130435 2.24839537869063  L 11.8797554347826 0.75609756097561  C 12.3788496376812 0.252032520325201  12.9698822463768 0  13.6528532608696 0  C 14.3489583333333 0  14.9465579710145 0.252032520325201  15.445652173913 0.75609756097561  L 28.2710597826087 13.709242618742  Z " fill-rule="nonzero" fill="#000000" stroke="none" transform="matrix(1 0 0 1 464 288 )" />
  </g>
</svg>