<?xml version="1.0" encoding="utf-8"?>
<svg version="1.1" xmlns:xlink="http://www.w3.org/1999/xlink" width="30px" height="32px" xmlns="http://www.w3.org/2000/svg">
  <g transform="matrix(1 0 0 1 -1034 -536 )">
    <path d="M 29.3376358695652 12.8267008985879  C 29.7792119565217 13.3401797175867  30 13.9597774925118  30 14.6854942233633  L 30 17.3145057766367  C 30 18.0402225074882  29.7792119565217 18.6598202824133  29.3376358695652 19.1732991014121  C 28.8960597826087 19.6867779204108  28.3220108695652 19.9435173299101  27.6154891304348 20  L 13.2676630434783 20  L 19.2391304347826 25.982028241335  C 19.7554347826087 26.4749679075738  20.0135869565217 27.0911424903723  20.0135869565217 27.8305519897304  C 20.0135869565217 28.5699614890886  19.7554347826087 29.186136071887  19.2391304347826 29.6790757381258  L 17.710597826087 31.2400513478819  C 17.2078804347826 31.7466837826273  16.5964673913043 32  15.8763586956522 32  C 15.1698369565217 32  14.5516304347826 31.7466837826273  14.0217391304348 31.2400513478819  L 0.754076086956522 17.8485237483954  C 0.251358695652174 17.34189131365  0 16.7257167308515  0 16  C 0 15.2879760376551  0.251358695652174 14.6649550706033  0.754076086956522 14.1309370988447  L 14.0217391304348 0.780487804878049  C 14.5380434782609 0.260162601626014  15.15625 0  15.8763586956522 0  C 16.5828804347826 0  17.1942934782609 0.260162601626014  17.710597826087 0.780487804878049  L 19.2391304347826 2.30038510911425  C 19.7554347826087 2.82071031236628  20.0135869565217 3.44373127941805  20.0135869565217 4.16944801026958  C 20.0135869565217 4.89516474112109  19.7554347826087 5.51818570817287  19.2391304347826 6.0385109114249  L 13.2676630434783 12  L 27.6154891304348 12  C 28.3220108695652 12.0564826700899  28.8960597826087 12.3132220795892  29.3376358695652 12.8267008985879  Z " fill-rule="nonzero" fill="#000000" stroke="none" transform="matrix(1 0 0 1 1034 536 )" />
  </g>
</svg>