<?xml version="1.0" encoding="utf-8"?>
<svg version="1.1" xmlns:xlink="http://www.w3.org/1999/xlink" width="29px" height="28px" xmlns="http://www.w3.org/2000/svg">
  <g transform="matrix(1 0 0 1 -1161 -1055 )">
    <path d="M 28.311296534018 11.5738368172623  C 28.770432178006 12.0647336480108  29 12.6374466172174  29 13.291975724882  C 29 13.959091930771  28.770432178006 14.5255113508654  28.311296534018 14.9912339851652  L 16.193838254172 27.3014160485502  C 15.7098844672657 27.7671386828501  15.1452717158751 28  14.5 28  C 13.8423192126658 28  13.2839109970047 27.7671386828501  12.8247753530167 27.3014160485502  L 0.707317073170732 14.9912339851652  C 0.235772357723577 14.5380984490897  0 13.9716790289953  0 13.291975724882  C 0 12.624859518993  0.235772357723577 12.0521465497865  0.707317073170732 11.5738368172623  L 2.08472400513479 10.1577882670263  C 2.56867779204108 9.69206563272645  3.13329054343175 9.45920431557654  3.7785622593068 9.45920431557654  C 4.43624304664099 9.45920431557654  4.9946512623021 9.69206563272645  5.45378690629012 10.1577882670263  L 11 15.7086985839515  L 11 2.41672285906945  C 10.9261874197689 1.76219375140481  11.1619597774925 1.1957743313104  11.6335044929397 0.717464598786246  C 12.1050492083868 0.239154866262078  12.6634574240479 0  13.308729139923 0  L 15.691270860077 0  C 16.3365425759521 0  16.8949507916132 0.239154866262078  17.3664955070603 0.717464598786246  C 17.8380402225075 1.1957743313104  18.0738125802311 1.76219375140481  18 2.41672285906945  L 18 15.7086985839515  L 23.5462130937099 10.1577882670263  C 24.0053487376979 9.69206563272645  24.563756953359 9.45920431557654  25.2214377406932 9.45920431557654  C 25.8667094565683 9.45920431557654  26.4313222079589 9.69206563272645  26.9152759948652 10.1577882670263  L 28.311296534018 11.5738368172623  Z " fill-rule="nonzero" fill="#d7d7d7" stroke="none" transform="matrix(1 0 0 1 1161 1055 )" />
  </g>
</svg>