<?xml version="1.0" encoding="utf-8"?>
<svg version="1.1" xmlns:xlink="http://www.w3.org/1999/xlink" width="19px" height="19px" xmlns="http://www.w3.org/2000/svg">
  <g transform="matrix(1 0 0 1 -409 -162 )">
    <path d="M 18.40625 9.5  C 18.40625 4.58375  14.41625 0.59375  9.5 0.59375  C 4.58375 0.59375  0.59375 4.58375  0.59375 9.5  C 0.59375 14.41625  4.58375 18.40625  9.5 18.40625  C 14.41625 18.40625  18.40625 14.41625  18.40625 9.5  Z M 9.5 16.423125  C 5.67625 16.423125  2.576875 13.311875  2.576875 9.5  C 2.576875 5.688125  5.67625 2.576875  9.5 2.576875  C 13.3235363586723 2.576875  16.423125 5.67646364132769  16.423125 9.5  C 16.423125 13.3235363586723  13.3235363586723 16.423125  9.5 16.423125  Z " fill-rule="nonzero" fill="#000000" stroke="none" transform="matrix(1 0 0 1 409 162 )" />
  </g>
</svg>