<?xml version="1.0" encoding="utf-8"?>
<svg version="1.1" xmlns:xlink="http://www.w3.org/1999/xlink" width="7px" height="8px" xmlns="http://www.w3.org/2000/svg">
  <g transform="matrix(1 0 0 1 -415 -166 )">
    <path d="M 5.6375 1.51  C 5.115 1.070625  4.45 0.833124999999999  3.61875 0.833125000000001  C 2.704375 0.833125000000001  1.968125 1.10625  1.421875 1.62875  C 0.86375 2.163125  0.590625 2.899375  0.590625 3.81375  C 0.590625 3.849375  0.590625 4.2175  0.851875 4.5025  C 0.970624999999999 4.633125  1.19625 4.775625  1.564375 4.775625  C 2.276875 4.775625  2.57375 4.2175  2.5975 3.825625  C 2.5975 3.43375  2.66875 3.136875  2.81125 2.946875  C 2.894375 2.828125  3.060625 2.661875  3.5475 2.661875  C 3.8325 2.661875  4.034375 2.733125  4.165 2.851875  C 4.3075 2.994375  4.37875 3.208125  4.37875 3.4575  C 4.37875 3.6475  4.3075 3.8375  4.165 4.00375  L 4.07 4.1225  C 3.28625 4.835  2.846875 5.321875  2.680625 5.654375  C 2.5025 5.99875  2.419375 6.4025  2.419375 6.913125  L 2.419375 7.0675  C 2.419375 7.388125  2.680625 7.863125  3.405 7.863125  C 4.153125 7.863125  4.4025 7.364375  4.438125 7.0675  L 4.438125 6.913125  C 4.438125 6.71125  4.47375 6.533125  4.56875 6.355  C 4.651875 6.18875  4.770625 6.04625  4.925 5.915625  C 5.42375 5.47625  5.78 5.155625  5.934375 4.9775  C 6.255 4.55  6.42125 4.015625  6.42125 3.38625  C 6.42125 2.6025  6.16 1.973125  5.6375 1.51  Z " fill-rule="nonzero" fill="#000000" stroke="none" transform="matrix(1 0 0 1 415 166 )" />
  </g>
</svg>