<?xml version="1.0" encoding="utf-8"?>
<svg version="1.1" xmlns:xlink="http://www.w3.org/1999/xlink" width="6px" height="6px" xmlns="http://www.w3.org/2000/svg">
  <g transform="matrix(1 0 0 1 -545 -243 )">
    <path d="M 0.566724436741768 0.0636160714285716  L 5.89081455805893 3.4921875  C 5.99826689774697 3.55915178571429  6.02253032928943 3.63616071428571  5.96360485268631 3.72321428571429  C 5.90467937608319 3.8125  5.80242634315425 3.85714285714286  5.65684575389948 3.85714285714286  L 3.67071057192374 3.85714285714286  L 4.7157712305026 5.45089285714286  C 4.75043327556326 5.50669642857143  4.75043327556326 5.56138392857143  4.7157712305026 5.61495535714286  C 4.68110918544194 5.66852678571429  4.62218370883882 5.70758928571429  4.53899480069324 5.73214285714286  L 3.61871750433276 5.98325892857143  C 3.53206239168111 6.00558035714286  3.4471403812825 6.00558035714286  3.36395147313692 5.98325892857143  C 3.28076256499133 5.9609375  3.22010398613518 5.92299107142857  3.18197573656846 5.86941964285714  L 2.18890814558059 4.35602678571429  L 0.566724436741768 5.40066964285714  C 0.500866551126517 5.44308035714286  0.422876949740035 5.46428571428571  0.332755632582322 5.46428571428571  C 0.291161178509532 5.46428571428571  0.249566724436742 5.45870535714286  0.207972270363951 5.44754464285714  C 0.0693240901213172 5.40959821428571  0 5.34375  0 5.25  L 0 0.214285714285714  C 0 0.120535714285714  0.0693240901213172 0.0546874999999996  0.207972270363951 0.0167410714285716  C 0.249566724436742 0.00558035714285721  0.291161178509532 0  0.332755632582322 0  C 0.4263431542461 0  0.504332755632582 0.0212053571428577  0.566724436741768 0.0636160714285716  Z " fill-rule="nonzero" fill="#000000" stroke="none" transform="matrix(1 0 0 1 545 243 )" />
  </g>
</svg>