<?xml version="1.0" encoding="utf-8"?>
<svg version="1.1" xmlns:xlink="http://www.w3.org/1999/xlink" width="18px" height="18px" xmlns="http://www.w3.org/2000/svg">
  <g transform="matrix(1 0 0 1 -921 -421 )">
    <path d="M 8.97662753613281 17.6468724316406  C 4.16410021933594 17.6468724316406  0.262759533398439 13.7456019  0.262759533398439 8.93300442890625  C 0.262759533398439 4.12047711210938  4.16410021933594 0.219159826171875  8.97662753613281 0.219159826171875  C 13.7891548529297 0.219159826171875  17.6904721388672 4.12050051210938  17.6904721388672 8.93300442890625  C 17.6904721617188 13.7456252771484  13.7891548529297 17.6468724316406  8.97662753613281 17.6468724316406  Z M 10.3093835396484 4.68737894882813  C 10.3093835396484 4.02034620410156  9.62462561484375 3.47968136601562  8.95698485859375 3.47968136601562  C 8.28929734804688 3.47968136601562  7.62425225507813 4.02034620410156  7.62425225507813 4.68737894882813  L 7.97501443886719 9.72373928554688  C 7.97501443886719 10.3907720302734  8.28183782109375 10.9321150113281  8.9482158 10.9321150113281  C 9.61590331054688 10.9321150113281  9.95862135585938 10.3907954302734  9.95862135585938 9.72373928554688  L 10.3093835396484 4.68737894882813  Z M 8.9975797453125 11.5854680566406  C 8.24346442617187 11.5854680566406  7.63339546230469 12.1981560609375  7.63339546230469 12.9522012029297  C 7.63339546230469 13.7062931220703  8.24348782617188 14.3170168517578  8.9975797453125 14.3170168517578  C 9.75162491015625 14.3170168517578  10.36435966875 13.7062931220703  10.36435966875 12.9522012029297  C 10.36435966875 12.1981092837891  9.75162488730469 11.5854680566406  8.9975797453125 11.5854680566406  Z " fill-rule="nonzero" fill="#7f7f7f" stroke="none" transform="matrix(1 0 0 1 921 421 )" />
  </g>
</svg>