<?xml version="1.0" encoding="utf-8"?>
<svg version="1.1" xmlns:xlink="http://www.w3.org/1999/xlink" width="17px" height="17px" xmlns="http://www.w3.org/2000/svg">
  <g transform="matrix(1 0 0 1 -1220 -353 )">
    <path d="M 16.0285714261998 10.7743571452288  C 16.1905571452288 10.6808571333705  16.1905571452288 10.4472285666853  16.0285714261998 10.3537285761719  L 13.087328561942 8.65567143805804  C 12.9253428429129 8.56217144754464  12.7230428405413 8.67898573088728  12.7230428405413 8.86598573325893  L 12.7230428618862 9.71428571665736  L 12.2642857237723 9.71428571665736  C 11.2088285856585 9.71428571665736  10.239100007115 10.0824571428571  9.47142859040178 10.6939714404297  L 9.47142856905692 3.64285713337053  L 10.3197285738002 3.64285713337053  C 10.5067285761719 3.64285713337053  10.6235428595145 3.44055713099888  10.5300428690011 3.27857141196987  L 8.83150000711495 0.337328547712053  C 8.73800001660156 0.175342828683035  8.50437142857143 0.175342828683035  8.41087143805804 0.337328547712053  L 6.71281427859933 3.27857143331473  C 6.61931428808594 3.44055715234375  6.73612857142857 3.6428571547154  6.92312857380022 3.6428571547154  L 7.77142857854353 3.64285713337053  L 7.77142857854353 7.29397141671317  C 7.00375714048549 6.68245714048549  6.03402856194196 6.31428571428571  4.97857142382813 6.31428571428571  L 4.39838571191406 6.31428571428571  L 4.39838571191406 5.46598570954241  C 4.39838571191406 5.27898570717076  4.19608570954241 5.16217142382813  4.03409999051339 5.25567141434152  L 1.09285714760045 6.95421427622768  C 0.930871428571428 7.04771426674107  0.930871428571428 7.28134285477121  1.09285714760045 7.3748428452846  L 4.03410001185826 9.07289998339844  C 4.19608573088728 9.16639997391183  4.39838573325893 9.0495856905692  4.39838573325893 8.86258568819754  L 4.39838571191406 8.01428570479911  L 4.97857142382813 8.01428570479911  C 6.52095714522879 8.01428570479911  7.77142857854353 9.26475713811384  7.77142857854353 10.8071428595145  L 7.77142857854353 16.0062285809152  C 7.77142857854353 16.4118000118583  8.04658571665737 16.7802142999442  8.4441428547712 16.8608428666295  C 8.9910571499721 16.971100007115  9.47142856905692 16.5558142928292  9.47142856905692 16.0285714261998  L 9.47142856905692 14.2071428618862  C 9.47142856905692 12.6647571404855  10.7219000023717 11.4142857071708  12.2642857237723 11.4142857071708  L 12.7230428618862 11.4142857071708  L 12.7230428618862 12.2625857119141  C 12.7230428618862 12.4495857142857  12.9253428642578 12.5663999976283  13.0873285832868 12.472900007115  L 16.0285714261998 10.7743571452288  Z " fill-rule="nonzero" fill="#000000" stroke="none" transform="matrix(1 0 0 1 1220 353 )" />
  </g>
</svg>