<?xml version="1.0" encoding="utf-8"?>
<svg version="1.1" xmlns:xlink="http://www.w3.org/1999/xlink" width="81px" height="10px" preserveAspectRatio="xMinYMid meet" viewBox="2764 2512  81 8" xmlns="http://www.w3.org/2000/svg">
  <path d="M 2766 2516  L 2835 2516  A 5 5 0 0 0 2840 2511 L 2840 2471  A 5 5 0 0 1 2845 2466 L 2848 2466  " stroke-width="2" stroke="#0099cc" fill="none" />
  <path d="M 2767.5 2512.5  A 3.5 3.5 0 0 0 2764 2516 A 3.5 3.5 0 0 0 2767.5 2519.5 A 3.5 3.5 0 0 0 2771 2516 A 3.5 3.5 0 0 0 2767.5 2512.5 Z M 2847 2473.6  L 2854 2466  L 2847 2458.4  L 2847 2473.6  Z " fill-rule="nonzero" fill="#0099cc" stroke="none" />
</svg>