<?xml version="1.0" encoding="utf-8"?>
<svg version="1.1" xmlns:xlink="http://www.w3.org/1999/xlink" width="9px" height="15px" xmlns="http://www.w3.org/2000/svg">
  <g transform="matrix(1 0 0 1 -2220 -1217 )">
    <path d="M 7.69780571125 6.39789811125  L 1.326250155625 0.47107713328125  C 1.20947988026346 0.36679849734109  1.0584050009091 0.309160551034925  0.901850438147259 0.309160551034925  C 0.5499591415919 0.309160551034925  0.264694882678509 0.594424809948316  0.264694882678509 0.946316106503675  C 0.264694882678509 1.11877043403859  0.334600680206429 1.28385930235612  0.4584442890625 1.40387286671875  L 6.33939006671875 6.87449046671875  L 0.448886955624999 12.5859528665625  C 0.32522959392537 12.7059048160487  0.255439488826332 12.8708342562642  0.255439488826332 13.0431119776563  C 0.255439488826332 13.3948664059272  0.540592794072785 13.6800197111737  0.89234722234375 13.6800197111737  C 1.0579114454622 13.6800197111737  1.21696893665279 13.6155486253214  1.3358074890625 13.50027108875  L 7.70736304453125 7.3224108221875  C 7.83127718970491 7.20249643029637  7.90123771904208 7.03743869068383  7.90123771904208 6.86500268296868  C 7.90123771904208 6.68799098969579  7.82752731428147 6.51897382060529  7.69780571125 6.39853526671875  Z " fill-rule="nonzero" fill="#aaaaaa" stroke="none" transform="matrix(1 0 0 1 2220 1217 )" />
  </g>
</svg>