<?xml version="1.0" encoding="utf-8"?>
<svg version="1.1" xmlns:xlink="http://www.w3.org/1999/xlink" width="10px" height="60px" preserveAspectRatio="xMidYMin meet" viewBox="2786 1216  8 60" xmlns="http://www.w3.org/2000/svg">
  <path d="M 2719 1271  L 2785 1271  A 5 5 0 0 0 2790 1266 L 2790 1226  A 5 5 0 0 1 2795 1221 L 2801 1221  " stroke-width="2" stroke="#0099cc" fill="none" />
  <path d="M 2720.5 1267.5  A 3.5 3.5 0 0 0 2717 1271 A 3.5 3.5 0 0 0 2720.5 1274.5 A 3.5 3.5 0 0 0 2724 1271 A 3.5 3.5 0 0 0 2720.5 1267.5 Z M 2800 1228.6  L 2807 1221  L 2800 1213.4  L 2800 1228.6  Z " fill-rule="nonzero" fill="#0099cc" stroke="none" />
</svg>