<?xml version="1.0" encoding="utf-8"?>
<svg version="1.1" xmlns:xlink="http://www.w3.org/1999/xlink" width="15px" height="10px" preserveAspectRatio="xMinYMid meet" viewBox="3535 2075  15 8" xmlns="http://www.w3.org/2000/svg">
  <path d="M 2325 1808  L 2325 1805  A 5 5 0 0 1 2330 1800 L 3535 1800  A 5 5 0 0 1 3540 1805 L 3540 2074  A 5 5 0 0 0 3545 2079 " stroke-width="2" stroke="#0099cc" fill="none" />
  <path d="M 2325 1803  A 3.5 3.5 0 0 0 2321.5 1806.5 A 3.5 3.5 0 0 0 2325 1810 A 3.5 3.5 0 0 0 2328.5 1806.5 A 3.5 3.5 0 0 0 2325 1803 Z M 3543 2086.6  L 3550 2079  L 3543 2071.4  L 3543 2086.6  Z " fill-rule="nonzero" fill="#0099cc" stroke="none" />
</svg>