<?xml version="1.0" encoding="utf-8"?>
<svg version="1.1" xmlns:xlink="http://www.w3.org/1999/xlink" width="10px" height="467px" preserveAspectRatio="xMidYMin meet" viewBox="3536 2095  8 467" xmlns="http://www.w3.org/2000/svg">
  <path d="M 3338 2056  L 3338 2095  A 5 5 0 0 0 3343 2100 L 3535 2100  A 5 5 0 0 1 3540 2105 L 3540 2552  A 5 5 0 0 0 3545 2557 " stroke-width="2" stroke="#0099cc" fill="none" />
  <path d="M 3338 2054  A 3.5 3.5 0 0 0 3334.5 2057.5 A 3.5 3.5 0 0 0 3338 2061 A 3.5 3.5 0 0 0 3341.5 2057.5 A 3.5 3.5 0 0 0 3338 2054 Z M 3543 2564.6  L 3550 2557  L 3543 2549.4  L 3543 2564.6  Z " fill-rule="nonzero" fill="#0099cc" stroke="none" />
</svg>