<?xml version="1.0" encoding="utf-8"?>
<svg version="1.1" xmlns:xlink="http://www.w3.org/1999/xlink" width="248px" height="56px" xmlns="http://www.w3.org/2000/svg">
  <defs>
    <mask fill="white" id="clip64">
      <path d="M 0 42  L 0 4  C 0 1.75999999999999  1.3340127388535 0  3.03184713375796 0  L 234.968152866242 0  C 236.665987261147 0  238 1.75999999999999  238 4  L 238 42  C 238 44.24  236.665987261147 46  234.968152866242 46  L 152.419224088014 46  L 3.03184713375796 46  C 1.3340127388535 46  0 44.24  0 42  Z " fill-rule="evenodd" />
    </mask>
    <filter x="550px" y="231px" width="248px" height="56px" filterUnits="userSpaceOnUse" id="filter65">
      <feOffset dx="3" dy="3" in="SourceAlpha" result="shadowOffsetInner" />
      <feGaussianBlur stdDeviation="2.5" in="shadowOffsetInner" result="shadowGaussian" />
      <feComposite in2="shadowGaussian" operator="atop" in="SourceAlpha" result="shadowComposite" />
      <feColorMatrix type="matrix" values="0 0 0 0 0  0 0 0 0 0  0 0 0 0 0  0 0 0 0.349019607843137 0  " in="shadowComposite" />
    </filter>
    <g id="widget66">
      <path d="M 0 42  L 0 4  C 0 1.75999999999999  1.3340127388535 0  3.03184713375796 0  L 234.968152866242 0  C 236.665987261147 0  238 1.75999999999999  238 4  L 238 42  C 238 44.24  236.665987261147 46  234.968152866242 46  L 152.419224088014 46  L 3.03184713375796 46  C 1.3340127388535 46  0 44.24  0 42  Z " fill-rule="nonzero" fill="#ffffff" stroke="none" transform="matrix(1 0 0 1 552 233 )" />
      <path d="M 0 42  L 0 4  C 0 1.75999999999999  1.3340127388535 0  3.03184713375796 0  L 234.968152866242 0  C 236.665987261147 0  238 1.75999999999999  238 4  L 238 42  C 238 44.24  236.665987261147 46  234.968152866242 46  L 152.419224088014 46  L 3.03184713375796 46  C 1.3340127388535 46  0 44.24  0 42  Z " stroke-width="2" stroke="#adb0c1" fill="none" transform="matrix(1 0 0 1 552 233 )" mask="url(#clip64)" />
    </g>
  </defs>
  <g transform="matrix(1 0 0 1 -550 -231 )">
    <use xlink:href="#widget66" filter="url(#filter65)" />
    <use xlink:href="#widget66" />
  </g>
</svg>