<?xml version="1.0" encoding="utf-8"?>
<svg version="1.1" xmlns:xlink="http://www.w3.org/1999/xlink" width="222px" height="10px" preserveAspectRatio="xMinYMid meet" viewBox="2858 1423  222 8" xmlns="http://www.w3.org/2000/svg">
  <path d="M 1424 1670  L 2858 1670  A 5 5 0 0 0 2863 1665 L 2863 1432  A 5 5 0 0 1 2868 1427 L 3078 1427  " stroke-width="2" stroke="#0099cc" fill="none" />
  <path d="M 1425.5 1666.5  A 3.5 3.5 0 0 0 1422 1670 A 3.5 3.5 0 0 0 1425.5 1673.5 A 3.5 3.5 0 0 0 1429 1670 A 3.5 3.5 0 0 0 1425.5 1666.5 Z M 3072.89289321881 1422.70710678119  L 3077.18578643763 1427  L 3072.89289321881 1431.29289321881  L 3074.30710678119 1432.70710678119  L 3079.30710678119 1427.70710678119  L 3080.01421356237 1427  L 3079.30710678119 1426.29289321881  L 3074.30710678119 1421.29289321881  L 3072.89289321881 1422.70710678119  Z " fill-rule="nonzero" fill="#0099cc" stroke="none" />
</svg>