<?xml version="1.0" encoding="utf-8"?>
<svg version="1.1" xmlns:xlink="http://www.w3.org/1999/xlink" width="26px" height="26px" xmlns="http://www.w3.org/2000/svg">
  <g transform="matrix(1 0 0 1 -2474 -1255 )">
    <path d="M 25.71192 13.11154  C 25.71192 6.07646  19.98854 0.35308  12.95411 0.35308  C 5.91851 0.35308  0.195 6.07659  0.195 13.11154  C 0.195 20.14649  5.91851 25.87  12.95411 25.87  C 19.98854 25.87  25.71192 20.14662  25.71192 13.11154  Z M 20.8637 13.23933  C 20.8637 13.23933  18.4743 18.51733  12.92551 18.51733  C 7.37399 18.51733  4.98641 13.11791  4.98641 13.11791  C 4.98641 13.11791  7.6076 7.80546  12.97998 7.81313  C 18.35379 7.82106  20.8637 13.23933  20.8637 13.23933  Z M 16.27691 13.11791  C 16.27691 11.25189  14.88708 9.80356  12.9636 9.80356  C 11.03791 9.80356  9.64704 11.25189  9.64704 13.11791  C 9.64704 14.98055  11.03791 16.43343  12.9636 16.43343  C 14.88695 16.43343  16.27691 14.98055  16.27691 13.11791  Z M 14.95234 13.11791  C 14.95247 14.18326  14.06236 15.10652  12.9636 15.10652  C 11.8625 15.10652  10.97395 14.18313  10.97395 13.11791  C 10.97395 12.05256  11.86237 11.13047  12.9636 11.12722  C 14.06236 11.12579  14.95234 12.05256  14.95234 13.11791  Z " fill-rule="nonzero" fill="#aaaaaa" stroke="none" transform="matrix(1 0 0 1 2474 1255 )" />
  </g>
</svg>