<?xml version="1.0" encoding="utf-8"?>
<svg version="1.1" xmlns:xlink="http://www.w3.org/1999/xlink" width="15px" height="13px" xmlns="http://www.w3.org/2000/svg">
  <g transform="matrix(1 0 0 1 -2246 -1262 )">
    <path d="M 8.98546324919531 0.996107101421876  L 8.98546324919531 0.997941735929688  C 9.17984239650781 0.997941735929688  9.34229897570312 1.06307113871875  9.47485105575 1.19672399771875  L 14.2907573421172 6.01079564928125  C 14.4234011609922 6.1445402468125  14.4891726811016 6.30699682585938  14.4891726811016 6.5  C 14.4891726811016 6.69492953664063  14.4234011609922 6.85738611583594  14.2907573421172 6.98920435071875  L 9.47485105575 11.8051106369375  C 9.342207236875 11.9389469624609  9.17984239635937 12.0038928985781  8.98546324919531 12.0038928985781  C 8.78860735005469 12.0038928985781  8.624040952375 11.9389469623125  8.49387387478906 11.8089633619375  C 8.36315641841406 11.6770533990625  8.29756836497656 11.5126704573672  8.29756836482813 11.3159062862188  C 8.29756836482813 11.1229031120781  8.3640737409375 10.9604465330313  8.49616717048437 10.8267019356484  L 12.1411202424609 7  L 1.41770224153125 7  C 1.22781793653906 7.18798661221094  1.06600348535156 7.12102258545313  0.931249837453125 6.98727798807031  C 0.796679656078125 6.85169875617969  0.72944043465625 6.69116855017187  0.72944043465625 6.5  C 0.72944043465625 6.31075781232813  0.796679656078125 6.1483929718125  0.931249837453125 6.0145566464375  C 1.06609521349219 5.87897741439844  1.22790966467969 5.81201338778906  1.4176105136875 6  L 12.1411202424609 6  L 8.49616717048437 2.17329806435156  C 8.3640737409375 2.04147982946875  8.29756836482812 1.8770968983125  8.29756836482812 1.68409371378125  C 8.29756836482812 1.48723781464063  8.36315641826562 1.32285487294531  8.49387387478906 1.1929630005625  C 8.6240409416875 1.0610530376875  8.78860733951563 0.996107101421876  8.98546324919531 0.996107101421876  Z " fill-rule="nonzero" fill="#000000" stroke="none" transform="matrix(1 0 0 1 2246 1262 )" />
  </g>
</svg>