<?xml version="1.0" encoding="utf-8"?>
<svg version="1.1" xmlns:xlink="http://www.w3.org/1999/xlink" width="20px" height="21px" preserveAspectRatio="xMidYMin meet" viewBox="3728 1745  18 21" xmlns="http://www.w3.org/2000/svg">
  <path d="M 3737 1754  L 3737 1829  A 5 5 0 0 0 3742 1834 L 3823 1834  " stroke-width="2" stroke="#0099cc" fill="none" />
  <path d="M 3737 1752  A 3.5 3.5 0 0 0 3733.5 1755.5 A 3.5 3.5 0 0 0 3737 1759 A 3.5 3.5 0 0 0 3740.5 1755.5 A 3.5 3.5 0 0 0 3737 1752 Z M 3817.89289321881 1829.70710678119  L 3822.18578643763 1834  L 3817.89289321881 1838.29289321881  L 3819.30710678119 1839.70710678119  L 3824.30710678119 1834.70710678119  L 3825.01421356237 1834  L 3824.30710678119 1833.29289321881  L 3819.30710678119 1828.29289321881  L 3817.89289321881 1829.70710678119  Z " fill-rule="nonzero" fill="#0099cc" stroke="none" />
</svg>