<?xml version="1.0" encoding="utf-8"?>
<svg version="1.1" xmlns:xlink="http://www.w3.org/1999/xlink" width="20px" height="20px" preserveAspectRatio="xMinYMid meet" viewBox="2015 306  20 18" xmlns="http://www.w3.org/2000/svg">
  <path d="M 1272 342  L 1272 315  A 5 5 0 0 1 1277 310 L 1385 310  A 5 5 0 0 0 1390 305 L 1390 275  A 5 5 0 0 1 1395 270 L 2015 270  A 5 5 0 0 1 2020 275 L 2020 310  A 5 5 0 0 0 2025 315 " stroke-width="2" stroke="#0099cc" fill="none" />
  <path d="M 1272 337  A 3.5 3.5 0 0 0 1268.5 340.5 A 3.5 3.5 0 0 0 1272 344 A 3.5 3.5 0 0 0 1275.5 340.5 A 3.5 3.5 0 0 0 1272 337 Z M 2023 322.6  L 2030 315  L 2023 307.4  L 2023 322.6  Z " fill-rule="nonzero" fill="#0099cc" stroke="none" />
</svg>