<?xml version="1.0" encoding="utf-8"?>
<svg version="1.1" xmlns:xlink="http://www.w3.org/1999/xlink" width="20px" height="21px" preserveAspectRatio="xMidYMin meet" viewBox="1305 371  18 21" xmlns="http://www.w3.org/2000/svg">
  <path d="M 1314 380  L 1314 425  A 5 5 0 0 0 1319 430 L 1385 430  A 5 5 0 0 1 1390 435 L 1390 565  A 5 5 0 0 0 1395 570 L 2015 570  A 5 5 0 0 1 2020 575 L 2020 595  A 5 5 0 0 0 2025 600 " stroke-width="2" stroke="#0099cc" fill="none" />
  <path d="M 1314 378  A 3.5 3.5 0 0 0 1310.5 381.5 A 3.5 3.5 0 0 0 1314 385 A 3.5 3.5 0 0 0 1317.5 381.5 A 3.5 3.5 0 0 0 1314 378 Z M 2023 607.6  L 2030 600  L 2023 592.4  L 2023 607.6  Z " fill-rule="nonzero" fill="#0099cc" stroke="none" />
</svg>