<?xml version="1.0" encoding="utf-8"?>
<svg version="1.1" xmlns:xlink="http://www.w3.org/1999/xlink" width="12px" height="12px" xmlns="http://www.w3.org/2000/svg">
  <g transform="matrix(1 0 0 1 -2052 -887 )">
    <path d="M 11.86704 6.05148  C 11.86704 2.80452  9.22548 0.16296  5.97882 0.16296  C 2.73162 0.16296  0.09 2.80458  0.09 6.05148  C 0.09 9.29838  2.73162 11.94  5.97882 11.94  C 9.22548 11.94  11.86704 9.29844  11.86704 6.05148  Z M 9.6294 6.11046  C 9.6294 6.11046  8.5266 8.54646  5.96562 8.54646  C 3.40338 8.54646  2.30142 6.05442  2.30142 6.05442  C 2.30142 6.05442  3.5112 3.60252  5.99076 3.60606  C 8.47098 3.60972  9.6294 6.11046  9.6294 6.11046  Z M 7.51242 6.05442  C 7.51242 5.19318  6.87096 4.52472  5.9832 4.52472  C 5.09442 4.52472  4.45248 5.19318  4.45248 6.05442  C 4.45248 6.9141  5.09442 7.58466  5.9832 7.58466  C 6.8709 7.58466  7.51242 6.9141  7.51242 6.05442  Z M 6.90108 6.05442  C 6.90114 6.54612  6.49032 6.97224  5.9832 6.97224  C 5.475 6.97224  5.0649 6.54606  5.0649 6.05442  C 5.0649 5.56272  5.47494 5.13714  5.9832 5.13564  C 6.49032 5.13498  6.90108 5.56272  6.90108 6.05442  Z " fill-rule="nonzero" fill="#02a7f0" stroke="none" transform="matrix(1 0 0 1 2052 887 )" />
  </g>
</svg>