<?xml version="1.0" encoding="utf-8"?>
<svg version="1.1" xmlns:xlink="http://www.w3.org/1999/xlink" width="10px" height="254px" preserveAspectRatio="xMidYMin meet" viewBox="2016 1211  8 254" xmlns="http://www.w3.org/2000/svg">
  <path d="M 3338 1808  L 3338 1803  A 3 3 0 0 0 3341 1800 A 3 3 0 0 0 3338 1797 L 3338 1465  A 5 5 0 0 0 3333 1460 L 2025 1460  A 5 5 0 0 1 2020 1455 L 2020 1221  A 5 5 0 0 1 2025 1216 " stroke-width="2" stroke="#0099cc" fill="none" />
  <path d="M 3338 1803  A 3.5 3.5 0 0 0 3334.5 1806.5 A 3.5 3.5 0 0 0 3338 1810 A 3.5 3.5 0 0 0 3341.5 1806.5 A 3.5 3.5 0 0 0 3338 1803 Z M 2023 1223.6  L 2030 1216  L 2023 1208.4  L 2023 1223.6  Z " fill-rule="nonzero" fill="#0099cc" stroke="none" />
</svg>