<?xml version="1.0" encoding="utf-8"?>
<svg version="1.1" xmlns:xlink="http://www.w3.org/1999/xlink" width="14px" height="14px" xmlns="http://www.w3.org/2000/svg">
  <g transform="matrix(1 0 0 1 -3378 -3285 )">
    <path d="M 13.6386557617188 2.76075830078125  C 13.6386557617188 2.88491259765625  13.5924362792969 3.009466796875  13.4975363769531 3.10432055664063  L 6.75661328125 9.84519750976562  L 4.32766796875 9.84519750976562  L 4.32766796875 7.41619067382813  L 11.0685910644531 0.675390625  C 11.1634140625 0.580567626953125  11.2875375976563 0.534271240234375  11.4118149414063 0.534271240234375  C 11.5363999023438 0.534271240234375  11.6607541503906 0.580567626953125  11.7555771484375 0.675390625  L 13.4975363769531 2.41722680664062  C 13.5924362792969 2.51212670898438  13.6386557617188 2.63625024414063  13.6386557617188 2.76075830078125  Z M 12.2217709960937 2.76074291992188  L 11.4121225585937 1.95110986328125  L 5.542140625 7.82099951171875  L 5.542140625 8.6308017578125  L 6.3517890625 8.6308017578125  L 12.2217709960937 2.76074291992188  Z M 7.56630786132812 1.95110986328125  C 7.56630786132812 2.28633569335937  7.294451171875 2.55842309570313  6.95907153320313 2.55842309570313  L 1.89873803710937 2.55842309570313  L 1.89873803710937 12.2741428222656  L 11.6145346679688 12.2741428222656  L 11.6145346679688 7.21377856445313  C 11.6145346679688 6.87862963867187  11.8862375488281 6.606619140625  12.2217709960937 6.606619140625  C 12.5571506347656 6.606619140625  12.8290073242188 6.87862963867187  12.8290073242188 7.21377856445313  L 12.8290073242188 12.6789670410156  C 12.8290073242188 13.1261655273438  12.46648046875 13.4886923828125  12.0193588867188 13.4886923828125  L 1.49391381835937 13.4886923828125  C 1.04679223632813 13.4886923828125  0.684265380859375 13.1261655273438  0.684265380859375 12.6789670410156  L 0.684265380859375 2.15352197265625  C 0.684265380859375 1.706400390625  1.04679223632813 1.34387353515625  1.49391381835937 1.34387353515625  L 6.95907153320313 1.34387353515625  C 7.294451171875 1.34387353515625  7.56630786132812 1.61588403320313  7.56630786132812 1.95110986328125  Z " fill-rule="nonzero" fill="#000000" stroke="none" transform="matrix(1 0 0 1 3378 3285 )" />
  </g>
</svg>