<?xml version="1.0" encoding="utf-8"?>
<svg version="1.1" xmlns:xlink="http://www.w3.org/1999/xlink" width="20px" height="20px" preserveAspectRatio="xMinYMid meet" viewBox="2020 858  20 18" xmlns="http://www.w3.org/2000/svg">
  <defs>
    <mask fill="white" id="clip82">
      <path d="M 1732 841  L 1852 841  L 1852 893  L 1732 893  Z M 1548 841  L 2042 841  L 2042 893  L 1548 893  Z " fill-rule="evenodd" />
    </mask>
  </defs>
  <path d="M 1558.39469502999 863.947091711543  A 5 5 0 0 0 1563 867 L 2030 867  " stroke-width="2" stroke="#0099cc" fill="none" mask="url(#clip82)" />
  <path d="M 1559.17578906358 861.721088436188  A 3.5 3.5 0 0 0 1555.67578906358 865.221088436188 A 3.5 3.5 0 0 0 1559.17578906358 868.721088436188 A 3.5 3.5 0 0 0 1562.67578906358 865.221088436188 A 3.5 3.5 0 0 0 1559.17578906358 861.721088436188 Z M 2024.89289321881 862.707106781187  L 2029.18578643763 867  L 2024.89289321881 871.292893218813  L 2026.30710678119 872.707106781187  L 2031.30710678119 867.707106781187  L 2032.01421356237 867  L 2031.30710678119 866.292893218813  L 2026.30710678119 861.292893218813  L 2024.89289321881 862.707106781187  Z " fill-rule="nonzero" fill="#0099cc" stroke="none" mask="url(#clip82)" />
</svg>