<?xml version="1.0" encoding="utf-8"?>
<svg version="1.1" xmlns:xlink="http://www.w3.org/1999/xlink" width="10px" height="20px" preserveAspectRatio="xMidYMin meet" viewBox="2368 3035  8 20" xmlns="http://www.w3.org/2000/svg">
  <path d="M 2372 3053  L 2372 3045  A 5 5 0 0 1 2377 3040 L 3455 3040  A 5 5 0 0 1 3460 3045 L 3460 3464  A 5 5 0 0 0 3465 3469 L 3715 3469  " stroke-width="2" stroke="#0099cc" fill="none" />
  <path d="M 2372 3048  A 3.5 3.5 0 0 0 2368.5 3051.5 A 3.5 3.5 0 0 0 2372 3055 A 3.5 3.5 0 0 0 2375.5 3051.5 A 3.5 3.5 0 0 0 2372 3048 Z M 3714 3476.6  L 3721 3469  L 3714 3461.4  L 3714 3476.6  Z " fill-rule="nonzero" fill="#0099cc" stroke="none" />
</svg>