<?xml version="1.0" encoding="utf-8"?>
<svg version="1.1" xmlns:xlink="http://www.w3.org/1999/xlink" width="201px" height="44px" xmlns="http://www.w3.org/2000/svg">
  <defs>
    <mask fill="white" id="clip75">
      <path d="M 0 40  L 0 4  C 0 1.75999999999999  3.18702702702701 0  7.24324324324324 0  L 193.756756756757 0  C 197.812972972973 0  201 1.75999999999999  201 4  L 201 26  L 201 40  C 201 42.24  197.812972972973 44  193.756756756757 44  L 7.24324324324324 44  C 3.18702702702701 44  0 42.24  0 40  Z " fill-rule="evenodd" />
    </mask>
  </defs>
  <g transform="matrix(1 0 0 1 -1373 -324 )">
    <path d="M 0 40  L 0 4  C 0 1.75999999999999  3.18702702702701 0  7.24324324324324 0  L 193.756756756757 0  C 197.812972972973 0  201 1.75999999999999  201 4  L 201 26  L 201 40  C 201 42.24  197.812972972973 44  193.756756756757 44  L 7.24324324324324 44  C 3.18702702702701 44  0 42.24  0 40  Z " fill-rule="nonzero" fill="#0099ff" stroke="none" fill-opacity="0.0980392156862745" transform="matrix(1 0 0 1 1373 324 )" />
    <path d="M 0 40  L 0 4  C 0 1.75999999999999  3.18702702702701 0  7.24324324324324 0  L 193.756756756757 0  C 197.812972972973 0  201 1.75999999999999  201 4  L 201 26  L 201 40  C 201 42.24  197.812972972973 44  193.756756756757 44  L 7.24324324324324 44  C 3.18702702702701 44  0 42.24  0 40  Z " stroke-width="2" stroke="#a7d2f9" fill="none" transform="matrix(1 0 0 1 1373 324 )" mask="url(#clip75)" />
  </g>
</svg>