<?xml version="1.0" encoding="utf-8"?>
<svg version="1.1" xmlns:xlink="http://www.w3.org/1999/xlink" width="14px" height="14px" xmlns="http://www.w3.org/2000/svg">
  <g transform="matrix(1 0 0 1 -503 -245 )">
    <path d="M 13.7375 2.0125  C 13.9125 2.1875  14 2.3625  14 2.625  C 14 2.8875  13.9125 3.0625  13.7375 3.2375  L 12.6 4.375  L 9.625 1.4  L 10.7625 0.2625  C 10.9375 0.0875  11.1125 0  11.375 0  C 11.6375 0  11.8125 0.0875  11.9875 0.2625  L 13.7375 2.0125  Z M 0.2625 10.7625  L 8.4 2.625  L 11.375 5.6  L 3.2375 13.7375  C 3.0625 13.9125  2.8875 14  2.625 14  L 0.875 14  C 0.35 14  0 13.65  0 13.125  L 0 11.375  C 0 11.1125  0.0875 10.9375  0.2625 10.7625  Z " fill-rule="nonzero" fill="#333333" stroke="none" transform="matrix(1 0 0 1 503 245 )" />
  </g>
</svg>