<?xml version="1.0" encoding="utf-8"?>
<svg version="1.1" xmlns:xlink="http://www.w3.org/1999/xlink" width="34px" height="34px" xmlns="http://www.w3.org/2000/svg">
  <g transform="matrix(1 0 0 1 -493 -235 )">
    <path d="M 510 235  C 519.52 235  527 242.48  527 252  C 527 261.52  519.52 269  510 269  C 500.48 269  493 261.52  493 252  C 493 242.48  500.48 235  510 235  Z " fill-rule="nonzero" fill="#ffffff" stroke="none" />
    <path d="M 510 235.5  C 519.24 235.5  526.5 242.76  526.5 252  C 526.5 261.24  519.24 268.5  510 268.5  C 500.76 268.5  493.5 261.24  493.5 252  C 493.5 242.76  500.76 235.5  510 235.5  Z " stroke-width="1" stroke="#333333" fill="none" />
  </g>
</svg>