<?xml version="1.0" encoding="utf-8"?>
<svg version="1.1" xmlns:xlink="http://www.w3.org/1999/xlink" width="248px" height="40px" xmlns="http://www.w3.org/2000/svg">
  <defs>
    <mask fill="white" id="clip155">
      <path d="M 0 27.3913043478261  L 0 2.60869565217391  C 0 1.14782608695652  1.3340127388535 0  3.03184713375796 0  L 234.968152866242 0  C 236.665987261147 0  238 1.14782608695652  238 2.60869565217391  L 238 27.3913043478261  C 238 28.8521739130435  236.665987261147 30  234.968152866242 30  L 152.419224088014 30  L 3.03184713375796 30  C 1.3340127388535 30  0 28.8521739130435  0 27.3913043478261  Z " fill-rule="evenodd" />
    </mask>
    <filter x="343px" y="164px" width="248px" height="40px" filterUnits="userSpaceOnUse" id="filter156">
      <feOffset dx="3" dy="3" in="SourceAlpha" result="shadowOffsetInner" />
      <feGaussianBlur stdDeviation="2.5" in="shadowOffsetInner" result="shadowGaussian" />
      <feComposite in2="shadowGaussian" operator="atop" in="SourceAlpha" result="shadowComposite" />
      <feColorMatrix type="matrix" values="0 0 0 0 0  0 0 0 0 0  0 0 0 0 0  0 0 0 0.349019607843137 0  " in="shadowComposite" />
    </filter>
    <g id="widget157">
      <path d="M 0 27.3913043478261  L 0 2.60869565217391  C 0 1.14782608695652  1.3340127388535 0  3.03184713375796 0  L 234.968152866242 0  C 236.665987261147 0  238 1.14782608695652  238 2.60869565217391  L 238 27.3913043478261  C 238 28.8521739130435  236.665987261147 30  234.968152866242 30  L 152.419224088014 30  L 3.03184713375796 30  C 1.3340127388535 30  0 28.8521739130435  0 27.3913043478261  Z " fill-rule="nonzero" fill="#ffffff" stroke="none" transform="matrix(1 0 0 1 345 166 )" />
      <path d="M 0 27.3913043478261  L 0 2.60869565217391  C 0 1.14782608695652  1.3340127388535 0  3.03184713375796 0  L 234.968152866242 0  C 236.665987261147 0  238 1.14782608695652  238 2.60869565217391  L 238 27.3913043478261  C 238 28.8521739130435  236.665987261147 30  234.968152866242 30  L 152.419224088014 30  L 3.03184713375796 30  C 1.3340127388535 30  0 28.8521739130435  0 27.3913043478261  Z " stroke-width="2" stroke="#adb0c1" fill="none" transform="matrix(1 0 0 1 345 166 )" mask="url(#clip155)" />
    </g>
  </defs>
  <g transform="matrix(1 0 0 1 -343 -164 )">
    <use xlink:href="#widget157" filter="url(#filter156)" />
    <use xlink:href="#widget157" />
  </g>
</svg>