<?xml version="1.0" encoding="utf-8"?>
<svg version="1.1" xmlns:xlink="http://www.w3.org/1999/xlink" width="34px" height="34px" xmlns="http://www.w3.org/2000/svg">
  <g transform="matrix(1 0 0 1 -877 -411 )">
    <path d="M 894 411  C 903.52 411  911 418.48  911 428  C 911 437.52  903.52 445  894 445  C 884.48 445  877 437.52  877 428  C 877 418.48  884.48 411  894 411  Z " fill-rule="nonzero" fill="#ffffff" stroke="none" />
    <path d="M 894 411.5  C 903.24 411.5  910.5 418.76  910.5 428  C 910.5 437.24  903.24 444.5  894 444.5  C 884.76 444.5  877.5 437.24  877.5 428  C 877.5 418.76  884.76 411.5  894 411.5  Z " stroke-width="1" stroke="#aaaaaa" fill="none" />
  </g>
</svg>