<?xml version="1.0" encoding="utf-8"?>
<svg version="1.1" xmlns:xlink="http://www.w3.org/1999/xlink" width="10px" height="9px" xmlns="http://www.w3.org/2000/svg">
  <g transform="matrix(1 0 0 1 -2080 -1102 )">
    <path d="M 1.1376 0.220799999999999  C 0.7408 0.220799999999999  0.4176 0.537599999999999  0.4176 0.924799999999999  C 0.4176 1.3152  0.7408 1.6288  1.1376 1.6288  L 8.8976 1.6288  C 9.2944 1.6288  9.6176 1.312  9.6176 0.924799999999999  C 9.6176 0.537599999999999  9.2944 0.220799999999999  8.8976 0.220799999999999  L 1.1376 0.220799999999999  Z M 9.6176 4.4768  C 9.6176 4.0896  9.2944 3.7728  8.8976 3.7728  L 1.1376 3.7728  C 0.7408 3.7728  0.4176 4.0896  0.4176 4.4768  C 0.4176 4.864  0.7408 5.1808  1.1376 5.1808  L 8.8976 5.1808  C 9.2944 5.1808  9.6176 4.864  9.6176 4.4768  Z M 9.6176 8.0288  C 9.6176 7.6416  9.2944 7.3248  8.8976 7.3248  L 1.1376 7.3248  C 0.7408 7.3248  0.4176 7.6416  0.4176 8.0288  C 0.4176 8.416  0.7408 8.7328  1.1376 8.7328  L 8.8976 8.7328  C 9.2944 8.7328  9.6176 8.416  9.6176 8.0288  Z " fill-rule="nonzero" fill="#555555" stroke="none" transform="matrix(1 0 0 1 2080 1102 )" />
  </g>
</svg>