<?xml version="1.0" encoding="utf-8"?>
<svg version="1.1" xmlns:xlink="http://www.w3.org/1999/xlink" width="10px" height="16px" preserveAspectRatio="xMidYMin meet" viewBox="1315 269  8 16" xmlns="http://www.w3.org/2000/svg">
  <path d="M 1319 271  L 1319 275  A 5 5 0 0 0 1324 280 L 1385 280  A 5 5 0 0 1 1390 285 L 1390 575  A 5 5 0 0 0 1395 580 L 2015 580  A 5 5 0 0 1 2020 585 L 2020 595  A 5 5 0 0 0 2025 600 " stroke-width="2" stroke="#0099cc" fill="none" />
  <path d="M 1319 269  A 3.5 3.5 0 0 0 1315.5 272.5 A 3.5 3.5 0 0 0 1319 276 A 3.5 3.5 0 0 0 1322.5 272.5 A 3.5 3.5 0 0 0 1319 269 Z M 2023 607.6  L 2030 600  L 2023 592.4  L 2023 607.6  Z " fill-rule="nonzero" fill="#0099cc" stroke="none" />
</svg>