<?xml version="1.0" encoding="utf-8"?>
<svg version="1.1" xmlns:xlink="http://www.w3.org/1999/xlink" width="10px" height="60px" preserveAspectRatio="xMidYMin meet" viewBox="1386 215  8 60" xmlns="http://www.w3.org/2000/svg">
  <path d="M 1277 233  L 1277 225  A 5 5 0 0 1 1282 220 L 1385 220  A 5 5 0 0 1 1390 225 L 1390 265  A 5 5 0 0 0 1395 270 L 2015 270  A 5 5 0 0 1 2020 275 L 2020 310  A 5 5 0 0 0 2025 315 " stroke-width="2" stroke="#0099cc" fill="none" />
  <path d="M 1277 228  A 3.5 3.5 0 0 0 1273.5 231.5 A 3.5 3.5 0 0 0 1277 235 A 3.5 3.5 0 0 0 1280.5 231.5 A 3.5 3.5 0 0 0 1277 228 Z M 2023 322.6  L 2030 315  L 2023 307.4  L 2023 322.6  Z " fill-rule="nonzero" fill="#0099cc" stroke="none" />
</svg>