<?xml version="1.0" encoding="utf-8"?>
<svg version="1.1" xmlns:xlink="http://www.w3.org/1999/xlink" width="10px" height="48px" preserveAspectRatio="xMidYMin meet" viewBox="3320 2057  8 48" xmlns="http://www.w3.org/2000/svg">
  <path d="M 3324 2059  L 3324 2095  A 5 5 0 0 0 3329 2100 L 3535 2100  A 5 5 0 0 1 3540 2105 L 3540 2552  A 5 5 0 0 0 3545 2557 " stroke-width="2" stroke="#0099cc" fill="none" />
  <path d="M 3324 2057  A 3.5 3.5 0 0 0 3320.5 2060.5 A 3.5 3.5 0 0 0 3324 2064 A 3.5 3.5 0 0 0 3327.5 2060.5 A 3.5 3.5 0 0 0 3324 2057 Z M 3543 2564.6  L 3550 2557  L 3543 2549.4  L 3543 2564.6  Z " fill-rule="nonzero" fill="#0099cc" stroke="none" />
</svg>