<?xml version="1.0" encoding="utf-8"?>
<svg version="1.1" xmlns:xlink="http://www.w3.org/1999/xlink" width="34px" height="34px" xmlns="http://www.w3.org/2000/svg">
  <g transform="matrix(1 0 0 1 -528 -342 )">
    <path d="M 545 342  C 554.52 342  562 349.48  562 359  C 562 368.52  554.52 376  545 376  C 535.48 376  528 368.52  528 359  C 528 349.48  535.48 342  545 342  Z " fill-rule="nonzero" fill="#ffffff" stroke="none" />
    <path d="M 545 342.5  C 554.24 342.5  561.5 349.76  561.5 359  C 561.5 368.24  554.24 375.5  545 375.5  C 535.76 375.5  528.5 368.24  528.5 359  C 528.5 349.76  535.76 342.5  545 342.5  Z " stroke-width="1" stroke="#000000" fill="none" />
  </g>
</svg>