<?xml version="1.0" encoding="utf-8"?>
<svg version="1.1" xmlns:xlink="http://www.w3.org/1999/xlink" width="20px" height="24px" xmlns="http://www.w3.org/2000/svg">
  <g transform="matrix(1 0 0 1 -2122 -2337 )">
    <path d="M 19 7.7152  C 19.1936 7.3376  19.0368 6.976  18.7616 6.7104  L 13.008 1.1648  C 12.7392 0.9056  12.3808 0.7616  12.0032 0.7616  L 2.9632 0.7424  C 2.9632 0.7424  0.8064 0.8832  1 2.8544  L 1 21.1488  C 0.8064 21.1488  0.9024 23.2608  2.9632 23  L 17.0368 23  C 17.0368 23.2608  19.1936 23.1616  19 21.1488  L 19 7.7152  Z M 13.0336 6.0896  C 13.0368 5.4176  13.0368 3.1328  13.0368 3.1328  L 16.8064 6.7936  L 13.7536 6.7936  C 13.7536 6.7936  13.0336 6.7616  13.0336 6.0896  Z M 17.7568 8.1984  L 17.7568 21.1456  C 17.7568 21.8528  17.0368 21.8496  17.0368 21.8496  L 2.9632 21.8496  C 2.2912 21.8496  2.2432 21.1456  2.2432 21.1456  L 2.2432 2.8512  C 2.2432 2.1952  2.9632 2.1472  2.9632 2.1472  L 11.6 2.1472  L 11.6 6.0864  C 11.6 8.0384  13.7568 8.1984  13.7568 8.1984  L 17.7568 8.1984  Z " fill-rule="nonzero" fill="#555555" stroke="none" transform="matrix(1 0 0 1 2122 2337 )" />
  </g>
</svg>