<?xml version="1.0" encoding="utf-8"?>
<svg version="1.1" xmlns:xlink="http://www.w3.org/1999/xlink" width="20px" height="20px" preserveAspectRatio="xMinYMid meet" viewBox="2062 2452  20 18" xmlns="http://www.w3.org/2000/svg">
  <path d="M 3385 3053  L 3385 3043  A 3 3 0 0 0 3388 3040 A 3 3 0 0 0 3385 3037 L 3385 2705  A 5 5 0 0 0 3380 2700 L 2065 2700  A 5 5 0 0 1 2060 2695 L 2060 2466  A 5 5 0 0 1 2065 2461 L 2071 2461  " stroke-width="2" stroke="#0099cc" fill="none" />
  <path d="M 3385 3048  A 3.5 3.5 0 0 0 3381.5 3051.5 A 3.5 3.5 0 0 0 3385 3055 A 3.5 3.5 0 0 0 3388.5 3051.5 A 3.5 3.5 0 0 0 3385 3048 Z M 2070 2468.6  L 2077 2461  L 2070 2453.4  L 2070 2468.6  Z " fill-rule="nonzero" fill="#0099cc" stroke="none" />
</svg>