<?xml version="1.0" encoding="utf-8"?>
<svg version="1.1" xmlns:xlink="http://www.w3.org/1999/xlink" width="15px" height="10px" preserveAspectRatio="xMinYMid meet" viewBox="2015 1211  15 8" xmlns="http://www.w3.org/2000/svg">
  <defs>
    <mask fill="white" id="clip113">
      <path d="M 1828 919  L 1948 919  L 1948 971  L 1828 971  Z M 1546 855  L 2040 855  L 2040 1225  L 1546 1225  Z " fill-rule="evenodd" />
    </mask>
  </defs>
  <path d="M 1558 865  L 1561 865  A 5 5 0 0 1 1566 870 L 1566 940  A 5 5 0 0 0 1571 945 L 2015 945  A 5 5 0 0 1 2020 950 L 2020 1210  A 5 5 0 0 0 2025 1215 L 2028 1215  " stroke-width="2" stroke="#0099cc" fill="none" mask="url(#clip113)" />
  <path d="M 1559.5 861.5  A 3.5 3.5 0 0 0 1556 865 A 3.5 3.5 0 0 0 1559.5 868.5 A 3.5 3.5 0 0 0 1563 865 A 3.5 3.5 0 0 0 1559.5 861.5 Z M 2022.89289321881 1210.70710678119  L 2027.18578643763 1215  L 2022.89289321881 1219.29289321881  L 2024.30710678119 1220.70710678119  L 2029.30710678119 1215.70710678119  L 2030.01421356237 1215  L 2029.30710678119 1214.29289321881  L 2024.30710678119 1209.29289321881  L 2022.89289321881 1210.70710678119  Z " fill-rule="nonzero" fill="#0099cc" stroke="none" mask="url(#clip113)" />
</svg>