<?xml version="1.0" encoding="utf-8"?>
<svg version="1.1" xmlns:xlink="http://www.w3.org/1999/xlink" width="229px" height="44px" xmlns="http://www.w3.org/2000/svg">
  <defs>
    <mask fill="white" id="clip738">
      <path d="M 0 40  L 0 4  C 0 1.75999999999999  3.63099099099097 0  8.25225225225225 0  L 220.747747747748 0  C 225.369009009009 0  229 1.75999999999999  229 4  L 229 26  L 229 40  C 229 42.24  225.369009009009 44  220.747747747748 44  L 8.25225225225225 44  C 3.63099099099097 44  0 42.24  0 40  Z " fill-rule="evenodd" />
    </mask>
  </defs>
  <g transform="matrix(1 0 0 1 -3651 -2553 )">
    <path d="M 0 40  L 0 4  C 0 1.75999999999999  3.63099099099097 0  8.25225225225225 0  L 220.747747747748 0  C 225.369009009009 0  229 1.75999999999999  229 4  L 229 26  L 229 40  C 229 42.24  225.369009009009 44  220.747747747748 44  L 8.25225225225225 44  C 3.63099099099097 44  0 42.24  0 40  Z " fill-rule="nonzero" fill="#0099ff" stroke="none" fill-opacity="0.0980392156862745" transform="matrix(1 0 0 1 3651 2553 )" />
    <path d="M 0 40  L 0 4  C 0 1.75999999999999  3.63099099099097 0  8.25225225225225 0  L 220.747747747748 0  C 225.369009009009 0  229 1.75999999999999  229 4  L 229 26  L 229 40  C 229 42.24  225.369009009009 44  220.747747747748 44  L 8.25225225225225 44  C 3.63099099099097 44  0 42.24  0 40  Z " stroke-width="2" stroke="#a7d2f9" fill="none" transform="matrix(1 0 0 1 3651 2553 )" mask="url(#clip738)" />
  </g>
</svg>