<?xml version="1.0" encoding="utf-8"?>
<svg version="1.1" xmlns:xlink="http://www.w3.org/1999/xlink" width="155px" height="10px" preserveAspectRatio="xMinYMid meet" viewBox="230 4614  155 8" xmlns="http://www.w3.org/2000/svg">
  <path d="M 232 4618  L 375 4618  A 5 5 0 0 1 380 4623 L 380 4756  A 5 5 0 0 0 385 4761 L 480 4761  " stroke-width="2" stroke="#0099cc" fill="none" />
  <path d="M 233.5 4614.5  A 3.5 3.5 0 0 0 230 4618 A 3.5 3.5 0 0 0 233.5 4621.5 A 3.5 3.5 0 0 0 237 4618 A 3.5 3.5 0 0 0 233.5 4614.5 Z M 479 4768.6  L 486 4761  L 479 4753.4  L 479 4768.6  Z " fill-rule="nonzero" fill="#0099cc" stroke="none" />
</svg>