<?xml version="1.0" encoding="utf-8"?>
<svg version="1.1" xmlns:xlink="http://www.w3.org/1999/xlink" width="7px" height="9px" xmlns="http://www.w3.org/2000/svg">
  <g transform="matrix(1 0 0 1 -425 -169 )">
    <path d="M 0.661178509532062 0.0954241071428574  L 6.87261698440208 5.23828125  C 6.99797804737146 5.33872767857143  7.026285384171 5.45424107142857  6.95753899480069 5.58482142857143  C 6.88879260543039 5.71875  6.76949740034662 5.78571428571428  6.59965337954939 5.78571428571428  L 4.28249566724437 5.78571428571428  L 5.50173310225303 8.17633928571429  C 5.5421721548238 8.26004464285714  5.5421721548238 8.34207589285714  5.50173310225303 8.42243303571429  C 5.46129404968227 8.50279017857143  5.39254766031196 8.56138392857143  5.29549393414211 8.59821428571429  L 4.22183708838821 8.97488839285714  C 4.12073945696129 9.00837053571429  4.02166377816291 9.00837053571429  3.92461005199307 8.97488839285714  C 3.82755632582322 8.94140625  3.75678798382438 8.88448660714286  3.71230502599653 8.80412946428571  L 2.55372616984402 6.53404017857143  L 0.661178509532062 8.10100446428571  C 0.584344309647603 8.16462053571429  0.493356441363374 8.19642857142857  0.388214904679376 8.19642857142857  C 0.339688041594454 8.19642857142857  0.291161178509532 8.18805803571428  0.24263431542461 8.17131696428571  C 0.0808781051415367 8.11439732142857  0 8.015625  0 7.875  L 0 0.321428571428571  C 0 0.180803571428571  0.0808781051415367 0.0820312499999993  0.24263431542461 0.0251116071428574  C 0.291161178509532 0.00837053571428581  0.339688041594454 0  0.388214904679376 0  C 0.497400346620451 0  0.588388214904679 0.0318080357142865  0.661178509532062 0.0954241071428574  Z " fill-rule="nonzero" fill="#000000" stroke="none" transform="matrix(1 0 0 1 425 169 )" />
  </g>
</svg>