<?xml version="1.0" encoding="utf-8"?>
<svg version="1.1" xmlns:xlink="http://www.w3.org/1999/xlink" width="11px" height="13px" xmlns="http://www.w3.org/2000/svg">
  <g transform="matrix(1 0 0 1 -3380 -3289 )">
    <path d="M 10.8307692238281 0.666666664388021  L 7.27692307460937 0.666666664388021  L 7.27692307460937 0.0833333367513022  L 3.72307692539063 0.0833333367513022  L 3.72307692539063 0.666666664388021  L 0.169230776171875 0.666666664388021  L 0.169230776171875 2  L 10.8307692238281 2  L 10.8307692238281 0.666666664388021  Z M 0.761538462695313 2.41666666210937  L 0.761538462695313 3.93333332877604  L 0.761538462695313 12.333333335612  L 10.2384615373047 12.333333335612  L 10.2384615373047 2.41666666210937  L 0.761538462695313 2.41666666210937  Z M 7.15846153730469 3.93333332877604  L 8.81692307460938 3.93333332877604  L 8.81692307460938 10.9333333344727  L 7.15846153730469 10.9333333344727  L 7.15846153730469 3.93333332877604  Z M 4.67076922382812 3.93333332877604  L 6.32923077617188 3.93333332877604  L 6.32923077617188 10.9333333344727  L 4.67076922382812 10.9333333344727  L 4.67076922382812 3.93333332877604  Z M 2.18307692539062 3.93333332877604  L 3.84153846269531 3.93333332877604  L 3.84153846269531 10.9333333344727  L 2.18307692539062 10.9333333344727  L 2.18307692539062 3.93333332877604  Z " fill-rule="nonzero" fill="#333333" stroke="none" transform="matrix(1 0 0 1 3380 3289 )" />
  </g>
</svg>