<?xml version="1.0" encoding="utf-8"?>
<svg version="1.1" xmlns:xlink="http://www.w3.org/1999/xlink" width="14px" height="14px" xmlns="http://www.w3.org/2000/svg">
  <defs>
    <mask fill="white" id="clip605">
      <path d="M 13.8853012048193 1.66713663366337  C 13.8853012048193 0.78523084700287  13.0153311379845 0.0703049504950496  11.9421686746988 0.0703049504950494  L 2.01060240963855 0.0703049504950494  C 0.937439946352888 0.0703049504950494  0.0674698795180727 0.785230847002867  0.0674698795180727 1.66713663366337  L 0.0674698795180727 12.3925227722772  C 0.0674698795180727 13.2744285589377  0.937439946352888 13.9893544554455  2.01060240963855 13.9893544554455  L 11.9421686746988 13.9893544554455  C 13.0153311379845 13.9893544554455  13.8853012048193 13.2744285589377  13.8853012048193 12.3925227722772  L 13.8853012048193 1.66713663366337  Z M 2.61945060240964 10.1826851485148  C 2.61945060240964 9.753980946666  3.04235271823212 9.40644752475247  3.56402891566265 9.40644752475247  C 4.08570511309318 9.40644752475247  4.50860722891566 9.753980946666  4.50860722891566 10.1826851485148  C 4.50860722891566 10.6113893503637  4.08570511309318 10.9589227722772  3.56402891566265 10.9589227722772  C 3.04235271823212 10.9589227722772  2.61945060240964 10.6113893503637  2.61945060240964 10.1826851485148  C 2.61945060240964 10.4414310231023  2.61945060240964 9.92393927392739  2.61945060240964 10.1826851485148  Z M 3.56402891566265 7.89300594059406  C 3.04235271823212 7.89300594059406  2.61945060240964 7.54547251868054  2.61945060240964 7.11676831683168  C 2.61945060240964 6.68806411498283  3.04235271823212 6.34053069306931  3.56402891566265 6.34053069306931  C 4.08570511309318 6.34053069306931  4.50860722891566 6.68806411498283  4.50860722891566 7.11676831683168  C 4.50860722891566 7.54547251868054  4.08570511309318 7.89300594059406  3.56402891566265 7.89300594059406  Z M 6.03180722891566 10.1826851485148  C 6.03180722891566 9.753980946666  6.45470934473814 9.40644752475247  6.97638554216867 9.40644752475247  C 7.49806173959921 9.40644752475247  7.92096385542169 9.753980946666  7.92096385542169 10.1826851485148  C 7.92096385542169 10.6113893503637  7.49806173959921 10.9589227722772  6.97638554216867 10.9589227722772  C 6.45470934473814 10.9589227722772  6.03180722891566 10.6113893503637  6.03180722891566 10.1826851485148  Z M 6.03396626506024 7.11676831683168  L 6.03180722891566 7.11676831683168  C 6.03180722891566 6.68806411498283  6.45470934473814 6.34053069306931  6.97638554216867 6.34053069306931  C 7.49806173959921 6.34053069306931  7.92096385542169 6.68806411498283  7.92096385542169 7.11676831683168  C 7.92096385542169 7.54547251868054  7.49806173959921 7.89300594059406  6.97638554216867 7.89300594059406  C 6.45555269949687 7.89202762684463  6.03396490451198 7.54478058284275  6.03396626506024 7.11676831683168  Z M 9.44740240963855 10.1826851485148  L 9.44524337349397 10.1826851485148  C 9.44524337349397 9.753980946666  9.86814548931645 9.40644752475247  10.389821686747 9.40644752475247  C 10.9114978841775 9.40644752475247  11.3344 9.753980946666  11.3344 10.1826851485148  C 11.3344 10.6113893503637  10.9114978841775 10.9589227722772  10.389821686747 10.9589227722772  C 9.86898884407518 10.9579444585278  9.44740104909029 10.6106974145259  9.44740240963855 10.1826851485148  Z M 10.3919807228916 7.89300594059406  L 10.389821686747 7.89300594059406  C 9.86814548931645 7.89300594059406  9.44524337349397 7.54547251868054  9.44524337349397 7.11676831683168  C 9.44524337349397 6.68806411498283  9.86814548931645 6.34053069306931  10.389821686747 6.34053069306931  C 10.9114978841775 6.34053069306931  11.3344 6.68806411498283  11.3344 7.11676831683168  C 11.3344013605483 7.54478058284275  10.9128135655634 7.89202762684463  10.3919807228916 7.89300594059406  Z M 12.5898795180723 1.66713663366337  L 12.5898795180723 3.68712871287129  L 1.36289156626506 3.68712871287129  L 1.36289156626506 1.66713663366337  C 1.36289156626506 1.37316803810987  1.65288158854333 1.13485940594059  2.01060240963855 1.13485940594059  L 11.9421686746988 1.13485940594059  C 12.299889495794 1.13485940594059  12.5898795180723 1.37316803810987  12.5898795180723 1.66713663366337  Z " fill-rule="evenodd" />
    </mask>
  </defs>
  <g transform="matrix(1 0 0 1 -923 -548 )">
    <path d="M 13.8853012048193 1.66713663366337  C 13.8853012048193 0.78523084700287  13.0153311379845 0.0703049504950496  11.9421686746988 0.0703049504950494  L 2.01060240963855 0.0703049504950494  C 0.937439946352888 0.0703049504950494  0.0674698795180727 0.785230847002867  0.0674698795180727 1.66713663366337  L 0.0674698795180727 12.3925227722772  C 0.0674698795180727 13.2744285589377  0.937439946352888 13.9893544554455  2.01060240963855 13.9893544554455  L 11.9421686746988 13.9893544554455  C 13.0153311379845 13.9893544554455  13.8853012048193 13.2744285589377  13.8853012048193 12.3925227722772  L 13.8853012048193 1.66713663366337  Z M 2.61945060240964 10.1826851485148  C 2.61945060240964 9.753980946666  3.04235271823212 9.40644752475247  3.56402891566265 9.40644752475247  C 4.08570511309318 9.40644752475247  4.50860722891566 9.753980946666  4.50860722891566 10.1826851485148  C 4.50860722891566 10.6113893503637  4.08570511309318 10.9589227722772  3.56402891566265 10.9589227722772  C 3.04235271823212 10.9589227722772  2.61945060240964 10.6113893503637  2.61945060240964 10.1826851485148  C 2.61945060240964 10.4414310231023  2.61945060240964 9.92393927392739  2.61945060240964 10.1826851485148  Z M 3.56402891566265 7.89300594059406  C 3.04235271823212 7.89300594059406  2.61945060240964 7.54547251868054  2.61945060240964 7.11676831683168  C 2.61945060240964 6.68806411498283  3.04235271823212 6.34053069306931  3.56402891566265 6.34053069306931  C 4.08570511309318 6.34053069306931  4.50860722891566 6.68806411498283  4.50860722891566 7.11676831683168  C 4.50860722891566 7.54547251868054  4.08570511309318 7.89300594059406  3.56402891566265 7.89300594059406  Z M 6.03180722891566 10.1826851485148  C 6.03180722891566 9.753980946666  6.45470934473814 9.40644752475247  6.97638554216867 9.40644752475247  C 7.49806173959921 9.40644752475247  7.92096385542169 9.753980946666  7.92096385542169 10.1826851485148  C 7.92096385542169 10.6113893503637  7.49806173959921 10.9589227722772  6.97638554216867 10.9589227722772  C 6.45470934473814 10.9589227722772  6.03180722891566 10.6113893503637  6.03180722891566 10.1826851485148  Z M 6.03396626506024 7.11676831683168  L 6.03180722891566 7.11676831683168  C 6.03180722891566 6.68806411498283  6.45470934473814 6.34053069306931  6.97638554216867 6.34053069306931  C 7.49806173959921 6.34053069306931  7.92096385542169 6.68806411498283  7.92096385542169 7.11676831683168  C 7.92096385542169 7.54547251868054  7.49806173959921 7.89300594059406  6.97638554216867 7.89300594059406  C 6.45555269949687 7.89202762684463  6.03396490451198 7.54478058284275  6.03396626506024 7.11676831683168  Z M 9.44740240963855 10.1826851485148  L 9.44524337349397 10.1826851485148  C 9.44524337349397 9.753980946666  9.86814548931645 9.40644752475247  10.389821686747 9.40644752475247  C 10.9114978841775 9.40644752475247  11.3344 9.753980946666  11.3344 10.1826851485148  C 11.3344 10.6113893503637  10.9114978841775 10.9589227722772  10.389821686747 10.9589227722772  C 9.86898884407518 10.9579444585278  9.44740104909029 10.6106974145259  9.44740240963855 10.1826851485148  Z M 10.3919807228916 7.89300594059406  L 10.389821686747 7.89300594059406  C 9.86814548931645 7.89300594059406  9.44524337349397 7.54547251868054  9.44524337349397 7.11676831683168  C 9.44524337349397 6.68806411498283  9.86814548931645 6.34053069306931  10.389821686747 6.34053069306931  C 10.9114978841775 6.34053069306931  11.3344 6.68806411498283  11.3344 7.11676831683168  C 11.3344013605483 7.54478058284275  10.9128135655634 7.89202762684463  10.3919807228916 7.89300594059406  Z M 12.5898795180723 1.66713663366337  L 12.5898795180723 3.68712871287129  L 1.36289156626506 3.68712871287129  L 1.36289156626506 1.66713663366337  C 1.36289156626506 1.37316803810987  1.65288158854333 1.13485940594059  2.01060240963855 1.13485940594059  L 11.9421686746988 1.13485940594059  C 12.299889495794 1.13485940594059  12.5898795180723 1.37316803810987  12.5898795180723 1.66713663366337  Z " fill-rule="nonzero" fill="#d7d7d7" stroke="none" transform="matrix(1 0 0 1 923 548 )" />
    <path d="M 13.8853012048193 1.66713663366337  C 13.8853012048193 0.78523084700287  13.0153311379845 0.0703049504950496  11.9421686746988 0.0703049504950494  L 2.01060240963855 0.0703049504950494  C 0.937439946352888 0.0703049504950494  0.0674698795180727 0.785230847002867  0.0674698795180727 1.66713663366337  L 0.0674698795180727 12.3925227722772  C 0.0674698795180727 13.2744285589377  0.937439946352888 13.9893544554455  2.01060240963855 13.9893544554455  L 11.9421686746988 13.9893544554455  C 13.0153311379845 13.9893544554455  13.8853012048193 13.2744285589377  13.8853012048193 12.3925227722772  L 13.8853012048193 1.66713663366337  Z " stroke-width="2" stroke="#d7d7d7" fill="none" transform="matrix(1 0 0 1 923 548 )" mask="url(#clip605)" />
    <path d="M 2.61945060240964 10.1826851485148  C 2.61945060240964 9.753980946666  3.04235271823212 9.40644752475247  3.56402891566265 9.40644752475247  C 4.08570511309318 9.40644752475247  4.50860722891566 9.753980946666  4.50860722891566 10.1826851485148  C 4.50860722891566 10.6113893503637  4.08570511309318 10.9589227722772  3.56402891566265 10.9589227722772  C 3.04235271823212 10.9589227722772  2.61945060240964 10.6113893503637  2.61945060240964 10.1826851485148  C 2.61945060240964 10.4414310231023  2.61945060240964 9.92393927392739  2.61945060240964 10.1826851485148  Z " stroke-width="2" stroke="#d7d7d7" fill="none" transform="matrix(1 0 0 1 923 548 )" mask="url(#clip605)" />
    <path d="M 3.56402891566265 7.89300594059406  C 3.04235271823212 7.89300594059406  2.61945060240964 7.54547251868054  2.61945060240964 7.11676831683168  C 2.61945060240964 6.68806411498283  3.04235271823212 6.34053069306931  3.56402891566265 6.34053069306931  C 4.08570511309318 6.34053069306931  4.50860722891566 6.68806411498283  4.50860722891566 7.11676831683168  C 4.50860722891566 7.54547251868054  4.08570511309318 7.89300594059406  3.56402891566265 7.89300594059406  Z " stroke-width="2" stroke="#d7d7d7" fill="none" transform="matrix(1 0 0 1 923 548 )" mask="url(#clip605)" />
    <path d="M 6.03180722891566 10.1826851485148  C 6.03180722891566 9.753980946666  6.45470934473814 9.40644752475247  6.97638554216867 9.40644752475247  C 7.49806173959921 9.40644752475247  7.92096385542169 9.753980946666  7.92096385542169 10.1826851485148  C 7.92096385542169 10.6113893503637  7.49806173959921 10.9589227722772  6.97638554216867 10.9589227722772  C 6.45470934473814 10.9589227722772  6.03180722891566 10.6113893503637  6.03180722891566 10.1826851485148  Z " stroke-width="2" stroke="#d7d7d7" fill="none" transform="matrix(1 0 0 1 923 548 )" mask="url(#clip605)" />
    <path d="M 6.03396626506024 7.11676831683168  L 6.03180722891566 7.11676831683168  C 6.03180722891566 6.68806411498283  6.45470934473814 6.34053069306931  6.97638554216867 6.34053069306931  C 7.49806173959921 6.34053069306931  7.92096385542169 6.68806411498283  7.92096385542169 7.11676831683168  C 7.92096385542169 7.54547251868054  7.49806173959921 7.89300594059406  6.97638554216867 7.89300594059406  C 6.45555269949687 7.89202762684463  6.03396490451198 7.54478058284275  6.03396626506024 7.11676831683168  Z " stroke-width="2" stroke="#d7d7d7" fill="none" transform="matrix(1 0 0 1 923 548 )" mask="url(#clip605)" />
    <path d="M 9.44740240963855 10.1826851485148  L 9.44524337349397 10.1826851485148  C 9.44524337349397 9.753980946666  9.86814548931645 9.40644752475247  10.389821686747 9.40644752475247  C 10.9114978841775 9.40644752475247  11.3344 9.753980946666  11.3344 10.1826851485148  C 11.3344 10.6113893503637  10.9114978841775 10.9589227722772  10.389821686747 10.9589227722772  C 9.86898884407518 10.9579444585278  9.44740104909029 10.6106974145259  9.44740240963855 10.1826851485148  Z " stroke-width="2" stroke="#d7d7d7" fill="none" transform="matrix(1 0 0 1 923 548 )" mask="url(#clip605)" />
    <path d="M 10.3919807228916 7.89300594059406  L 10.389821686747 7.89300594059406  C 9.86814548931645 7.89300594059406  9.44524337349397 7.54547251868054  9.44524337349397 7.11676831683168  C 9.44524337349397 6.68806411498283  9.86814548931645 6.34053069306931  10.389821686747 6.34053069306931  C 10.9114978841775 6.34053069306931  11.3344 6.68806411498283  11.3344 7.11676831683168  C 11.3344013605483 7.54478058284275  10.9128135655634 7.89202762684463  10.3919807228916 7.89300594059406  Z " stroke-width="2" stroke="#d7d7d7" fill="none" transform="matrix(1 0 0 1 923 548 )" mask="url(#clip605)" />
    <path d="M 12.5898795180723 1.66713663366337  L 12.5898795180723 3.68712871287129  L 1.36289156626506 3.68712871287129  L 1.36289156626506 1.66713663366337  C 1.36289156626506 1.37316803810987  1.65288158854333 1.13485940594059  2.01060240963855 1.13485940594059  L 11.9421686746988 1.13485940594059  C 12.299889495794 1.13485940594059  12.5898795180723 1.37316803810987  12.5898795180723 1.66713663366337  Z " stroke-width="2" stroke="#d7d7d7" fill="none" transform="matrix(1 0 0 1 923 548 )" mask="url(#clip605)" />
  </g>
</svg>