<?xml version="1.0" encoding="utf-8"?>
<svg version="1.1" xmlns:xlink="http://www.w3.org/1999/xlink" width="321px" height="44px" xmlns="http://www.w3.org/2000/svg">
  <defs>
    <mask fill="white" id="clip1004">
      <path d="M 0 40  L 0 4  C 0 1.75999999999999  5.0897297297297 0  11.5675675675676 0  L 309.432432432432 0  C 315.91027027027 0  321 1.75999999999999  321 4  L 321 26  L 321 40  C 321 42.24  315.91027027027 44  309.432432432432 44  L 11.5675675675676 44  C 5.0897297297297 44  0 42.24  0 40  Z " fill-rule="evenodd" />
    </mask>
  </defs>
  <g transform="matrix(1 0 0 1 -1379 -1133 )">
    <path d="M 0 40  L 0 4  C 0 1.75999999999999  5.0897297297297 0  11.5675675675676 0  L 309.432432432432 0  C 315.91027027027 0  321 1.75999999999999  321 4  L 321 26  L 321 40  C 321 42.24  315.91027027027 44  309.432432432432 44  L 11.5675675675676 44  C 5.0897297297297 44  0 42.24  0 40  Z " fill-rule="nonzero" fill="#0099ff" stroke="none" fill-opacity="0.0980392156862745" transform="matrix(1 0 0 1 1379 1133 )" />
    <path d="M 0 40  L 0 4  C 0 1.75999999999999  5.0897297297297 0  11.5675675675676 0  L 309.432432432432 0  C 315.91027027027 0  321 1.75999999999999  321 4  L 321 26  L 321 40  C 321 42.24  315.91027027027 44  309.432432432432 44  L 11.5675675675676 44  C 5.0897297297297 44  0 42.24  0 40  Z " stroke-width="2" stroke="#a7d2f9" fill="none" transform="matrix(1 0 0 1 1379 1133 )" mask="url(#clip1004)" />
  </g>
</svg>