<?xml version="1.0" encoding="utf-8"?>
<svg version="1.1" xmlns:xlink="http://www.w3.org/1999/xlink" width="372px" height="10px" preserveAspectRatio="xMinYMid meet" viewBox="1703 3265  372 8" xmlns="http://www.w3.org/2000/svg">
  <defs>
    <mask fill="white" id="clip889">
      <path d="M 1649.683 2575  L 1766.317 2575  L 1766.317 2605  L 1649.683 2605  Z M 1411 1821  L 2085 1821  L 2085 3279  L 1411 3279  Z " fill-rule="evenodd" />
    </mask>
  </defs>
  <path d="M 1423 1831  L 1703 1831  A 5 5 0 0 1 1708 1836 L 1708 3264  A 5 5 0 0 0 1713 3269 L 2073 3269  " stroke-width="2" stroke="#0099cc" fill="none" mask="url(#clip889)" />
  <path d="M 1424.5 1827.5  A 3.5 3.5 0 0 0 1421 1831 A 3.5 3.5 0 0 0 1424.5 1834.5 A 3.5 3.5 0 0 0 1428 1831 A 3.5 3.5 0 0 0 1424.5 1827.5 Z M 2067.89289321881 3264.70710678119  L 2072.18578643763 3269  L 2067.89289321881 3273.29289321881  L 2069.30710678119 3274.70710678119  L 2074.30710678119 3269.70710678119  L 2075.01421356237 3269  L 2074.30710678119 3268.29289321881  L 2069.30710678119 3263.29289321881  L 2067.89289321881 3264.70710678119  Z " fill-rule="nonzero" fill="#0099cc" stroke="none" mask="url(#clip889)" />
</svg>