<?xml version="1.0" encoding="utf-8"?>
<svg version="1.1" xmlns:xlink="http://www.w3.org/1999/xlink" width="14px" height="18px" xmlns="http://www.w3.org/2000/svg">
  <g transform="matrix(1 0 0 1 -1319 -202 )">
    <path d="M 13.75 6.75  C 13.75 11.3070000058594  7.73837499414063 18  7 18  C 6.27325 18  0.25 11.3070000058594  0.25 6.75  C 0.250000055550367 3.02207797792218  3.27207797792219 0  7 0  C 10.7279220613579 0  13.75 3.02207803922498  13.75 6.75000010058284  Z M 10.7499999941406 7.12499999414063  C 10.7499999941406 5.05393218551119  9.07106780862943 3.375  7 3.375  C 4.92893219137057 3.375  3.25000000585938 5.05393218551119  3.25000000585938 7.12499999414063  C 3.25000000585938 9.19606780277006  4.92893219137057 10.8749999882813  7 10.8749999882813  C 9.07106780862943 10.8749999882813  10.7499999941406 9.19606780277006  10.7499999941406 7.12499999414063  Z M 9.25 7.12499999414063  C 9.25 8.36764068125991  8.24264068711928 9.37499999414063  7 9.37499999414063  C 5.75735931288072 9.37499999414063  4.75 8.36764068125991  4.75 7.12499999414063  C 4.75 5.88235930702134  5.75735931288072 4.87499999414063  7 4.87499999414063  C 8.24264068711928 4.87499999414063  9.25 5.88235930702134  9.25 7.12499999414063  Z " fill-rule="nonzero" fill="#000000" stroke="none" transform="matrix(1 0 0 1 1319 202 )" />
  </g>
</svg>