<?xml version="1.0" encoding="utf-8"?>
<svg version="1.1" xmlns:xlink="http://www.w3.org/1999/xlink" width="20px" height="20px" preserveAspectRatio="xMinYMid meet" viewBox="1885 2171  20 18" xmlns="http://www.w3.org/2000/svg">
  <path d="M 2725 426  L 2725 815  A 5 5 0 0 1 2720 820 L 1875 820  A 5 5 0 0 0 1870 825 L 1870 2175  A 5 5 0 0 0 1875 2180 L 1894 2180  " stroke-width="2" stroke="#0099cc" fill="none" />
  <path d="M 2725 424  A 3.5 3.5 0 0 0 2721.5 427.5 A 3.5 3.5 0 0 0 2725 431 A 3.5 3.5 0 0 0 2728.5 427.5 A 3.5 3.5 0 0 0 2725 424 Z M 1893 2187.6  L 1900 2180  L 1893 2172.4  L 1893 2187.6  Z " fill-rule="nonzero" fill="#0099cc" stroke="none" />
</svg>