<?xml version="1.0" encoding="utf-8"?>
<svg version="1.1" xmlns:xlink="http://www.w3.org/1999/xlink" width="20px" height="16px" xmlns="http://www.w3.org/2000/svg">
  <g transform="matrix(1 0 0 1 -1275 -203 )">
    <path d="M 19.375 14.25  C 19.375 14.9403125  18.8153125 15.5  18.125 15.5  L 8.125 15.5  C 7.4346875 15.5  6.875 14.9403125  6.875 14.25  L 6.875 6.75  C 6.875 6.0596875  7.4346875 5.5  8.125 5.5  L 10 5.5  C 10.3453125 5.5  10.625 5.78  10.625 6.125  C 10.625 6.4703125  10.3453125 6.75  10 6.75  L 8.125 6.75  L 8.125 14  L 18.125 14  L 18.125 6.75  L 15 6.75  C 14.6546875 6.75  14.375 6.4703125  14.375 6.125  C 14.375 5.78  14.6546875 5.5  15 5.5  L 18.125 5.5  C 18.8153125 5.5  19.375 6.0596875  19.375 6.75  L 19.375 14.25  Z M 13.125 9.25  C 13.125 9.9403125  12.5653125 10.5  11.875 10.5  L 10 10.5  C 9.655 10.5  9.375 10.2203125  9.375 9.875  C 9.375 9.5296875  9.655 9.25  10 9.25  L 11.875 9.25  L 11.875 2  L 1.875 2  L 1.875 9.25  L 5 9.25  C 5.3453125 9.25  5.625 9.5296875  5.625 9.875  C 5.625 10.2203125  5.3453125 10.5  5 10.5  L 1.875 10.5  C 1.1846875 10.5  0.625 9.9403125  0.625 9.25  L 0.625 1.75  C 0.625 1.0596875  1.1846875 0.5  1.875 0.5  L 11.875 0.5  C 12.5653125 0.5  13.125 1.0596875  13.125 1.75  L 13.125 9.25  Z " fill-rule="nonzero" fill="#000000" stroke="none" transform="matrix(1 0 0 1 1275 203 )" />
  </g>
</svg>