<?xml version="1.0" encoding="utf-8"?>
<svg version="1.1" xmlns:xlink="http://www.w3.org/1999/xlink" width="10px" height="15px" preserveAspectRatio="xMidYMin meet" viewBox="2586 815  8 15" xmlns="http://www.w3.org/2000/svg">
  <path d="M 2797 426  L 2797 815  A 5 5 0 0 1 2792 820 L 2595 820  A 5 5 0 0 0 2590 825 " stroke-width="2" stroke="#0099cc" fill="none" />
  <path d="M 2797 424  A 3.5 3.5 0 0 0 2793.5 427.5 A 3.5 3.5 0 0 0 2797 431 A 3.5 3.5 0 0 0 2800.5 427.5 A 3.5 3.5 0 0 0 2797 424 Z M 2582.4 823  L 2590 830  L 2597.6 823  L 2582.4 823  Z " fill-rule="nonzero" fill="#0099cc" stroke="none" />
</svg>