<?xml version="1.0" encoding="utf-8"?>
<svg version="1.1" xmlns:xlink="http://www.w3.org/1999/xlink" width="22px" height="14px" xmlns="http://www.w3.org/2000/svg">
  <g transform="matrix(1 0 0 1 -3798 -2947 )">
    <path d="M 13.1109743632768 11.790103679096  C 13.1109743632768 12.8469331711864  12.3183522666667 13.6395552977401  11.3495918564972 13.6395552977401  L 8.70751805141243 13.6395552977401  C 7.73875767118644 13.6395552977401  6.94613554463277 12.8469331711864  6.94613554463277 11.790103679096  L 6.94613554463277 2.10249978700565  C 6.94613554463277 1.13373940677966  7.73875767118644 0.429186392090394  8.70751805141243 0.429186392090394  L 11.3495918564972 0.429186392090394  C 12.3183522666667 0.429186392090394  13.1109743632768 1.22180851864407  13.1109743632768 2.10249978700565  L 13.1109743632768 3.95195140564972  L 11.3495918564972 3.95195140564972  L 11.3495918564972 2.10249978700565  L 8.70751805141243 2.19056889887005  L 8.70751805141243 5.8894721960452  C 9.05979452881356 5.80140311412429  9.4120710661017 5.71333394237288  9.76434754350283 5.71333394237288  L 11.3495918564972 5.71333394237288  C 12.3183522666667 5.71333394237288  13.1109743632768 6.50595606892655  13.1109743632768 7.38664733728813  L 13.1109743632768 11.790103679096  Z M 9.76434754350283 7.47471644915254  C 9.4120710661017 7.47471644915254  8.97172541694915 7.56278556101695  8.70751805141243 7.82699298644068  L 8.70751805141243 11.790103679096  L 11.3495918564972 11.8781727610169  L 11.3495918564972 7.38664733728813  L 9.76434754350283 7.47471644915254  Z M 21.9178870169492 10.9974815525424  C 21.9178870169492 12.4946566937853  20.7729882033898 13.6395553576271  19.2758130621469 13.6395552977401  L 17.5144308248588 13.6395552977401  C 16.0172556836158 13.6395552977401  14.8723568700565 12.4946566338983  14.8723568700565 10.9974815525424  L 14.8723568700565 3.07126019717514  C 14.8723568700565 1.5740850559322  16.0172556836158 0.429186392090394  17.5144308248588 0.429186392090394  L 19.2758130621469 0.429186392090394  C 20.7729882033898 0.429186392090394  21.9178870169492 1.5740850559322  21.9178870169492 3.07126019717514  L 21.9178870169492 10.9974815525424  Z M 19.2758130621469 2.19056889887005  L 17.5144308248588 2.19056889887005  C 16.9860160338983 2.19056889887005  16.6337394067797 2.54284537627118  16.6337394067797 3.07126019717514  L 16.6337394067797 10.9974815525424  C 16.6337394067797 11.5258962836158  16.9860160338983 11.878172820904  17.5144308248588 11.8781727610169  L 19.2758130621469 11.8781727610169  C 19.8042278531073 11.8781727610169  20.156504480226 11.5258962836158  20.156504480226 10.9974815525424  L 20.156504480226 3.07126019717514  C 20.156504480226 2.54284543615819  19.8042278531073 2.19056889887005  19.2758130621469 2.19056889887005  Z M 0.781296696045199 7.47471644915254  L 0.781296696045199 5.71333394237288  L 4.30406179943503 5.71333394237288  L 4.30406179943503 7.47471644915254  L 0.781296696045199 7.47471644915254  Z " fill-rule="nonzero" fill="#ffffff" stroke="none" transform="matrix(1 0 0 1 3798 2947 )" />
  </g>
</svg>