<?xml version="1.0" encoding="utf-8"?>
<svg version="1.1" xmlns:xlink="http://www.w3.org/1999/xlink" width="53px" height="26px" xmlns="http://www.w3.org/2000/svg">
  <g transform="matrix(1 0 0 1 -3782 -2947 )">
    <path d="M 21.1847530378531 11.790103679096  C 21.1847530378531 12.8469331711864  20.3921309112994 13.6395552977401  19.4233705011299 13.6395552977401  L 16.7812966960452 13.6395552977401  C 15.8125363158192 13.6395552977401  15.0199141892655 12.8469331711864  15.0199141892655 11.790103679096  L 15.0199141892655 10.9974815525424  L 16.7812966960452 10.9974815525424  L 16.7812966960452 11.790103679096  L 19.4233705011299 11.8781727610169  L 19.4233705011299 2.10249978700565  L 16.7812966960452 2.19056889887005  L 16.7812966960452 3.07126019717514  L 15.0199141892655 3.07126019717514  L 15.0199141892655 2.10249978700565  C 15.0199141892655 1.13373940677966  15.8125363158192 0.429186392090393  16.7812966960452 0.429186392090393  L 19.4233705011299 0.429186392090393  C 20.3921309112994 0.429186392090393  21.1847530378531 1.22180851864407  21.1847530378531 2.10249978700565  L 21.1847530378531 11.790103679096  Z M 42.4974816723164 17.9549424378531  L 41 18.2191498033898  L 41 3.59967492824859  L 42.4974816723164 3.86388232372881  C 49.1907351920904 5.53719571864407  52.8896384293785 8.0031312700565  52.8896384293785 10.909412380791  C 52.8896384293785 13.8156934915254  49.1907351920904 16.3696981847458  42.4974816723164 17.9549424378531  Z M 51.1282558926554 10.8213432689266  C 51.1282558926554 8.97189165028249  48.1339056101695 7.21050914350282  43 5.80140311412429  L 43 15.9293525355932  C 48.1339056101695 14.6083156779661  51.1282558926554 12.6707948875706  51.1282558926554 10.8213432689266  Z M 12 3.59967492824859  L 12 18.2191498033898  L 10.4403196536723 17.9549424378531  C 3.7470660740113 16.2816290429379  0.0481627792316384 13.8156934915254  0.0481627792316384 10.909412380791  C 0.0481627792316384 8.0031312700565  3.7470660740113 5.44912654689265  10.4403196536723 3.86388232372881  L 12 3.59967492824859  Z M 10 16.0174217073446  L 10 5.80140311412429  C 4.8038955661017 7.12243997175141  1.80954529559322 9.05996076214689  1.80954529559322 10.909412380791  C 1.80954529559322 12.758863999435  4.8038955661017 14.6083156779661  10 16.0174217073446  Z M 35.2758130621469 25.0885416666667  L 35.2758130621469 23.3271591299435  L 37.0371955988701 23.3271591299435  L 37.0371955988701 25.0885416666667  L 35.2758130621469 25.0885416666667  Z " fill-rule="nonzero" fill="#ffffff" stroke="none" transform="matrix(1 0 0 1 3782 2947 )" />
  </g>
</svg>