<?xml version="1.0" encoding="utf-8"?>
<svg version="1.1" xmlns:xlink="http://www.w3.org/1999/xlink" width="53px" height="33px" xmlns="http://www.w3.org/2000/svg">
  <g transform="matrix(1 0 0 1 -3782 -2957 )">
    <path d="M 52 23.8954543502825  C 52.8896384293785 29.619947519774  39.2389236949153 32.7023667344633  26.4689005581921 32.7023667344633  C 13.6988773316384 32.7023667344633  0.0481627792316384 29.619947519774  0 23.8954543502825  L 0 0.997481552542371  L 1.80954529559322 0.997481552542371  C 1.80954529559322 4.34410831242938  11.9374947949153 8.04301160960452  26.4689005581921 8.04301160960452  C 41.0003062316384 8.04301160960452  51.1282558926554 4.34410831242938  51.1282558926554 0.997481552542371  L 52 0.997481552542371  L 52 23.8954543502825  Z M 26.4689005581921 9.80439411638418  C 16.4290202186441 9.80439411638418  5.86072508813559 7.8668733259887  2 4.34410831242938  L 2 23.8954543502825  C 1.80954529559322 27.242080960452  11.9374947949153 30.9409841977401  26.4689005581921 30.9409844971751  C 41.0003062316384 30.9409844971751  51.1282558926554 27.242080960452  51 23.8954543502825  L 51 4.34410831242938  C 47.0770760282486 7.95494243785311  36.5087808079096 9.80439411638418  26.4689005581921 9.80439411638418  Z " fill-rule="nonzero" fill="#ffffff" stroke="none" transform="matrix(1 0 0 1 3782 2957 )" />
  </g>
</svg>