<?xml version="1.0" encoding="utf-8"?>
<svg version="1.1" xmlns:xlink="http://www.w3.org/1999/xlink" width="8px" height="8px" xmlns="http://www.w3.org/2000/svg">
  <g transform="matrix(1 0 0 1 -3812 -2968 )">
    <path d="M 7.91788701694915 4.08854166666666  C 7.91788701694915 6.02606236723164  6.3326426440678 7.61130674011299  4.39512194350282 7.61130674011299  C 2.45760124293786 7.61130674011299  0.8723568700565 6.02606236723164  0.8723568700565 4.08854166666666  C 0.8723568700565 2.15102096610169  2.45760124293786 0.565776623163842  4.39512194350282 0.565776623163842  C 6.3326426440678 0.565776623163842  7.91788701694915 2.15102096610169  7.91788701694915 4.08854166666666  Z M 6.15650448022599 4.08854166666666  C 6.15650448022599 3.11978131638418  5.36388229378532 2.3271591299435  4.39512194350282 2.3271591299435  C 3.42636159322034 2.3271591299435  2.63373940677966 3.11978131638418  2.63373940677966 4.08854166666666  C 2.63373940677966 5.05730201694915  3.42636159322034 5.84992420338983  4.39512194350282 5.84992420338983  C 5.36388229378532 5.84992420338983  6.15650448022599 5.05730201694915  6.15650448022599 4.08854166666666  Z " fill-rule="nonzero" fill="#ffffff" stroke="none" transform="matrix(1 0 0 1 3812 2968 )" />
  </g>
</svg>