<?xml version="1.0" encoding="utf-8"?>
<svg version="1.1" xmlns:xlink="http://www.w3.org/1999/xlink" width="50px" height="13px" xmlns="http://www.w3.org/2000/svg">
  <g transform="matrix(1 0 0 1 -3783 -2966 )">
    <path d="M 49.7759792655367 11.2846200451977  L 48.7191496836158 12.6937259548023  C 47.1339056101695 11.4607582090395  44.4918316553672 10.3158596949153  41.1452050451977 9.52323750847458  L 40.4406520903955 9.34709934463277  L 40.4406520903955 0.804394116384181  L 42.2020346271186 0.804394116384181  L 42.2020346271186 7.93799343502825  C 45.5486612372881 8.81868455367232  48.102665960452 9.96358306779661  49.7759792655367 11.2846200451977  Z M 9.79259613107345 9.52323750847458  C 6.26983111751412 10.4039289265537  3.45161908870057 11.548827440678  1.95444395644068 12.8698644180791  L 0.80954529559322 11.548827440678  C 2.48285870847458 10.1397215310734  5.21300162542373 8.90675378531073  8.73576663898305 7.93799343502825  L 8.73576663898305 0.804394116384181  L 10.4971491457627 0.804394116384181  L 10.4971491457627 9.34709934463277  L 9.79259613107345 9.52323750847458  Z " fill-rule="nonzero" fill="#ffffff" stroke="none" transform="matrix(1 0 0 1 3783 2966 )" />
  </g>
</svg>