<?xml version="1.0" encoding="utf-8"?>
<svg version="1.1" xmlns:xlink="http://www.w3.org/1999/xlink" width="13px" height="13px" xmlns="http://www.w3.org/2000/svg">
  <g transform="matrix(1 0 0 1 -1291 -287 )">
    <path d="M 0.739445121974831 3.53162433591481  C 0.739445121974831 3.53162433591481  1.86822422362052 1.79016990803485  3.65400658760891 0.856117076476283  C 5.43978895159729 -0.0787273204259439  7.64035409777347 0.190406545014521  9.08417814424008 1.09675441335915  C 10.5272106127783 2.00310229428848  11.0132347163601 2.76696753242982  11.0132347163601 2.76696753242982  L 12.2559999196515 2.05930377347531  C 12.2559999196515 2.05930377347531  12.5132602294288 1.93265253823814  12.5132602420136 2.22949136689255  L 12.5132602420136 6.67653272604066  C 12.5132602420136 6.67653272604066  12.5132602420136 7.0723178267183  12.2124635614714 6.93141833978703  C 11.9607442342691 6.81268280832527  9.23061862633108 5.25962207744434  8.37018182478219 4.77043169990319  C 7.89761442013553 4.55908245692159  8.31318876766699 4.3881032981607  8.31318876766699 4.38810328557599  L 9.51241762536302 3.7026034946757  C 9.51241762536302 3.7026034946757  8.82850097773475 2.84533296708616  7.82637309874153 2.39176325653437  C 6.75458705421104 1.83291470087125  5.75087604453049 1.76642279670861  4.52156752758954 2.23107449757986  C 3.72049849177154 2.53345430880929  2.77615524782188 3.30760997192643  2.09619643949661 4.4530120464666  L 0.740236699903195 3.53162433591481  Z M 10.5272106127783 8.48843690997096  L 11.8847535082285 9.40903305517909  C 11.8847535082285 9.40903305517909  10.7559744065828 11.1504874830591  8.96940046466602 12.0861234578896  C 7.18361810067764 13.0201762894482  4.98305295450145 12.7510424240077  3.53922890803485 11.8446945430784  C 2.09619643949661 10.9383466621491  1.61096390125847 10.1744814240077  1.61096391384318 10.1744814365924  L 0.368198697967086 10.8821451829622  C 0.368198697967086 10.8821451829622  0.110146810261375 11.0087964181994  0.110146822846079 10.7119576021297  L 0.110146822846079 6.26570779574056  C 0.110146822846079 6.26570779574056  0.110146822846079 5.86913112971926  0.410943490803485 6.0108221945789  C 0.662662818005808 6.12955772604066  3.39278842594385 7.68182687899322  4.25322522749274 8.17180883446273  C 4.7257926321394 8.38236651210068  4.3110098499516 8.55334567086157  4.3110098499516 8.55334567086157  L 3.11098943949661 9.23963702710552  C 3.11098943949661 9.23963702710552  3.79569766505324 10.0961159767667  4.7970339535334 10.5504772778316  C 5.86881999806389 11.108534268151  6.87253100774443 11.1750261597289  8.10183952468538 10.7103744588577  C 8.90370013843175 10.4079946476283  9.84725180445305 9.63383898451113  10.5272106127783 8.48843690997096  Z " fill-rule="nonzero" fill="#000000" stroke="none" transform="matrix(1 0 0 1 1291 287 )" />
  </g>
</svg>