<?xml version="1.0" encoding="utf-8"?>
<svg version="1.1" xmlns:xlink="http://www.w3.org/1999/xlink" width="10px" height="15px" preserveAspectRatio="xMidYMin meet" viewBox="3046 375  8 15" xmlns="http://www.w3.org/2000/svg">
  <path d="M 2032 196  L 2415 196  A 5 5 0 0 1 2420 201 L 2420 375  A 5 5 0 0 0 2425 380 L 3045 380  A 5 5 0 0 1 3050 385 " stroke-width="2" stroke="#0099cc" fill="none" />
  <path d="M 2033.5 192.5  A 3.5 3.5 0 0 0 2030 196 A 3.5 3.5 0 0 0 2033.5 199.5 A 3.5 3.5 0 0 0 2037 196 A 3.5 3.5 0 0 0 2033.5 192.5 Z M 3042.4 383  L 3050 390  L 3057.6 383  L 3042.4 383  Z " fill-rule="nonzero" fill="#0099cc" stroke="none" />
</svg>