<?xml version="1.0" encoding="utf-8"?>
<svg version="1.1" xmlns:xlink="http://www.w3.org/1999/xlink" width="12px" height="13px" xmlns="http://www.w3.org/2000/svg">
  <g transform="matrix(1 0 0 1 -4073 -328 )">
    <path d="M 2.18181818181818 9.45454545454546  L 3.27272727272727 9.45454545454546  L 3.27272727272727 10.6363636363636  L 2.18181818181818 10.6363636363636  L 2.18181818181818 9.45454545454546  Z M 2.18181818181818 2.36363636363636  L 3.27272727272727 2.36363636363636  L 3.27272727272727 3.54545454545454  L 2.18181818181818 3.54545454545454  L 2.18181818181818 2.36363636363636  Z M 8.72727272727273 2.36363636363636  L 9.81818181818182 2.36363636363636  L 9.81818181818182 3.54545454545454  L 8.72727272727273 3.54545454545454  L 8.72727272727273 2.36363636363636  Z M 1.09090909090909 8.27272727272727  L 1.09090909090909 11.8089488636364  L 4.36363636363636 11.8089488636364  L 4.36363636363636 8.27272727272727  L 1.09090909090909 8.27272727272727  Z M 1.09090909090909 1.18181818181818  L 1.09090909090909 4.72727272727273  L 4.36363636363636 4.72727272727273  L 4.36363636363636 1.18181818181818  L 1.09090909090909 1.18181818181818  Z M 7.63636363636364 1.18181818181818  L 7.63636363636364 4.72727272727273  L 10.9090909090909 4.72727272727273  L 10.9090909090909 1.18181818181818  L 7.63636363636364 1.18181818181818  Z M 0 7.09090909090909  L 5.45454545454545 7.09090909090909  L 5.45454545454545 13  L 0 13  L 0 7.09090909090909  Z M 8.72727272727273 11.8181818181818  L 9.81818181818182 11.8181818181818  L 9.81818181818182 13  L 8.72727272727273 13  L 8.72727272727273 11.8181818181818  Z M 10.9090909090909 11.8181818181818  L 12 11.8181818181818  L 12 13  L 10.9090909090909 13  L 10.9090909090909 11.8181818181818  Z M 10.9090909090909 7.09090909090909  L 12 7.09090909090909  L 12 10.6363636363636  L 8.72727272727273 10.6363636363636  L 8.72727272727273 9.45454545454546  L 7.63636363636364 9.45454545454546  L 7.63636363636364 13  L 6.54545454545454 13  L 6.54545454545454 7.09090909090909  L 9.81818181818182 7.09090909090909  L 9.81818181818182 8.27272727272727  L 10.9090909090909 8.27272727272727  L 10.9090909090909 7.09090909090909  Z M 0 0  L 5.45454545454545 0  L 5.45454545454545 5.90909090909091  L 0 5.90909090909091  L 0 0  Z M 6.54545454545454 0  L 12 0  L 12 5.90909090909091  L 6.54545454545454 5.90909090909091  L 6.54545454545454 0  Z " fill-rule="nonzero" fill="#ffffff" stroke="none" transform="matrix(1 0 0 1 4073 328 )" />
  </g>
</svg>