<?xml version="1.0" encoding="utf-8"?>
<svg version="1.1" xmlns:xlink="http://www.w3.org/1999/xlink" width="10px" height="1757px" preserveAspectRatio="xMidYMin meet" viewBox="1236 341  8 1757" xmlns="http://www.w3.org/2000/svg">
  <path d="M 1258 346  L 1245 346  A 5 5 0 0 0 1240 351 L 1240 2088  A 5 5 0 0 0 1245 2093 L 1755 2093  " stroke-width="2" stroke="#0099cc" fill="none" />
  <path d="M 1256.5 342.5  A 3.5 3.5 0 0 0 1253 346 A 3.5 3.5 0 0 0 1256.5 349.5 A 3.5 3.5 0 0 0 1260 346 A 3.5 3.5 0 0 0 1256.5 342.5 Z M 1754 2100.6  L 1761 2093  L 1754 2085.4  L 1754 2100.6  Z " fill-rule="nonzero" fill="#0099cc" stroke="none" />
</svg>