<?xml version="1.0" encoding="utf-8"?>
<svg version="1.1" xmlns:xlink="http://www.w3.org/1999/xlink" width="10px" height="351px" preserveAspectRatio="xMidYMin meet" viewBox="4416 105  8 351" xmlns="http://www.w3.org/2000/svg">
  <path d="M 4382 110  L 4415 110  A 5 5 0 0 1 4420 115 L 4420 446  A 5 5 0 0 0 4425 451 L 5063 451  " stroke-width="2" stroke="#0099cc" fill="none" />
  <path d="M 4383.5 106.5  A 3.5 3.5 0 0 0 4380 110 A 3.5 3.5 0 0 0 4383.5 113.5 A 3.5 3.5 0 0 0 4387 110 A 3.5 3.5 0 0 0 4383.5 106.5 Z M 5062 458.6  L 5069 451  L 5062 443.4  L 5062 458.6  Z " fill-rule="nonzero" fill="#0099cc" stroke="none" />
</svg>