<?xml version="1.0" encoding="utf-8"?>
<svg version="1.1" xmlns:xlink="http://www.w3.org/1999/xlink" width="21px" height="20px" preserveAspectRatio="xMinYMid meet" viewBox="2051 225  21 18" xmlns="http://www.w3.org/2000/svg">
  <path d="M 2060 234  L 2417 234  A 3 3 0 0 1 2420 231 A 3 3 0 0 1 2423 234 L 3005 234  A 5 5 0 0 1 3010 239 L 3010 377  A 3 3 0 0 1 3013 380 A 3 3 0 0 1 3010 383 L 3010 1215  A 5 5 0 0 0 3015 1220 L 3054 1220  " stroke-width="2" stroke="#0099cc" fill="none" />
  <path d="M 2061.5 230.5  A 3.5 3.5 0 0 0 2058 234 A 3.5 3.5 0 0 0 2061.5 237.5 A 3.5 3.5 0 0 0 2065 234 A 3.5 3.5 0 0 0 2061.5 230.5 Z M 3053 1227.6  L 3060 1220  L 3053 1212.4  L 3053 1227.6  Z " fill-rule="nonzero" fill="#0099cc" stroke="none" />
</svg>