<?xml version="1.0" encoding="utf-8"?>
<svg version="1.1" xmlns:xlink="http://www.w3.org/1999/xlink" width="21px" height="17px" xmlns="http://www.w3.org/2000/svg">
  <g transform="matrix(1 0 0 1 -3784 -690 )">
    <path d="M 12.08841015625 6.52190625  L 3.1573125 6.52190625  L 7.49436328125 2.24325  C 7.876505859375 1.861107421875  7.876505859375 1.315447265625  7.49436328125 0.933283203125  C 7.112220703125 0.551119140625  6.601580078125 0.53279296875  6.21776171875 0.916568359375  L 0.350443359375 6.648685546875  C -0.03169921875 7.030828125  -0.03169921875 7.5381171875  0.350443359375 7.920259765625  L 6.21939453125 13.65905859375  C 6.601537109375 14.041201171875  7.112177734375 14.041201171875  7.49599609375 13.6573828125  C 7.878138671875 13.275240234375  7.878138671875 12.77295703125  7.49599609375 12.390814453125  L 3.15726953125 8.19059765625  L 12.0883671875 8.19059765625  C 15.659478515625 8.19059765625  18.773337890625 10.97737890625  18.773337890625 14.421689453125  L 18.773337890625 15.31447265625  C 18.773337890625 15.825134765625  19.0970859375 16.207255859375  19.607705078125 16.207255859375  C 20.11832421875 16.207255859375  20.442072265625 15.82511328125  20.442072265625 15.31447265625  L 20.442072265625 14.421689453125  C 20.442072265625 9.956119140625  16.68073828125 6.521884765625  12.088345703125 6.521884765625  Z " fill-rule="nonzero" fill="#ffffff" stroke="none" transform="matrix(1 0 0 1 3784 690 )" />
  </g>
</svg>