<?xml version="1.0" encoding="utf-8"?>
<svg version="1.1" xmlns:xlink="http://www.w3.org/1999/xlink" width="22px" height="17px" xmlns="http://www.w3.org/2000/svg">
  <g transform="matrix(1 0 0 1 -3814 -689 )">
    <path d="M 0.320031250000002 14.866490234375  C 0.320031250000002 10.1032109375  3.954779296875 6.4400390625  8.853302734375 6.4400390625  L 18.379796875 6.4400390625  L 13.753609375 1.876134765625  C 13.345986328125 1.46851171875  13.345986328125 0.886478515625  13.753609375 0.478833984375  C 14.161232421875 0.0711894531250001  14.705904296875 0.0516386718750002  15.115310546875 0.461001953125  L 21.37553515625 6.57526171875  C 21.783158203125 6.982884765625  21.783158203125 7.523990234375  21.37553515625 7.93161328125  L 15.115310546875 14.053005859375  C 14.7076875 14.46062890625  14.163015625 14.46062890625  13.753609375 14.05122265625  C 13.345986328125 13.643599609375  13.345986328125 13.10784375  13.753609375 12.700220703125  L 18.379796875 8.219998046875  L 8.853302734375 8.219998046875  C 5.044123046875 8.219998046875  2.10001171875 11.1925546875  2.10001171875 14.866490234375  L 2.10001171875 15.81878515625  C 2.10001171875 16.3635  1.754671875 16.771080078125  1.210021484375 16.771080078125  C 0.665371093750002 16.771080078125  0.320031250000002 16.36345703125  0.320031250000002 15.81878515625  L 0.320031250000002 14.866490234375  Z " fill-rule="nonzero" fill="#ffffff" stroke="none" transform="matrix(1 0 0 1 3814 689 )" />
  </g>
</svg>