<?xml version="1.0" encoding="utf-8"?>
<svg version="1.1" xmlns:xlink="http://www.w3.org/1999/xlink" width="14px" height="14px" xmlns="http://www.w3.org/2000/svg">
  <g transform="matrix(1 0 0 1 -3953 -691 )">
    <path d="M 13.07517421875 6.9878484375  C 13.07517421875 3.633910546875  10.3464197265625 0.9051423828125  6.9924544921875 0.9051423828125  C 3.6385302734375 0.9051423828125  0.909762109375 3.633910546875  0.909762109375 6.9878484375  C 0.909762109375 10.3418  3.6385302734375 13.0705544921875  6.9924681640625 13.0705544921875  C 10.3464197265625 13.0705544921875  13.07517421875 10.3418  13.07517421875 6.9878484375  Z M 12.314834765625 6.9878484375  C 12.3148333984375 9.9226681640625  9.927260546875 12.3102  6.9924544921875 12.3102  C 4.057662109375 12.3102  1.6701015625 9.9226681640625  1.6701015625 6.9878484375  C 1.6701015625 4.0530423828125  4.057662109375 1.6654818359375  6.9924544921875 1.6654818359375  C 9.927260546875 1.6654818359375  12.314834765625 4.0530423828125  12.314834765625 6.9878484375  Z M 9.6536425234375 6.9878479453125  C 9.6536576171875 6.7777076171875  9.48362734375 6.60767734375  9.27347421875 6.60767734375  L 7.372652 6.60767734375  L 7.372652 4.706828  C 7.372652 4.49670221875  7.2026080546875 4.3266719453125  6.9924686015625 4.3266719453125  C 6.7823291484375 4.3266719453125  6.612298875 4.496715890625  6.612298875 4.706828  L 6.612298875 6.607678  L 4.711476 6.607678  C 4.5013078359375 6.607678  4.3312926015625 6.7777219453125  4.3312926015625 6.9878477265625  C 4.3312926015625 7.1975961640625  4.501322875 7.36800378125  4.711476 7.36800378125  L 6.612284 7.36800378125  L 6.612284 9.26885378125  C 6.612284 9.47860221875  6.7823279453125 9.6490098359375  6.9924537265625 9.6490098359375  C 7.20260821875 9.6490098359375  7.372637125 9.47860221875  7.372637125 9.26885378125  L 7.372637125 7.368004  L 9.273459125 7.368004  C 9.4836136171875 7.368004  9.6536425234375 7.1975963828125  9.6536425234375 6.9878479453125  Z " fill-rule="nonzero" fill="#ffffff" stroke="none" transform="matrix(1 0 0 1 3953 691 )" />
  </g>
</svg>