<?xml version="1.0" encoding="utf-8"?>
<svg version="1.1" xmlns:xlink="http://www.w3.org/1999/xlink" width="10px" height="300px" preserveAspectRatio="xMidYMin meet" viewBox="3226 2653  8 300" xmlns="http://www.w3.org/2000/svg">
  <path d="M 3085 2658  L 3225 2658  A 5 5 0 0 1 3230 2663 L 3230 2943  A 5 5 0 0 0 3235 2948 L 3323 2948  " stroke-width="2" stroke="#0099cc" fill="none" />
  <path d="M 3086.5 2654.5  A 3.5 3.5 0 0 0 3083 2658 A 3.5 3.5 0 0 0 3086.5 2661.5 A 3.5 3.5 0 0 0 3090 2658 A 3.5 3.5 0 0 0 3086.5 2654.5 Z M 3322 2955.6  L 3329 2948  L 3322 2940.4  L 3322 2955.6  Z " fill-rule="nonzero" fill="#0099cc" stroke="none" />
</svg>