<?xml version="1.0" encoding="utf-8"?>
<svg version="1.1" xmlns:xlink="http://www.w3.org/1999/xlink" width="26px" height="26px" xmlns="http://www.w3.org/2000/svg">
  <g transform="matrix(1 0 0 1 -2958 -2639 )">
    <path d="M 25.2934782608696 13  C 25.2934782608696 6.22117119565217  19.7788288043478 0.706521739130435  13 0.706521739130435  C 6.22117119565217 0.706521739130435  0.706521739130435 6.22117119565217  0.706521739130435 13  C 0.706521739130435 19.7788288043478  6.22117119565217 25.2934782608696  13 25.2934782608696  C 19.7788288043478 25.2934782608696  25.2934782608696 19.7788288043478  25.2934782608696 13  Z M 23.2445652173913 13  C 23.2445652173913 14.0767038043478  21.572652173913 15.3890326086957  17.9798831521739 15.9401902173913  C 18.0710597826087 14.9741277173913  18.1222826086957 13.9875760869565  18.1222826086957 13  C 18.1222826086957 12.1199918478261  18.0813043478261 11.2410081521739  18.0085679347826 10.3763668478261  C 21.2735108695652 11.001285326087  23.2445652173913 12.1507255434783  23.2445652173913 13  Z M 13 23.2445652173913  C 12.1507255434783 23.2445652173913  11.001285326087 21.2735108695652  10.3763668478261 18.0085679347826  C 11.2410081521739 18.0813043478261  12.1199918478261 18.1222826086957  13 18.1222826086957  C 13.5655 18.1222826086957  14.0244565217391 17.6643505434783  14.0244565217391 17.0978260869565  C 14.0244565217391 16.5313016304348  13.5655 16.0733695652174  13 16.0733695652174  C 11.9612010869565 16.0733695652174  10.9869429347826 16.0170244565217  10.0762010869565 15.9237989130435  C 9.98297554347826 15.0130570652174  9.92663043478261 14.0387989130435  9.92663043478261 13  C 9.92663043478261 12.4345  9.46767391304348 11.9755434782609  8.90217391304348 11.9755434782609  C 8.33667391304348 11.9755434782609  7.87771739130435 12.4345  7.87771739130435 13  C 7.87771739130435 13.8800081521739  7.91869565217391 14.7589918478261  7.99143206521739 15.6236331521739  C 4.72648913043478 14.998714673913  2.7554347826087 13.8492744565217  2.7554347826087 13  C 2.7554347826087 11.7767989130435  6.84096739130435 9.92663043478261  13 9.92663043478261  C 14.0387989130435 9.92663043478261  15.0130570652174 9.98297554347826  15.9237989130435 10.0762010869565  C 16.0170244565217 10.9869429347826  16.0733695652174 11.9612010869565  16.0733695652174 13  C 16.0733695652174 19.1590326086957  14.2232010869565 23.2445652173913  13 23.2445652173913  Z M 10.0598097826087 8.02011684782609  C 10.6119918478261 4.4283722826087  11.9232961956522 2.7554347826087  13 2.7554347826087  C 13.8492744565217 2.7554347826087  14.998714673913 4.72648913043478  15.6236331521739 7.99143206521739  C 14.7589918478261 7.91869565217391  13.8800081521739 7.87771739130435  13 7.87771739130435  C 12.0124239130435 7.87771739130435  11.024847826087 7.92894021739131  10.0598097826087 8.02011684782609  Z M 16.255722826087 3.29429891304348  C 19.287089673913 4.31465760869565  21.6853423913043 6.71291032608696  22.7046766304348 9.7432527173913  C 21.384152173913 9.05789130434782  19.6589673913043 8.55693206521739  17.7504048913043 8.24857065217391  C 17.4420434782609 6.34000815217391  16.9410842391304 4.61584782608696  16.255722826087 3.29429891304348  Z M 3.29532336956522 9.7432527173913  C 4.26650815217391 6.85633423913043  6.48855434782609 4.5461847826087  9.31707880434783 3.45104076086957  C 8.69728260869565 4.61994565217391  8.20656793478261 6.21195108695652  7.94635597826087 8.30081793478261  C 6.15867934782609 8.61122826086956  4.5461847826087 9.0937472826087  3.29532336956522 9.7432527173913  Z M 9.74427717391304 22.7046766304348  C 6.71291032608696 21.6853423913043  4.31465760869565 19.287089673913  3.29532336956522 16.255722826087  C 4.61584782608696 16.9421086956522  6.34103260869565 17.4430679347826  8.24959510869565 17.7504048913043  C 8.55795652173913 19.6589673913043  9.05789130434782 21.3831277173913  9.74427717391304 22.7046766304348  Z M 22.5479347826087 16.6839456521739  C 21.4527907608696 19.5124701086957  19.1426413043478 21.7334918478261  16.255722826087 22.7046766304348  C 16.9052282608696 21.454839673913  17.386722826087 19.8423451086956  17.6981576086957 18.0546684782609  C 19.7870244565217 17.7944565217391  21.3780054347826 17.3047663043478  22.5479347826087 16.6839456521739  Z " fill-rule="nonzero" fill="#ffffff" stroke="none" transform="matrix(1 0 0 1 2958 2639 )" />
  </g>
</svg>