<?xml version="1.0" encoding="utf-8"?>
<svg version="1.1" xmlns:xlink="http://www.w3.org/1999/xlink" width="531px" height="10px" preserveAspectRatio="xMinYMid meet" viewBox="1235 2066  531 8" xmlns="http://www.w3.org/2000/svg">
  <path d="M 1258 346  L 1245 346  A 5 5 0 0 0 1240 351 L 1240 2065  A 5 5 0 0 0 1245 2070 L 1756 2070  A 5 5 0 0 1 1761 2075 L 1761 2087  " stroke-width="2" stroke="#0099cc" fill="none" />
  <path d="M 1256.5 342.5  A 3.5 3.5 0 0 0 1253 346 A 3.5 3.5 0 0 0 1256.5 349.5 A 3.5 3.5 0 0 0 1260 346 A 3.5 3.5 0 0 0 1256.5 342.5 Z M 1753.4 2086  L 1761 2093  L 1768.6 2086  L 1753.4 2086  Z " fill-rule="nonzero" fill="#0099cc" stroke="none" />
</svg>