<?xml version="1.0" encoding="utf-8"?>
<svg version="1.1" xmlns:xlink="http://www.w3.org/1999/xlink" width="17px" height="17px" xmlns="http://www.w3.org/2000/svg">
  <g transform="matrix(1 0 0 1 -3804 -510 )">
    <path d="M 0.0180979418026977 0.645951704545454  C -0.0100544121126105 0.810961174242423  0.0160870593801745 0.969933712121211  0.0965223562810509 1.12286931818182  L 7.81831085876508 16.5774147727273  C 7.95505086349657 16.8591382575758  8.18429145966407 17  8.50603264726757 17  C 8.546250295718 17  8.60657676839366 16.9919507575758  8.68701206529453 16.9758522727273  C 8.86396971847646 16.9356060606061  9.00674237047551 16.8450520833333  9.1153300212917 16.7041903409091  C 9.22391767210788 16.5633285984848  9.27821149751597 16.4043560606061  9.27821149751597 16.2272727272727  L 9.27821149751597 9.27272727272727  L 16.2278211497516 9.27272727272727  C 16.4047788029335 9.27272727272727  16.5636385143127 9.21839488636364  16.7044002838893 9.10973011363636  C 16.8451620534658 9.00106534090909  16.9356517624793 8.85819128787879  16.9758694109297 8.68110795454546  C 17.0160870593802 8.50402462121212  17 8.33499053030303  16.9276082327892 8.17400568181818  C 16.8552164655784 8.01302083333333  16.7385852850722 7.8922821969697  16.5777146912704 7.81178977272727  L 1.13413768630234 0.084517045454546  C 1.0295718003312 0.0281723484848474  0.912940619824933 0  0.784244144783535 0  C 0.567068843151172 0  0.386089425124202 0.0764678030303014  0.241305890702625 0.22940340909091  C 0.120652945351313 0.342092803030301  0.0462502957180022 0.480942234848483  0.0180979418026977 0.645951704545454  Z " fill-rule="nonzero" fill="#333333" stroke="none" transform="matrix(1 0 0 1 3804 510 )" />
  </g>
</svg>