<?xml version="1.0" encoding="utf-8"?>
<svg version="1.1" xmlns:xlink="http://www.w3.org/1999/xlink" width="14px" height="14px" xmlns="http://www.w3.org/2000/svg">
  <g transform="matrix(1 0 0 1 -2142 -2125 )">
    <path d="M 2149 2125  C 2152.92 2125  2156 2128.08  2156 2132  C 2156 2135.92  2152.92 2139  2149 2139  C 2145.08 2139  2142 2135.92  2142 2132  C 2142 2128.08  2145.08 2125  2149 2125  Z " fill-rule="nonzero" fill="#ffffff" stroke="none" />
    <path d="M 2149 2125.5  C 2152.64 2125.5  2155.5 2128.36  2155.5 2132  C 2155.5 2135.64  2152.64 2138.5  2149 2138.5  C 2145.36 2138.5  2142.5 2135.64  2142.5 2132  C 2142.5 2128.36  2145.36 2125.5  2149 2125.5  Z " stroke-width="1" stroke="#c9c9c9" fill="none" />
  </g>
</svg>