<?xml version="1.0" encoding="utf-8"?>
<svg version="1.1" xmlns:xlink="http://www.w3.org/1999/xlink" width="24px" height="21px" xmlns="http://www.w3.org/2000/svg">
  <g transform="matrix(1 0 0 1 -2960 -3010 )">
    <path d="M 23 3.57  C 23.3035714285714 1.88916  21.9115714285714 0.525  20.1964285714286 0.525  L 3.10714285714286 0.525  C 1.392 0.525  0 1.88916  0 3.57  L 0 17.2725  C 0 18.95334  1.392 20.3175  3.10714285714286 20  L 20.1964285714286 20  C 21.9115714285714 20.3175  23.3035714285714 18.95334  23 17.2725  L 23 3.57  Z M 17.0892857142857 10.4319075  C 17.0892857142857 10.6998675  16.9463571428571 10.9465125  16.7117678571429 11.0835375  L 8.94546428571429 15.6388575  C 8.82117857142857 15.710415  8.68291071428571 15.746955  8.54464285714286 15.746955  C 8.41258928571429 15.746955  8.28053571428571 15.7149825  8.16246428571429 15.6479925  C 7.91855357142857 15.5140125  7.76785714285714 15.2612775  7.76785714285714 14.9872275  L 7.76785714285714 5.8765875  C 7.76785714285714 5.6025375  7.91855357142857 5.351325  8.16246428571429 5.2158225  C 8.40482142857143 5.08032  8.70621428571428 5.0848875  8.94546428571428 5.2249575  L 16.7117678571429 9.7802775  C 16.9463571428571 9.9173025  17.0892857142857 10.16547  17.0892857142857 10.4319075  Z " fill-rule="nonzero" fill="#ffffff" stroke="none" transform="matrix(1 0 0 1 2960 3010 )" />
  </g>
</svg>