<?xml version="1.0" encoding="utf-8"?>
<svg version="1.1" xmlns:xlink="http://www.w3.org/1999/xlink" width="14px" height="16px" xmlns="http://www.w3.org/2000/svg">
  <g transform="matrix(1 0 0 1 -1253 -286 )">
    <path d="M 13.544 3.06673169921875  L 10.3361951171875 0.4380487890625  L 9.7629268359375 0.4380487890625  L 9.7629268359375 3.63746341796875  L 13.544 3.63746341796875  L 13.544 3.06673169921875  Z M 9.169365859375 4.2189268359375  L 9.169365859375 0.4380487890625  L 0.456 0.4380487890625  L 0.456 15.5619512109375  L 13.544 15.5619512109375  L 13.544 4.2189268359375  L 9.169365859375 4.2189268359375  Z M 11.7988292773437 13.5260487890625  L 2.20117072265625 13.5260487890625  L 2.20117072265625 12.6534634179687  L 11.7990243945313 12.6534634179687  L 11.7990243945313 13.5260487890625  Z M 11.7988292773437 11.1992195117187  L 2.20117072265625 11.1992195117187  L 2.20117072265625 10.326634140625  L 11.7990243945313 10.326634140625  L 11.7990243945313 11.1992195117187  Z M 11.7988292773437 8.87258537109375  L 2.20117072265625 8.87258537109375  L 2.20117072265625 8  L 11.7990243945313 8  L 11.7990243945313 8.87258537109375  Z M 2.20117072265625 5.67317072265625  L 11.7988292773437 5.67317072265625  L 11.7988292773437 6.54575609375  L 2.20117072265625 6.54575609375  L 2.20117072265625 5.67317072265625  Z " fill-rule="nonzero" fill="#000000" stroke="none" transform="matrix(1 0 0 1 1253 286 )" />
  </g>
</svg>