<?xml version="1.0" encoding="utf-8"?>
<svg version="1.1" xmlns:xlink="http://www.w3.org/1999/xlink" width="24px" height="22px" xmlns="http://www.w3.org/2000/svg">
  <g transform="matrix(1 0 0 1 -2580 -2647 )">
    <path d="M 15.2767193299227 6.60233194480836  L 15.2782098331945 6.60233194480836  C 15.2777130104424 6.62409578544367  15.2774645710886 6.64586534649709  15.2774645710886 6.66763572485814  C 15.2774645710886 8.13940123491876  16.3885570458253 9.33250291612411  17.7591590729328 9.33250291612411  C 19.1297611000402 9.33250291612411  20.2408535747769 8.13940123491876  20.2408535747769 6.66763572485814  C 20.2408535747769 6.64586534649709  20.2406051354231 6.62409578544367  20.240108312671 6.60233194480836  C 20.2399824211609 5.13066203542783  19.1289268247281 3.93770954082572  17.7584138212968 3.93770954082572  C 16.3879008178656 3.93770954082572  15.2768452214327 5.13066203542783  15.2767193299227 6.60233194480836  Z M 23.5281671995241 1.95922100868757  L 23.5281671995241 1.96082152529617  C 23.5121269437732 1.09505228128031  22.8589282762073 0.39930930332908  22.0525650655562 0.389110078327526  L 1.79657216228436 0.389110078327526  C 0.997109887560874 0.392613433506909  0.350742597920819 1.08952703613817  0.350742597920819 1.9480043891032  C 0.350742597920819 1.9517432985921  0.350755124532739 1.95548219598276  0.350780177513385 1.95922100868757  L 0.350780177513385 20.123531938676  C 0.350780177513385 20.9878131783508  0.991698280547293 21.6920423524274  1.79657216228436 21.6920423524274  L 22.0525650655562 21.6920423524274  C 22.8589294715051 21.6920423524274  23.5013380778108 20.9878131783508  23.5281671995241 20.123531938676  L 23.5281671995241 1.95922100868757  Z M 21.8468750696014 17.2778058984437  L 16.7254923212374 11.357479335842  L 16.7269828245092 11.357479335842  C 16.5631474007945 11.1453551370623  16.3217695237266 11.0198445967518  16.0651976337894 11.0133673655749  C 15.8028683669245 11.0133673655749  15.6180454795955 11.146210603856  15.4034124430696 11.3302704860395  L 14.4375637682332 12.207355903554  C 14.2363453030339 12.3626064193264  14.0753705099346 12.4682408078049  13.8443418955384 12.4682407853194  C 13.6350510531187 12.4698172059493  13.4324819270538 12.3889587480188  13.2749681380131 12.2409668422764  L 13.0513920609161 12.0120923601394  L 10.2730866331945 8.78384183860627  C 10.0568059189066 8.51653239841975  9.74323218904085 8.36302710537189  9.41346516436603 8.36302710537189  C 9.07685041865794 8.36302710537189  8.75748316808137 8.52294723004789  8.54111726638905 8.79984704966318  L 2 17.2666022372125  L 2 2.81389912622532  C 2.04237867751505 2.44454394499077  2.33282440730197 2.16501931834698  2.67895242355741 2.16408767423926  L 21.1642227702558 2.16408767423926  C 21.5174955243123 2.15662825517359  21.8127651551726 2.4510442060998  21.8319700159429 2.82990433728223  L 21.8468750696014 17.2778058984437  Z " fill-rule="nonzero" fill="#aaaaaa" stroke="none" transform="matrix(1 0 0 1 2580 2647 )" />
  </g>
</svg>