<?xml version="1.0" encoding="utf-8"?>
<svg version="1.1" xmlns:xlink="http://www.w3.org/1999/xlink" width="14px" height="14px" xmlns="http://www.w3.org/2000/svg">
  <g transform="matrix(1 0 0 1 -2442 -2963 )">
    <path d="M 2449 2963  C 2452.92 2963  2456 2966.08  2456 2970  C 2456 2973.92  2452.92 2977  2449 2977  C 2445.08 2977  2442 2973.92  2442 2970  C 2442 2966.08  2445.08 2963  2449 2963  Z " fill-rule="nonzero" fill="#ffffff" stroke="none" />
    <path d="M 2449 2963.5  C 2452.64 2963.5  2455.5 2966.36  2455.5 2970  C 2455.5 2973.64  2452.64 2976.5  2449 2976.5  C 2445.36 2976.5  2442.5 2973.64  2442.5 2970  C 2442.5 2966.36  2445.36 2963.5  2449 2963.5  Z " stroke-width="1" stroke="#c9c9c9" fill="none" />
  </g>
</svg>