<?xml version="1.0" encoding="utf-8"?>
<svg version="1.1" xmlns:xlink="http://www.w3.org/1999/xlink" width="917px" height="10px" preserveAspectRatio="xMinYMid meet" viewBox="2058 262  917 8" xmlns="http://www.w3.org/2000/svg">
  <path d="M 2060 266  L 2417 266  A 3 3 0 0 1 2420 263 A 3 3 0 0 1 2423 266 L 2965 266  A 5 5 0 0 1 2970 271 L 2970 377  A 3 3 0 0 1 2973 380 A 3 3 0 0 1 2970 383 L 2970 2165  A 5 5 0 0 0 2975 2170 L 3034 2170  " stroke-width="2" stroke="#0099cc" fill="none" />
  <path d="M 2061.5 262.5  A 3.5 3.5 0 0 0 2058 266 A 3.5 3.5 0 0 0 2061.5 269.5 A 3.5 3.5 0 0 0 2065 266 A 3.5 3.5 0 0 0 2061.5 262.5 Z M 3033 2177.6  L 3040 2170  L 3033 2162.4  L 3033 2177.6  Z " fill-rule="nonzero" fill="#0099cc" stroke="none" />
</svg>