<?xml version="1.0" encoding="utf-8"?>
<svg version="1.1" xmlns:xlink="http://www.w3.org/1999/xlink" width="515px" height="10px" preserveAspectRatio="xMinYMid meet" viewBox="1340 156  515 8" xmlns="http://www.w3.org/2000/svg">
  <path d="M 1342 160  L 1845 160  A 5 5 0 0 0 1850 155 L 1850 115  A 5 5 0 0 1 1855 110 L 2071 110  " stroke-width="2" stroke="#0099cc" fill="none" />
  <path d="M 1343.5 156.5  A 3.5 3.5 0 0 0 1340 160 A 3.5 3.5 0 0 0 1343.5 163.5 A 3.5 3.5 0 0 0 1347 160 A 3.5 3.5 0 0 0 1343.5 156.5 Z M 2070 117.6  L 2077 110  L 2070 102.4  L 2070 117.6  Z " fill-rule="nonzero" fill="#0099cc" stroke="none" />
</svg>