<?xml version="1.0" encoding="utf-8"?>
<svg version="1.1" xmlns:xlink="http://www.w3.org/1999/xlink" width="20px" height="20px" xmlns="http://www.w3.org/2000/svg">
  <g transform="matrix(1 0 0 1 -206 295 )">
    <path d="M 19.8544586914063 9.97073982421875  C 19.8544586914063 4.53908248046875  15.4352948632812 0.11991869140625  10.0036375390625 0.11991869140625  C 4.5719801953125 0.11991869140625  0.152816386718749 4.5390825  0.152816386718749 9.97073984375  C 0.152816386718749 15.4023971875  4.5719801953125 19.8215609765625  10.0036375390625 19.8215609765625  C 15.4352948828125 19.8215609765625  19.8544586914063 15.4023971679687  19.8544586914063 9.97073982421875  Z M 15.5030089453125 6.92124740234375  C 15.8272691210937 7.23829244140625  15.8329452539062 7.7581599609375  15.5158202734375 8.082020390625  L 9.10974359375 14.6492278320313  C 8.95664740234375 14.8059415820313  8.746649765625 14.89492125  8.52739841796875 14.8961604101563  L 8.52296142578125 14.8961604101563  C 8.30534896484375 14.8961604101563  8.09651056640625 14.8095591210938  7.942574921875 14.6556434765625  L 4.49785044921875 11.2116984765625  C 4.177127890625 10.8914556054687  4.177127890625 10.3715880664063  4.49785044921875 10.05094546875  C 4.818493046875 9.73022291015625  5.337960859375 9.73022291015625  5.65860345703125 10.05094546875  L 8.51656576171875 12.9080083789062  L 14.3422559375 6.9340587109375  C 14.659700703125 6.61021828125  15.1799879492187 6.60414240234375  15.5030089453125 6.92124740234375  Z " fill-rule="nonzero" fill="#aaaaaa" stroke="none" transform="matrix(1 0 0 1 206 -295 )" />
  </g>
</svg>