<?xml version="1.0" encoding="utf-8"?>
<svg version="1.1" xmlns:xlink="http://www.w3.org/1999/xlink" width="15px" height="16px" xmlns="http://www.w3.org/2000/svg">
  <g transform="matrix(1 0 0 1 -4055 -552 )">
    <path d="M 7.44360902497944 4.18927890922619  C 9.15936089740954 4.18927890922619  10.7597368421053 3.96179591369048  11.9159774460321 3.57627210416667  C 12.4432330802837 3.39907482291667  12.8489097841283 3.19793196577381  13.1019924763569 2.99798638988095  C 13.2756766868832 2.86149658928571  13.3302631578947 2.77170067559524  13.3302631578947 2.73578231994048  C 13.3302631578947 2.69986396428571  13.2756766868832 2.61006803422619  13.1019924763569 2.47238095238095  C 12.8489097671669 2.27363265773809  12.4444736842105 2.07248980059524  11.9159774460321 1.89529251934524  C 10.7597368421053 1.50857142857143  9.15936089740954 1.28228571428571  7.44360902497944 1.28228571428571  C 5.72785715254934 1.28228571428571  4.12748120785362 1.50976870982143  2.97124060392681 1.89529251934524  C 2.44398496967516 2.07248980059524  2.03830826583059 2.2736326577381  1.78522555664063 2.47357823363095  C 1.61154134611431 2.61006803422619  1.5569548751028 2.69866666666667  1.55695489206414 2.73578231994048  C 1.55695489206414 2.77170069196429  1.61154136307566 2.86149660565476  1.78522555664063 2.99918367113095  C 2.03830826583059 3.19793196577381  2.44274434878701 3.39907482291667  2.97124060392681 3.57627210416667  C 4.12748120785362 3.96299319494048  5.72785715254934 4.18927890922619  7.44360902497944 4.18927890922619  Z M 1.17733081979852 7.60751019940476  L 1.17857142372533 7.60751019940476  L 1.17857142372533 9.71591837202381  C 1.82244360659951 10.3708299389881  3.55432329615543 11.1682176964286  5.6695488697574 11.4064761904762  C 8.77105263157895 11.7548843467262  11.7075563934005 11.1011700610119  13.7012030026727 9.79733333333334  L 13.7086466092722 7.64223129017857  C 11.5847368421053 8.84789115178571  8.59488721319901 9.35434013839286  5.57154134611431 9.01311565327381  C 3.69947368421053 8.80359184375  2.1053007421875 8.25882993898809  1.17733081979852 7.60751019940476  Z M 1.17857142372533 6.28930612946429  L 1.17857142372533 6.29050339434524  C 1.82368421052632 6.94421768005952  3.55432329615543 7.7416054375  5.6695488697574 7.97866666666667  C 8.77725563425165 8.32827210416667  11.7199623987459 7.67216327232143  13.7136090249794 6.36234013839286  L 13.7222932355058 3.97257142857143  C 12.4531578947368 4.69093877083333  10.1171052631579 5.17224490029762  7.44360902497944 5.17224490029762  C 4.78127820518092 5.17224490029762  2.45266918020148 4.69333333333333  1.18229323550576 3.98095238095238  C 1.18062712038578 4.75040293668227  1.17938651628228 5.51985429576876  1.17857142372533 6.28930612946429  Z M 1.17981202765214 11.0353197232143  L 1.18105263157895 11.0353197232143  L 1.18601503032484 12.8048979568452  L 1.16740602230674 12.682775514881  C 1.54703007761102 13.894421766369  3.97116541837993 14.8678095238095  7.58131578947368 14.8678095238095  C 9.54766918020148 14.8678095238095  11.0884962381785 14.5804625803571  12.2732706815378 14.0153469434524  C 12.6057518893914 13.8561088482143  12.8588345985814 13.722013610119  13.1069548920641 13.547210891369  C 13.2719548920641 13.4310748392857  13.3798872301604 13.3604353764881  13.5572932355058 13.209578233631  C 13.7409022604852 13.0527347008929  14.0237593960732 13.0910476190476  14.1875187921464 13.2694421815476  C 14.3500375842928 13.4454421815476  14.3711278171258 13.732789125  14.1875187921464 13.8908299389881  C 13.9890225539679 14.0584489866071  13.8959774460321 14.1338775580357  13.7024436065995 14.2703673422619  C 13.4133834513775 14.4739047619048  13.0846240553043 14.6858231175595  12.705 14.8678095238095  C 11.3974060223067 15.49159184375  10.065 15.8639455758929  7.58131578947368 15.8639455758929  C 3.44390976716694 15.8639455758929  0.708383451377468 14.600816328869  0.184849628906251 12.9306122425595  L 0.16624060392681 12.8707482946429  L 0.16624060392681 12.8084898005952  L 0.158796997327303 10.2810340089286  C 0.155834016722794 7.79468327607517  0.157901688222081 5.30832932984665  0.165 2.82198638988095  C 0.161854952436952 2.79334972885848  0.160198742869751 2.76457896442014  0.160037601254112 2.73578231994048  C 0.161278188219572 1.3900408139881  3.42157894736842 0.299319723214286  7.44360902497944 0.299319723214286  C 11.4656391025905 0.299319723214286  14.725939844778 1.3900408139881  14.725939844778 2.73578231994048  C 14.7263219637009 2.78835445197504  14.7217543214527 2.84085138599074  14.7122932355058 2.89262585267857  C 14.7242273932733 2.93024754744439  14.7300855554386 2.96941885865745  14.7296616565584 3.00876190476191  L 14.7011278171258 11.5274013675595  C 14.699887213199 11.7644625967262  14.4740977395148 11.9560272202381  14.1962030026727 11.9548299389881  C 13.9183082658306 11.9548299389881  13.6937593960732 11.7620680342262  13.695 11.5238095238095  L 13.695 11.076027203869  C 11.5735714237253 12.2745033943452  8.58868421052632 12.7797550997024  5.57154134611431 12.4409251770833  C 3.70195487510279 12.2302040863095  2.10778195004112 11.6866394627976  1.17981202765214 11.0353197232143  Z M 12.5213909750206 6.27254422470238  L 12.5201503710937 6.27254422470238  C 12.2794482098206 6.27453899615944  12.0824633162807 6.08818150300958  12.0797368421053 5.85589115178571  C 12.0797368421053 5.62601359375  12.2782330802837 5.44043537648809  12.5213909750206 5.44043537648809  C 12.7645488697574 5.44043537648809  12.9630451079359 5.62601361011905  12.9630451079359 5.85589115178571  C 12.9630451079359 6.08696597470238  12.7645488697574 6.27254420833333  12.5213909750206 6.27254422470238  Z M 12.5213909750206 9.7003537485119  L 12.5201503710937 9.7003537485119  C 12.2794482098206 9.70234851996896  12.0824633162807 9.51599102681911  12.0797368421053 9.28370067559524  C 12.0797368421053 9.05382311755952  12.2782330802837 8.86704761904762  12.5213909750206 8.86704761904762  C 12.7645488697574 8.86704761904762  12.9630451079359 9.05382313392857  12.9630451079359 9.28370067559524  C 12.9630451079359 9.51357823363095  12.7645488697574 9.70035373214285  12.5213909750206 9.7003537485119  Z M 12.5213909750206 13.1712652991071  L 12.5201503710937 13.1724625803571  C 12.5189045599124 13.1724728709314  12.5176587088039 13.1724780162892  12.5164128519912 13.1724780162892  C 12.2766806273766 13.1724780162892  12.0817712379011 12.985964534906  12.0797368421053 12.7546122425595  C 12.0797368421053 12.5247346845238  12.2782330802837 12.3379591860119  12.5213909750206 12.3379591860119  C 12.7645488697574 12.3379591860119  12.9630451079359 12.5247347008929  12.9630451079359 12.7546122425595  C 12.9630451079359 12.9844898005952  12.7645488697574 13.1712652991071  12.5213909750206 13.1712652991071  Z " fill-rule="nonzero" fill="#ffffff" stroke="none" transform="matrix(1 0 0 1 4055 552 )" />
  </g>
</svg>