<?xml version="1.0" encoding="utf-8"?>
<svg version="1.1" xmlns:xlink="http://www.w3.org/1999/xlink" width="20px" height="20px" xmlns="http://www.w3.org/2000/svg">
  <g transform="matrix(1 0 0 1 -1129 -1359 )">
    <path d="M 9.8764705859375 0.604705878906252  C 4.75841531937924 0.604705878906252  0.609411757812499 4.75370944047299  0.609411757812499 9.87176470703125  C 0.609411757812499 14.9898199735895  4.75841531937924 19.1388235351563  9.8764705859375 19.1388235351563  C 14.9945258524958 19.1388235351563  19.1435294140625 14.9898199735895  19.1435294140625 9.87176470703125  C 19.1435294140625 4.75370944047299  14.9945258524958 0.604705878906252  9.8764705859375 0.604705878906252  Z M 13.79411765625 11.4647058789062  L 13.79411765625 11.4635294140625  L 9.18588234375 11.4635294140625  C 8.75964847322644 11.4635294032757  8.41411765625 11.1179985775548  8.41411765625 10.6917647070313  L 8.41411765625 4.86588234375  C 8.41411764648437 4.43952569129544  8.75964847536464 4.09399486241518  9.18588235351562 4.09399486241518  C 9.61211623166661 4.09399486241518  9.95764706054687 4.43952569129544  9.95764706054687 4.86575956944643  L 9.95764705078125 9.92  L 13.79411765625 9.92  C 13.8041627067653 9.91960788236446  13.814214451125 9.91941176757813  13.8242671520603 9.91941176757813  C 14.2511507738032 9.91941176757813  14.5972083239353 10.2654693177102  14.5972083239353 10.6923529394531  C 14.5972083239353 11.119236561196  14.2511507738032 11.4652941113281  13.8242671520603 11.4652941113281  C 13.814214451125 11.4652941113281  13.8041627067653 11.4650979965418  13.79411765625 11.4647058789062  Z " fill-rule="nonzero" fill="#f59a23" stroke="none" transform="matrix(1 0 0 1 1129 1359 )" />
  </g>
</svg>