<?xml version="1.0" encoding="utf-8"?>
<svg version="1.1" xmlns:xlink="http://www.w3.org/1999/xlink" width="36px" height="38px" xmlns="http://www.w3.org/2000/svg">
  <g transform="matrix(1 0 0 1 -2624 -201 )">
    <path d="M 1 14  L 1 24  L 35 24  L 35 14  L 1 14  Z M 26.7685714285714 19.38  C 26.7685714285714 18.4933333457031  27.4599999877232 17.7333333457031  28.2771428571429 17.7333333457031  C 29.1571428448661 17.7333333457031  29.8485714408482 18.43  29.9114285591518 19.2533333457031  C 29.9114285591518 20.14  29.22 20.8366666914063  28.4028571305804 20.9  C 27.5857142611607 20.9633333085938  26.831428546875 20.2033333457031  26.7685714285714 19.38  Z M 21.6771428571429 19.3166666542969  C 21.7400000122768 18.43  22.4314285714286 17.7333333085938  23.2485714408482 17.7333333457031  C 23.8771428816964 17.7333333457031  24.4428571674107 18.1133333457031  24.6942857142857 18.6833333457031  C 24.9457142979911 19.2533333457031  24.8199999877232 19.95  24.3800000122768 20.3933333457031  C 23.94 20.8366666914063  23.2485714408482 20.9633333457031  22.6828571551339 20.7733333457031  C 22.1171428694196 20.52  21.6771428571429 19.95  21.6771428571429 19.3166666542969  Z M 5.39714284486607 20.9  L 5.39714284486607 17.7333333457031  L 14.1971428694196 17.7333333457031  L 14.1971428694196 20.9  L 5.39714284486607 20.9  Z M 35.6314285714286 2.66  C 35.5685714162946 1.20333334570313  34.3742857265625 0  32.9285714162946 0  L 3.07142858370536 0  C 1.62571431026786 0  0.43142858370536 1.20333334570313  0.43142858370536 2.66  L 0.43142858370536 11  L 35.6314285714286 11  L 35.6314285714286 2.66  Z M 14.1971428694196 3.8  L 14.1971428694196 6.96666665429688  L 5.39714284486607 6.96666665429688  L 5.39714284486607 3.8  L 14.1971428694196 3.8  Z M 24.8199999877232 5.32  C 24.8828571428571 6.20666665429687  24.2542857020089 6.90333334570312  23.3742857142857 6.96666665429688  C 22.8085714285714 6.96666665429688  22.2428571428571 6.71333330859375  21.9285714408482 6.20666665429687  C 21.6142857388393 5.7  21.6142857388393 5.13  21.8657142857143 4.62333334570313  C 22.1171428325893 4.11666669140625  22.6828571551339 3.8  23.2485714408482 3.8  C 24.0657143102679 3.8  24.7571428694196 4.49666665429688  24.8199999877232 5.32  Z M 29.9114285591518 5.32  C 29.9114285591518 6.20666665429687  29.22 6.96666665429688  28.4028571305804 6.96666665429688  C 27.5228571428571 6.96666665429688  26.831428546875 6.27  26.7685714285714 5.44666665429687  C 26.7685714285714 4.56  27.4599999877232 3.86333330859375  28.2771428571429 3.8  C 29.1571428448661 3.8  29.8485714408482 4.49666665429687  29.9114285591518 5.32  Z M 35.5685714162946 27  L 3.00857142857143 27  L 0.368571428571428 27.2333333457031  L 0.368571428571428 36.1  C 0.368571428571428 37.1766666542969  1.18571429799107 38  2.25428571428571 38  L 33.6828571305804 38  C 34.6885714285714 38  35.5685714162946 37.1766666542969  35.5685714162946 36.1  L 35.5685714162946 27  Z M 14.1971428694196 31.0333333457031  L 14.1971428694196 34.2  L 5.39714284486607 34.2  L 5.39714284486607 31.0333333457031  L 14.1971428694196 31.0333333457031  Z M 24.8828571428571 32.6166666542969  C 24.8828571428571 33.5033333085938  24.1914285837054 34.2  23.3114285591518 34.2  C 22.4314285714286 34.2  21.7399999754464 33.5033333457031  21.7400000122768 32.6166666542969  C 21.7400000491071 31.7299999628906  22.4314285714286 31.0333333085938  23.3114285591518 31.0333333457031  C 24.191428546875 31.0333333828125  24.8828571428571 31.73  24.8828571428571 32.6166666542969  Z M 29.9114285591518 32.6166666542969  C 29.9114285223214 33.5033333085938  29.22 34.2  28.3400000122768 34.2  C 27.4600000245536 34.2  26.7685714285714 33.5033333457031  26.7685714285714 32.6166666542969  C 26.7685714285714 31.7299999628906  27.4599999877232 31.0333333085938  28.3400000122768 31.0333333457031  C 29.2200000368304 31.0333333828125  29.9114285959821 31.73  29.9114285591518 32.6166666542969  Z " fill-rule="nonzero" fill="#bdbdd5" stroke="none" transform="matrix(1 0 0 1 2624 201 )" />
  </g>
</svg>