<?xml version="1.0" encoding="utf-8"?>
<svg version="1.1" xmlns:xlink="http://www.w3.org/1999/xlink" width="32px" height="44px" xmlns="http://www.w3.org/2000/svg">
  <g transform="matrix(1 0 0 1 -695 -202 )">
    <path d="M 27.5420289960937 24.8695652304687  C 27.5420289960937 26.0811594140625  26.7130434726563 26.8463768203125  25.56521740625 26.8463768203125  C 24.4173913398438 26.8463768203125  23.5884058164063 26.0811594140625  23.5884058164063 24.8695652304687  C 23.5884058164063 23.657971046875  24.3536232226563 22.892753640625  25.56521740625 22.892753640625  C 26.7130434726563 22.892753640625  27.5420289960937 23.657971046875  27.5420289960937 24.8695652304687  Z M 32 1.91304347265625  C 31.9420289960938 0.828985480468751  31.1130434726563 0  30.0289855234375 0  L 1.9710144765625 0  C 0.886956484375001 0  0.0579710039062507 0.8289855234375  0 1.91304347265625  L 0 42.0869565273438  C 0.0579710039062507 43.1710145195312  0.886956527343751 44  1.9710144765625 44  L 30.0289855234375 44  C 31.113043515625 44  31.9420289960938 43.1710144765625  32 42.0869565273438  L 32 1.91304347265625  Z M 19.1884058164062 24.5507246445312  C 19.188405859375 25.4434782421875  18.4869565273437 26.14492753125  17.5942028867188 26.14492753125  C 16.7014492460938 26.14492753125  16 25.4434782421875  16 24.5507246445312  C 16 23.657971046875  16.7014492890625 22.9565217578125  17.5942028867188 22.9565217578125  C 18.486956484375 22.9565217578125  19.1884057734375 23.657971046875  19.1884058164062 24.5507246445312  Z M 28.7536231796875 24.8695652304687  C 28.7536231367188 26.6550725117187  27.2869565273437 28.057971046875  25.56521740625 28.0579710039062  C 23.8434782851563 28.0579710039062  22.3768115898438 26.65507246875  22.3768115898438 24.8695652304687  C 22.3768115898438 23.0840579921875  23.779710125 21.6811594140625  25.56521740625 21.6811594140625  C 27.2869565273437 21.6811594140625  28.7536232226563 23.0840579492187  28.7536231796875 24.8695652304687  Z M 28.7536231796875 13  L 28.7536231796875 20  L 3.2463768203125 20  L 3.2463768203125 13  L 28.7536231796875 13  Z M 28.7536231796875 4  L 28.7536231796875 10  L 3.2463768203125 10  L 3.2463768203125 4  L 28.7536231796875 4  Z " fill-rule="nonzero" fill="#bdbdd5" stroke="none" transform="matrix(1 0 0 1 695 202 )" />
  </g>
</svg>