<?xml version="1.0" encoding="utf-8"?>
<svg version="1.1" xmlns:xlink="http://www.w3.org/1999/xlink" width="16px" height="13px" xmlns="http://www.w3.org/2000/svg">
  <g transform="matrix(1 0 0 1 -2284 -554 )">
    <path d="M 15.7192982516447 1.73333333333333  C 15.7192982516447 0.859444450651042  15.0245614095395 0.144444450651041  14.1754385904605 0.144444450651041  L 1.82456140953947 0.144444450651041  C 0.975438590460526 0.144444450651041  0.280701748355263 0.859444450651042  0.280701748355263 1.73333333333333  L 0.280701748355263 11.2666666666667  C 0.280701748355263 12.140555549349  0.975438590460526 12.855555549349  1.82456139144737 12.855555549349  L 14.1754385904605 12.855555549349  C 15.0245613914474 12.855555549349  15.7192982335526 12.140555549349  15.7192982335526 11.2666666666667  L 15.7192982516447 1.73333333333333  Z M 10.3157894736842 8.08888888268229  L 10.3157894736842 11.2666666666667  L 1.82456140953947 11.2666666666667  L 1.82456140953947 8.08888888268229  L 10.3157894736842 8.08888888268229  Z M 10.3157894736842 4.11666666666667  L 10.3157894736842 7.29444445065104  L 1.82456140953947 7.29444445065104  L 1.82456140953947 4.11666666666667  L 10.3157894736842 4.11666666666667  Z M 14.1754386085526 4.11666666666667  L 14.1754385904605 11.2666666666667  L 11.0877192861842 11.2666666666667  L 11.0877193042763 4.11666666666667  L 14.1754386085526 4.11666666666667  Z " fill-rule="nonzero" fill="#ffffff" stroke="none" transform="matrix(1 0 0 1 2284 554 )" />
  </g>
</svg>