<?xml version="1.0" encoding="utf-8"?>
<svg version="1.1" xmlns:xlink="http://www.w3.org/1999/xlink" width="40px" height="43px" xmlns="http://www.w3.org/2000/svg">
  <g transform="matrix(1 0 0 1 -3837 -201 )">
    <path d="M 19.8496240666118 11.2586870685454  C 24.4249623930921 11.2586870685454  28.6926315789474 10.6473265180432  31.7759398560855 9.61123127994792  C 33.1819548807566 9.13501358658854  34.2637594243421 8.59444215801711  34.9386466036184 8.05708842280506  C 35.4018044983553 7.69027208370536  35.5473684210526 7.4489455656622  35.5473684210526 7.35241498484003  C 35.5473684210526 7.25588440401786  35.4018044983553 7.01455784198289  34.9386466036184 6.64452380952381  C 34.2637593791118 6.11038776767113  33.1852631578947 5.5698163390997  31.7759398560855 5.09359864574033  C 28.6926315789474 4.05428571428571  24.4249623930921 3.44614285714286  19.8496240666118 3.44614285714286  C 15.2742857401316 3.44614285714286  11.0066165542763 4.05750340764509  7.92330827713816 5.09359864574033  C 6.51729325246711 5.5698163390997  5.43548870888158 6.11038776767113  4.760601484375 6.64774150288319  C 4.29744358963816 7.01455784198289  4.15187966694079 7.25266666666667  4.15187971217105 7.35241498484003  C 4.15187971217105 7.44894560965402  4.29744363486842 7.69027212769717  4.760601484375 8.06030611616444  C 5.43548870888158 8.59444215801711  6.51398493009868 9.13501358658854  7.92330827713816 9.61123127994792  C 11.0066165542763 10.6505442114025  15.2742857401316 11.2586870685454  19.8496240666118 11.2586870685454  Z M 3.13954885279605 20.4451836609003  L 3.14285712993421 20.4451836609003  L 3.14285712993421 26.111530624814  C 4.85984961759868 27.8716054610305  9.47819545641447 30.0145850591518  15.1187969860197 30.6549047619048  C 23.3894736842105 31.5912516818266  31.2201503824013 29.8343945389695  36.5365413404605 26.3303333333333  L 36.5563909580592 20.5384965923549  C 30.8926315789474 23.7787074704241  22.9196992351974 25.1397891219308  14.8574435896382 24.2227483181734  C 9.86526315789474 23.6596530800781  5.6141353125 22.1956054610305  3.13954885279605 20.4451836609003  Z M 3.14285712993421 16.9025102229353  L 3.14285712993421 16.9057278723028  C 4.86315789473684 18.66258501516  9.47819545641447 20.8055646132812  15.1187969860197 21.4426666666667  C 23.4060150246711 22.3822312799479  31.2532330633224 20.6189387943638  36.5696240666119 17.0987891219308  L 36.5927819613487 10.6762857142857  C 33.2084210526316 12.6068979466146  26.9789473684211 13.9004081695499  19.8496240666118 13.9004081695499  C 12.7500752138158 13.9004081695499  6.54045114720395 12.6133333333333  3.15278196134869 10.6988095238095  C 3.1483389876954 12.7667078923336  3.14503071008609 14.8346084198785  3.14285712993421 16.9025102229353  Z M 3.14616540707237 29.6574217561384  L 3.14947368421053 29.6574217561384  L 3.1627067475329 34.4131632590216  L 3.11308272615132 34.0849591962426  C 4.12541354029605 37.3412584971168  10.5897744490132 39.9572380952381  20.2168421052632 39.9572380952381  C 25.4604511472039 39.9572380952381  29.5693233018092 39.1849931847098  32.7287218174342 37.6662449105283  C 33.6153383717105 37.2382925295759  34.2902255962171 36.8779115771949  34.9518797121711 36.4081292705543  C 35.3918797121711 36.0960136305804  35.6796992804276 35.9061700743118  36.1527819613487 35.5007415028832  C 36.6424060279605 35.0792245086496  37.3966917228618 35.1821904761905  37.8333834457237 35.6616258629092  C 38.2667668914474 36.1346258629092  38.3230075123355 36.9068707734375  37.8333834457237 37.3316054610305  C 37.3040601439145 37.7820816515067  37.0559398560855 37.984795937221  36.5398496175987 38.3516122323289  C 35.7690225370066 38.8986190476191  34.8923308141447 39.4681496284412  33.88 39.9572380952381  C 30.3930827261513 41.6336530800781  26.84 42.6343537352121  20.2168421052632 42.6343537352121  C 9.18375937911184 42.6343537352121  1.88902253700658 39.2396938838356  0.492932343750002 34.7510204018787  L 0.44330827713816 34.5901360418527  L 0.44330827713816 34.4228163390997  L 0.423458659539474 27.6302788989955  C 0.41555737792745 20.948211304452  0.421071168592215 14.2661350739629  0.44 7.58408842280506  C 0.431613206498539 7.50712739630716  0.42719664765267 7.42980596687913  0.426766936677632 7.35241498484003  C 0.430075168585526 3.73573468759301  9.12421052631579 0.804421756138393  19.8496240666118 0.804421756138393  C 30.5750376069079 0.804421756138393  39.2691729194079 3.73573468759301  39.2691729194079 7.35241498484003  C 39.2701919032025 7.49370258968293  39.2580115238738 7.63478809985012  39.2327819613487 7.77393197907366  C 39.2646063820622 7.8750402837568  39.2802281478362 7.98031318264191  39 8.08604761904762  L 39 30.9798911753162  C 39.1996992351974 31.6169932287016  38.5975939720395 32.1318231543899  37.8565413404605 32.1286054610305  C 37.1154887088816 32.1286054610305  36.5166917228618 31.6105578419829  36.52 30.9702380952381  L 36.52 29.7668231103981  C 30.8628571299342 32.9877278723028  22.9031578947368 34.3455918304501  14.8574435896382 33.4349864134115  C 9.87187966694079 32.8686734819568  5.62075186677631 31.4078435562686  3.14616540707237 29.6574217561384  Z M 33.3903759333881 16.8574626038876  L 33.38706765625 16.8574626038876  C 32.7451952261884 16.8628235521785  32.2199021767485 16.3619877893383  32.2126315789474 15.7377074704241  C 32.2126315789474 15.1199115332031  32.7419548807566 14.6211700743118  33.3903759333881 14.6211700743118  C 34.0387969860197 14.6211700743118  34.5681202878289 15.1199115771949  34.5681202878289 15.7377074704241  C 34.5681202878289 16.3587210570126  34.0387969860197 16.8574625598958  33.3903759333881 16.8574626038876  Z M 33.3903759333881 26.0697006991257  L 33.38706765625 26.0697006991257  C 32.7451952261884 26.0750616474166  32.2199021767485 25.5742258845764  32.2126315789474 24.9499455656622  C 32.2126315789474 24.3321496284412  32.7419548807566 23.8301904761905  33.3903759333881 23.8301904761905  C 34.0387969860197 23.8301904761905  34.5681202878289 24.332149672433  34.5681202878289 24.9499455656622  C 34.5681202878289 25.5677415028832  34.0387969860197 26.0697006551339  33.3903759333881 26.0697006991257  Z M 33.3903759333881 35.3977754913504  L 33.38706765625 35.4009931847098  C 33.3837454930998 35.4010208406281  33.380423223477 35.4010346687772  33.3771009386433 35.4010346687772  C 32.7378150063376 35.4010346687772  32.2180566344029 34.8997796875598  32.2126315789474 34.2780204018787  C 32.2126315789474 33.6602244646577  32.7419548807566 33.158265312407  33.3903759333881 33.158265312407  C 34.0387969860197 33.158265312407  34.5681202878289 33.6602245086496  34.5681202878289 34.2780204018787  C 34.5681202878289 34.8958163390997  34.0387969860197 35.3977754913504  33.3903759333881 35.3977754913504  Z " fill-rule="nonzero" fill="#bdbdd5" stroke="none" transform="matrix(1 0 0 1 3837 201 )" />
  </g>
</svg>