<?xml version="1.0" encoding="utf-8"?>
<svg version="1.1" xmlns:xlink="http://www.w3.org/1999/xlink" width="50px" height="47px" xmlns="http://www.w3.org/2000/svg">
  <g transform="matrix(1 0 0 1 -257 -396 )">
    <path d="M 49 31.3125  C 49.375 34.8125  46.5625 37.6875  43.0625 37  L 6.75 37  C 3.25 37.6875  0.4375 34.875  1 31.375  L 1 6.375  C 0.4375 2.875  3.25 0.0625  6.75 0  L 43.0625 0  C 46.5625 0.0625  49.375 2.9375  49 6.375  L 49 31.3125  Z M 6.75 4  L 6.75 3.25  C 5 3.25  3.5625 4.6875  4 6.4375  L 4 31.375  C 3.5625 33.125  5 34.5625  6.75 34  L 43.0625 34  C 44.8125 34.5625  46.25 33.125  46 31.375  L 46 6.375  C 46.25 4.625  44.8125 3.1875  43.0625 4  L 6.75 4  Z M 42.9375 44.1875  C 43.5625 45.375  42.6875 46.8125  41.375 46  L 8.75 46  C 7.375 46.8125  6.5625 45.375  7.1875 44.1875  L 8.75 41.125  C 9.0625 40.5625  9.6875 40.1875  10.3125 40  L 39.75 40  C 40.4375 40.1875  41 40.5625  41.3125 41.125  L 42.9375 44.1875  Z M 20 43.9375  L 20 36.375  L 29.8125 36.375  L 29.8125 43.9375  L 20 43.9375  Z " fill-rule="nonzero" fill="#bdbdd5" stroke="none" transform="matrix(1 0 0 1 257 396 )" />
  </g>
</svg>