<?xml version="1.0" encoding="utf-8"?>
<svg version="1.1" xmlns:xlink="http://www.w3.org/1999/xlink" width="20px" height="20px" xmlns="http://www.w3.org/2000/svg">
  <g transform="matrix(1 0 0 1 -216 -1037 )">
    <path d="M 10 20  C 15.522727265625 20  20 15.522727265625  20 10  C 20 4.477272734375  15.522727265625 0  10 0  C 4.477272734375 0  0 4.477272734375  0 10  C 0 15.522727265625  4.477272734375 20  10 20  Z M 13.6363636328125 10  C 13.6363636328125 8.99545455078125  14.45 8.18181818359375  15.4545454492188 8.18181818359375  C 16.4581818164062 8.18181818359375  17.272727265625 8.9963636328125  17.272727265625 10  C 17.272727265625 11.0036363671875  16.4581818164062 11.8181818164063  15.4545454492188 11.8181818164063  C 14.45 11.8181818164063  13.6363636328125 11.0045454492187  13.6363636328125 10  Z M 6.3636363671875 10  C 6.3636363671875 11.0036363671875  5.54909091796875 11.8181818164063  4.54545455078125 11.8181818164063  C 3.5409091015625 11.8181818164063  2.727272734375 11.0045454492187  2.727272734375 10  C 2.727272734375 8.99545455078125  3.5409091015625 8.18181818359375  4.54545455078125 8.18181818359375  C 5.54909091796875 8.18181818359375  6.3636363671875 8.9963636328125  6.3636363671875 10  Z M 10 11.8181818164063  C 8.99545455078125 11.8181818164063  8.18181818359375 11.0045454492187  8.18181818359375 10  C 8.18181818359375 8.99545455078125  8.99545455078125 8.18181818359375  10 8.18181818359375  C 11.0036363671875 8.18181818359375  11.8181818164063 8.9963636328125  11.8181818164063 10  C 11.8181818164063 11.0036363671875  11.0036363671875 11.8181818164063  10 11.8181818164063  Z " fill-rule="nonzero" fill="#aaaaaa" stroke="none" transform="matrix(1 0 0 1 216 1037 )" />
  </g>
</svg>