<?xml version="1.0" encoding="utf-8"?>
<svg version="1.1" xmlns:xlink="http://www.w3.org/1999/xlink" width="19px" height="19px" xmlns="http://www.w3.org/2000/svg">
  <g transform="matrix(1 0 0 1 -2143 -1115 )">
    <path d="M 0.554080392992424 17.5596023352273  L 0.554080392992424 1.44039766477273  C 0.554080392992424 0.80387906060606  1.06607956439394 0.287878787878787  1.70659926988636 0.287878787878787  L 17.8258039223485 0.287878787878787  C 18.4623225085227 0.287878787878787  18.97832278125 0.799877959280302  19 1.44039766477273  L 19 17.5596023352273  C 18.97832278125 18.1961209393939  18.4663236278409 18.7121212121212  17.8258039223485 18.7121212121212  L 1.70659926988636 18.7121212121212  C 1.0700806657197 18.7121212121212  0.554080392992424 18.2001220587121  0.554080392992424 17.5596023352273  Z M 15.9032817253788 4.54710094318182  C 15.8803046799242 4.31039511079545  15.7680087964015 4.09673940909091  15.5870848768939 3.94551639393939  C 15.4275969157197 3.81371544507576  15.2301380842803 3.74242424242424  15.0283212897727 3.74242424242424  C 14.7644197102273 3.74242424242424  14.5168256363636 3.86096945265151  14.3490133721591 4.06765116477273  L 7.73656757386364 12.2514752660985  L 5.14084029166667 9.48568114299242  C 4.97564283049242 9.30977988068182  4.74362362878788 9.20890042424242  4.50426542518939 9.20890042424242  C 4.27727366666667 9.20890042424242  4.06191568371212 9.29644724242424  3.89777928977273 9.4554391344697  C 3.72765546685606 9.61973834185606  3.63082079734849 9.84121419886364  3.62506073863636 10.0793558267045  C 3.61927541856061 10.3178564393939  3.70551208238636 10.5441525388258  3.86789266761364 10.7167206145833  L 7.14894057575758 14.2126567594697  C 7.3137591344697 14.3888657102273  7.5457277594697 14.4898990018939  7.78566702840909 14.4898990018939  C 7.79356187026515 14.4898990018939  7.80923778787879 14.4898990018939  7.82954959753788 14.4887195625  C 8.07829315340909 14.4761561363636  8.30987022727273 14.3574570909091  8.46662972727273 14.1618645236742  L 15.7075155672348 5.20093921685606  C 15.8568096685606 5.01673070833333  15.9263472575758 4.7845503125  15.9032817253788 4.54710094318182  Z " fill-rule="nonzero" fill="#70b603" stroke="none" transform="matrix(1 0 0 1 2143 1115 )" />
  </g>
</svg>