<?xml version="1.0" encoding="utf-8"?>
<svg version="1.1" xmlns:xlink="http://www.w3.org/1999/xlink" width="15px" height="16px" xmlns="http://www.w3.org/2000/svg">
  <g transform="matrix(1 0 0 1 -1045 -627 )">
    <path d="M 0.153571428571428 6  L 0.153571428571429 10.4  L 14.8202380901228 10.4  L 14.8202380901228 6  L 0.153571428571428 6  Z M 11.1535714285714 8.16  C 11.1535714285714 7.786666671875  11.4416666615513 7.466666671875  11.7821428571429 7.466666671875  C 12.1488095186942 7.466666671875  12.4369047670201 7.76  12.4630952329799 8.106666671875  C 12.4630952329799 8.48  12.175 8.77333334375  11.8345238044085 8.8  C 11.494047608817 8.82666665625  11.1797618945313 8.506666671875  11.1535714285714 8.16  Z M 9.03214285714286 8.133333328125  C 9.05833333844866 7.76  9.34642857142857 7.46666665625  9.68690476702009 7.466666671875  C 9.94880953404018 7.466666671875  10.1845238197545 7.626666671875  10.2892857142857 7.866666671875  C 10.3940476241629 8.106666671875  10.3416666615513 8.4  10.1583333384487 8.586666671875  C 9.975 8.77333334375  9.68690476702009 8.826666671875  9.4511904813058 8.746666671875  C 9.21547619559152 8.64  9.03214285714286 8.4  9.03214285714286 8.133333328125  Z M 2.2488095186942 8.8  L 2.2488095186942 7.466666671875  L 5.91547619559152 7.466666671875  L 5.91547619559152 8.8  L 2.2488095186942 8.8  Z M 14.8464285714286 1.12  C 14.8202380901228 0.506666671875  14.3226190527344 0  13.7202380901228 0  L 1.27976190987723 0  C 0.677380962611608 0  0.179761909877233 0.506666671875  0.179761909877233 1.12  L 0.179761909877233 4.533333328125  L 14.8464285714286 4.533333328125  L 14.8464285714286 1.12  Z M 5.91547619559152 1.6  L 5.91547619559152 2.933333328125  L 2.2488095186942 2.933333328125  L 2.2488095186942 1.6  L 5.91547619559152 1.6  Z M 10.3416666615513 2.24  C 10.3678571428571 2.613333328125  10.1059523758371 2.906666671875  9.73928571428572 2.933333328125  C 9.50357142857143 2.933333328125  9.26785714285714 2.82666665625  9.13690476702009 2.613333328125  C 9.00595239118304 2.4  9.00595239118304 2.16  9.11071428571429 1.946666671875  C 9.21547618024553 1.73333334375  9.4511904813058 1.6  9.68690476702009 1.6  C 10.0273809626116 1.6  10.3154761955915 1.893333328125  10.3416666615513 2.24  Z M 12.4630952329799 2.24  C 12.4630952329799 2.613333328125  12.175 2.933333328125  11.8345238044085 2.933333328125  C 11.4678571428571 2.933333328125  11.1797618945313 2.64  11.1535714285714 2.293333328125  C 11.1535714285714 1.92  11.4416666615513 1.62666665625  11.7821428571429 1.6  C 12.1488095186942 1.6  12.4369047670201 1.893333328125  12.4630952329799 2.24  Z M 14.8202380901228 11.466666671875  L 1.25357142857143 11.466666671875  L 0.153571428571428 11.466666671875  L 0.153571428571428 15.2  C 0.153571428571428 15.653333328125  0.494047624162946 16  0.939285714285714 16  L 14.0345238044085 16  C 14.4535714285714 16  14.8202380901228 15.653333328125  14.8202380901228 15.2  L 14.8202380901228 11.466666671875  Z M 5.91547619559152 13.066666671875  L 5.91547619559152 14.4  L 2.2488095186942 14.4  L 2.2488095186942 13.066666671875  L 5.91547619559152 13.066666671875  Z M 10.3678571428571 13.733333328125  C 10.3678571428571 14.10666665625  10.0797619098772 14.4  9.71309523297991 14.4  C 9.34642857142857 14.4  9.05833332310268 14.106666671875  9.05833333844866 13.733333328125  C 9.05833335379464 13.359999984375  9.34642857142857 13.06666665625  9.71309523297991 13.066666671875  C 10.0797618945313 13.0666666875  10.3678571428571 13.36  10.3678571428571 13.733333328125  Z M 12.4630952329799 13.733333328125  C 12.4630952176339 14.10666665625  12.175 14.4  11.8083333384487 14.4  C 11.4416666768973 14.4  11.1535714285714 14.106666671875  11.1535714285714 13.733333328125  C 11.1535714285714 13.359999984375  11.4416666615513 13.06666665625  11.8083333384487 13.066666671875  C 12.175000015346 13.0666666875  12.4630952483259 13.36  12.4630952329799 13.733333328125  Z " fill-rule="nonzero" fill="#ffffff" stroke="none" transform="matrix(1 0 0 1 1045 627 )" />
  </g>
</svg>