<?xml version="1.0" encoding="utf-8"?>
<svg version="1.1" xmlns:xlink="http://www.w3.org/1999/xlink" width="27px" height="25px" xmlns="http://www.w3.org/2000/svg">
  <g transform="matrix(1 0 0 1 -4304 -465 )">
    <path d="M 20.3036118848781 19.9471649245064  C 19.8725074946341 19.3148652729384  19.0237855434146 19.1620662020906  18.4095026165854 19.6049698025552  C 16.9126489580488 20.6823101045296  15.1605465190244 21.2224494773519  13.3688792019512 21.1977398373984  C 13.1320694458537 21.1952020905923  12.8965767629268 21.1823797909408  12.6637972507317 21.1616771196283  C 12.5690470068293 21.1524610917538  12.4744021287805 21.1362996515679  12.3782557873171 21.124412311266  C 12.1954460312195 21.0991684088269  12.012636275122 21.0737909407665  11.8350421287805 21.0383960511034  C 11.7245396897561 21.0168919860627  11.6166187141463 20.9883089430894  11.5088031043902 20.9623972125436  C 11.3338431043902 20.9203240418118  11.1602528604878 20.8775830429733  10.9891650556098 20.8254924506388  C 10.9076382263415 20.7995807200929  10.8274284702439 20.7695284552845  10.7458489580488 20.7414796747967  C 10.5498684702439 20.674162601626  10.3538352995122 20.6043077816492  10.1631231043902 20.5221649245064  C 10.1197387141463 20.5041335656214  10.0776450556098 20.4835644599303  10.0354987141463 20.4633960511034  C 9.81193871414634 20.36268757259  9.59225090926829 20.2574378629501  9.37906944585366 20.1385644599303  C 9.36861188487805 20.1333554006969  9.36068310439025 20.1286806039489  9.35014651902439 20.1233379790941  C 8.6292596897561 19.717031358885  7.97024895804878 19.2096155632985  7.39147432390244 18.6165842044135  C 7.38230749463415 18.6071010452962  7.37303529951219 18.5965493612079  7.3638684702439 18.5858641114983  C 7.18364017756098 18.4011428571429  7.01268408 18.2070720092915  6.84955139707317 18.0055214866434  C 6.81536017756097 17.9622462253194  6.7824596897561 17.9162996515679  6.7482684702439 17.872356562137  C 5.57088408 16.3601265969803  4.86058651902439 14.4465319396051  4.86058651902439 12.3651254355401  L 6.85740115317073 12.3651254355401  C 6.90876700682927 12.3651254355401  6.95868408 12.3371567944251  6.98510456780488 12.2877909407665  C 7.01136700682927 12.2389860627178  7.00749481170732 12.181018583043  6.97844017756098 12.1376631823461  L 3.62280115317073 6.96928803716608  C 3.59653871414634 6.92921835075493  3.5519952995122 6.90250522648083  3.50136700682927 6.90250522648083  C 3.45144993365854 6.90250522648083  3.4067484702439 6.92921835075493  3.3804596897561 6.96928803716608  L 0.0246626165853659 12.1369419279907  C -0.00365445658536585 12.1809384436702  -0.00826421268292683 12.2383182346109  0.0180772507317073 12.287737514518  C 0.0443396897560976 12.3370232288037  0.0943884702439024 12.3650720092915  0.14570164097561 12.3650720092915  L 2.14256895804878 12.3650720092915  C 2.14256895804878 14.8121277584204  2.88571432390244 17.080606271777  4.14760212878049 18.9561080139373  C 4.16340700682927 18.9820197444832  4.17386456780488 19.010068524971  4.1910128604878 19.0361138211382  C 4.32250944585366 19.2283147502904  4.46720310439024 19.4048885017422  4.60799822634146 19.5864041811847  C 4.65928505560976 19.6550569105691  4.70928115317073 19.7255795586527  4.76320212878049 19.7931637630662  C 4.96971920195122 20.0505447154472  5.18940700682927 20.292031358885  5.41436310439024 20.5288432055749  C 5.43667432390244 20.5520836236934  5.45643042146341 20.5754576074332  5.47745090926829 20.5961602787456  C 6.23521578731707 21.3751149825784  7.09157676292683 22.031456445993  8.02419627512195 22.5555679442509  C 8.04790359219512 22.5711951219512  8.07153188487805 22.5857537746806  8.09782066536585 22.5997781649245  C 8.36618749463415 22.7479024390244  8.64243042146342 22.881868757259  8.92262456780488 23.0084889663182  C 8.99229773853659 23.0392090592334  9.05938944585366 23.0732682926829  9.1303796897561 23.1038548199768  C 9.36982359219512 23.2053646922183  9.61577383609756 23.2947200929152  9.86312017756098 23.3799349593496  C 9.9801552995122 23.420806039489  10.0959787141463 23.4622113821138  10.2143835921951 23.4994761904762  C 10.4313582263415 23.5655911730546  10.6524421287805 23.6200859465737  10.8746323726829 23.674981416957  C 11.0233299336585 23.7103763066202  11.1693933482927 23.7483089430894  11.3206460312195 23.7776933797909  C 11.3823377385366 23.7909163763066  11.4415533482927 23.8102833914053  11.5033767629268 23.8203008130081  C 11.7138977385366 23.8585005807201  11.9243660312195 23.879737514518  12.1348343239024 23.9063170731707  C 12.2110928604878 23.9149988385598  12.2860870068293 23.9282218350755  12.3610284702439 23.937037166086  C 12.7399504214634 23.9749698025552  13.1161065190244 24.0004808362369  13.4923152995122 24.0004808362369  C 15.7957972507317 24.0004808362369  18.0424606653659 23.2772229965157  19.9697338360976 21.8906782810685  C 20.5840167629268 21.4477746806039  20.7338996897561 20.5789303135888  20.3036118848781 19.9471649245064  Z M 24.8000733482927 12.3651254355401  C 24.798887982439 9.92528222996516  24.060800177561 7.66161207897793  22.8045757873171 5.79003716608595  C 22.7860050556098 5.75798141695703  22.7730977385366 5.72533797909408  22.7532099336585 5.69600696864112  C 22.5966099336585 5.46720905923345  22.4268392019512 5.25377119628339  22.257331884878 5.03966550522648  C 22.2375757873171 5.01362020905924  22.2191367629268 4.98631939605111  22.1981952995122 4.96099535423926  C 21.0483904214634 3.52903832752613  19.6052733482927 2.42252729384437  17.9689416409756 1.69945644599303  C 17.9241611531707 1.67942160278746  17.8793806653659 1.6567955865273  17.834600177561 1.63676074332172  C 17.5728977385366 1.52678281068525  17.3060587141463 1.42941347270616  17.0376392019512 1.33663879210221  C 16.9403074946341 1.30396864111498  16.8441611531707 1.26793263646922  16.7455123726829 1.23793379790941  C 16.5114684702439 1.16522067363531  16.2734733482927 1.10591753774681  16.0338977385366 1.04920557491289  C 15.9011367629268 1.01781765389083  15.7694294458537 0.983170731707319  15.6354831043902 0.95645760743322  C 15.5681806653659 0.94310104529617  15.5065416409756 0.923146341463417  15.440687982439 0.911178861788621  C 15.2618294458537 0.879069686411153  15.0815221287805 0.865018583042976  14.9026635921951 0.841724738675961  C 14.7788587141463 0.825777003484323  14.6565026165854 0.805742160278749  14.5315123726829 0.792385598141699  C 14.2304294458537 0.763749128919864  13.9317172507317 0.751728222996519  13.6331367629268 0.746385598141699  C 13.5792684702439 0.746385598141699  13.5252684702439 0.737703832752616  13.4713474946341 0.737703832752616  C 13.4621806653659 0.737703832752616  13.4529084702439 0.740375145180026  13.4425035921951 0.741042973286879  C 11.1431045678049 0.743046457607436  8.90026066536585 1.45601974448316  6.97570066536585 2.84069454123113  C 6.36010066536585 3.28218234610918  6.21016505560975 4.15257607433217  6.64037383609756 4.78420789779327  C 7.07045090926829 5.41583972125436  7.92022651902439 5.56930662020906  8.5345884702439 5.12640301974449  C 10.0210372507317 4.05721022067364  11.7560704214634 3.51626945412311  13.5345143239024 3.5323774680604  C 13.791080177561 3.53430081300813  14.0423777385366 3.5470162601626  14.2909094458537 3.57097793263647  C 14.3686167629268 3.58027409988386  14.4435582263415 3.5916806039489  14.5198167629268 3.60169802555169  C 14.7251484702439 3.62707549361208  14.9277143239024 3.65704761904762  15.1275143239024 3.69773170731708  C 15.2157582263415 3.71501509872242  15.3037387141463 3.73846922183508  15.3892167629268 3.75842392566783  C 15.5853289580488 3.80370267131243  15.7815728604878 3.85245412311266  15.9736021287805 3.91181068524971  C 16.03392408 3.93176538908246  16.0931923726829 3.9538037166086  16.1535143239024 3.97445296167248  C 16.3732021287805 4.04791405342625  16.5877533482927 4.12717189314751  16.7994070068293 4.21727526132404  C 16.8207435921951 4.22657142857143  16.8430021287805 4.23789779326365  16.8639435921951 4.24657955865273  C 18.1307045678049 4.80621951219512  19.2423143239024 5.66790476190476  20.1093435921951 6.74505807200929  C 20.1143484702439 6.75181649245064  20.1197484702439 6.7604181184669  20.1248850556098 6.76642857142857  C 21.345680177561 8.29180139372822  22.0810021287805 10.2419930313589  22.0810021287805 12.3649384436702  L 20.0840557873171 12.3649384436702  C 20.0329533482927 12.3649384436702  19.9827728604878 12.3929337979094  19.9565631043902 12.4422729384437  C 19.9302216409756 12.4915586527294  19.9340411531707 12.5490452961673  19.963280177561 12.593068524971  L 23.3199728604878 17.7608292682927  C 23.3452606653659 17.8007653890825  23.3900411531707 17.8266771196283  23.4411435921951 17.8266771196283  C 23.4910606653659 17.8266771196283  23.5358411531707 17.8007653890825  23.5621826165854 17.7608292682927  L 26.916636275122 12.593068524971  C 26.945480177561 12.5490452961673  26.9494313970732 12.4915586527294  26.9232216409756 12.4422729384437  C 26.8967484702439 12.3929337979094  26.8469631043902 12.3649384436702  26.7954655434146 12.3649384436702  L 24.8000996897561 12.3649384436702  Z " fill-rule="nonzero" fill="#ffffff" stroke="none" transform="matrix(1 0 0 1 4304 465 )" />
  </g>
</svg>