<?xml version="1.0" encoding="utf-8"?>
<svg version="1.1" xmlns:xlink="http://www.w3.org/1999/xlink" width="60px" height="68px" xmlns="http://www.w3.org/2000/svg">
  <g transform="matrix(1 0 0 1 -4700 -406 )">
    <path d="M 58.3295978483606 56.0292629076087  C 60.2767353995902 59.6631283967391  58.8226498463115 64.5027004076087  54.9367315573771 66.5540760869565  C 51.0508132684426 68.6138247282609  46.3208568135246 67.1569293478261  44.2567238729508 63.4058423913043  C 42.6772861168033 60.5004245923913  43.1619813012295 56.8749320652174  45.2261142418033 54.5723675271739  L 42.1925909323771 48.8871263586956  C 40.6131531762295 49.3727581521739  39.033715420082 49.615574048913  37.3372822745902 49.615574048913  C 29.816150102459 49.615574048913  23.6237512807377 44.2903702445652  22.4120133196721 37.2822010869565  L 16.1026191086066 37.2822010869565  C 15.0078765368852 40.3048403532609  12.0997054303279 42.4818104619565  8.69848232581967 42.4818104619565  C 4.32786885245902 42.4818104619565  0.809650358606559 38.9735394021739  0.809650358606559 34.6195991847826  C 0.809650358606559 30.2656589673913  4.32786885245902 26.7573879076087  8.69848232581967 26.7573879076087  C 12.0997054303279 26.7573879076087  15.0078765368852 28.8171365489131  16.1026191086066 31.8397758152174  L 22.537365522541 31.8397758152174  C 23.8744556864754 24.948828125  30.0584976946721 19.8664402173913  37.462634477459 19.8664402173913  C 38.6743724385246 19.8664402173913  39.8861103995902 19.9836616847826  40.9808529713115 20.2264775815217  L 43.5296810963115 14.1811990489131  C 41.1062051741803 12.0042289402174  40.2538101946721 8.49595788043479  41.5909003586066 5.35609714673914  C 43.2873335040984 1.36219429347827  47.9002945696721 -0.571959918478251  51.9032082479508 1.11937839673914  C 55.9061219262295 2.81071671195653  57.853259477459 7.40747282608697  56.1484695184426 11.4013756793478  C 54.8113793545082 14.549609375  51.777856045082 16.3581691576087  48.6273373463115 16.2409476902174  L 45.9531570184426 22.5290421195652  C 49.9560706967213 25.1916440217391  52.6302510245902 29.7884001358696  52.6302510245902 34.8624150815218  C 52.6302510245902 39.4591711956522  50.4491226946721 43.5702955163044  47.1648949795082 46.3501188858696  L 50.1984182889344 52.0353600543478  C 53.3572938012295 51.5497282608696  56.6331647028688 53.1238451086957  58.3295978483606 56.0292629076087  Z " fill-rule="nonzero" fill="#bdbdd5" stroke="none" transform="matrix(1 0 0 1 4700 406 )" />
  </g>
</svg>