<?xml version="1.0" encoding="utf-8"?>
<svg version="1.1" xmlns:xlink="http://www.w3.org/1999/xlink" width="22px" height="22px" xmlns="http://www.w3.org/2000/svg">
  <g transform="matrix(1 0 0 1 -4076 -386 )">
    <path d="M 11.7940625 1.020078125  C 12.0415625 1.169609375  12.234921875 1.370703125  12.374140625 1.623359375  L 21.786875 18.881328125  C 22.073046875 19.396953125  22.0653125 19.91  21.76109375 20.425625  C 21.621875 20.6628125  21.43109375 20.851015625  21.191328125 20.990234375  C 20.948984375 21.129453125  20.691171875 21.1990625  20.412734375 21  L 1.5846875 21  C 1.30625 21.1990625  1.0484375 21.129453125  0.80609375 20.990234375  C 0.56375 20.851015625  0.375546875 20.6628125  0.236328125 20.425625  C -0.0653125000000002 19.91  -0.073046875 19.396953125  0.210546875 18.881328125  L 9.625859375 1.62078125  C 9.765078125 1.368125  9.955859375 1.16703125  10.20078125 1.020078125  C 10.445703125 0.873125000000001  10.71125 0.798359375000001  10.997421875 0.798359375000001  C 11.28359375 0.798359375000001  11.549140625 0.873125000000002  11.7940625 1.020078125  Z M 12.41796875 13.2790625  C 12.492734375 13.224921875  12.5365625 13.152734375  12.544296875 13.075390625  L 12.766015625 7.449921875  C 12.766015625 7.351953125  12.724765625 7.274609375  12.642265625 7.217890625  C 12.5365625 7.12765625  12.43859375 7.083828125  12.348359375 7.083828125  L 9.651640625 7.083828125  C 9.56140625 7.083828125  9.4634375 7.12765625  9.357734375 7.217890625  C 9.275234375 7.274609375  9.233984375 7.3596875  9.233984375 7.475703125  L 9.4428125 13.07796875  C 9.4428125 13.16046875  9.4840625 13.2275  9.5665625 13.2790625  C 9.6490625 13.333203125  9.74703125 13.358984375  9.86046875 13.358984375  L 12.12921875 13.358984375  C 12.24265625 13.358984375  12.340625 13.333203125  12.41796875 13.2790625  Z M 12.4540625 17.948046875  C 12.53140625 17.870703125  12.570078125 17.772734375  12.570078125 17.659296875  L 12.570078125 15.33125  C 12.570078125 15.2178125  12.53140625 15.11984375  12.4540625 15.0425  C 12.37671875 14.96515625  12.28390625 14.926484375  12.178203125 14.926484375  L 9.824375 14.926484375  C 9.718671875 14.926484375  9.625859375 14.96515625  9.548515625 15.0425  C 9.471171875 15.11984375  9.4325 15.215234375  9.4325 15.33125  L 9.4325 17.659296875  C 9.4325 17.772734375  9.471171875 17.870703125  9.548515625 17.948046875  C 9.625859375 18.025390625  9.718671875 18.0640625  9.824375 18.0640625  L 12.178203125 18.0640625  C 12.28390625 18.0640625  12.37671875 18.025390625  12.4540625 17.948046875  Z " fill-rule="nonzero" fill="#f59a23" stroke="none" transform="matrix(1 0 0 1 4076 386 )" />
  </g>
</svg>