<?xml version="1.0" encoding="utf-8"?>
<svg version="1.1" xmlns:xlink="http://www.w3.org/1999/xlink" width="13px" height="14px" xmlns="http://www.w3.org/2000/svg">
  <g transform="matrix(1 0 0 1 -895 -229 )">
    <path d="M 12.0333984375 6.9904296875  C 12.0333984375 3.606640625  9.344140625 0.8640625  6.02734375 0.8640625  C 2.710546875 0.8640625  0.0212890624999997 3.606640625  0.0212890624999997 6.9904296875  C 0.0212890624999997 10.37421875  2.710546875 13.116796875  6.02734375 13.116796875  C 9.344140625 13.116796875  12.0333984375 10.37421875  12.0333984375 6.9904296875  Z M 6.721875 9.01796875  L 6.721875 10.4931640625  L 5.15234375 10.4931640625  L 5.15234375 9.01796875  L 6.721875 9.01796875  Z M 8.515625 5.1419921875  C 8.559375 5.8255859375  8.1751953125 6.444921875  7.3630859375 7  C 6.7642578125 7.4060546875  6.49765625 7.801171875  6.5619140625 8.1853515625  L 6.5619140625 8.4423828125  L 5.2794921875 8.4423828125  L 5.2794921875 8.0896484375  C 5.2576171875 7.4279296875  5.5365234375 6.893359375  6.112109375 6.4873046875  C 6.6453125 6.0607421875  6.90234375 5.6751953125  6.8818359375 5.3333984375  C 6.839453125 4.8849609375  6.593359375 4.6388671875  6.144921875 4.596484375  C 5.54609375 4.596484375  5.1728515625 4.9916015625  5.023828125 5.7818359375  L 3.5814453125 5.4619140625  C 3.8384765625 4.0099609375  4.766796875 3.3044921875  6.369140625 3.346875  C 7.6939453125 3.4111328125  8.408984375 4.00859375  8.515625 5.1419921875  Z " fill-rule="nonzero" fill="#7f7f7f" stroke="none" transform="matrix(1 0 0 1 895 229 )" />
  </g>
</svg>