<?xml version="1.0" encoding="utf-8"?>
<svg version="1.1" xmlns:xlink="http://www.w3.org/1999/xlink" width="33px" height="24px" xmlns="http://www.w3.org/2000/svg">
  <g transform="matrix(1 0 0 1 -829 -249 )">
    <path d="M 31.921 11.10325  L 31.91925 11.10325  L 27.945 8.75475  C 27.7513388323446 8.64153931090826  27.5115256885797 8.64220918002492  27.3185 8.7565  C 27.1239043771058 8.87295203014453  27.0044144432864 9.08272324729405  27.0035 9.3095  L 27.0035 11  L 6.861 11  C 5.006 10.62375  3.38375 9.34275  2.91825 7.50875  C 2.44650423545751 5.68526186302112  3.24802668721083 3.77091136441385  4.87825 2.8275  C 6.49875015957092 1.90595142201554  8.54090819094481 2.22526539991338  9.80275 3.5975  C 11.08025 4.973  11.285 7.05725  10.3015 8.6655  C 10.0235915529054 9.15031418958673  10.1725796745098 9.76777011623598  10.641 10.0725  C 11.1065 10.37  11.72075 10.23525  12.02525 9.768  C 13.4993153858566 7.3512359899203  13.1937181098762 4.25028045351198  11.27625 2.16775  C 9.38480002623297 0.108808521392483  6.32230875552367 -0.371610725339639  3.89125 1.00925  C 1.45875 2.38825  0.2495 5.27575  0.947750000000001 8.0285  C 1.64775 10.78125  4.08025 12.701  6.861 12.69925  L 27.007 12.69925  L 27.007 14.003  C 27.007 14.2305  27.12775 14.4405  27.322 14.556  C 27.5145 14.6715  27.7525 14.6715  27.94675 14.5595  L 31.921 12.211  C 32.1190483013686 12.0966603415257  32.2406084199118 11.8849320031841  32.2395 11.65625  C 32.2399801041232 11.4281925799713  32.118504248682 11.2172784573371  31.921 11.10325  Z M 20.336 15.02675  L 20.33425 15.02675  C 19.7673093468613 15.0344341336296  19.3134122881874 15.4992873282025  19.31925 16.06625  L 19.31925 22.2105  C 19.31925 22.7845  19.77425 23.25  20.33425 23.25  C 20.896 23.25  21.351 22.7845  21.351 22.2105  L 21.351 16.068  C 21.3578101246508 15.5003574931335  20.9036313671814 15.0344327333158  20.336 15.02675  Z M 12.9598237794945 16.0556779564936  C 12.9598237794945 15.4921263637899  12.5065121366953 15.0334185407765  11.943 15.02675  C 11.3753727813204 15.0334779788262  10.9204176073389 15.4986128727075  10.92625 16.06625  L 10.92625 22.2105  C 10.92625 22.7845  11.38125 23.25  11.94125 23.25  C 12.503 23.25  12.95975 22.7845  12.95975 22.2105  L 12.95975 16.068  C 12.9597991858888 16.0638928362301  12.9598237794945 16.0597854147691  12.9598237794945 16.0556779564936  Z " fill-rule="nonzero" fill="#bdbdd5" stroke="none" transform="matrix(1 0 0 1 829 249 )" />
  </g>
</svg>