<?xml version="1.0" encoding="utf-8"?>
<svg version="1.1" xmlns:xlink="http://www.w3.org/1999/xlink" width="11px" height="19px" xmlns="http://www.w3.org/2000/svg">
  <g transform="matrix(1 0 0 1 -844 -240 )">
    <path d="M 0.868249999999996 9.94275  L 0.866499999999998 9.94275  L 4.3175 9.94275  L 4.3175 17.3855  C 4.3175 17.9595  4.7725 18.425  5.33425 18.425  C 5.896 18.425  6.351 17.9595  6.351 17.3855  L 6.351 9.94275  L 9.7985 9.94275  C 10.0233929356453 9.93994727048367  10.2296314752321 9.8171385608268  10.33925 9.62075  C 10.4516011814705 9.42235403738745  10.4529262747915 9.1798619596413  10.34275 8.98025  L 5.87325 1.0755  C 5.76621185988345 0.8761578044534  5.5587583227987 0.751282859800448  5.3325 0.75  C 5.10561306814411 0.750642196444334  4.89733696479483 0.875607858453898  4.79 1.0755  L 0.327500000000004 8.98025  C 0.214664804562453 9.17867792235923  0.214000786702677 9.42170845903768  0.325749999999999 9.62075  C 0.434856802437896 9.81847543318649  0.642421556304754 9.9416751580623  0.868249999999996 9.94275  Z " fill-rule="nonzero" fill="#bdbdd5" stroke="none" transform="matrix(1 0 0 1 844 240 )" />
  </g>
</svg>