<?xml version="1.0" encoding="utf-8"?>
<svg version="1.1" xmlns:xlink="http://www.w3.org/1999/xlink" width="37px" height="37px" xmlns="http://www.w3.org/2000/svg">
  <g transform="matrix(1 0 0 1 -4299 -459 )">
    <path d="M 4317.5 459  C 4327.86 459  4336 467.14  4336 477.5  C 4336 487.86  4327.86 496  4317.5 496  C 4307.14 496  4299 487.86  4299 477.5  C 4299 467.14  4307.14 459  4317.5 459  Z " fill-rule="nonzero" fill="#f56c6c" stroke="none" />
    <path d="M 4317.5 459.5  C 4327.58 459.5  4335.5 467.42  4335.5 477.5  C 4335.5 487.58  4327.58 495.5  4317.5 495.5  C 4307.42 495.5  4299.5 487.58  4299.5 477.5  C 4299.5 467.42  4307.42 459.5  4317.5 459.5  Z " stroke-width="1" stroke="#d7d7d7" fill="none" />
  </g>
</svg>