<?xml version="1.0" encoding="utf-8"?>
<svg version="1.1" xmlns:xlink="http://www.w3.org/1999/xlink" width="20px" height="20px" xmlns="http://www.w3.org/2000/svg">
  <g transform="matrix(1 0 0 1 -3753 -1741 )">
    <path d="M 19.6 10  C 19.6 4.72  15.28 0.399999999999999  10 0.4  C 4.72 0.4  0.399999999999999 4.72  0.399999999999999 10  C 0.399999999999999 15.28  4.72 19.6  10 19.6  C 15.28 19.6  19.6 15.28  19.6 10  Z M 11.2 10  L 14.32 13.12  C 14.68 13.48  14.68 13.96  14.32 14.32  C 13.96 14.68  13.48 14.68  13.12 14.32  L 10 11.2  L 6.88 14.32  C 6.52 14.68  6.04 14.68  5.68 14.32  C 5.32 13.96  5.32 13.48  5.68 13.12  L 8.8 10  L 5.68 6.88  C 5.32 6.52  5.32 6.04  5.68 5.68  C 6.04 5.32  6.52 5.32  6.88 5.68  L 10 8.8  L 13.12 5.68  C 13.48 5.32  13.96 5.32  14.32 5.68  C 14.68 6.04  14.68 6.52  14.32 6.88  L 11.2 10  Z " fill-rule="nonzero" fill="#d9001b" stroke="none" transform="matrix(1 0 0 1 3753 1741 )" />
  </g>
</svg>