<?xml version="1.0" encoding="utf-8"?>
<svg version="1.1" xmlns:xlink="http://www.w3.org/1999/xlink" width="25px" height="35px" xmlns="http://www.w3.org/2000/svg">
  <g transform="matrix(1 0 0 1 -1165 -948 )">
    <path d="M 5.33722908266129 18.7079412286932  C 5.42385962701613 18.6691006747159  5.50261466733871 18.6186079545455  5.57349420362903 18.5486949573864  C 5.57743195564516 18.5448109019886  5.58136970766129 18.5448109019886  5.58530745967742 18.5409268465909  L 19.5603893649194 4.76029829545455  C 19.8596585181452 4.46511008522727  19.8596585181452 3.98737127130682  19.5603893649194 3.69218306107955  L 16.1345451108871 0.313054865056818  C 15.9927860383065 0.173228870738637  15.7958984375 0.0916637073863636  15.5950730846774 0.0916637073863636  C 15.3942477318548 0.0916637073863636  15.1973601310484 0.169344815340909  15.0556010584677 0.313054865056818  L 10.9130859375 4.40296519886364  L 9.65300529233871 3.16006747159091  C 9.15684853830645 2.67067649147727  8.349609375 2.67067649147727  7.84951486895161 3.16006747159091  L 3.88419858870968 7.07131125710227  C 3.38804183467742 7.56070223721591  3.38804183467742 8.35693359375  3.88419858870968 8.85020862926136  L 5.14427923387097 10.0931063565341  L 0.997826360887097 14.1830166903409  C 0.852129536290323 14.3267267400568  0.769436743951612 14.5209295099432  0.773374495967742 14.7267844460227  C 0.777312247983872 14.9326393821023  0.860005040322581 15.1229580965909  1.00963961693548 15.2627840909091  L 4.51817666330645 18.5564630681818  C 4.5654296875 18.5991876775568  4.62055821572581 18.6263760653409  4.67568674395161 18.6574485085227  C 4.70718876008065 18.6729847301136  4.73081527217742 18.7001731178977  4.76231728830645 18.7118252840909  C 4.85288558467742 18.7467817826705  4.94739163306452 18.7662020596591  5.04583543346774 18.7662020596591  C 5.14034148185484 18.7662020596591  5.23484753024194 18.7467817826705  5.3254158266129 18.7118252840909  C 5.32935357862903 18.7118252840909  5.33329133064516 18.7079412286932  5.33722908266129 18.7079412286932  Z M 5.14427923387097 7.96075994318182  L 8.74732232862903 4.40296519886364  L 9.82626638104839 5.47108043323864  L 6.22322328629032 9.02499112215909  L 5.14427923387097 7.96075994318182  Z M 2.63593119959677 14.7034801136364  L 15.5990108366935 1.91328568892046  L 17.9419732862903 4.22429865056818  L 5.03402217741935 16.9562322443182  L 2.63593119959677 14.7034801136364  Z M 24.6873424899194 19.2672452059659  C 24.6715914818548 19.0575062144886  24.5298324092742 18.8166947798295  24.1636214717742 18.7623180042614  L 6.84538810483871 18.7623180042614  C 6.47917716733871 18.8166947798295  6.33741809475806 19.0575062144886  6.33741809475806 19.2633611505682  L 6.33741809475806 31.5797008167614  C 6.33741809475806 33.4751198508523  7.62506300403226 34.8500754616477  9.39705141129032 34.8500754616477  L 21.6277091733871 34.8500754616477  C 23.3996975806452 34.8500754616477  24.6873424899194 33.4751198508523  24.6873424899194 31.5797008167614  L 24.6873424899194 19.2672452059659  Z M 13 31.300048828125  L 13 20.3120561079545  L 17.536384828629 20.3120561079545  L 17.536384828629 31.300048828125  C 17.4694430443548 31.3155850497159  17.3709992439516 31.3311212713068  17.2489289314516 31.3311212713068  L 13.7443296370968 31.3311212713068  C 13.6222593245968 31.3311212713068  13.5238155241936 31.3155850497159  13 31.300048828125  Z M 23 31.5835848721591  C 23.1437436995968 32.4885697798295  22.1514301915323 33.3430619673295  21.1039881552419 33  L 9.88927041330645 33  C 8.84182837701613 33.3430619673295  7.84951486895161 32.4885697798295  8 31.5835848721591  L 8 20.3120561079545  L 12 20.3120561079545  L 12 31.470947265625  C 12.4369959677419 31.6729181463068  12.5118132560484 32.3370916193182  13.5041267641129 32.3370916193182  L 17.4891318044355 32.3370916193182  C 18.4775075604839 32.3370916193182  18.5562626008065 31.6729181463068  18.5562626008065 31.470947265625  L 18.5562626008065 20.3120561079545  L 23 20.3120561079545  L 23 31.5835848721591  Z " fill-rule="nonzero" fill="#bdbdd5" stroke="none" transform="matrix(1 0 0 1 1165 948 )" />
  </g>
</svg>