<?xml version="1.0" encoding="utf-8"?>
<svg version="1.1" xmlns:xlink="http://www.w3.org/1999/xlink" width="73px" height="10px" preserveAspectRatio="xMinYMid meet" viewBox="1332 211  73 8" xmlns="http://www.w3.org/2000/svg">
  <path d="M 1334 215  L 1395 215  A 5 5 0 0 1 1400 220 L 1400 474  A 5 5 0 0 0 1405 479 L 1406 479  " stroke-width="2" stroke="#0099cc" fill="none" />
  <path d="M 1335.5 211.5  A 3.5 3.5 0 0 0 1332 215 A 3.5 3.5 0 0 0 1335.5 218.5 A 3.5 3.5 0 0 0 1339 215 A 3.5 3.5 0 0 0 1335.5 211.5 Z M 1405 486.6  L 1412 479  L 1405 471.4  L 1405 486.6  Z " fill-rule="nonzero" fill="#0099cc" stroke="none" />
</svg>