<?xml version="1.0" encoding="utf-8"?>
<svg version="1.1" xmlns:xlink="http://www.w3.org/1999/xlink" width="19px" height="19px" xmlns="http://www.w3.org/2000/svg">
  <g transform="matrix(1 0 0 1 -1065 -370 )">
    <path d="M 19 1.9  C 19 1.71  18.8733333271484 1.58333332714844  18.6833333271484 1.58333332714844  L 10.7666666728516 1.58333332714844  L 10.7666666728516 0.633333327148437  C 10.7666666728516 0.506666654296875  10.7033333457031 0.443333327148437  10.64 0.38  C 10.5766666542969 0.316666672851563  10.45 0.316666672851562  10.3866666728516 0.316666672851562  L 0.253333327148437 2.85  C 0.126666654296875 2.91333332714844  0 3.04  0 3.16666667285156  L 0 16.4666666728516  C 0 16.5933333457031  0.126666672851562 16.72  0.253333327148437 16.7833333271484  L 10.3866666728516 18.6833333271484  L 10.45 18.6833333271484  C 10.5133333271484 18.6833333271484  10.5766666728516 18.6833333271484  10.64 18.62  C 10.7033333271484 18.5566666728516  10.7666666728516 18.4933333271484  10.7666666728516 18.3666666728516  L 10.7666666728516 17.4166666728516  L 18.6833333271484 17.4166666728516  C 18.8733333271484 17.4166666728516  19 17.29  19 17.1  L 19 1.9  Z M 18.3666666728516 12.35  L 18.3666666728516 14.25  L 13.9333333271484 14.25  L 13.9333333271484 12.35  L 18.3666666728516 12.35  Z M 3.16666667285156 12.73  C 3.16666667285156 12.6666666728516  3.16666667285156 12.6033333271484  3.23 12.4766666728516  L 4.94 9.62666667285156  C 5.00333332714844 9.5  5.00333332714844 9.37333334570312  4.94 9.31  L 3.23 6.46  C 3.16666667285156 6.39666667285156  3.16666667285156 6.33333332714844  3.16666667285156 6.27  C 3.16666667285156 6.20666667285156  3.23 6.14333332714844  3.29333332714844 6.08  C 3.42 6.01666667285156  3.61 6.01666667285156  3.73666667285156 6.20666667285156  L 5.06666667285156 8.48666667285156  C 5.19333334570312 8.67666667285156  5.51 8.67666667285156  5.63666667285156 8.48666667285156  L 6.96666667285156 6.20666667285156  C 7.03 6.08  7.28333334570312 6.01666667285156  7.41 6.08  C 7.53666667285156 6.08  7.6 6.20666667285156  7.6 6.27  C 7.6 6.33333332714844  7.6 6.46  7.53666667285156 6.52333332714844  L 5.82666667285156 9.37333332714844  C 5.76333334570312 9.5  5.76333334570312 9.62666665429687  5.82666667285156 9.69  L 7.53666667285156 12.54  C 7.6 12.6033333271484  7.6 12.6666666728516  7.6 12.73  C 7.6 12.7933333271484  7.53666667285156 12.8566666728516  7.47333332714844 12.92  C 7.34666665429688 12.9833333271484  7.15666665429687 12.9833333271484  7.03 12.7933333271484  L 5.7 10.5133333271484  C 5.63666667285156 10.3866666542969  5.51 10.3866666542969  5.44666667285156 10.3866666728516  C 5.38333334570313 10.3866666914062  5.25666667285156 10.45  5.19333332714844 10.5133333271484  L 3.86333332714844 12.7933333271484  C 3.8 12.92  3.54666665429688 12.9833333271484  3.42 12.92  C 3.23 12.92  3.16666667285156 12.8566666728516  3.16666667285156 12.73  Z M 10.7666666728516 11.7166666728516  L 10.7666666728516 9.81666667285156  L 13.3 9.81666667285156  L 13.3 11.7166666728516  L 10.7666666728516 11.7166666728516  Z M 13.3 9.18333332714844  L 10.7666666728516 9.18333332714844  L 10.7666666728516 7.28333332714844  L 13.3 7.28333332714844  L 13.3 9.18333332714844  Z M 13.9333333271484 9.18333332714844  L 13.9333333271484 7.28333332714844  L 18.3666666728516 7.28333332714844  L 18.3666666728516 9.18333332714844  L 13.9333333271484 9.18333332714844  Z M 18.3666666728516 4.75  L 18.3666666728516 6.65  L 13.9333333271484 6.65  L 13.9333333271484 4.75  L 18.3666666728516 4.75  Z M 13.3 4.75  L 13.3 6.65  L 10.7666666728516 6.65  L 10.7666666728516 4.75  L 13.3 4.75  Z M 10.7666666728516 14.25  L 10.7666666728516 12.35  L 13.3 12.35  L 13.3 14.25  L 10.7666666728516 14.25  Z M 18.3666666728516 11.7166666728516  L 13.9333333271484 11.7166666728516  L 13.9333333271484 9.81666667285157  L 18.3666666728516 9.81666667285157  L 18.3666666728516 11.7166666728516  Z M 13.9333333271484 2.21666667285157  L 18.3666666728516 2.21666667285157  L 18.3666666728516 4.11666667285157  L 13.9333333271484 4.11666667285157  L 13.9333333271484 2.21666667285157  Z M 10.7666666728516 2.21666667285157  L 13.3 2.21666667285157  L 13.3 4.11666667285157  L 10.7666666728516 4.11666667285157  L 10.7666666728516 2.21666667285157  Z M 10.7666666728516 16.7833333271484  L 10.7666666728516 14.8833333271484  L 13.3 14.8833333271484  L 13.3 16.7833333271484  L 10.7666666728516 16.7833333271484  Z M 18.3666666728516 14.8833333271484  L 18.3666666728516 16.7833333271484  L 13.9333333271484 16.7833333271484  L 13.9333333271484 14.8833333271484  L 18.3666666728516 14.8833333271484  Z " fill-rule="nonzero" fill="#000000" stroke="none" transform="matrix(1 0 0 1 1065 370 )" />
  </g>
</svg>