<?xml version="1.0" encoding="utf-8"?>
<svg version="1.1" xmlns:xlink="http://www.w3.org/1999/xlink" width="22px" height="26px" xmlns="http://www.w3.org/2000/svg">
  <g transform="matrix(1 0 0 1 -1224 -8 )">
    <path d="M 20.33332421875 21  C 21.03332421875 20.93332421875  21.5 20.23332421875  21.15 19.65  L 19.86667578125 16.61667578125  L 19.86667578125 11.6  C 19.86667578125 7.05  16.36667578125 3.2  11.93332421875 2.73332421875  L 11.93332421875 1.33332421875  C 11.93332421875 0.86667578125  11.46667578125 0.4  11 0.4  C 10.53332421875 0.4  10.06667578125 0.86667578125  10.06667578125 1.33332421875  L 10.06667578125 2.73332421875  C 5.63332421875 3.2  2.13332421875 6.93332421875  2.13332421875 11.6  L 2.13332421875 16.61667578125  L 0.850000000000001 19.65  C 0.5 20.23332421875  0.96667578125 20.93332421875  1.66667578125 21  L 20.33332421875 21  Z M 18.93332421875 19  L 3.06667578125 19  L 3.88332421875 17.2  C 3.88332421875 17.08332421875  4 16.96667578125  4 16.85  L 4 11.71667578125  C 4 7.86667578125  7.15 4.71667578125  11 4.71667578125  C 14.85 4.71667578125  18 7.86667578125  18 11.71667578125  L 18 16.85  C 18 16.96667578125  18 17.08332421875  18.11667578125 17.2  L 18.93332421875 19  Z M 12.63332421875 22.33332421875  C 12.63332421875 23.26667578125  11.93332421875 23.96667578125  11 23.96667578125  C 10.06667578125 23.96667578125  9.36667578125 23.26667578125  9.36667578125 22.33332421875  L 7.5 22.33332421875  C 7.5 24.31667578125  9.01667578125 25.83332421875  11 25.83332421875  C 12.98332421875 25.83332421875  14.5 24.31667578125  14.5 22.33332421875  L 12.63332421875 22.33332421875  Z " fill-rule="nonzero" fill="#ffffff" stroke="none" transform="matrix(1 0 0 1 1224 8 )" />
  </g>
</svg>