<?xml version="1.0" encoding="utf-8"?>
<svg version="1.1" xmlns:xlink="http://www.w3.org/1999/xlink" width="36px" height="36px" xmlns="http://www.w3.org/2000/svg">
  <defs>
    <filter x="390px" y="5px" width="36px" height="36px" filterUnits="userSpaceOnUse" id="filter666">
      <feOffset dx="1" dy="1" in="SourceAlpha" result="shadowOffsetInner" />
      <feGaussianBlur stdDeviation="2.5" in="shadowOffsetInner" result="shadowGaussian" />
      <feComposite in2="shadowGaussian" operator="atop" in="SourceAlpha" result="shadowComposite" />
      <feColorMatrix type="matrix" values="0 0 0 0 0  0 0 0 0 0  0 0 0 0 0  0 0 0 0.698039215686274 0  " in="shadowComposite" />
    </filter>
    <g id="widget667">
      <path d="M 407 9  C 414.28 9  420 14.72  420 22  C 420 29.28  414.28 35  407 35  C 399.72 35  394 29.28  394 22  C 394 14.72  399.72 9  407 9  Z " fill-rule="nonzero" fill="#009dd9" stroke="none" />
      <path d="M 407 9.5  C 414 9.5  419.5 15  419.5 22  C 419.5 29  414 34.5  407 34.5  C 400 34.5  394.5 29  394.5 22  C 394.5 15  400 9.5  407 9.5  Z " stroke-width="1" stroke="#ffffff" fill="none" />
    </g>
  </defs>
  <g transform="matrix(1 0 0 1 -390 -5 )">
    <use xlink:href="#widget667" filter="url(#filter666)" />
    <use xlink:href="#widget667" />
  </g>
</svg>