<?xml version="1.0" encoding="utf-8"?>
<svg version="1.1" xmlns:xlink="http://www.w3.org/1999/xlink" width="16px" height="16px" xmlns="http://www.w3.org/2000/svg">
  <g transform="matrix(1 0 0 1 -1294 -110 )">
    <path d="M 0.928608946289062 4.3909386328125  C 0.928608946289062 4.3909386328125  2.35463364257813 2.19042793652344  4.61107506933594 1.00964572167969  C 6.86749977832031 -0.17108633984375  9.64746624902344 0.1688287265625  11.4706409443359 1.31377849414063  C 13.29381565625 2.45879514941406  13.9076157470703 3.42483344726563  13.9076157470703 3.42483344726563  L 15.4780403857422 2.53034300292969  C 15.4780403857422 2.53034300292969  15.8030405917969 2.36935612402344  15.8030405917969 2.74503676660156  L 15.8030405917969 8.36267283789063  C 15.8030405917969 8.36267283789063  15.8030405917969 8.86360821875  15.4238987724609 8.68466331347656  C 15.1049681806641 8.53421047460937  11.6560233212891 6.57297296875  10.5691946943359 5.95425698925781  C 9.97236611523438 5.68804676757813  10.4967271972656 5.47178125097656  10.4967271972656 5.47178125097656  L 12.0121909023438 4.60561567871094  C 12.0121909023438 4.60561567871094  11.1477642773438 3.52303411328125  9.88255924902344 2.94969810644531  C 8.5282663515625 2.24410138574219  7.26036928027344 2.16043102148437  5.70730072851563 2.74675899609375  C 4.69456152148438 3.12901086914062  3.50222528320313 4.10789065820313  2.64341680957031 5.5537962734375  L 0.928608946289062 4.3909386328125  Z M 15.0087572783203 11.8152962382813  C 15.0087572783203 11.8152962382813  13.5827325820312 14.0158403701172  11.3262577197266 15.1965557138672  C 9.06981629296875 16.3773044931641  6.2898999921875 16.0374563144531  4.4667085625 14.8924898291016  C 2.64343352734375 13.7474397382812  2.02975049414063 12.7813512705078  2.02975049414063 12.7813512705078  L 0.459242233398438 13.6758417148437  C 0.459242233398438 13.6758417148437  0.134308915039062 13.8369289169922  0.134308915039062 13.4611479511719  L 0.134308915039063 7.84356204980469  C 0.134308915039063 7.84356204980469  0.134308915039063 7.34267683886719  0.513350411132813 7.52153813867188  C 0.832297720703125 7.67207458300781  4.28132618554687 9.63322848339844  5.3681548125 10.2520113339844  C 5.96498339160156 10.5182215556641  5.44063904394531 10.7344201845703  5.44063904394531 10.7344201845703  L 3.92515862109375 11.6006192089844  C 3.92515862109375 11.6006192089844  4.78961868164062 12.6831506210938  6.0548069921875 13.25653678125  C 7.40904973632813 13.9620833320312  8.67689663769531 14.0457871484375  10.2300487949219 13.4594424394531  C 11.2427211308594 13.0771738486328  12.4350740703125 12.0983943662109  13.29381565625 10.6524051621094  L 15.0087572783203 11.8152962382813  Z " fill-rule="nonzero" fill="#000000" stroke="none" transform="matrix(1 0 0 1 1294 110 )" />
  </g>
</svg>