<?xml version="1.0" encoding="utf-8"?>
<svg version="1.1" xmlns:xlink="http://www.w3.org/1999/xlink" width="10px" height="1134px" preserveAspectRatio="xMidYMin meet" viewBox="3608 1243  8 1134" xmlns="http://www.w3.org/2000/svg">
  <defs>
    <mask fill="white" id="clip545">
      <path d="M 3552 1684  L 3672 1684  L 3672 1748  L 3552 1748  Z M 3292 1238  L 3744 1238  L 3744 2382  L 3292 2382  Z " fill-rule="evenodd" />
    </mask>
  </defs>
  <path d="M 3308 1248  L 3607 1248  A 5 5 0 0 1 3612 1253 L 3612 1991  A 3 3 0 0 1 3615 1994 A 3 3 0 0 1 3612 1997 L 3612 2367  A 5 5 0 0 0 3617 2372 L 3732 2372  " stroke-width="2" stroke="#0099cc" fill="none" mask="url(#clip545)" />
  <path d="M 3305.5 1244.5  A 3.5 3.5 0 0 0 3302 1248 A 3.5 3.5 0 0 0 3305.5 1251.5 A 3.5 3.5 0 0 0 3309 1248 A 3.5 3.5 0 0 0 3305.5 1244.5 Z M 3305.5 1246.5  A 1.5 1.5 0 0 1 3307 1248 A 1.5 1.5 0 0 1 3305.5 1249.5 A 1.5 1.5 0 0 1 3304 1248 A 1.5 1.5 0 0 1 3305.5 1246.5 Z M 3726.89289321881 2367.70710678119  L 3731.18578643763 2372  L 3726.89289321881 2376.29289321881  L 3728.30710678119 2377.70710678119  L 3733.30710678119 2372.70710678119  L 3734.01421356237 2372  L 3733.30710678119 2371.29289321881  L 3728.30710678119 2366.29289321881  L 3726.89289321881 2367.70710678119  Z " fill-rule="nonzero" fill="#0099cc" stroke="none" mask="url(#clip545)" />
</svg>