<?xml version="1.0" encoding="utf-8"?>
<svg version="1.1" xmlns:xlink="http://www.w3.org/1999/xlink" width="20px" height="20px" preserveAspectRatio="xMinYMid meet" viewBox="3722 1482  20 18" xmlns="http://www.w3.org/2000/svg">
  <defs>
    <mask fill="white" id="clip792">
      <path d="M 3580 1207  L 3700 1207  L 3700 1289  L 3580 1289  Z M 3292 1207  L 3744 1207  L 3744 1501  L 3292 1501  Z " fill-rule="evenodd" />
    </mask>
  </defs>
  <path d="M 3308 1248  L 3661 1248  A 5 5 0 0 1 3666 1253 L 3666 1486  A 5 5 0 0 0 3671 1491 L 3732 1491  " stroke-width="2" stroke="#0099cc" fill="none" mask="url(#clip792)" />
  <path d="M 3305.5 1244.5  A 3.5 3.5 0 0 0 3302 1248 A 3.5 3.5 0 0 0 3305.5 1251.5 A 3.5 3.5 0 0 0 3309 1248 A 3.5 3.5 0 0 0 3305.5 1244.5 Z M 3305.5 1246.5  A 1.5 1.5 0 0 1 3307 1248 A 1.5 1.5 0 0 1 3305.5 1249.5 A 1.5 1.5 0 0 1 3304 1248 A 1.5 1.5 0 0 1 3305.5 1246.5 Z M 3726.89289321881 1486.70710678119  L 3731.18578643763 1491  L 3726.89289321881 1495.29289321881  L 3728.30710678119 1496.70710678119  L 3733.30710678119 1491.70710678119  L 3734.01421356237 1491  L 3733.30710678119 1490.29289321881  L 3728.30710678119 1485.29289321881  L 3726.89289321881 1486.70710678119  Z " fill-rule="nonzero" fill="#0099cc" stroke="none" mask="url(#clip792)" />
</svg>