<?xml version="1.0" encoding="utf-8"?>
<svg version="1.1" xmlns:xlink="http://www.w3.org/1999/xlink" width="156px" height="26px" xmlns="http://www.w3.org/2000/svg">
  <defs>
    <mask fill="white" id="clip424">
      <path d="M 0 26  L 0 0  L 149.177842565598 0  L 149.177842565598 9.0561797752809  L 154.428604186458 13.0898876404494  L 149.177842565598 17.123595505618  L 149.177842565598 26  L 0 26  Z " fill-rule="evenodd" />
    </mask>
  </defs>
  <g transform="matrix(1 0 0 1 -1456 -463 )">
    <path d="M 0 26  L 0 0  L 149.177842565598 0  L 149.177842565598 9.0561797752809  L 154.428604186458 13.0898876404494  L 149.177842565598 17.123595505618  L 149.177842565598 26  L 0 26  Z " fill-rule="nonzero" fill="#ffffff" stroke="none" transform="matrix(1 0 0 1 1456 463 )" />
    <path d="M 0 26  L 0 0  L 149.177842565598 0  L 149.177842565598 9.0561797752809  L 154.428604186458 13.0898876404494  L 149.177842565598 17.123595505618  L 149.177842565598 26  L 0 26  Z " stroke-width="2" stroke="#aaaaaa" fill="none" transform="matrix(1 0 0 1 1456 463 )" mask="url(#clip424)" />
  </g>
</svg>