<?xml version="1.0" encoding="utf-8"?>
<svg version="1.1" xmlns:xlink="http://www.w3.org/1999/xlink" width="18px" height="18px" preserveAspectRatio="xMinYMid meet" viewBox="1413 1338  18 16" xmlns="http://www.w3.org/2000/svg">
  <defs>
    <mask fill="white" id="clip810">
      <path d="M 1330 627  L 1450 627  L 1450 819  L 1330 819  Z M 1330 109  L 1450 109  L 1450 1355  L 1330 1355  Z " fill-rule="evenodd" />
    </mask>
  </defs>
  <path d="M 1345 118.5  L 1385 118.5  A 5 5 0 0 1 1390.5 123 L 1390.5 157  A 3 3 0 0 1 1393.5 160 A 3 3 0 0 1 1390.5 163 L 1390.5 1341  A 5 5 0 0 0 1395.5 1346.5 L 1422 1346.5  " stroke-width="1" stroke="#006699" fill="none" mask="url(#clip810)" />
  <path d="M 1343 115.5  A 3 3 0 0 0 1340 118.5 A 3 3 0 0 0 1343 121.5 A 3 3 0 0 0 1346 118.5 A 3 3 0 0 0 1343 115.5 Z M 1343 116.5  A 2 2 0 0 1 1345 118.5 A 2 2 0 0 1 1343 120.5 A 2 2 0 0 1 1341 118.5 A 2 2 0 0 1 1343 116.5 Z M 1416.94644660941 1341.85355339059  L 1421.59289321881 1346.5  L 1416.94644660941 1351.14644660941  L 1417.65355339059 1351.85355339059  L 1422.65355339059 1346.85355339059  L 1423.00710678119 1346.5  L 1422.65355339059 1346.14644660941  L 1417.65355339059 1341.14644660941  L 1416.94644660941 1341.85355339059  Z " fill-rule="nonzero" fill="#006699" stroke="none" mask="url(#clip810)" />
</svg>