<?xml version="1.0" encoding="utf-8"?>
<svg version="1.1" xmlns:xlink="http://www.w3.org/1999/xlink" width="135px" height="10px" preserveAspectRatio="xMinYMid meet" viewBox="1135 157  135 8" xmlns="http://www.w3.org/2000/svg">
  <path d="M 1268 161  L 1145 161  A 5 5 0 0 0 1140 166 L 1140 2815  A 5 5 0 0 0 1145 2820 L 1424 2820  " stroke-width="2" stroke="#0099cc" fill="none" />
  <path d="M 1266.5 157.5  A 3.5 3.5 0 0 0 1263 161 A 3.5 3.5 0 0 0 1266.5 164.5 A 3.5 3.5 0 0 0 1270 161 A 3.5 3.5 0 0 0 1266.5 157.5 Z M 1423 2827.6  L 1430 2820  L 1423 2812.4  L 1423 2827.6  Z " fill-rule="nonzero" fill="#0099cc" stroke="none" />
</svg>