<?xml version="1.0" encoding="utf-8"?>
<svg version="1.1" xmlns:xlink="http://www.w3.org/1999/xlink" width="10px" height="271px" preserveAspectRatio="xMidYMin meet" viewBox="3932 109  8 271" xmlns="http://www.w3.org/2000/svg">
  <path d="M 3803 114  L 3931 114  A 5 5 0 0 1 3936 119 L 3936 370  A 5 5 0 0 0 3941 375 L 4100 375  " stroke-width="2" stroke="#0099cc" fill="none" />
  <path d="M 3804.5 110.5  A 3.5 3.5 0 0 0 3801 114 A 3.5 3.5 0 0 0 3804.5 117.5 A 3.5 3.5 0 0 0 3808 114 A 3.5 3.5 0 0 0 3804.5 110.5 Z M 4099 382.6  L 4106 375  L 4099 367.4  L 4099 382.6  Z " fill-rule="nonzero" fill="#0099cc" stroke="none" />
</svg>