<?xml version="1.0" encoding="utf-8"?>
<svg version="1.1" xmlns:xlink="http://www.w3.org/1999/xlink" width="16px" height="16px" xmlns="http://www.w3.org/2000/svg">
  <g transform="matrix(1 0 0 1 -1278 -152 )">
    <path d="M 2.946875 3.19953125  C 2.29890625 3.8475  1.79703125 4.60375  1.45671875 5.44421875  C 1.12671875 6.2571875  0.96 7.1165625  0.96 8  C 0.96 8.88171875  1.12671875 9.74109375  1.45671875 10.55578125  C 1.57703125 10.85140625  1.71625 11.13671875  1.874375 11.41  L 2.1459375 10.56609375  L 2.8815625 10.80328125  L 2.1975 12.93109375  L 1.461875 12.6921875  L 0.0714062500000003 12.2453125  L 0.30859375 11.5096875  L 1.2075 11.7984375  C -0.476875 8.9040625  -0.0781249999999997 5.13140625  2.4003125 2.65296875  C 5.085 -0.0317187499999999  9.28734375 -0.27578125  12.24703125 1.92078125  L 11.69359375 2.47421875  C 11.2621875 2.16484375  10.798125 1.90875  10.303125 1.70765625  C 9.49015625 1.37765625  8.63078125 1.2109375  7.74734375 1.2109375  C 6.865625 1.2109375  6.00625 1.37765625  5.1915625 1.70765625  C 4.349375 2.0496875  3.59484375 2.5515625  2.946875 3.19953125  Z M 14.74609375 4.1053125  L 15.693125 4.40953125  L 15.9303125 3.67390625  L 14.53984375 3.22703125  L 13.80421875 2.98984375  L 13.12015625 5.11765625  L 13.85578125 5.35484375  L 14.11359375 4.5521875  C 14.28203125 4.8375  14.42984375 5.1365625  14.55703125 5.44765625  C 14.88703125 6.260625  15.05375 7.12  15.05375 8.0034375  C 15.05375 8.88515625  14.88703125 9.74453125  14.55703125 10.55921875  C 14.215 11.40140625  13.713125 12.1559375  13.06515625 12.80390625  C 12.41546875 13.4484375  11.6609375 13.9503125  10.81875 14.29234375  C 10.00578125 14.62234375  9.14640625 14.7890625  8.26296875 14.7890625  C 7.38125 14.7890625  6.521875 14.62234375  5.7071875 14.29234375  C 5.2121875 14.09125  4.74640625 13.83515625  4.31671875 13.52578125  L 3.76328125 14.07921875  C 5.9340625 15.6896875  10.33921875 16.6178125  13.61 13.34703125  C 16.1159375 10.84109375  16.49578125 7.01171875  14.74609375 4.1053125  Z M 8.474375 3.345625  L 7.346875 3.345625  L 4.2703125 11.75375  L 5.3840625 11.75375  L 6.25203125 9.2065625  L 9.60875 9.2065625  L 10.536875 11.75375  L 11.74515625 11.75375  L 8.474375 3.345625  Z M 6.55796875 8.3025  L 6.55796875 8.30078125  L 7.4465625 5.834375  C 7.635625 5.30328125  7.78 4.76703125  7.883125 4.2290625  C 8.00171875 4.6759375  8.19078125 5.25859375  8.446875 5.97359375  L 9.2753125 8.3025  L 6.55796875 8.3025  Z " fill-rule="nonzero" fill="#000000" stroke="none" transform="matrix(1 0 0 1 1278 152 )" />
  </g>
</svg>