<?xml version="1.0" encoding="utf-8"?>
<svg version="1.1" xmlns:xlink="http://www.w3.org/1999/xlink" width="20px" height="20px" xmlns="http://www.w3.org/2000/svg">
  <g transform="matrix(1 0 0 1 -1926 -3003 )">
    <path d="M 15.094920390625 4.32961988849082  C 15.094920390625 4.91589551023009  15.5701906868545 5.39116580645956  16.1564663085937 5.39116580645956  C 16.742741930333 5.39116580645956  17.2180122265625 4.91589551023009  17.2180122265625 4.32961988849082  C 17.2180122265625 3.74334417726991  16.742741930333 3.26807388104043  16.1564663085937 3.26807388104043  C 15.5701906868545 3.26807388104043  15.094920390625 3.74334417726991  15.094920390625 4.32961979900918  Z M 17.0667645800781 10.0665651887209  C 17.0667645800781 10.7902194954051  17.6534023046439 11.3768572199709  18.3770566113281 11.3768572199709  C 19.1007109180123 11.3768572199709  19.6873486425781 10.7902194954051  19.6873486425781 10.0665651887209  C 19.6873486425781 9.34259093428243  19.1007109180123 8.75595320971661  18.3770566113281 8.75595320971661  C 17.6534023046439 8.75595320971661  17.0667645800781 9.34259093428243  17.0667645800781 10.0662452409666  Z M 14.6636771289062 15.8319401171875  C 14.6636771289062 16.6838260328761  15.3542671116552 17.374416015625  16.2061530273437 17.374416015625  C 17.0580389430323 17.374416015625  17.7486289257812 16.6838260328761  17.7486289257812 15.8319401171875  C 17.7486289257812 14.9800542014989  17.0580389430323 14.28946421875  16.2061530273437 14.28946421875  C 15.3542671116552 14.28946421875  14.6636771289062 14.9800542014989  14.6636771289062 15.8319401171875  Z M 8.65908344726562 18.137715915265  C 8.65908344726562 19.1245643132653  9.45908213910914 19.9245630051088  10.4459305371094 19.9245630051088  C 11.4327789351096 19.9245630051088  12.2327776269531 19.1245643132653  12.2327776269531 18.137715915265  C 12.2327776269531 17.1504938898673  11.4327789351096 16.3504951980238  10.4459305371094 16.3504951980238  C 9.45908213910914 16.3504951980238  8.65908344726562 17.1504938898673  8.65908344726562 18.1373422878675  Z M 2.77105044921875 15.7413165726263  C 2.77105044921875 16.8405186411699  3.66212978692509 17.7315979788763  4.76133185546875 17.7315979788763  C 5.86053392401241 17.7315979788763  6.75161326171875 16.8405186411699  6.75161326171875 15.7413165726263  C 6.75161326171875 14.6421144744251  5.86053392401241 13.7510351367187  4.76133185546875 13.7510351367187  C 3.66212978692509 13.7510351367187  2.77105044921875 14.6421144744251  2.77105044921875 15.7413165429688  Z M 8.374400390625 2.10684208984375  C 8.374400390625 3.27024625738177  9.31752581293073 4.2133716796875  10.4809299804688 4.2133716796875  C 11.6443341480068 4.2133716796875  12.5874595703125 3.27024625738177  12.5874595703125 2.10684208984375  C 12.5874595703125 0.943437877913939  11.6443341480068 0.00031245560820804  10.4809299804688 0.00031245560820804  C 9.31752581293073 0.00031245560820804  8.374400390625 0.943437877913939  8.374400390625 2.10684204545196  Z M 2.654802265625 4.37930661342099  C 2.654802265625 5.54271078095901  3.59792768793073 6.48583620326474  4.76133185546875 6.48583620326474  C 5.92473602300677 6.48583620326474  6.8678614453125 5.54271078095901  6.8678614453125 4.37930661342099  C 6.8678614453125 3.21590241449323  5.92473602300677 2.2727769921875  4.76133185546875 2.2727769921875  C 3.59792768793073 2.2727769921875  2.654802265625 3.21590241449323  2.654802265625 4.37930658203125  Z M 0.52077310546875 10.00015625  C 0.52077310546875 11.1086779780751  1.41940751997178 12.0073123925781  2.52792924804687 12.0073123925781  C 3.63645097612197 12.0073123925781  4.535085390625 11.1086779780751  4.535085390625 10.00015625  C 4.535085390625 8.8916345219249  3.63645097612197 7.99300010742188  2.52792924804687 7.99300010742188  C 1.41940751997177 7.99300010742188  0.52077310546875 8.8916345219249  0.52077310546875 10.00015625  Z " fill-rule="nonzero" fill="#000000" stroke="none" transform="matrix(1 0 0 1 1926 3003 )" />
  </g>
</svg>