<?xml version="1.0" encoding="utf-8"?>
<svg version="1.1" xmlns:xlink="http://www.w3.org/1999/xlink" width="6px" height="10px" xmlns="http://www.w3.org/2000/svg">
  <g transform="matrix(1 0 0 1 -1274 -168 )">
    <path d="M 5.43327556325823 0.106026785714286  L 0.109185441941074 5.8203125  C 0.00173310225303247 5.93191964285714  -0.0225303292894288 6.06026785714286  0.0363951473136912 6.20535714285714  C 0.0953206239168105 6.35416666666667  0.197573656845754 6.42857142857143  0.34315424610052 6.42857142857143  L 2.32928942807626 6.42857142857143  L 1.2842287694974 9.08482142857143  C 1.24956672443674 9.17782738095238  1.24956672443674 9.26897321428571  1.2842287694974 9.35825892857143  C 1.31889081455806 9.44754464285714  1.37781629116118 9.51264880952381  1.46100519930676 9.55357142857143  L 2.38128249566724 9.97209821428571  C 2.46793760831889 10.0093005952381  2.5528596187175 10.0093005952381  2.63604852686308 9.97209821428571  C 2.71923743500867 9.93489583333333  2.77989601386482 9.87165178571429  2.81802426343154 9.78236607142857  L 3.81109185441941 7.26004464285714  L 5.43327556325823 9.00111607142857  C 5.49913344887348 9.07180059523809  5.57712305025997 9.10714285714286  5.66724436741768 9.10714285714286  C 5.70883882149047 9.10714285714286  5.75043327556326 9.09784226190476  5.79202772963605 9.07924107142857  C 5.93067590987868 9.01599702380952  6 8.90625  6 8.75  L 6 0.357142857142857  C 6 0.200892857142857  5.93067590987868 0.0911458333333326  5.79202772963605 0.027901785714286  C 5.75043327556326 0.00930059523809534  5.70883882149047 0  5.66724436741768 0  C 5.5736568457539 0  5.49566724436742 0.0353422619047628  5.43327556325823 0.106026785714286  Z " fill-rule="nonzero" fill="#000000" stroke="none" transform="matrix(1 0 0 1 1274 168 )" />
  </g>
</svg>