<?xml version="1.0" encoding="utf-8"?>
<svg version="1.1" xmlns:xlink="http://www.w3.org/1999/xlink" width="35px" height="10px" preserveAspectRatio="xMinYMid meet" viewBox="1855 2986  35 8" xmlns="http://www.w3.org/2000/svg">
  <path d="M 1885 2908  L 1885 2985  A 5 5 0 0 1 1880 2990 L 1865 2990  A 5 5 0 0 0 1860 2995 " stroke-width="2" stroke="#0099cc" fill="none" />
  <path d="M 1885 2906  A 3.5 3.5 0 0 0 1881.5 2909.5 A 3.5 3.5 0 0 0 1885 2913 A 3.5 3.5 0 0 0 1888.5 2909.5 A 3.5 3.5 0 0 0 1885 2906 Z M 1852.4 2993  L 1860 3000  L 1867.6 2993  L 1852.4 2993  Z " fill-rule="nonzero" fill="#0099cc" stroke="none" />
</svg>