<?xml version="1.0" encoding="utf-8"?>
<svg version="1.1" xmlns:xlink="http://www.w3.org/1999/xlink" width="21px" height="20px" preserveAspectRatio="xMinYMid meet" viewBox="3295 1239  21 18" xmlns="http://www.w3.org/2000/svg">
  <defs>
    <mask fill="white" id="clip30">
      <path d="M 3431 1607  L 3551 1607  L 3551 1689  L 3431 1689  Z M 3292 1238  L 3744 1238  L 3744 2004  L 3292 2004  Z " fill-rule="evenodd" />
    </mask>
  </defs>
  <path d="M 3308 1248  L 3486 1248  A 5 5 0 0 1 3491 1253 L 3491 1989  A 5 5 0 0 0 3496 1994 L 3732 1994  " stroke-width="2" stroke="#0099cc" fill="none" mask="url(#clip30)" />
  <path d="M 3305.5 1244.5  A 3.5 3.5 0 0 0 3302 1248 A 3.5 3.5 0 0 0 3305.5 1251.5 A 3.5 3.5 0 0 0 3309 1248 A 3.5 3.5 0 0 0 3305.5 1244.5 Z M 3305.5 1246.5  A 1.5 1.5 0 0 1 3307 1248 A 1.5 1.5 0 0 1 3305.5 1249.5 A 1.5 1.5 0 0 1 3304 1248 A 1.5 1.5 0 0 1 3305.5 1246.5 Z M 3726.89289321881 1989.70710678119  L 3731.18578643763 1994  L 3726.89289321881 1998.29289321881  L 3728.30710678119 1999.70710678119  L 3733.30710678119 1994.70710678119  L 3734.01421356237 1994  L 3733.30710678119 1993.29289321881  L 3728.30710678119 1988.29289321881  L 3726.89289321881 1989.70710678119  Z " fill-rule="nonzero" fill="#0099cc" stroke="none" mask="url(#clip30)" />
</svg>