<?xml version="1.0" encoding="utf-8"?>
<svg version="1.1" xmlns:xlink="http://www.w3.org/1999/xlink" width="20px" height="16px" xmlns="http://www.w3.org/2000/svg">
  <g transform="matrix(1 0 0 1 -1315 -152 )">
    <path d="M 15.21484375 10.06953125  C 15.3578125 10.12578125  15.4234375 10.22890625  15.4234375 10.3765625  L 15.4234375 12.3734375  C 15.4234375 13.2078125  15.128125 13.9203125  14.53515625 14.51328125  C 13.9421875 15.10625  13.2296875 15.4015625  12.3953125 15.4015625  L 3.653125 15.4015625  C 2.81875 15.4015625  2.10625 15.10625  1.51328125 14.51328125  C 0.920312500000001 13.9203125  0.625 13.2078125  0.625 12.3734375  L 0.625 3.62890625  C 0.625 2.79453125  0.9203125 2.08203125  1.51328125 1.4890625  C 2.10625 0.896093749999999  2.81875 0.60078125  3.653125 0.60078125  L 12.39765625 0.60078125  C 12.840625 0.60078125  13.2484375 0.68984375  13.62578125 0.863281249999999  C 13.73125 0.9125  13.79453125 0.992187499999999  13.815625 1.1046875  C 13.83671875 1.22421875  13.80390625 1.325  13.71953125 1.409375  L 13.20625 1.925  C 13.11015625 2.02109375  12.99765625 2.04921875  12.86875 2.009375  C 12.70703125 1.96953125  12.55234375 1.94375  12.3953125 1.94375  L 3.653125 1.94375  C 3.19140625 1.94375  2.7953125 2.11015625  2.46484375 2.4359375  C 2.13671875 2.76875  1.97265625 3.1625  1.97265625 3.6265625  L 1.97265625 12.37109375  C 1.97265625 12.8328125  2.13671875 13.22890625  2.46484375 13.559375  C 2.79296875 13.8875  3.19140625 14.0515625  3.653125 14.0515625  L 12.39765625 14.0515625  C 12.859375 14.0515625  13.25546875 13.8875  13.5859375 13.559375  C 13.9140625 13.23125  14.078125 12.8328125  14.078125 12.37109375  L 14.078125 11.046875  C 14.078125 10.95546875  14.10859375 10.878125  14.17421875 10.81484375  L 14.846875 10.1421875  C 14.95234375 10.03671875  15.07421875 10.01328125  15.21484375 10.06953125  Z M 7.35390625 9.6828125  L 14.41796875 2.61875  L 17.44375 5.64453125  L 10.3796875 12.70859375  L 7.35390625 12.70859375  L 7.35390625 9.6828125  Z M 9.36953125 11.6984375  L 9.96015625 11.70078125  L 11.18125 10.4796875  L 9.5828125 8.88359375  L 8.36171875 10.1046875  L 8.36171875 10.690625  L 9.36953125 10.690625  L 9.36953125 11.6984375  Z M 14.57265625 4.475  C 14.69453125 4.36015625  14.69921875 4.24296875  14.584375 4.13046875  C 14.471875 4.01796875  14.35703125 4.02265625  14.2375 4.1421875  L 10.5578125 7.81953125  C 10.43828125 7.9390625  10.4359375 8.05390625  10.54609375 8.16640625  C 10.65859375 8.27890625  10.7734375 8.27421875  10.89296875 8.1546875  L 14.57265625 4.475  Z M 19.37734375 3.29375  C 19.37734375 3.57265625  19.27890625 3.81171875  19.084375 4.00625  L 18.11875 4.971875  L 15.090625 1.94609375  L 16.05625 0.980468749999998  C 16.253125 0.783593749999999  16.4921875 0.687499999999998  16.77109375 0.687499999999998  C 17.05234375 0.687499999999998  17.2890625 0.783593749999999  17.4859375 0.980468749999998  L 19.084375 2.57890625  C 19.28125 2.77578125  19.37734375 3.01484375  19.37734375 3.29375  Z " fill-rule="nonzero" fill="#000000" stroke="none" transform="matrix(1 0 0 1 1315 152 )" />
  </g>
</svg>