<?xml version="1.0" encoding="utf-8"?>
<svg version="1.1" xmlns:xlink="http://www.w3.org/1999/xlink" width="23px" height="25px" xmlns="http://www.w3.org/2000/svg">
  <g transform="matrix(1 0 0 1 -5382 -350 )">
    <path d="M 17 8.04166666666667  L 17 21  L 6 21  L 6 8.04166666666667  L 4 8.04166666666667  L 4 23.59375  L 19 23.59375  L 19 8.04166666666667  L 17 8.04166666666667  Z M 22.1785714285714 3.609375  L 15.07578125 3.609375  L 15.07578125 0.286458333333333  L 7.95245535714286 0.286458333333333  L 7.95245535714286 3.609375  L 0.872767857142857 3.609375  L 0.872767857142857 6  L 22.1785714285714 6  L 22.1785714285714 3.609375  Z M 10.1087053571429 3.609375  L 10.1087053571429 2.47395833333333  L 12.91953125 2.47395833333333  L 12.91953125 3.609375  L 10.1087053571429 3.609375  Z M 8 18.6875  L 8 8.046875  L 10.1087053571429 8.046875  L 10.1087053571429 18.6875  L 8 18.6875  Z M 13 18.6796875  L 13 8.04166666666667  L 15 8.04166666666667  L 15 18.6796875  L 13 18.6796875  Z " fill-rule="nonzero" fill="#000000" stroke="none" transform="matrix(1 0 0 1 5382 350 )" />
  </g>
</svg>