<?xml version="1.0" encoding="utf-8"?>
<svg version="1.1" xmlns:xlink="http://www.w3.org/1999/xlink" width="6px" height="6px" xmlns="http://www.w3.org/2000/svg">
  <g transform="matrix(1 0 0 1 -2876 -155 )">
    <path d="M 5.90509665820313 5.90392501171875  C 6.030462796875 5.77855887304688  6.030462796875 5.57352079101562  5.90392501171875 5.44815465820312  L 3.47275922460938 3.01581722460937  L 5.90392501171875 0.5846514375  C 5.96719390429688 0.521382544921875  5.99882835351563 0.439367314453125  5.99882835351563 0.356180431640625  C 5.99882835351563 0.274165201171875  5.96719390429687 0.19097832421875  5.90392501171875 0.127709431640625  C 5.7773872265625 0.00117164648437501  5.57352079101562 0.00117164648437501  5.44698301171875 0.127709431640625  L 3.01581722460937 2.56004686523438  L 0.5846514375 0.127709431640625  C 0.45811365234375 0.001171646484375  0.254247216796875 0.001171646484375  0.127709431640625 0.127709431640625  C 0.00117164648437501 0.254247216796875  0.00117164648437501 0.45811365234375  0.127709431640625 0.5846514375  L 2.56004686523438 3.01581722460937  L 0.127709431640625 5.44815465820312  C 0.00117164648437501 5.57469244335937  0.00117164648437501 5.77855887890625  0.127709431640625 5.90509665820313  C 0.254247216796875 6.0316344375  0.45811365234375 6.03163444335938  0.5846514375 5.90509665820313  L 3.01581722460937 3.47275922460938  L 5.44815465820312 5.90392501171875  C 5.51142355078125 5.96719390429688  5.59343878125 5.99882835351563  5.67662565820313 5.99882835351563  C 5.75864088867188 5.99882835351563  5.841827765625 5.96719390429687  5.90509665820313 5.90392501171875  Z " fill-rule="nonzero" fill="#aaaaaa" stroke="none" transform="matrix(1 0 0 1 2876 155 )" />
  </g>
</svg>