<?xml version="1.0" encoding="utf-8"?>
<svg version="1.1" xmlns:xlink="http://www.w3.org/1999/xlink" width="20px" height="18px" xmlns="http://www.w3.org/2000/svg">
  <g transform="matrix(1 0 0 1 -660 -1429 )">
    <path d="M 0.0212916962384679 0.683948863636363  C -0.0118287201324829 0.858664772727271  0.01892595221197 1.02698863636364  0.113555713271825 1.18892045454545  L 9.19801277501774 17.5525568181818  C 9.35888336881949 17.8508522727273  9.62857818784008 18  10.0070972320795 18  C 10.0544121126094 18  10.1253844334043 17.9914772727273  10.2200141944642 17.9744318181818  C 10.4281996687958 17.9318181818182  10.5961674946771 17.8359375  10.7239176721079 17.6867897727273  C 10.8516678495387 17.5376420454545  10.9155429382541 17.3693181818182  10.9155429382541 17.1818181818182  L 10.9155429382541 9.81818181818182  L 19.0915542938254 9.81818181818182  C 19.2997397681571 9.81818181818182  19.4866335462503 9.76065340909091  19.652235628105 9.64559659090909  C 19.8178377099598 9.53053977272727  19.9242961911521 9.37926136363636  19.971611071682 9.19176136363637  C 20.018925952212 9.00426136363636  20 8.82528409090909  19.9148332150461 8.65482954545454  C 19.8296664300923 8.484375  19.6924532765555 8.35653409090909  19.5031937544358 8.27130681818182  L 1.33427963094393 0.0894886363636369  C 1.21126094156612 0.0298295454545443  1.07404778802933 0  0.922640170333571 0  C 0.667139815471967 0  0.454222853087296 0.0809659090909074  0.283889283179559 0.242897727272728  C 0.14194464158978 0.362215909090907  0.0544121126094144 0.509232954545453  0.0212916962384679 0.683948863636363  Z " fill-rule="nonzero" fill="#333333" stroke="none" transform="matrix(1 0 0 1 660 1429 )" />
  </g>
</svg>