<?xml version="1.0" encoding="utf-8"?>
<svg version="1.1" xmlns:xlink="http://www.w3.org/1999/xlink" width="4px" height="4px" xmlns="http://www.w3.org/2000/svg">
  <g transform="matrix(1 0 0 1 -2808 -251 )">
    <path d="M 0.727272727272727 2.90909090909091  L 1.09090909090909 2.90909090909091  L 1.09090909090909 3.27272727272727  L 0.727272727272727 3.27272727272727  L 0.727272727272727 2.90909090909091  Z M 0.727272727272727 0.727272727272727  L 1.09090909090909 0.727272727272727  L 1.09090909090909 1.09090909090909  L 0.727272727272727 1.09090909090909  L 0.727272727272727 0.727272727272727  Z M 2.90909090909091 0.727272727272727  L 3.27272727272727 0.727272727272727  L 3.27272727272727 1.09090909090909  L 2.90909090909091 1.09090909090909  L 2.90909090909091 0.727272727272727  Z M 0.363636363636364 2.54545454545455  L 0.363636363636364 3.63352272727273  L 1.45454545454545 3.63352272727273  L 1.45454545454545 2.54545454545455  L 0.363636363636364 2.54545454545455  Z M 0.363636363636364 0.363636363636364  L 0.363636363636364 1.45454545454545  L 1.45454545454545 1.45454545454545  L 1.45454545454545 0.363636363636364  L 0.363636363636364 0.363636363636364  Z M 2.54545454545455 0.363636363636364  L 2.54545454545455 1.45454545454545  L 3.63636363636364 1.45454545454545  L 3.63636363636364 0.363636363636364  L 2.54545454545455 0.363636363636364  Z M 0 2.18181818181818  L 1.81818181818182 2.18181818181818  L 1.81818181818182 4  L 0 4  L 0 2.18181818181818  Z M 2.90909090909091 3.63636363636364  L 3.27272727272727 3.63636363636364  L 3.27272727272727 4  L 2.90909090909091 4  L 2.90909090909091 3.63636363636364  Z M 3.63636363636364 3.63636363636364  L 4 3.63636363636364  L 4 4  L 3.63636363636364 4  L 3.63636363636364 3.63636363636364  Z M 3.63636363636364 2.18181818181818  L 4 2.18181818181818  L 4 3.27272727272727  L 2.90909090909091 3.27272727272727  L 2.90909090909091 2.90909090909091  L 2.54545454545455 2.90909090909091  L 2.54545454545455 4  L 2.18181818181818 4  L 2.18181818181818 2.18181818181818  L 3.27272727272727 2.18181818181818  L 3.27272727272727 2.54545454545455  L 3.63636363636364 2.54545454545455  L 3.63636363636364 2.18181818181818  Z M 0 0  L 1.81818181818182 0  L 1.81818181818182 1.81818181818182  L 0 1.81818181818182  L 0 0  Z M 2.18181818181818 0  L 4 0  L 4 1.81818181818182  L 2.18181818181818 1.81818181818182  L 2.18181818181818 0  Z " fill-rule="nonzero" fill="#ffffff" stroke="none" transform="matrix(1 0 0 1 2808 251 )" />
  </g>
</svg>