<?xml version="1.0" encoding="utf-8"?>
<svg version="1.1" xmlns:xlink="http://www.w3.org/1999/xlink" width="12px" height="12px" xmlns="http://www.w3.org/2000/svg">
  <g transform="matrix(1 0 0 1 -4048 -307 )">
    <path d="M 2.18181818181818 8.72727272727273  L 3.27272727272727 8.72727272727273  L 3.27272727272727 9.81818181818182  L 2.18181818181818 9.81818181818182  L 2.18181818181818 8.72727272727273  Z M 2.18181818181818 2.18181818181818  L 3.27272727272727 2.18181818181818  L 3.27272727272727 3.27272727272727  L 2.18181818181818 3.27272727272727  L 2.18181818181818 2.18181818181818  Z M 8.72727272727273 2.18181818181818  L 9.81818181818182 2.18181818181818  L 9.81818181818182 3.27272727272727  L 8.72727272727273 3.27272727272727  L 8.72727272727273 2.18181818181818  Z M 1.09090909090909 7.63636363636364  L 1.09090909090909 10.9005681818182  L 4.36363636363636 10.9005681818182  L 4.36363636363636 7.63636363636364  L 1.09090909090909 7.63636363636364  Z M 1.09090909090909 1.09090909090909  L 1.09090909090909 4.36363636363636  L 4.36363636363636 4.36363636363636  L 4.36363636363636 1.09090909090909  L 1.09090909090909 1.09090909090909  Z M 7.63636363636364 1.09090909090909  L 7.63636363636364 4.36363636363636  L 10.9090909090909 4.36363636363636  L 10.9090909090909 1.09090909090909  L 7.63636363636364 1.09090909090909  Z M 0 6.54545454545454  L 5.45454545454545 6.54545454545454  L 5.45454545454545 12  L 0 12  L 0 6.54545454545454  Z M 8.72727272727273 10.9090909090909  L 9.81818181818182 10.9090909090909  L 9.81818181818182 12  L 8.72727272727273 12  L 8.72727272727273 10.9090909090909  Z M 10.9090909090909 10.9090909090909  L 12 10.9090909090909  L 12 12  L 10.9090909090909 12  L 10.9090909090909 10.9090909090909  Z M 10.9090909090909 6.54545454545454  L 12 6.54545454545454  L 12 9.81818181818182  L 8.72727272727273 9.81818181818182  L 8.72727272727273 8.72727272727273  L 7.63636363636364 8.72727272727273  L 7.63636363636364 12  L 6.54545454545454 12  L 6.54545454545454 6.54545454545454  L 9.81818181818182 6.54545454545454  L 9.81818181818182 7.63636363636364  L 10.9090909090909 7.63636363636364  L 10.9090909090909 6.54545454545454  Z M 0 0  L 5.45454545454545 0  L 5.45454545454545 5.45454545454546  L 0 5.45454545454546  L 0 0  Z M 6.54545454545454 0  L 12 0  L 12 5.45454545454546  L 6.54545454545454 5.45454545454546  L 6.54545454545454 0  Z " fill-rule="nonzero" fill="#ffffff" stroke="none" transform="matrix(1 0 0 1 4048 307 )" />
  </g>
</svg>