<?xml version="1.0" encoding="utf-8"?>
<svg version="1.1" xmlns:xlink="http://www.w3.org/1999/xlink" width="29px" height="24px" xmlns="http://www.w3.org/2000/svg">
  <g transform="matrix(1 0 0 1 -3082 -457 )">
    <path d="M 15.1309680834188 2.1333054208547  L 15.5632164592137 0.152464688957265  L 26.3104831745641 0.152464688957265  C 27.2767905249915 0.152464688957265  28.0466213182906 0.938370843076923  28 1.90467816834188  L 28 22.1756985832479  C 28.0576505134637 23.1404829030093  27.2754322018608 23.9148000255875  26.3104831745641 23.9261259336752  L 17.4404604887521 23.9261259336752  L 19.7338775578803 14.9382173382564  L 17.3457945299145 13.2056515016752  L 18.3424664224273 12.3625885226667  C 18.5978859342222 12.1571812214701  18.8211547249231 12.0089307448889  19.1355171919316 12.0089307448889  C 19.4429802998281 12.0161592168458  19.7322356479817 12.1562265675275  19.9285679368205 12.3929530888205  L 19.9267817827009 12.3929530888205  L 26 18.9999232475897  L 26 2.8763439805812  C 26.0231187738769 2.45354338622758  25.6692822110087 2.12498085874394  25.2459375581538 2.1333054208547  L 15.1309680834188 2.1333054208547  Z M 11.9069666910085 0.154250818461538  L 11.9069666910085 0.152464688410257  L 11.4747182905983 2.13509157497436  L 3.09410083063248 2.13509157497436  C 2.6743555068718 2.13509157497436  2.34391768041026 2.43873714270086  2.2849747008547 2.85848246618803  L 2.2849747008547 18.9874201950085  L 9.76358625121368 9.96736090338462  L 9.35991626338462 11.8231711108376  L 15.6739577775043 16.4046467886496  L 13.7538461538462 24  L 2.03669980499145 24  C 1.07866362732056 23.9240024069774  0.304088934548007 23.1462602774338  0.304088934548007 22.1882161222247  C 0.304088934548007 22.1840435687288  0.304103945841399 22.1798710287343  0.304133968136752 22.1756985832479  L 0.304133968136752 1.90467816834188  C 0.304133968136752 0.940156971487179  1.07217863220513 0.15425081791453  2.03669980444444 0.154250818461538  L 11.9069666910085 0.154250818461538  Z M 18.1906436389744 7.08630036622222  L 18.192429792547 7.08630036622222  C 18.1918344305561 7.06201246052958  18.1915367160342 7.03771817105596  18.1915367160342 7.01342296949609  C 18.1915367160342 5.37096107192006  19.523015160065 4.03948262788925  21.165477057641 4.03948262788925  C 22.8079389552171 4.03948262788925  24.1394173992479 5.37096107192006  24.1394173992479 7.01342296949609  C 24.1394173992479 7.03771817105596  24.1391196847259 7.06201246052958  24.138524322735 7.08630036622222  C 24.138524322735 8.72876226394931  22.8070458785818 10.0602407081026  21.1645839808547 10.0602407081026  C 19.5221220831276 10.0602407081026  18.1906436389744 8.72876226394931  18.1906436389744 7.08630036622222  Z " fill-rule="nonzero" fill="#000000" stroke="none" transform="matrix(1 0 0 1 3082 457 )" />
  </g>
</svg>