<?xml version="1.0" encoding="utf-8"?>
<svg version="1.1" xmlns:xlink="http://www.w3.org/1999/xlink" width="77px" height="10px" preserveAspectRatio="xMinYMid meet" viewBox="3355 394  77 8" xmlns="http://www.w3.org/2000/svg">
  <path d="M 3241 282  L 3355 282  A 5 5 0 0 1 3360 287 L 3360 393  A 5 5 0 0 0 3365 398 L 3426 398  " stroke-width="2" stroke="#0099cc" fill="none" />
  <path d="M 3242.5 278.5  A 3.5 3.5 0 0 0 3239 282 A 3.5 3.5 0 0 0 3242.5 285.5 A 3.5 3.5 0 0 0 3246 282 A 3.5 3.5 0 0 0 3242.5 278.5 Z M 3425 405.6  L 3432 398  L 3425 390.4  L 3425 405.6  Z " fill-rule="nonzero" fill="#0099cc" stroke="none" />
</svg>