<?xml version="1.0" encoding="utf-8"?>
<svg version="1.1" xmlns:xlink="http://www.w3.org/1999/xlink" width="40px" height="40px" xmlns="http://www.w3.org/2000/svg">
  <defs>
    <filter x="516px" y="1226px" width="40px" height="40px" filterUnits="userSpaceOnUse" id="filter62">
      <feOffset dx="1" dy="1" in="SourceAlpha" result="shadowOffsetInner" />
      <feGaussianBlur stdDeviation="2.5" in="shadowOffsetInner" result="shadowGaussian" />
      <feComposite in2="shadowGaussian" operator="atop" in="SourceAlpha" result="shadowComposite" />
      <feColorMatrix type="matrix" values="0 0 0 0 0  0 0 0 0 0  0 0 0 0 0  0 0 0 0.698039215686274 0  " in="shadowComposite" />
    </filter>
    <g id="widget63">
      <path d="M 535 1230  C 543.4 1230  550 1236.6  550 1245  C 550 1253.4  543.4 1260  535 1260  C 526.6 1260  520 1253.4  520 1245  C 520 1236.6  526.6 1230  535 1230  Z " fill-rule="nonzero" fill="#009dd9" stroke="none" />
      <path d="M 535 1230.5  C 543.12 1230.5  549.5 1236.88  549.5 1245  C 549.5 1253.12  543.12 1259.5  535 1259.5  C 526.88 1259.5  520.5 1253.12  520.5 1245  C 520.5 1236.88  526.88 1230.5  535 1230.5  Z " stroke-width="1" stroke="#ffffff" fill="none" />
    </g>
  </defs>
  <g transform="matrix(1 0 0 1 -516 -1226 )">
    <use xlink:href="#widget63" filter="url(#filter62)" />
    <use xlink:href="#widget63" />
  </g>
</svg>