<?xml version="1.0" encoding="utf-8"?>
<svg version="1.1" xmlns:xlink="http://www.w3.org/1999/xlink" width="18px" height="16px" xmlns="http://www.w3.org/2000/svg">
  <g transform="matrix(1 0 0 1 -753 -2481 )">
    <path d="M 0.0191625266146211 0.607954545454545  C -0.0106458481192346 0.763257575757574  0.017033356990773 0.912878787878787  0.102200141944642 1.05681818181818  L 8.27821149751597 15.6022727272727  C 8.42299503193754 15.8674242424242  8.66572036905607 16  9.00638750887154 16  C 9.04897090134847 16  9.11284599006387 15.9924242424242  9.19801277501774 15.9772727272727  C 9.38537970191625 15.9393939393939  9.53655074520937 15.8541666666667  9.65152590489709 15.7215909090909  C 9.76650106458481 15.5890151515152  9.82398864442867 15.4393939393939  9.82398864442867 15.2727272727273  L 9.82398864442867 8.72727272727273  L 17.1823988644429 8.72727272727273  C 17.3697657913414 8.72727272727273  17.5379701916253 8.67613636363636  17.6870120652945 8.57386363636364  C 17.8360539389638 8.47159090909091  17.9318665720369 8.33712121212121  17.9744499645138 8.17045454545455  C 18.0170333569908 8.00378787878788  18 7.84469696969697  17.9233498935415 7.69318181818182  C 17.846699787083 7.54166666666667  17.7232079488999 7.4280303030303  17.5528743789922 7.35227272727273  L 1.20085166784954 0.079545454545455  C 1.09013484740951 0.0265151515151505  0.9666430092264 0  0.830376153300214 0  C 0.60042583392477 0  0.408800567778566 0.0719696969696955  0.255500354861603 0.215909090909092  C 0.127750177430802 0.321969696969695  0.0489709013484729 0.452651515151514  0.0191625266146211 0.607954545454545  Z " fill-rule="nonzero" fill="#333333" stroke="none" transform="matrix(1 0 0 1 753 2481 )" />
  </g>
</svg>