<?xml version="1.0" encoding="utf-8"?>
<svg version="1.1" xmlns:xlink="http://www.w3.org/1999/xlink" width="21px" height="20px" preserveAspectRatio="xMinYMid meet" viewBox="1330 1247  21 18" xmlns="http://www.w3.org/2000/svg">
  <path d="M 1339 1256  L 1355 1256  A 5 5 0 0 1 1360 1261 L 1360 1915  A 5 5 0 0 1 1355 1920 L 859 1920  A 5 5 0 0 0 854 1925 L 854 2104  " stroke-width="2" stroke="#0099cc" fill="none" />
  <path d="M 1340.5 1252.5  A 3.5 3.5 0 0 0 1337 1256 A 3.5 3.5 0 0 0 1340.5 1259.5 A 3.5 3.5 0 0 0 1344 1256 A 3.5 3.5 0 0 0 1340.5 1252.5 Z M 846.4 2103  L 854 2110  L 861.6 2103  L 846.4 2103  Z " fill-rule="nonzero" fill="#0099cc" stroke="none" />
</svg>