<?xml version="1.0" encoding="utf-8"?>
<svg version="1.1" xmlns:xlink="http://www.w3.org/1999/xlink" width="13px" height="13px" xmlns="http://www.w3.org/2000/svg">
  <g transform="matrix(1 0 0 1 -1038 -1437 )">
    <path d="M 2.36363636363636 9.45454545454546  L 3.54545454545454 9.45454545454546  L 3.54545454545454 10.6363636363636  L 2.36363636363636 10.6363636363636  L 2.36363636363636 9.45454545454546  Z M 2.36363636363636 2.36363636363636  L 3.54545454545454 2.36363636363636  L 3.54545454545454 3.54545454545454  L 2.36363636363636 3.54545454545454  L 2.36363636363636 2.36363636363636  Z M 9.45454545454546 2.36363636363636  L 10.6363636363636 2.36363636363636  L 10.6363636363636 3.54545454545454  L 9.45454545454546 3.54545454545454  L 9.45454545454546 2.36363636363636  Z M 1.18181818181818 8.27272727272727  L 1.18181818181818 11.8089488636364  L 4.72727272727273 11.8089488636364  L 4.72727272727273 8.27272727272727  L 1.18181818181818 8.27272727272727  Z M 1.18181818181818 1.18181818181818  L 1.18181818181818 4.72727272727273  L 4.72727272727273 4.72727272727273  L 4.72727272727273 1.18181818181818  L 1.18181818181818 1.18181818181818  Z M 8.27272727272727 1.18181818181818  L 8.27272727272727 4.72727272727273  L 11.8181818181818 4.72727272727273  L 11.8181818181818 1.18181818181818  L 8.27272727272727 1.18181818181818  Z M 0 7.09090909090909  L 5.90909090909091 7.09090909090909  L 5.90909090909091 13  L 0 13  L 0 7.09090909090909  Z M 9.45454545454546 11.8181818181818  L 10.6363636363636 11.8181818181818  L 10.6363636363636 13  L 9.45454545454546 13  L 9.45454545454546 11.8181818181818  Z M 11.8181818181818 11.8181818181818  L 13 11.8181818181818  L 13 13  L 11.8181818181818 13  L 11.8181818181818 11.8181818181818  Z M 11.8181818181818 7.09090909090909  L 13 7.09090909090909  L 13 10.6363636363636  L 9.45454545454546 10.6363636363636  L 9.45454545454546 9.45454545454546  L 8.27272727272727 9.45454545454546  L 8.27272727272727 13  L 7.09090909090909 13  L 7.09090909090909 7.09090909090909  L 10.6363636363636 7.09090909090909  L 10.6363636363636 8.27272727272727  L 11.8181818181818 8.27272727272727  L 11.8181818181818 7.09090909090909  Z M 0 0  L 5.90909090909091 0  L 5.90909090909091 5.90909090909091  L 0 5.90909090909091  L 0 0  Z M 7.09090909090909 0  L 13 0  L 13 5.90909090909091  L 7.09090909090909 5.90909090909091  L 7.09090909090909 0  Z " fill-rule="nonzero" fill="#ffffff" stroke="none" transform="matrix(1 0 0 1 1038 1437 )" />
  </g>
</svg>