<?xml version="1.0" encoding="utf-8"?>
<svg version="1.1" xmlns:xlink="http://www.w3.org/1999/xlink" width="16px" height="16px" xmlns="http://www.w3.org/2000/svg">
  <g transform="matrix(1 0 0 1 -2740 -172 )">
    <path d="M 11.515625 9.17158293765625  C 11.6706352753932 9.17299775430329  11.8193578585811 9.11037772241589  11.9266706803125 8.9985110809375  C 12.03960946032 8.89131261012898  12.1030572085515 8.74209289977155  12.1019059371875 8.58638370046875  L 12.1019059371875 7.41382182609375  C 12.1030389222683 7.25864986722451  12.0400173109651 7.10990320050395  11.9277523803125 7.0027761459375  C 11.8203672569795 6.89023585593693  11.6711718720838 6.82719003505347  11.515625 6.8286225753125  L 9.17158293765625 6.8286225753125  L 9.17158293765625 4.48458051296875  C 9.17299775045979 4.32957024239302  9.11037771888099 4.18084766496949  8.9985110809375 4.0735348465625  C 8.89131261256918 3.96059606147034  8.74209290196286 3.89714830807388  8.586383700625 3.89829957578125  L 7.41382182609375 3.89829957578125  C 7.25864986521372 3.89716659419888  7.10990319819299 3.96018821049198  7.0027761459375 4.07245314609375  C 6.89023585936266 4.17983826622276  6.8271900387804 4.32903364554111  6.8286225753125 4.48458051296875  L 6.8286225753125 6.8286225753125  L 4.48458052671875 6.8286225753125  C 4.32957024932679 6.82720776229381  4.18084766589848 6.88982779928118  4.0735348465625 7.00169444578125  C 3.96059606147034 7.10889291414957  3.89714830807388 7.2581126247559  3.89829957578125 7.41382182609375  L 3.89829957578125 8.58638370046875  C 3.89716659415568 8.74155566140295  3.96018821045227 8.89030232848846  4.07245314609375 8.99742938078125  C 4.17983827189752 9.10996966573992  4.32903365661119 9.17301548146442  4.48458052671875 9.1715829375  L 6.8286225753125 9.1715829375  L 6.8286225753125 11.515625  C 6.82720776225062 11.6706352774461  6.88982779924146 11.8193578609392  7.00169444578125 11.9266706803125  C 7.10889291655256 12.0396094602802  7.25811262684513 12.1030572085082  7.41382182609375 12.1019059371875  L 8.58638370046875 12.1019059371875  C 8.74155565939216 12.1030389223115  8.8903023261775 12.0400173110048  8.99742938078125 11.9277523803125  C 9.10996966566025 11.8203672545832  9.17301548137775 11.6711718699993  9.1715829375 11.515625  L 9.1715829375 9.17158293765625  L 11.515625 9.17158293765625  Z M 11.5296870879688 1.91229994203125  C 12.5919057267832 2.52608252154167  13.4741229994678 3.40829978948456  14.0879055846875 4.470518425  C 14.7174544860938 5.54789078390625  15.0311472367188 6.72477945859375  15.0311472367188 8.00010276328125  C 15.0311472367188 9.276507754375  14.7174544860938 10.4523147429687  14.0879055846875 11.5296870879688  C 13.4741230014219 12.5919057285102  12.591905728629 13.474123001357  11.529687088125 14.0879055846875  C 10.4597146689062 14.7147830111359  9.24015320025953 15.0406970759574  8.00010276328125 15.0311472367188  C 6.7236977721875 15.0311472367188  5.54789078359375 14.7174544860938  4.47051843859375 14.0879055846875  C 3.40829979810963 13.4741230014002  2.52608252531857 12.5919057286091  1.91229994203125 11.529687088125  C 1.28542251082883 10.4597146702594  0.959508441287456 9.24015320152694  0.96905827640625 8.00010276328125  C 0.96905827640625 6.7236977721875  1.28275102703125 5.54789078359375  1.91229994203125 4.470518425  C 2.52608252729409 3.4082997894647  3.40829980003449 2.52608252151996  4.47051843890625 1.91229994203125  C 5.54049085663493 1.28542251091052  6.76005232519435 0.959508441372109  8.00010276328125 0.96905827640625  C 9.276507754375 0.96905827640625  10.4523147429687 1.28275102703125  11.5296870879688 1.91229994203125  Z " fill-rule="nonzero" fill="#aaaaaa" stroke="none" transform="matrix(1 0 0 1 2740 172 )" />
  </g>
</svg>