<?xml version="1.0" encoding="utf-8"?>
<svg version="1.1" xmlns:xlink="http://www.w3.org/1999/xlink" width="20px" height="20px" preserveAspectRatio="xMinYMid meet" viewBox="545 1111  20 18" xmlns="http://www.w3.org/2000/svg">
  <path d="M 557 133  L 557 277  A 3 3 0 0 1 560 280 A 3 3 0 0 1 557 283 L 557 1116.5  A 3.5 3.5 0 0 1 553.5 1120 " stroke-width="2" stroke="#0099cc" fill="none" />
  <path d="M 557 131  A 3.5 3.5 0 0 0 553.5 134.5 A 3.5 3.5 0 0 0 557 138 A 3.5 3.5 0 0 0 560.5 134.5 A 3.5 3.5 0 0 0 557 131 Z M 557 1112.4  L 550 1120  L 557 1127.6  L 557 1112.4  Z " fill-rule="nonzero" fill="#0099cc" stroke="none" />
</svg>