<?xml version="1.0" encoding="utf-8"?>
<svg version="1.1" xmlns:xlink="http://www.w3.org/1999/xlink" width="17px" height="17px" xmlns="http://www.w3.org/2000/svg">
  <g transform="matrix(1 0 0 1 -1270 -1248 )">
    <path d="M 12.7173324092742 9.90542711271264  C 12.9032822356027 9.9071243221985  13.0816893666447 9.83200553394648  13.2104214814233 9.69781067168914  C 13.3459024776016 9.56921573190876  13.42201419171 9.39021224871789  13.4206331302955 9.20342399552199  L 13.4206331302955 7.7968225534794  C 13.4219922555437 7.61067877217456  13.3463917339198 7.43224275060453  13.2117190852539 7.30373348151777  C 13.0829002377073 7.16873051266628  12.9039259352618 7.09310094930809  12.7173324092742 7.09481941998173  L 9.90542711271264 7.09481941998173  L 9.90542711271264 4.28291412342017  C 9.90712431758786 4.09696430287066  9.83200552970603 3.91855717874364  9.69781067168914 3.789825067953  C 9.56921573483601 3.65434406567511  9.39021225134657 3.57823234537088  9.20342399570943 3.57961340239888  L 7.7968225534794 3.57961340239888  C 7.61067876976242 3.57825428134745  7.43224274783232 3.65385480895712  7.30373348151777 3.78852746356004  C 7.16873051677577 3.91734630726319  7.09310095377891 4.09632060301806  7.09481941998173 4.28291412342017  L 7.09481941998173 7.09481941998173  L 4.28291413991463 7.09481941998173  C 4.09696431118839 7.09312221484842  3.91855717985806 7.16824100921835  3.789825067953 7.30243587749968  C 3.65434406567511 7.43103081435281  3.57823234537088 7.61003429784225  3.57961340239888 7.7968225534794  L 3.57961340239888 9.20342399552199  C 3.57825428129562 9.38956777930394  3.65385480890947 9.56800380131176  3.78852746356004 9.69651306767106  C 3.91734631407061 9.8315160304743  4.09632061629769 9.90714558764381  4.28291413991463 9.9054271125252  L 7.09481941998173 9.9054271125252  L 7.09481941998173 12.7173324092742  C 7.09312221479662 12.9032822380654  7.1682410091707 13.0816893694734  7.30243587749968 13.2104214814233  C 7.43103081723544 13.3459024775539  7.6100343003485 13.422014191658  7.7968225534794 13.4206331302955  L 9.20342399552199 13.4206331302955  C 9.38956777689181 13.4219922555955  9.56800379853954 13.3463917339675  9.69651306767105 13.2117190852539  C 9.83151603037872 13.0829002348327  9.90714558753984 12.9039259327612  9.9054271125252 12.7173324092742  L 9.9054271125252 9.90542711271264  L 12.7173324092742 9.90542711271264  Z M 12.7342012446399 1.19721464820281  C 14.00843529725 1.93350625063971  15.0667402917003 2.99181123940184  15.803031900986 4.26604528805444  C 16.55823673231 5.55845769440367  16.9345415440477 6.97024955214371  16.9345415440477 8.50012327450069  C 16.9345415440477 10.0312945843813  16.55823673231 11.4417888549726  15.803031900986 12.7342012446399  C 15.0667402940444 14.0084352993217  14.0084352994642 15.0667402939666  12.7342012448274 15.803031900986  C 11.4506657822564 16.5550320395683  9.98768377853713 16.9459975003924  8.50012327450069 16.9345415440477  C 6.96895196462008 16.9345415440477  5.55845769402879 16.55823673231  4.26604530436146 15.803031900986  C 2.99181124974844 15.0667402940184  1.93350625517046 14.0084352994404  1.19721464820281 12.7342012448274  C 0.445214503917647 11.4506657838797  0.0542490374315251 9.98768378005752  0.0657049888341104 8.50012327450069  C 0.0657049888341104 6.96895196462008  0.442009800571762 5.55845769402879  1.19721464820281 4.26604528805444  C 1.93350625754029 2.99181123937802  2.9918112520575 1.93350625061366  4.26604530473633 1.19721464820281  C 5.54958076551973 0.44521450401565  7.01256276913436 0.0542490375330739  8.50012327450069 0.0657049888341104  C 10.0312945843813 0.0657049888341104  11.4417888549726 0.442009800571762  12.7342012446399 1.19721464820281  Z " fill-rule="nonzero" fill="#ffffff" stroke="none" transform="matrix(1 0 0 1 1270 1248 )" />
  </g>
</svg>