<?xml version="1.0" encoding="utf-8"?>
<svg version="1.1" xmlns:xlink="http://www.w3.org/1999/xlink" width="18px" height="18px" xmlns="http://www.w3.org/2000/svg">
  <g transform="matrix(1 0 0 1 -990 -153 )">
    <path d="M 17.6625 11.21396484375  C 16.77111328125 10.87171875  16.1349609375 10.013203125  16.1349609375 9  C 16.1349609375 7.986796875  16.77111328125 7.12828125  17.6625 6.78603515625  C 17.4498046875 5.95072265625  17.12109375 5.16375  16.6918359375 4.4405859375  C 15.8178515625 4.82923828125  14.762109375 4.67068359375  14.0466796875 3.9533203125  C 13.33125 3.237890625  13.1726953125 2.18021484375  13.56134765625 1.3081640625  C 12.83625 0.87890625  12.04927734375 0.5501953125  11.21396484375 0.3375  C 10.86978515625 1.22888671875  10.01126953125 1.8650390625  9 1.8650390625  C 7.986796875 1.8650390625  7.12828125 1.22888671875  6.78603515625 0.3375  C 5.95072265625 0.5501953125  5.16375 0.87890625  4.4405859375 1.3081640625  C 4.82923828125 2.1821484375  4.67068359375 3.237890625  3.95525390625 3.9533203125  C 3.23982421875 4.66875  2.1821484375 4.8273046875  1.31009765625 4.4405859375  C 0.87890625 5.16375  0.5501953125 5.95072265625  0.3375 6.78603515625  C 1.22888671875 7.13021484375  1.8650390625 7.98873046875  1.8650390625 9  C 1.8650390625 10.013203125  1.22888671875 10.87171875  0.3375 11.21396484375  C 0.5501953125 12.04927734375  0.87890625 12.83625  1.3081640625 13.5594140625  C 2.1821484375 13.17076171875  3.237890625 13.32931640625  3.9533203125 14.0466796875  C 4.66875 14.762109375  4.8273046875 15.81978515625  4.43865234375 16.6918359375  C 5.16375 17.12109375  5.95072265625 17.4498046875  6.78603515625 17.6625  C 7.13021484375 16.77111328125  7.98873046875 16.1349609375  9 16.1349609375  C 10.013203125 16.1349609375  10.87171875 16.77111328125  11.21396484375 17.6625  C 12.04927734375 17.4498046875  12.83625 17.12109375  13.5594140625 16.6918359375  C 13.17076171875 15.8178515625  13.32931640625 14.762109375  14.04474609375 14.0466796875  C 14.76017578125 13.33125  15.8178515625 13.1726953125  16.68990234375 13.5594140625  C 17.12109375 12.83625  17.4498046875 12.04927734375  17.6625 11.21396484375  Z M 11.3783203125 9  C 11.3783203125 10.31291015625  10.31291015625 11.3783203125  9 11.3783203125  C 7.68708984375 11.3783203125  6.6216796875 10.31291015625  6.6216796875 9  C 6.6216796875 7.68708984375  7.68708984375 6.6216796875  9 6.6216796875  C 10.31291015625 6.6216796875  11.3783203125 7.68708984375  11.3783203125 9  Z " fill-rule="nonzero" fill="#555555" stroke="none" transform="matrix(1 0 0 1 990 153 )" />
  </g>
</svg>