<?xml version="1.0" encoding="utf-8"?>
<svg version="1.1" xmlns:xlink="http://www.w3.org/1999/xlink" width="28px" height="21px" xmlns="http://www.w3.org/2000/svg">
  <g transform="matrix(1 0 0 1 -1039 -1229 )">
    <path d="M 27.2784778225806 18.1259638247283  C 27.887361391129 17.7364937160326  27.9183215725806 3.19395805027174  27.2750378024194 2.78710088315217  C 26.6351940524194 2.38024371603261  21.8363659274194 4.66142578125  21.8363659274194 4.66142578125  L 21.8363659274194 4.421484375  C 21.8363659274194 2.42892747961956  20.18515625 0.815408457880435  18.1452242943548 1  L 3.93106098790323 1  C 1.89112903225806 0.818885869565217  0.23991935483871 2.43240489130435  0.23991935483871 4.42496178668478  L 0.23991935483871 16.547218919837  C 0.23991935483871 18.5397758152174  1.89112903225806 20.1532948369565  3.93106098790323 20  L 18.1486643145161 20  C 20.1885962701613 20.1532948369565  21.8398059475806 18.5397758152174  21.8398059475806 16.547218919837  L 21.8398059475806 16.2516389266304  C 21.8398059475806 16.2516389266304  26.666154233871 18.5154339334239  27.2784778225806 18.1259638247283  Z M 17.4331401209677 10.468703294837  L 8 16.2794582201087  L 8 4.66142578125  L 17.4331401209677 10.468703294837  Z " fill-rule="nonzero" fill="#000000" stroke="none" transform="matrix(1 0 0 1 1039 1229 )" />
  </g>
</svg>