<?xml version="1.0" encoding="utf-8"?>
<svg version="1.1" xmlns:xlink="http://www.w3.org/1999/xlink" width="21px" height="23px" xmlns="http://www.w3.org/2000/svg">
  <g transform="matrix(1 0 0 1 -1042 -1518 )">
    <path d="M 3.6 0  L 8.2 0  L 8.2 1.53333334082031  L 7.43333334082031 1.53333334082031  C 6.97333334082031 1.53333334082031  6.66666668164063 1.84  6.66666665917969 2.3  C 6.66666663671875 2.76  6.97333331835938 3.06666665917969  7.43333334082031 3.06666665917969  L 8.2 3.06666665917969  L 8.2 4.6  L 7.43333334082031 4.6  C 6.97333334082031 4.6  6.66666668164063 4.90666665917969  6.66666665917969 5.36666665917969  C 6.66666663671875 5.82666665917969  6.97333331835938 6.13333331835937  7.43333334082031 6.13333334082031  L 8.2 6.13333334082031  L 8.2 7.66666665917969  L 7.43333334082031 7.66666665917969  C 6.97333334082031 7.66666665917969  6.66666668164063 7.97333331835937  6.66666665917969 8.43333334082031  C 6.66666663671875 8.89333336328125  6.97333331835938 9.2  7.43333334082031 9.2  L 8.2 9.2  L 8.2 10.7333333408203  L 7.43333334082031 10.7333333408203  C 6.97333334082031 10.7333333408203  6.66666668164063 11.04  6.66666665917969 11.5  C 6.66666663671875 11.96  6.97333331835938 12.2666666591797  7.43333334082031 12.2666666591797  L 8.96666665917969 12.2666666591797  C 9.42666665917969 12.2666666591797  9.73333331835937 11.96  9.73333334082031 11.5  L 9.73333334082031 10.7333333408203  L 10.5 10.7333333408203  C 10.96 10.7333333408203  11.2666666591797 10.4266666816406  11.2666666591797 9.96666665917969  C 11.2666666591797 9.50666663671875  10.96 9.2  10.5 9.2  L 9.73333334082031 9.2  L 9.73333334082031 7.66666665917969  L 10.5 7.66666665917969  C 10.96 7.66666665917969  11.2666666591797 7.36  11.2666666591797 6.9  C 11.2666666591797 6.44  10.96 6.13333334082031  10.5 6.13333334082031  L 9.73333334082031 6.13333334082031  L 9.73333334082031 4.6  L 10.5 4.6  C 10.96 4.6  11.2666666591797 4.29333334082031  11.2666666591797 3.83333334082031  C 11.2666666591797 3.37333334082031  10.96 3.06666665917969  10.5 3.06666665917969  L 9.73333334082031 3.06666665917969  L 9.73333334082031 0  L 14.3333333408203 0  L 20.4666666591797 6.13333334082031  L 20.4666666591797 19.9333333408203  C 20.4666666591797 21.62  19.0866666591797 23  17.4 23  L 3.6 23  C 1.91333334082031 23  0.533333340820313 21.62  0.533333340820313 19.9333333408203  L 0.533333340820313 3.06666665917969  C 0.533333340820312 1.38  1.91333334082031 0  3.6 0  Z M 8.2 16.8666666591797  L 8.2 15.3333333408203  L 9.73333334082031 15.3333333408203  L 9.73333334082031 16.8666666591797  L 8.2 16.8666666591797  Z M 10.5 13.8  L 7.43333334082031 13.8  C 6.97333334082031 13.8  6.66666668164063 14.1066666591797  6.66666665917969 14.5666666591797  L 6.66666665917969 17.6333333408203  C 6.66666665917969 18.0933333408203  6.97333331835938 18.4  7.43333334082031 18.4  L 10.5 18.4  C 10.96 18.4  11.2666666591797 18.0933333408203  11.2666666591797 17.6333333408203  L 11.2666666591797 14.5666666591797  C 11.2666666591797 14.1066666591797  10.96 13.8  10.5 13.8  Z " fill-rule="nonzero" fill="#333333" stroke="none" transform="matrix(1 0 0 1 1042 1518 )" />
  </g>
</svg>