<?xml version="1.0" encoding="utf-8"?>
<svg version="1.1" xmlns:xlink="http://www.w3.org/1999/xlink" width="26px" height="26px" xmlns="http://www.w3.org/2000/svg">
  <defs>
    <mask fill="white" id="clip927">
      <path d="M 0 8  C 0 3.52000000000001  3.51999999999998 0  8 0  C 8.42576793038279 0  8.84286502225109 0.0317930745530361  9.24909379645669 0.0931817445109289  C 13.1172708160484 0.677734729115969  16 3.94576793038277  16 8  C 16 12.48  12.48 16  8 16  C 3.51999999999998 16  0 12.48  0 8  Z " fill-rule="evenodd" />
    </mask>
    <filter x="1299px" y="145px" width="26px" height="26px" filterUnits="userSpaceOnUse" id="filter928">
      <feOffset dx="1" dy="1" in="SourceAlpha" result="shadowOffsetInner" />
      <feGaussianBlur stdDeviation="2.5" in="shadowOffsetInner" result="shadowGaussian" />
      <feComposite in2="shadowGaussian" operator="atop" in="SourceAlpha" result="shadowComposite" />
      <feColorMatrix type="matrix" values="0 0 0 0 0  0 0 0 0 0  0 0 0 0 0  0 0 0 0.698039215686274 0  " in="shadowComposite" />
    </filter>
    <g id="widget929">
      <path d="M 0 8  C 0 3.52000000000001  3.51999999999998 0  8 0  C 8.42576793038279 0  8.84286502225109 0.0317930745530361  9.24909379645669 0.0931817445109289  C 13.1172708160484 0.677734729115969  16 3.94576793038277  16 8  C 16 12.48  12.48 16  8 16  C 3.51999999999998 16  0 12.48  0 8  Z " fill-rule="nonzero" fill="#009dd9" stroke="none" transform="matrix(1 0 0 1 1303 149 )" />
      <path d="M 0 8  C 0 3.52000000000001  3.51999999999998 0  8 0  C 8.42576793038279 0  8.84286502225109 0.0317930745530361  9.24909379645669 0.0931817445109289  C 13.1172708160484 0.677734729115969  16 3.94576793038277  16 8  C 16 12.48  12.48 16  8 16  C 3.51999999999998 16  0 12.48  0 8  Z " stroke-width="2" stroke="#ffffff" fill="none" transform="matrix(1 0 0 1 1303 149 )" mask="url(#clip927)" />
    </g>
  </defs>
  <g transform="matrix(1 0 0 1 -1299 -145 )">
    <use xlink:href="#widget929" filter="url(#filter928)" />
    <use xlink:href="#widget929" />
  </g>
</svg>