<?xml version="1.0" encoding="utf-8"?>
<svg version="1.1" xmlns:xlink="http://www.w3.org/1999/xlink" width="31px" height="29px" xmlns="http://www.w3.org/2000/svg">
  <g transform="matrix(1 0 0 1 -1174 -1376 )">
    <path d="M 8.65416667675781 5.45833332324219  L 13.6270833232422 5.45833332324219  L 9.23541667675781 0.291666676757813  L 4.2625 0.291666676757813  L 8.65416667675781 5.45833332324219  Z M 21.5708333232422 5.45833332324219  L 26.54375 5.45833332324219  L 22.1520833232422 0.291666676757813  L 17.1791666767578 0.291666676757813  L 21.5708333232422 5.45833332324219  Z M 15.1125 5.45833332324219  L 20.0854166767578 5.45833332324219  L 15.69375 0.291666676757813  L 10.7208333232422 0.291666676757813  L 15.1125 5.45833332324219  Z M 30.3541666767578 2.22916667675781  C 30.3541666767578 1.13125  29.5145833535156 0.291666676757813  28.4166666767578 0.291666676757812  L 23.6375 0.291666676757812  L 28.0291666767578 5.45833332324219  L 30.3541666767578 5.45833332324219  L 30.3541666767578 2.22916667675781  Z M 7.16875 5.45833332324219  L 2.77708332324219 0.291666676757812  L 2.58333332324219 0.291666676757812  C 1.48541667675781 0.291666676757812  0.645833323242187 1.13125  0.645833323242187 2.22916667675781  L 0.645833323242187 5.45833332324219  L 7.16875 5.45833332324219  Z M 1 7  L 1 26.7708333232422  C 0.645833323242187 27.86875  1.48541664648437 28.7083333232422  2.58333332324219 28.7083333232422  L 28.4166666767578 28.7083333232422  C 29.5145833535156 28.7083333232422  30.3541666767578 27.86875  30 26.7708333232422  L 30 7  L 1 7  Z M 10.9791666767578 21.6041666767578  L 10.9791666767578 12.5625  C 10.9791666767578 11.4645833232422  11.8833333535156 10.9479166767578  12.9166666767578 10.9479166767578  C 13.2395833535156 10.9479166767578  13.6270833535156 11.0125  13.95 11.20625  L 21.3125 15.46875  C 22.6041666767578 16.1791666767578  22.6041666767578 17.9875  21.3125 18.6979166767578  L 13.95 22.9604166767578  C 13.6270833232422 23.1541666767578  13.3041666767578 23.21875  12.9166666767578 23.21875  C 11.8833333535156 23.21875  10.9791666767578 22.7020833232422  10.9791666767578 21.6041666767578  Z " fill-rule="nonzero" fill="#333333" stroke="none" transform="matrix(1 0 0 1 1174 1376 )" />
  </g>
</svg>