<?xml version="1.0" encoding="utf-8"?>
<svg version="1.1" xmlns:xlink="http://www.w3.org/1999/xlink" width="18px" height="18px" xmlns="http://www.w3.org/2000/svg">
  <g transform="matrix(1 0 0 1 -1072 -1628 )">
    <path d="M 11.7329778180804 0.5878125  L 15.7250076729911 4.57986118861607  L 11.7329778180804 4.57986118861607  L 11.7329778180804 0.5878125  Z M 15.7250076729911 5.07462262834821  L 11.2382163783482 5.07462262834821  L 11.2382163783482 0.5878125  L 2.26399344308036 0.586795479910714  L 2.26399344308036 8.43964076450893  L 15.7250076729911 8.43964076450893  L 15.7250076729911 5.07462262834821  Z M 17.9682149832589 9.56133858816964  L 0.0317850167410714 9.56133858816964  L 0.0317850167410714 17.4131856863839  L 17.9682149832589 17.4131856863839  L 17.9682149832589 9.56133858816964  Z M 11.3402573939732 13.5714488002232  C 11.3402573939732 14.4856745256696  11.0834974888393 15.1857421875  10.5699588448661 15.6716329520089  C 10.1853934151786 16.067724609375  9.6292529296875 16.2657798549107  8.90155622209821 16.2657798549107  C 8.17385951450893 16.2657798549107  7.61771902901786 16.067724609375  7.23315359933036 15.6716329520089  C 6.71731724330357 15.1857421875  6.4593896484375 14.4856745256696  6.4593896484375 13.5714488002232  C 6.4593896484375 12.6388037109375  6.71731724330357 11.9387360491071  7.23315359933036 11.4712646484375  C 7.61771902901786 11.0751729910714  8.17385951450893 10.8771365792411  8.90155622209821 10.8771365792411  C 9.6292529296875 10.8771365792411  10.1853934151786 11.0751729910714  10.5699588448661 11.4712646484375  C 11.0834974888393 11.9387360491071  11.3402573939732 12.6388037109375  11.3402573939732 13.5714488002232  Z M 16.1071247209821 11.7787060546875  C 16.3258970424107 12.094189453125  16.4433440290179 12.4108217075893  16.4594656808036 12.7286216517857  L 15.3955496651786 12.7286216517857  C 15.3264676339286 12.4845179966518  15.2377985491071 12.3002866908482  15.129580078125 12.1759465680804  C 14.9361390904018 11.9548577008929  14.64943359375 11.8443226841518  14.2694635881696 11.8443226841518  C 13.8825816127232 11.8443226841518  13.5774567522321 12.0003410993304  13.3540890066964 12.3123779296875  C 13.1307024274554 12.6244147600446  13.0190185546875 13.0659898158482  13.0190185546875 13.6370842633929  C 13.0190185546875 14.2081975446429  13.1370493861607 14.6359486607143  13.3730922154018 14.9203376116071  C 13.6091162109375 15.2047453962054  13.9090618024554 15.3469398716518  14.27291015625 15.3469398716518  C 14.6459681919643 15.3469398716518  14.9303759765625 15.2248974609375  15.1261146763393 14.9807938058036  C 15.2343519810268 14.8495228794643  15.324169921875 14.6526353236607  15.3955496651786 14.3901123046875  L 16.4490883091518 14.3901123046875  C 16.3569914899554 14.9451039341518  16.121513671875 15.3964536830357  15.7426925223214 15.7441803850446  C 15.3638902064732 16.0919070870536  14.878564453125 16.2657798549107  14.2867340959821 16.2657798549107  C 13.5544231305804 16.2657798549107  12.9787144252232 16.0308858816964  12.5596079799107 15.5610979352679  C 12.1404827008929 15.0890311104911  11.9309388950893 14.441923828125  11.9309388950893 13.6198137555804  C 11.9309388950893 12.7309193638393  12.1692794363839 12.0458244977679  12.6459605189732 11.5645291573661  C 13.0604715401786 11.1454227120536  13.5878152901786 10.9358600725446  14.2280106026786 10.9358600725446  C 15.0846616908482 10.9358600725446  15.7110330636161 11.2168024553571  16.1071247209821 11.7787060546875  Z M 5.44039202008929 15.1742347935268  C 5.0719482421875 15.8074993024554  4.50315150669643 16.124150390625  3.73398297991071 16.124150390625  L 1.54053431919643 16.124150390625  L 1.54053431919643 11.0325711495536  L 3.73398297991071 11.0325711495536  C 4.04948521205357 11.0371854073661  4.31200823102678 11.0740241350446  4.52155203683036 11.143125  C 4.87850725446429 11.2605531529018  5.16751046316964 11.47587890625  5.38858049665179 11.7890645926339  C 5.56589983258929 12.0423779296875  5.68679338727679 12.3164083426339  5.75127999441964 12.6111746651786  C 5.81574776785714 12.9059409877232  5.84799107142857 13.1868833705357  5.84799107142857 13.4540018136161  C 5.84799107142857 14.1310358537946  5.71212472098214 14.7044468470982  5.44039202008929 15.1742347935268  Z M 8.90155622209821 15.3642103794643  C 9.32297921316965 15.3642103794643  9.6574658203125 15.2087758091518  9.90501604352679 14.8978878348214  C 10.1525662667411 14.5869998604911  10.2763413783482 14.1448597935268  10.2763413783482 13.5714488002232  C 10.2763413783482 13.0003543526786  10.1525662667411 12.558779296875  9.90501604352679 12.2467424665179  C 9.6574658203125 11.9347244698661  9.32297921316964 11.7787060546875  8.90155622209821 11.7787060546875  C 8.48013323102679 11.7787060546875  8.14391392299107 11.934140625  7.89291713169643 12.2450285993304  C 7.64190150669643 12.5558977399554  7.51639369419643 12.998056640625  7.51639369419643 13.5714488002232  C 7.51639369419643 14.1448597935268  7.64190150669643 14.5869998604911  7.89291713169643 14.8978878348214  C 8.14391392299107 15.2087758091518  8.48013323102679 15.3642103794643  8.90155622209821 15.3642103794643  Z M 3.55436593191964 11.9168701171875  L 2.57335588727679 11.9168701171875  L 2.57335588727679 15.2398514229911  L 3.55436593191964 15.2398514229911  C 4.05639718191964 15.2398514229911  4.40642159598214 14.9923011997768  4.6044580078125 14.4972007533482  C 4.7126953125 14.2254680524554  4.76680454799107 13.9019049944196  4.76680454799107 13.5265492466518  C 4.76680454799107 13.0084151785714  4.68563127790179 12.6105908203125  4.52328473772321 12.3331138392857  C 4.36093819754464 12.0556180245536  4.037958984375 11.9168701171875  3.55436593191964 11.9168701171875  Z " fill-rule="nonzero" fill="#000000" stroke="none" transform="matrix(1 0 0 1 1072 1628 )" />
  </g>
</svg>