<?xml version="1.0" encoding="utf-8"?>
<svg version="1.1" xmlns:xlink="http://www.w3.org/1999/xlink" width="22px" height="22px" xmlns="http://www.w3.org/2000/svg">
  <g transform="matrix(1 0 0 1 -1306 -1628 )">
    <path d="M 7.85498832421875 3.75795610351563  L 7.85498832421875 2.08440677929688  L 14.1377785957031 2.08440677929688  L 14.1377785957031 3.75795610351563  L 7.85498832421875 3.75795610351563  Z M 7.85498832421875 1.3201169609375  L 7.85498832421875 0.447132833984375  L 14.1377785957031 0.447132833984375  L 14.1377785957031 1.3201169609375  L 7.85498832421875 1.3201169609375  Z M 21.9995163222656 14.4192097714844  L 20.1179660214844 14.4192097714844  L 19.3717479570312 18.5862645117187  L 2.61961190820313 18.5862645117187  L 1.87411934960937 14.4192097714844  L 0.01066278125 14.4192097714844  L 0.01066278125 21  L 21.9995163222656 21  L 21.9995163222656 14.4192097714844  Z M 10.9779049746094 16.4028148925781  L 19.6563450058594 6.9962945078125  L 14.1377785957031 6.9962945078125  L 14.1377785957031 4.5953903359375  L 7.85498832421875 4.5953903359375  L 7.85498832421875 7.01511374609375  L 2.40622458398437 7.01511374609375  L 10.9779049746094 16.4028148925781  Z " fill-rule="nonzero" fill="#aaaaaa" stroke="none" transform="matrix(1 0 0 1 1306 1628 )" />
  </g>
</svg>