<?xml version="1.0" encoding="utf-8"?>
<svg version="1.1" xmlns:xlink="http://www.w3.org/1999/xlink" width="19px" height="17px" xmlns="http://www.w3.org/2000/svg">
  <g transform="matrix(1 0 0 1 -1071 -1756 )">
    <path d="M 12.1924892578125 0.2124375  L 16.1253779296875 4.1453447265625  L 12.1924892578125 4.1453447265625  L 12.1924892578125 0.2124375  Z M 16.1253779296875 4.6327763671875  L 11.7050576171875 4.6327763671875  L 11.7050576171875 0.2124375  L 2.8637861328125 0.211435546875  L 2.8637861328125 8  L 16.1253779296875 8  L 16.1253779296875 4.6327763671875  Z M 5.7002412109375 11.5644365234375  C 5.6432041015625 11.460474609375  5.5676865234375 11.3800029296875  5.4737255859375 11.3230400390625  C 5.3796533203125 11.2661884765625  5.2706630859375 11.227798828125  5.1469775390625 11.207982421875  C 5.0232177734375 11.188240234375  4.894578125 11.178294921875  4.7608544921875 11.178294921875  L 3.85499609375 11.178294921875  L 3.85499609375 12.7673369140625  L 4.760873046875 12.7673369140625  C 4.894578125 12.7673369140625  5.023236328125 12.7574658203125  5.14699609375 12.7376494140625  C 5.2706630859375 12.717888671875  5.379671875 12.679517578125  5.4737255859375 12.6225732421875  C 5.5676865234375 12.565740234375  5.6432041015625 12.4851572265625  5.7002412109375 12.381232421875  C 5.757111328125 12.2772890625  5.7855927734375 12.1411904296875  5.7855927734375 11.9728251953125  C 5.7855927734375 11.8045341796875  5.757111328125 11.6683798828125  5.7002412109375 11.5644365234375  Z M 0.6646474609375 9  L 0.66462890625 9.0530224609375  L 0.66462890625 16.7885458984375  L 18.335333984375 16.7885458984375  L 18.335333984375 9  L 0.6646474609375 9  Z M 6.8140419921875 12.6002890625  C 6.7472451171875 12.8057080078125  6.640685546875 12.9876923828125  6.494734375 13.1460380859375  C 6.348634765625 13.3045322265625  6.159302734375 13.4319287109375  5.9266455078125 13.5284501953125  C 5.6938955078125 13.6250458984375  5.41180859375 13.673306640625  5.080162109375 13.673306640625  L 3.854884765625 13.673306640625  L 3.854884765625 15.574234375  L 2.6890751953125 15.574234375  L 2.6890751953125 10.2722880859375  L 5.080162109375 10.2722880859375  C 5.41180859375 10.2722880859375  5.6938955078125 10.3205302734375  5.926626953125 10.4170517578125  C 6.1593212890625 10.513666015625  6.3486533203125 10.6411181640625  6.494734375 10.799556640625  C 6.640685546875 10.9579765625  6.74715234375 11.1386806640625  6.814060546875 11.341576171875  C 6.880857421875 11.5446201171875  6.9142744140625 11.7549375  6.9142744140625 11.97276953125  C 6.9142744140625 12.1857216796875  6.8808759765625 12.39492578125  6.8140419921875 12.6002705078125  Z M 12.1144111328125 12.8936201171875  C 12.1144111328125 13.2797431640625  12.0648701171875 13.6361787109375  11.96591796875 13.9628154296875  C 11.8667802734375 14.2895634765625  11.71713671875 14.5717431640625  11.516671875 14.80941015625  C 11.3161513671875 15.0469658203125  11.0661083984375 15.2339228515625  10.7666357421875 15.3700029296875  C 10.4670517578125 15.50625  10.114345703125 15.574234375  9.7084619140625 15.574234375  L 7.4214111328125 15.574234375  L 7.4214111328125 10.272306640625  L 9.7084619140625 10.272306640625  C 10.0500537109375 10.272306640625  10.3681181640625 10.3268759765625  10.6626923828125 10.435736328125  C 10.9572109375 10.5446337890625  11.2122451171875 10.7079521484375  11.4275166015625 10.925802734375  C 11.6428994140625 11.143708984375  11.8111162109375 11.4158505859375  11.93251953125 11.742580078125  C 12.0537744140625 12.069328125  12.1144111328125 12.453001953125  12.1144111328125 12.8936201171875  Z M 16.518533203125 11.2525322265625  L 13.9566875 11.2525322265625  L 13.9566875 12.4776982421875  L 16.17694140625 12.4776982421875  L 16.17694140625 13.383705078125  L 13.9566875 13.383705078125  L 13.9566875 15.574234375  L 12.790896484375 15.574234375  L 12.790896484375 10.272306640625  L 16.518533203125 10.272306640625  L 16.518533203125 11.2525322265625  Z M 10.870634765625 12.280962890625  C 10.818681640625 12.0655986328125  10.73321875 11.8812578125  10.614431640625 11.727736328125  C 10.49564453125 11.57436328125  10.3383935546875 11.456763671875  10.142919921875 11.37501171875  C 9.947279296875 11.293333984375  9.7059384765625 11.252513671875  9.4189345703125 11.252513671875  L 8.587220703125 11.252513671875  L 8.587220703125 14.593990234375  L 9.6268212890625 14.593990234375  C 9.7951123046875 14.593990234375  9.9584306640625 14.5668447265625  10.116943359375 14.5123310546875  C 10.2753076171875 14.4579287109375  10.416416015625 14.3675673828125  10.540212890625 14.241265625  C 10.6638798828125 14.11509375  10.7629990234375 13.9505693359375  10.8372177734375 13.747525390625  C 10.9114921875 13.544537109375  10.9486015625 13.2971103515625  10.9486015625 13.0049482421875  C 10.9486015625 12.7376123046875  10.922625 12.4962529296875  10.870634765625 12.280962890625  Z " fill-rule="nonzero" fill="#000000" stroke="none" transform="matrix(1 0 0 1 1071 1756 )" />
  </g>
</svg>