<?xml version="1.0" encoding="utf-8"?>
<svg version="1.1" xmlns:xlink="http://www.w3.org/1999/xlink" width="9px" height="9px" xmlns="http://www.w3.org/2000/svg">
  <g transform="matrix(1 0 0 1 -511 -388 )">
    <path d="M 8.85764498730469 8.85588751757813  C 9.0456941953125 8.66783830957031  9.0456941953125 8.36028118652344  8.85588751757813 8.17223198730469  L 5.20913883691406 4.52372583691406  L 8.85588751757813 0.87697715625  C 8.95079085644531 0.782073817382813  8.99824253027344 0.659050971679688  8.99824253027344 0.534270647460938  C 8.99824253027344 0.411247801757813  8.95079085644531 0.286467486328125  8.85588751757813 0.191564147460938  C 8.66608083984375 0.00175746972656252  8.36028118652344 0.00175746972656252  8.17047451757812 0.191564147460938  L 4.52372583691406 3.84007029785156  L 0.87697715625 0.191564147460938  C 0.687170478515625 0.0017574697265625  0.381370825195313 0.0017574697265625  0.191564147460938 0.191564147460938  C 0.00175746972656252 0.381370825195313  0.00175746972656252 0.687170478515625  0.191564147460938 0.87697715625  L 3.84007029785156 4.52372583691406  L 0.191564147460938 8.17223198730469  C 0.00175746972656252 8.36203866503906  0.00175746972656252 8.66783831835938  0.191564147460938 8.85764498730469  C 0.381370825195313 9.04745165625  0.687170478515625 9.04745166503906  0.87697715625 8.85764498730469  L 4.52372583691406 5.20913883691406  L 8.17223198730469 8.85588751757813  C 8.26713532617188 8.95079085644531  8.390158171875 8.99824253027344  8.51493848730469 8.99824253027344  C 8.63796133300781 8.99824253027344  8.7627416484375 8.95079085644531  8.85764498730469 8.85588751757813  Z " fill-rule="nonzero" fill="#aaaaaa" stroke="none" transform="matrix(1 0 0 1 511 388 )" />
  </g>
</svg>