<?xml version="1.0" encoding="utf-8"?>
<svg version="1.1" xmlns:xlink="http://www.w3.org/1999/xlink" width="10px" height="10px" xmlns="http://www.w3.org/2000/svg">
  <g transform="matrix(1 0 0 1 -1723 -915 )">
    <path d="M 9.84182776367188 9.83987501953125  C 10.050771328125 9.63093145507812  10.050771328125 9.28920131835937  9.83987501953125 9.08025776367188  L 5.78793204101563 5.02636204101563  L 9.83987501953125 0.9744190625  C 9.94532317382813 0.868970908203125  9.99804725585937 0.732278857421875  9.99804725585937 0.593634052734375  C 9.99804725585937 0.456942001953125  9.94532317382813 0.31829720703125  9.83987501953125 0.212849052734375  C 9.6289787109375 0.00195274414062502  9.28920131835937 0.00195274414062502  9.07830501953125 0.212849052734375  L 5.02636204101563 4.26674477539063  L 0.9744190625 0.212849052734375  C 0.76352275390625 0.001952744140625  0.423745361328125 0.001952744140625  0.212849052734375 0.212849052734375  C 0.00195274414062502 0.423745361328125  0.00195274414062502 0.76352275390625  0.212849052734375 0.9744190625  L 4.26674477539063 5.02636204101563  L 0.212849052734375 9.08025776367188  C 0.00195274414062502 9.29115407226563  0.00195274414062502 9.63093146484375  0.212849052734375 9.84182776367188  C 0.423745361328125 10.0527240625  0.76352275390625 10.0527240722656  0.9744190625 9.84182776367188  L 5.02636204101563 5.78793204101563  L 9.08025776367188 9.83987501953125  C 9.18570591796875 9.94532317382813  9.32239796875 9.99804725585937  9.46104276367188 9.99804725585937  C 9.59773481445312 9.99804725585937  9.736379609375 9.94532317382813  9.84182776367188 9.83987501953125  Z " fill-rule="nonzero" fill="#aaaaaa" stroke="none" transform="matrix(1 0 0 1 1723 915 )" />
  </g>
</svg>