<?xml version="1.0" encoding="utf-8"?>
<svg version="1.1" xmlns:xlink="http://www.w3.org/1999/xlink" width="10px" height="586px" preserveAspectRatio="xMidYMin meet" viewBox="1500 245  8 586" xmlns="http://www.w3.org/2000/svg">
  <path d="M 1324 253  L 1338.5 253  A 1.5 1.5 0 0 0 1340 251.5 A 1.5 1.5 0 0 1 1341.5 250 L 1499 250  A 5 5 0 0 1 1504 255 L 1504 825  " stroke-width="2" stroke="#0099cc" fill="none" />
  <path d="M 1325.5 249.5  A 3.5 3.5 0 0 0 1322 253 A 3.5 3.5 0 0 0 1325.5 256.5 A 3.5 3.5 0 0 0 1329 253 A 3.5 3.5 0 0 0 1325.5 249.5 Z M 1496.4 824  L 1504 831  L 1511.6 824  L 1496.4 824  Z " fill-rule="nonzero" fill="#0099cc" stroke="none" />
</svg>