<?xml version="1.0" encoding="utf-8"?>
<svg version="1.1" xmlns:xlink="http://www.w3.org/1999/xlink" width="15px" height="12px" xmlns="http://www.w3.org/2000/svg">
  <g transform="matrix(1 0 0 1 -1307 -247 )">
    <path d="M 11.4111328125 7.5521484375  C 11.518359375 7.5943359375  11.567578125 7.6716796875  11.567578125 7.782421875  L 11.567578125 9.280078125  C 11.567578125 9.905859375  11.34609375 10.440234375  10.9013671875 10.8849609375  C 10.456640625 11.3296875  9.922265625 11.551171875  9.296484375 11.551171875  L 2.73984375 11.551171875  C 2.1140625 11.551171875  1.5796875 11.3296875  1.1349609375 10.8849609375  C 0.690234375 10.440234375  0.46875 9.905859375  0.46875 9.280078125  L 0.46875 2.7216796875  C 0.46875 2.0958984375  0.690234375 1.5615234375  1.1349609375 1.116796875  C 1.5796875 0.6720703125  2.1140625 0.4505859375  2.73984375 0.4505859375  L 9.2982421875 0.4505859375  C 9.63046875 0.4505859375  9.936328125 0.5173828125  10.2193359375 0.647460937499999  C 10.2984375 0.684375  10.3458984375 0.744140624999999  10.36171875 0.828515625  C 10.3775390625 0.9181640625  10.3529296875 0.993749999999999  10.2896484375 1.05703125  L 9.9046875 1.44375  C 9.8326171875 1.5158203125  9.7482421875 1.5369140625  9.6515625 1.50703125  C 9.5302734375 1.4771484375  9.4142578125 1.4578125  9.296484375 1.4578125  L 2.73984375 1.4578125  C 2.3935546875 1.4578125  2.096484375 1.5826171875  1.8486328125 1.826953125  C 1.6025390625 2.0765625  1.4794921875 2.371875  1.4794921875 2.719921875  L 1.4794921875 9.2783203125  C 1.4794921875 9.624609375  1.6025390625 9.9216796875  1.8486328125 10.16953125  C 2.0947265625 10.415625  2.3935546875 10.538671875  2.73984375 10.538671875  L 9.2982421875 10.538671875  C 9.64453125 10.538671875  9.9416015625 10.415625  10.189453125 10.16953125  C 10.435546875 9.9234375  10.55859375 9.624609375  10.55859375 9.2783203125  L 10.55859375 8.28515625  C 10.55859375 8.2166015625  10.5814453125 8.15859375  10.6306640625 8.1111328125  L 11.13515625 7.606640625  C 11.2142578125 7.5275390625  11.3056640625 7.5099609375  11.4111328125 7.5521484375  Z M 5.5154296875 7.262109375  L 10.8134765625 1.9640625  L 13.0828125 4.2333984375  L 7.784765625 9.5314453125  L 5.5154296875 9.5314453125  L 5.5154296875 7.262109375  Z M 7.0271484375 8.773828125  L 7.4701171875 8.7755859375  L 8.3859375 7.859765625  L 7.187109375 6.6626953125  L 6.2712890625 7.578515625  L 6.2712890625 8.01796875  L 7.0271484375 8.01796875  L 7.0271484375 8.773828125  Z M 10.9294921875 3.35625  C 11.0208984375 3.2701171875  11.0244140625 3.1822265625  10.93828125 3.0978515625  C 10.85390625 3.0134765625  10.7677734375 3.0169921875  10.678125 3.106640625  L 7.918359375 5.8646484375  C 7.8287109375 5.954296875  7.826953125 6.0404296875  7.9095703125 6.1248046875  C 7.9939453125 6.2091796875  8.080078125 6.2056640625  8.1697265625 6.116015625  L 10.9294921875 3.35625  Z M 14.5330078125 2.4703125  C 14.5330078125 2.6794921875  14.4591796875 2.8587890625  14.31328125 3.0046875  L 13.5890625 3.72890625  L 11.31796875 1.4595703125  L 12.0421875 0.735351562499999  C 12.18984375 0.587695312499999  12.369140625 0.515624999999999  12.5783203125 0.515624999999999  C 12.7892578125 0.515624999999999  12.966796875 0.587695312499999  13.114453125 0.735351562499999  L 14.31328125 1.9341796875  C 14.4609375 2.0818359375  14.5330078125 2.2611328125  14.5330078125 2.4703125  Z " fill-rule="nonzero" fill="#000000" stroke="none" transform="matrix(1 0 0 1 1307 247 )" />
  </g>
</svg>